<?xml version="1.0" encoding="UTF-8"?>
<svg width="24px" height="24px" viewBox="0 0 24 24" version="1.1" xmlns="http://www.w3.org/2000/svg" xmlns:xlink="http://www.w3.org/1999/xlink">
    <title>icon/user_file/families/default@svg</title>
    <g id="icon/user_file/families/default" stroke="none" stroke-width="1" fill="none" fill-rule="evenodd">
        <path d="M12.25,16.5 L15.1,19.25 L17.85,16.5 L19.45,16.5 C21.4,16.5 23.1,17.9 23.4,19.85 L23.4,19.85 L23.5,20.5 L6.59999998,20.5 L6.69999998,19.85 C6.99999998,17.9 8.69999999,16.5 10.65,16.5 L10.65,16.5 L12.25,16.5 Z M6.84999998,16.5 C6.39999998,16.95 6.04999998,17.45 5.74999997,18 L5.74999997,18 L4.49999997,18 C3.54999996,18 2.74999996,18.65 2.59999996,19.6 L2.59999996,19.6 L2.44999995,20.5 L0.949999954,20.5 L1.14999995,19.35 C1.39999996,17.7 2.84999996,16.5 4.49999997,16.5 L4.49999997,16.5 Z M15.05,4.74999997 C18,4.74999997 20.1,6.89999998 20.1,9.79999999 C20.1,12.6 18.05,15.65 15.05,15.65 C12,15.65 9.99999999,12.6 9.99999999,9.79999999 C9.99999999,6.84999998 12.1,4.74999997 15.05,4.74999997 Z M8.04999998,5.89999997 C8.59999999,5.89999997 9.09999999,5.99999997 9.54999999,6.14999998 C9.29999999,6.54999998 9.04999999,6.99999998 8.89999999,7.49999998 C8.64999999,7.44999998 8.34999998,7.39999997 8.04999998,7.39999997 C6.34999998,7.39999997 5.19999997,8.59999999 5.19999997,10.25 C5.19999997,11.95 6.34999998,13.75 8.04999998,13.75 C8.54999999,13.75 8.94999999,13.6 9.34999999,13.35 C9.59999999,13.8 9.84999999,14.2 10.15,14.6 C9.54999999,15 8.84999999,15.25 8.04999998,15.25 C5.44999997,15.25 3.69999997,12.65 3.69999997,10.25 C3.69999997,7.74999998 5.59999997,5.89999997 8.04999998,5.89999997 Z M15.05,6.24999998 C12.95,6.24999998 11.5,7.69999998 11.5,9.79999999 C11.5,11.9 12.95,14.15 15.05,14.15 C17.2,14.15 18.6,11.9 18.6,9.79999999 C18.6,7.69999998 17.15,6.24999998 15.05,6.24999998 Z" id="Combined-Shape" fill="#262626"></path>
    </g>
</svg>