<?xml version="1.0" encoding="UTF-8"?>
<svg width="24px" height="24px" viewBox="0 0 24 24" version="1.1" xmlns="http://www.w3.org/2000/svg" xmlns:xlink="http://www.w3.org/1999/xlink">
    <title>/svg/icon/alert/information/default</title>
    <g id="icon/alert/information/default" stroke="none" stroke-width="1" fill="none" fill-rule="evenodd">
        <path d="M12,0.999999954 C18.1,0.999999954 23,5.89999997 23,12 C23,18.1 18.1,23 12,23 C5.89999997,23 0.999999954,18.1 0.999999954,12 C0.999999954,5.89999997 5.89999997,0.999999954 12,0.999999954 Z M12,2.49999996 C6.74999998,2.49999996 2.49999996,6.74999998 2.49999996,12 C2.49999996,17.25 6.74999998,21.5 12,21.5 C17.25,21.5 21.5,17.25 21.5,12 C21.5,6.74999998 17.25,2.49999996 12,2.49999996 Z M13,10.5 L13,17 L11,17 L11,10.5 L13,10.5 Z M12,6.49999998 C12.6903559,6.49999998 13.25,7.05964404 13.25,7.74999998 C13.25,8.44035592 12.6903559,8.99999998 12,8.99999998 C11.3096441,8.99999998 10.75,8.44035592 10.75,7.74999998 C10.75,7.05964404 11.3096441,6.49999998 12,6.49999998 Z" id="Icon" fill="#000000"></path>
    </g>
</svg>