<?xml version="1.0" encoding="UTF-8"?>
<svg width="24px" height="24px" viewBox="0 0 24 24" version="1.1" xmlns="http://www.w3.org/2000/svg" xmlns:xlink="http://www.w3.org/1999/xlink">
    <title>/svg/icon/content/todo-list/default</title>
    <g id="icon/content/todo-list/default" stroke="none" stroke-width="1" fill="none" fill-rule="evenodd">
        <path d="M20.8047,16.8574 L17.0607,20.6014 L14.7087,18.2014 C14.4207,17.9134 14.4207,17.4814 14.7087,17.1934 C14.9967,16.9054 15.4287,16.9054 15.7167,17.1934 L17.0607,18.5374 L19.7487,15.8494 C20.0367,15.5614 20.4687,15.5614 20.7567,15.8494 C21.0447,16.1374 21.0927,16.5694 20.8047,16.8574 L20.8047,16.8574 Z M17.8047,12.1334 C14.6637,12.1334 12.1177,14.6794 12.1177,17.8214 C12.1177,20.9614 14.6637,23.5084 17.8047,23.5084 C20.9467,23.5084 23.4927,20.9614 23.4927,17.8214 C23.4927,14.6794 20.9467,12.1334 17.8047,12.1334 L17.8047,12.1334 Z M5.7547,18.0004 C6.1687,18.0004 6.5047,17.6644 6.5047,17.2504 C6.5047,16.8364 6.1687,16.5004 5.7547,16.5004 C5.3407,16.5004 5.0047,16.8364 5.0047,17.2504 C5.0047,17.6644 5.3407,18.0004 5.7547,18.0004 L5.7547,18.0004 Z M5.7547,12.0134 C6.1687,12.0134 6.5047,11.6774 6.5047,11.2634 C6.5047,10.8494 6.1687,10.5134 5.7547,10.5134 C5.3407,10.5134 5.0047,10.8494 5.0047,11.2634 C5.0047,11.6774 5.3407,12.0134 5.7547,12.0134 L5.7547,12.0134 Z M11.9997,22.0414 L3.4257,22.0414 C2.5937,22.0414 1.9567,21.4044 1.9567,20.5714 L1.9567,4.9484 L3.9157,4.9484 L3.9157,3.9684 C3.9157,3.8214 3.9157,3.6264 3.9647,3.4784 L0.4877,3.4784 L0.4877,20.5714 C0.4877,22.1874 1.8097,23.5094 3.4257,23.5094 L13.4297,23.5094 C12.8857,23.0904 12.4047,22.5964 11.9997,22.0414 L11.9997,22.0414 Z M13.2217,3.9184 C13.2217,3.0864 12.5847,2.4494 11.7527,2.4494 L10.7727,2.4494 L10.7727,2.0074 C10.7727,1.2734 10.2837,0.6364 9.5967,0.4904 C8.6667,0.3424 7.8337,1.0774 7.8337,1.9594 L7.8337,2.4494 L6.8547,2.4494 C6.0217,2.4494 5.3857,3.0864 5.3857,3.9184 L5.3857,5.8784 L13.2217,5.8784 L13.2217,3.9184 Z M14.6917,4.9484 L16.6507,4.9484 L16.6507,10.7354 C17.0277,10.6734 17.4107,10.6334 17.8047,10.6334 C17.9107,10.6334 18.0147,10.6444 18.1197,10.6494 L18.1197,3.4784 L14.6417,3.4784 C14.6917,3.6264 14.6917,3.8214 14.6917,3.9684 L14.6917,4.9484 Z M8.7387,16.5304 C8.3467,16.5304 8.0037,16.8734 8.0037,17.2654 C8.0037,17.6574 8.3467,18.0004 8.7387,18.0004 L10.6267,18.0004 C10.6247,17.9394 10.6177,17.8814 10.6177,17.8214 C10.6177,17.3794 10.6637,16.9504 10.7397,16.5304 L8.7387,16.5304 Z M8.7387,10.5234 C8.3467,10.5234 8.0037,10.8664 8.0037,11.2574 C8.0037,11.6504 8.3467,11.9934 8.7387,11.9934 L13.2217,11.9934 C13.6137,11.9934 13.9567,11.6504 13.9567,11.2574 C13.9567,10.8664 13.6137,10.5234 13.2217,10.5234 L8.7387,10.5234 Z" id="Icon" fill="#000000"></path>
    </g>
</svg>