<?xml version="1.0" encoding="UTF-8"?>
<svg width="24px" height="24px" viewBox="0 0 24 24" version="1.1" xmlns="http://www.w3.org/2000/svg" xmlns:xlink="http://www.w3.org/1999/xlink">
    <title>01_24px/icon/alert/error/default</title>
    <g id="icon/alert/error/default" stroke="none" stroke-width="1" fill="none" fill-rule="evenodd">
        <path d="M11.95,1.79999996 C12.8875,1.79999996 13.825,2.23945308 14.4329102,3.11835933 L14.55,3.29999996 L23.05,18 C24.2207318,19.9512195 22.8691553,22.3783463 20.6667496,22.4955819 L20.5,22.5 L3.54999996,22.5 C1.30749996,22.5 -0.126968801,20.1234375 0.86859761,18.1508907 L0.949999954,18 L9.34999999,3.29999996 C9.94999999,2.29999996 10.95,1.79999996 11.95,1.79999996 Z M12.0551407,3.30084441 L11.9448593,3.30084441 C11.6860148,3.30888543 11.1624351,3.38372883 10.7897792,3.90905998 L10.7,4.04999997 L2.19999996,18.75 C1.85714281,19.35 1.99183669,19.839796 2.13177838,20.1249271 L2.19999996,20.25 L2.19999996,20.25 L2.27725943,20.3702624 C2.44402328,20.6107872 2.75630463,20.9395044 3.33536804,20.9926203 L3.49999996,21 L20.5,21 C21.25,21 21.65,20.5 21.75,20.25 L21.8183674,20.1249271 C21.947449,19.8635569 22.0765307,19.4302114 21.8660715,18.8976494 L21.8,18.75 L13.3,4.04999997 C12.98,3.48999996 12.5,3.34599996 12.1928,3.31079996 L12.0551407,3.30084441 L12.0551407,3.30084441 Z M12,16.5 C12.6903559,16.5 13.25,17.0596441 13.25,17.75 C13.25,18.440356 12.6903559,19 12,19 C11.3096441,19 10.75,18.440356 10.75,17.75 C10.75,17.0596441 11.3096441,16.5 12,16.5 Z M13,8.49999999 L13,15 L11,15 L11,8.49999999 L13,8.49999999 Z" id="Shape" fill="#000000"></path>
    </g>
</svg>