<?xml version="1.0" encoding="UTF-8"?>
<svg width="24px" height="24px" viewBox="0 0 24 24" version="1.1" xmlns="http://www.w3.org/2000/svg" xmlns:xlink="http://www.w3.org/1999/xlink">
    <title>/svg/icon/content/smile/default</title>
    <g id="icon/content/smile/default" stroke="none" stroke-width="1" fill="none" fill-rule="evenodd">
        <path d="M12,0.999999954 C18.1,0.999999954 23,5.89999997 23,12 C23,18.1 18.1,23 12,23 C5.89999997,23 0.999999954,18.1 0.999999954,12 C0.999999954,5.89999997 5.94999997,0.999999954 12,0.999999954 Z M12,2.49999996 C6.74999998,2.49999996 2.49999996,6.74999998 2.49999996,12 C2.49999996,17.25 6.74999998,21.5 12,21.5 C17.25,21.5 21.5,17.25 21.5,12 C21.5,6.74999998 17.25,2.49999996 12,2.49999996 Z M6.94999998,15.35 C7.29999998,15.1 7.74999998,15.2 7.99999998,15.55 C8.99999999,17.1 10.5,18 12,18 C13.5,18 15,17.1 16,15.55 C16.25,15.2 16.7,15.1 17.05,15.35 C17.4,15.55 17.5,16 17.25,16.4 C15.95,18.4 14,19.55 12,19.55 C9.99999999,19.55 8.04999998,18.4 6.74999998,16.4 C6.49999998,16.05 6.59999998,15.6 6.94999998,15.35 Z M8.49999998,7.49999998 C9.32842711,7.49999998 9.99999998,8.17157286 9.99999998,8.99999998 C9.99999998,9.82842712 9.32842711,10.5 8.49999998,10.5 C7.67157286,10.5 6.99999998,9.82842712 6.99999998,8.99999998 C6.99999998,8.17157286 7.67157286,7.49999998 8.49999998,7.49999998 Z M15.5,7.49999998 C16.3284271,7.49999998 17,8.17157286 17,8.99999998 C17,9.82842712 16.3284271,10.5 15.5,10.5 C14.6715729,10.5 14,9.82842712 14,8.99999998 C14,8.17157286 14.6715729,7.49999998 15.5,7.49999998 Z" id="Icon" fill="#000000"></path>
    </g>
</svg>