<?xml version="1.0" encoding="UTF-8"?>
<svg width="24px" height="24px" viewBox="0 0 24 24" version="1.1" xmlns="http://www.w3.org/2000/svg" xmlns:xlink="http://www.w3.org/1999/xlink">
    <title>/svg/icon/user_file/image-file/default</title>
    <g id="icon/user_file/image-file/default" stroke="none" stroke-width="1" fill="none" fill-rule="evenodd">
        <path d="M21,0.999999954 L21,18 L16,23 L5.99999996,23 C4.40410711,23 3.0964668,21.7493559 3.0050995,20.176088 L2.99999996,20 L2.99999996,0.999999954 L21,0.999999954 Z M19.5,2.49999996 L4.49999997,2.49999996 L4.49999997,20 C4.49999997,20.7764706 5.09792385,21.4200692 5.85607569,21.4930999 L5.99999997,21.5 L15,21.5 L15,18.5 C15,17.7188235 15.5934948,17.0793771 16.3552941,17.0068512 L16.5,17 L19.5,17 L19.5,2.49999996 Z M13.5,8.99999999 L17.77,14.5 L6.22999998,14.5 L9.35999999,10.465 L10.86,12.4 L13.5,8.99999999 Z M7.74999998,6.99999998 C8.44035592,6.99999998 8.99999998,7.55964404 8.99999998,8.24999998 C8.99999998,8.94035592 8.44035592,9.49999998 7.74999998,9.49999998 C7.05964404,9.49999998 6.49999998,8.94035592 6.49999998,8.24999998 C6.49999998,7.55964404 7.05964404,6.99999998 7.74999998,6.99999998 Z" id="Icon" fill="#000000"></path>
    </g>
</svg>