<svg id="Ebene_1" data-name="Ebene 1" xmlns="http://www.w3.org/2000/svg" viewBox="0 0 24 24"><defs></defs><path class="cls-1" d="M7.5,18.75v-1.5H21.25a.75.75,0,0,1,0,1.5Z"/><path class="cls-1" d="M7.5,12.75v-1.5H21.25a.75.75,0,0,1,0,1.5Z"/><path class="cls-1" d="M7.5,6.75V5.25H21.25a.75.75,0,0,1,0,1.5Z"/><path class="cls-1" d="M4.65,4V8H3.88V5.05h0l-1,.87V5L4,4Z"/><path class="cls-1" d="M2.53,13.16,3.87,11.9a1,1,0,0,0,.36-.69.49.49,0,0,0-.48-.51.49.49,0,0,0-.53.46h-.8A1.24,1.24,0,0,1,3.75,10,1.21,1.21,0,0,1,5,11.21a1.55,1.55,0,0,1-.61,1.22l-1,.86v0H5v.72H2.53Z"/><path class="cls-1" d="M5.09,18.75a1.26,1.26,0,0,1-1.38,1.3A1.23,1.23,0,0,1,2.36,18.9h.82a.48.48,0,0,0,.53.4.53.53,0,0,0,.57-.54c0-.32-.2-.54-.64-.54H3.16v-.7l1-.81v0H2.46V16H5v.89l-.85.7v0A1.13,1.13,0,0,1,5.09,18.75Z"/></svg>