<svg id="Ebene_1" data-name="Ebene 1" xmlns="http://www.w3.org/2000/svg" viewBox="0 0 24 24"><defs></defs><path class="cls-1" d="M7.47,15H9.23a2.43,2.43,0,0,0,2.64,2.26,2.11,2.11,0,0,0,2.4-2.1c0-1.22-.72-1.8-2-2.22l-1.58-.5A3.63,3.63,0,0,1,7.77,8.88a3.79,3.79,0,0,1,4.06-3.82A3.9,3.9,0,0,1,16,8.82H14.27a2.24,2.24,0,0,0-2.44-2.1A2.06,2.06,0,0,0,9.57,8.78c0,1.06.66,1.68,1.84,2.06l1.6.48a3.81,3.81,0,0,1,3,3.76c0,2.4-1.74,3.86-4.18,3.86A4,4,0,0,1,7.47,15Z"/><rect class="cls-1" x="6.01" y="11.25" width="11.97" height="1.5"/></svg>