<svg id="Ebene_1" data-name="Ebene 1" xmlns="http://www.w3.org/2000/svg" viewBox="0 0 24 24"><defs><style>.cls-1{fill:#262626;}</style></defs><path class="cls-1" d="M17.57,17.18a1.21,1.21,0,0,0-1.21,1.21h0a1.21,1.21,0,1,0,1.21-1.21Z"/><path class="cls-1" d="M20.58,19.41l1.1-.2V17.56l-1.09-.19a.26.26,0,0,1-.19-.16.24.24,0,0,1,0-.22l.64-.92L19.89,14.9l-.92.63a.24.24,0,0,1-.14.05h0a.25.25,0,0,1-.24-.2l-.2-1.1H16.74l-.19,1.09a.27.27,0,0,1-.38.17l-.92-.64-1.17,1.17.63.92a.23.23,0,0,1-.15.37l-1.1.2v1.65l1.09.2a.28.28,0,0,1,.19.16.22.22,0,0,1,0,.22l-.63.92,1.17,1.17.92-.64a.25.25,0,0,1,.37.16l.2,1.1h1.65l.2-1.09a.26.26,0,0,1,.38-.17l.92.64,1.17-1.17-.64-.92a.3.3,0,0,1,0-.1A.25.25,0,0,1,20.58,19.41ZM19.42,20.6a1,1,0,0,0-.57-.19h0a1,1,0,0,0-1,.84l-.09.46H17.4l-.09-.46a1,1,0,0,0-1-.84h0a1.07,1.07,0,0,0-.57.18l-.39.27-.23-.24.26-.38a1,1,0,0,0,.11-1,1,1,0,0,0-.77-.62l-.46-.07v-.34l.46-.09a1,1,0,0,0,.77-.62,1,1,0,0,0-.11-1l-.26-.39.23-.24.39.26a1,1,0,0,0,.57.19h0a1,1,0,0,0,1-.84l.09-.45h.34l.09.47a1,1,0,0,0,1,.84h0a1,1,0,0,0,.56-.19l.39-.27.24.24-.27.39a1,1,0,0,0-.1,1,1,1,0,0,0,.76.61l.46.09v.35l-.46.09a1,1,0,0,0-.76.62,1,1,0,0,0,.1.94l.27.39-.24.24Z"/><path class="cls-1" d="M13.06,19.09H12.6V13.42h6.49v.67a4.34,4.34,0,0,1,1.42.81V6.32a2.83,2.83,0,0,0-2.83-2.83H6.32A2.83,2.83,0,0,0,3.49,6.32V17.68a2.83,2.83,0,0,0,2.83,2.83h7.21A4.48,4.48,0,0,1,13.06,19.09ZM12.6,6.44h5.08a1.41,1.41,0,0,1,1.41,1.42V12H12.6ZM11.18,19.09H6.32a1.41,1.41,0,0,1-1.41-1.41V13.42h6.27Zm0-7.09H4.91V7.86A1.41,1.41,0,0,1,6.32,6.44h4.86Z"/></svg>