<svg id="Ebene_1" data-name="Ebene 1" xmlns="http://www.w3.org/2000/svg" viewBox="0 0 24 24"><defs></defs><path class="cls-1" d="M17.68,3.49H6.32A2.83,2.83,0,0,0,3.49,6.32V17.68a2.83,2.83,0,0,0,2.83,2.83H17.68a2.83,2.83,0,0,0,2.83-2.83V6.32A2.83,2.83,0,0,0,17.68,3.49Zm1.41,4.37V12H12.6V6.44h5.08A1.41,1.41,0,0,1,19.09,7.86ZM6.32,6.44h4.86V12H4.91V7.86A1.41,1.41,0,0,1,6.32,6.44ZM4.91,17.68V13.42h6.27v5.67H6.32A1.41,1.41,0,0,1,4.91,17.68Zm12.77,1.41H12.6V13.42h6.49v4.26A1.41,1.41,0,0,1,17.68,19.09Z"/></svg>