<?xml version="1.0" encoding="UTF-8"?>
<svg width="40px" height="40px" viewBox="0 0 40 40" version="1.1" xmlns="http://www.w3.org/2000/svg" xmlns:xlink="http://www.w3.org/1999/xlink">
    <title>icon/action/fast-forward/default-40px-white</title>
    <g id="icon/action/fast-forward/default-40px-white" stroke="none" stroke-width="1" fill="none" fill-rule="evenodd">
        <path d="M20,1 C30.4931818,1 39,9.50681818 39,20 C39,30.4931818 30.4931818,39 20,39 C9.50681818,39 1,30.4931818 1,20 C1,9.50681818 9.50681818,1 20,1 Z M20,3.59090909 C10.9490909,3.59090909 3.59090909,10.9490909 3.59090909,20 C3.59090909,29.0509091 10.9490909,36.4090909 20,36.4090909 C29.0509091,36.4090909 36.4090909,29.0509091 36.4090909,20 C36.4090909,10.9490909 29.0509091,3.59090909 20,3.59090909 Z M20.4745909,13 L31,20 L20.4745909,27 L20.4745909,20.7 L11,27 L11,13 L20.4745909,19.3 L20.4745909,13 Z" id="Combined-Shape" fill="#FFFFFF"></path>
    </g>
</svg>