<?xml version="1.0" encoding="utf-8"?>
<svg class="scale-icon" xmlns="http://www.w3.org/2000/svg" width="24" height="24" viewBox="0 0 24 24">
<title>image-file</title>
<g fill="currentColor">
	<g>
		<path d="M21 1v17l-5 5H6a3.003 3.003 0 01-2.995-2.824L3 20V1h18zm-1.5 1.5h-15V20c0 .776.598 1.42 1.356 1.493L6 21.5h9v-3c0-.781.593-1.42 1.355-1.493L16.5 17h3V2.5zm-6 6.5l4.27 5.5H6.23l3.13-4.035 1.5 1.935L13.5 9zM7.75 7a1.25 1.25 0 110 2.5 1.25 1.25 0 010-2.5z" fill-rule="evenodd">
		</path>
	</g>
</g>
</svg>