<?xml version="1.0" encoding="UTF-8"?>
<svg width="24px" height="24px" viewBox="0 0 24 24" version="1.1" xmlns="http://www.w3.org/2000/svg" xmlns:xlink="http://www.w3.org/1999/xlink">
    <title>icon/content/digital-media/default@svg</title>
    <g id="icon/content/digital-media/default" stroke="none" stroke-width="1" fill="none" fill-rule="evenodd">
        <path d="M5.35499997,11.5 C5.60999997,12.03 5.91499997,12.535 6.26499998,13 L6.26499998,13 L1.99999995,13 L1.99999995,19.145 C1.99999995,19.34 2.15999996,19.5 2.35499996,19.5 L2.35499996,19.5 L10.17,19.5 L12,21.33 L12,16.4 C12.41,16.46 12.825,16.5 13.255,16.505 C13.34,16.505 13.42,16.49 13.505,16.49 L13.505,16.49 L13.505,22.34 C13.505,22.995 12.97,23.425 12.415,23.425 C12.145,23.425 11.875,23.325 11.655,23.105 L11.655,23.105 L9.54999999,21 L2.35499996,21 C1.32999996,21 0.499999952,20.17 0.499999952,19.145 L0.499999952,19.145 L0.499999952,11.5 Z M19.5,10.06 L23.5,12.405 L23.5,14.235 L20.99,13.6 L20.99,13.6 L20.99,19.855 C20.99,21.955 19.4,22.275 18.53,22.205 C17.185,22.095 16.105,21.15 16.12,20.05 C16.14,18.95 17.24,18.13 18.59,18.22 C18.91,18.245 19.22,18.32 19.5,18.43 L19.5,18.43 L19.5,10.06 Z M13.25,0.499999952 C17.255,0.499999952 20.5,3.74499997 20.5,7.74999998 C20.5,8.12499998 20.46,8.49499999 20.405,8.85499999 L20.405,8.85499999 L18.985,8.01999998 C18.99,7.92999998 19,7.83999998 19,7.74999998 C19,4.57999997 16.42,1.99999995 13.25,1.99999995 C10.08,1.99999995 7.49999998,4.57999997 7.49999998,7.74999998 C7.49999998,10.92 10.08,13.5 13.25,13.5 C15.22,13.5 16.965,12.5 18,10.985 L18,10.985 L18,13.22 C16.725,14.325 15.07,15 13.25,15 C9.24499999,15 5.99999998,11.755 5.99999998,7.74999998 C5.99999998,3.74499997 9.24499999,0.499999952 13.25,0.499999952 Z M11.5,5.16999997 L16.115,7.83499998 L11.5,10.5 L11.5,5.16999997 Z" id="Combined-Shape" fill="#262626"></path>
    </g>
</svg>