<?xml version="1.0" encoding="utf-8"?>
<!-- Generator: Adobe Illustrator 27.9.0, SVG Export Plug-In . SVG Version: 6.00 Build 0)  -->
<svg version="1.1" id="Ebene_1" xmlns="http://www.w3.org/2000/svg" xmlns:xlink="http://www.w3.org/1999/xlink" x="0px" y="0px"
	 viewBox="0 0 24 24" style="enable-background:new 0 0 24 24;" xml:space="preserve">
<style type="text/css">
	.st0{fill-rule:evenodd;clip-rule:evenodd;}
</style>
<g>
	<polygon class="st0" points="15,5.4 18.7,7.7 15,10.1 	"/>
</g>
<g>
	<g>
		<path d="M9.8,13.8c1.5,0,2.8,1.3,2.8,2.8s-1.3,2.8-2.8,2.8S7,18.1,7,16.6S8.2,13.8,9.8,13.8 M9.8,12.6c-2.2,0-4,1.8-4,4s1.8,4,4,4
			s4-1.8,4-4S12,12.6,9.8,12.6L9.8,12.6z"/>
	</g>
</g>
<path d="M12.7,10.9l0.8,1.3l0.4,0.7h0.8h1.4c0.5,0,0.9,0.4,0.9,0.9v6.8c0,0.5-0.4,0.9-0.9,0.9H3.4c-0.5,0-0.9-0.4-0.9-0.9v-6.8
	c0-0.5,0.4-0.9,0.9-0.9h1.5h0.8l0.4-0.7l0.8-1.3H12.7 M13.5,9.4H6.1l-1.2,2H3.4c-1.3,0-2.4,1.1-2.4,2.4v6.8C1,21.9,2.1,23,3.4,23
	h12.8c1.3,0,2.4-1.1,2.4-2.4v-6.8c0-1.3-1.1-2.4-2.4-2.4h-1.4L13.5,9.4L13.5,9.4z"/>
<g>
	<circle class="st0" cx="15.4" cy="14.6" r="0.8"/>
</g>
<path d="M16.3,1c-3.7,0-6.7,3-6.7,6.7c0,0.2,0,0.5,0,0.7h1.5C11.1,8.2,11,8,11,7.7c0-2.9,2.3-5.2,5.2-5.2c2.9,0,5.2,2.3,5.2,5.2
	c0,1.7-0.8,3.2-2.1,4.2c0.1,0.3,0.2,0.6,0.2,0.9v0.8c2-1.2,3.4-3.3,3.4-5.9C23,4,20,1,16.3,1z"/>
</svg>
