<?xml version="1.0" encoding="UTF-8"?>
<svg width="24px" height="24px" viewBox="0 0 24 24" version="1.1" xmlns="http://www.w3.org/2000/svg" xmlns:xlink="http://www.w3.org/1999/xlink">
    <title>icon/action/add/default</title>
    <g id="icon/action/add/default" stroke="none" stroke-width="1" fill="none" fill-rule="evenodd">
        <path d="M19.5,11.25 L12.75,11.25 L12.75,4.49999997 C12.75,4.09999997 12.4,3.74999997 12,3.74999997 C11.6,3.74999997 11.25,4.09999997 11.25,4.49999997 L11.25,11.25 L4.49999997,11.25 C4.09999997,11.25 3.74999997,11.6 3.74999997,12 C3.74999997,12.4 4.09999997,12.75 4.49999997,12.75 L11.25,12.75 L11.25,19.5 C11.25,19.9 11.6,20.25 12,20.25 C12.4,20.25 12.75,19.9 12.75,19.5 L12.75,12.75 L19.5,12.75 C19.9,12.75 20.25,12.4 20.25,12 C20.25,11.6 19.9,11.25 19.5,11.25 Z" id="Combined-Shape" fill="#262626"></path>
    </g>
</svg>