<?xml version="1.0" encoding="UTF-8"?>
<svg width="24px" height="24px" viewBox="0 0 24 24" version="1.1" xmlns="http://www.w3.org/2000/svg" xmlns:xlink="http://www.w3.org/1999/xlink">
    <title>icon/user_file/contacts/default</title>
    <g id="icon/user_file/contacts/default" stroke="none" stroke-width="1" fill="none" fill-rule="evenodd">
        <path d="M18,1.49999996 C19.65,1.49999996 21,2.84999996 21,4.49999996 L21,4.49999996 L21,19.5 C21,21.15 19.65,22.5 18,22.5 L18,22.5 L2.99999996,22.5 L2.99999996,1.49999996 Z M18,2.99999996 L4.49999997,2.99999996 L4.49999997,21 L18,21 C18.85,21 19.5,20.35 19.5,19.5 L19.5,19.5 L19.5,4.49999996 C19.5,3.64999997 18.85,2.99999996 18,2.99999996 L18,2.99999996 Z M14,13.4 C14.8,13.4 15.45,14 15.6,14.8 L15.6,14.8 L15.75,15.5 L8.24999998,15.5 L8.34999998,14.8 C8.49999999,14 9.19999999,13.45 9.99999999,13.45 L9.99999999,13.45 L10.85,13.45 L12,14.6 L13.2,13.4 Z M12,7.99999998 C13.15,7.99999998 14.1,8.84999999 14.1,10.1 C14.1,11.35 13.2,12.6 12,12.6 C10.8,12.6 9.89999999,11.35 9.89999999,10.1 C9.89999999,8.84999999 10.85,7.99999998 12,7.99999998 Z" id="Combined-Shape" fill="#262626"></path>
    </g>
</svg>