<?xml version="1.0" encoding="UTF-8"?>
<svg width="24px" height="24px" viewBox="0 0 24 24" version="1.1" xmlns="http://www.w3.org/2000/svg" xmlns:xlink="http://www.w3.org/1999/xlink">
    <title>/svg/icon/user_file/attachment/default</title>
    <defs>
        <path d="M6.99999998,22.75 C5.44999997,22.75 3.94999997,22.15 2.74999996,21 C0.399999952,18.65 0.399999952,14.85 2.74999996,12.5 L14.25,0.999999954 C14.55,0.699999953 15,0.699999953 15.3,0.999999954 C15.6,1.29999996 15.6,1.74999996 15.3,2.04999996 L3.79999997,13.55 C2.04999996,15.3 2.04999996,18.15 3.79999997,19.9 C5.54999997,21.65 8.39999999,21.65 10.15,19.9 L20.95,9.09999999 C22,8.04999998 22,6.29999998 20.95,5.19999997 C20.45,4.69999997 19.75,4.39999997 19,4.39999997 C18.25,4.39999997 17.6,4.69999997 17.05,5.19999997 L6.24999998,16.05 C6.09999998,16.25 5.99999997,16.5 5.99999997,16.75 C5.99999997,17 6.09999998,17.25 6.29999998,17.45 C6.69999998,17.85 7.34999998,17.85 7.69999998,17.45 L15.65,9.49999999 C15.95,9.19999999 16.4,9.19999999 16.7,9.49999999 C17,9.79999999 17,10.25 16.7,10.55 L8.74999999,18.55 C8.29999998,19 7.64999998,19.3 6.99999998,19.3 C6.34999998,19.3 5.69999997,19.05 5.24999997,18.55 C4.74999997,18.05 4.49999997,17.45 4.49999997,16.75 C4.49999997,16.05 4.74999997,15.5 5.19999997,15 L16,4.19999997 C17.65,2.54999996 20.35,2.54999996 22,4.19999997 C23.65,5.84999997 23.65,8.54999999 22,10.2 L11.2,21 C10.05,22.2 8.49999999,22.75 6.99999998,22.75 Z" id="path-1"></path>
    </defs>
    <g id="icon/user_file/attachment/default" stroke="none" stroke-width="1" fill="none" fill-rule="evenodd">
        <mask id="mask-2" fill="white">
            <use xlink:href="#path-1"></use>
        </mask>
        <use id="Icon" fill="#000000" xlink:href="#path-1"></use>
    </g>
</svg>