<?xml version="1.0" encoding="UTF-8"?>
<svg width="24px" height="24px" viewBox="0 0 24 24" version="1.1" xmlns="http://www.w3.org/2000/svg" xmlns:xlink="http://www.w3.org/1999/xlink">
    <title>01_24px/icon/action/auto-login/default</title>
    <g id="icon/action/auto-login/default" stroke="none" stroke-width="1" fill="none" fill-rule="evenodd">
        <path d="M12,0.749999953 C12.65,0.749999953 13.2568878,1.13801016 13.5404337,1.71386658 L13.6,1.84999996 L15.1,5.49999997 L19,5.74999995 C19.75,5.79999997 20.35,6.24999995 20.55,6.94999998 C20.7346154,7.59615383 20.5784024,8.28491123 20.1206873,8.7409877 L20,8.84999999 L17,11.4 L17.95,15.2 C18.15,15.9 17.9,16.65 17.3,17.05 C16.7461539,17.4192308 16.0644971,17.4476332 15.4909877,17.1745335 L15.35,17.1 L12.75,15.5 L12.75,22.7 C12.75,23.1 12.4,23.45 12,23.45 C11.6333333,23.45 11.3086806,23.1559028 11.2571181,22.7987848 L11.25,22.7 L11.25,15.5 L8.64999999,17.1 C8.04999998,17.5 7.29999998,17.45 6.69999998,17.05 C6.19230767,16.6346154 5.94023666,16.006213 6.02243967,15.3614247 L6.04999998,15.2 L6.99999998,11.4 L3.99999997,8.84999999 C3.44999996,8.34999998 3.19999996,7.64999998 3.44999996,6.94999998 C3.68214282,6.29999995 4.2160714,5.8655612 4.85162169,5.76678203 L4.99999997,5.74999995 L8.89999999,5.49999997 L10.4,1.84999996 C10.65,1.19999995 11.3,0.749999953 12,0.749999953 Z M11.9997685,2.3006944 L11.9002315,2.3006944 C11.8344907,2.30347218 11.7724537,2.31736107 11.7289352,2.38680552 L11.7,2.44999996 L9.84999999,6.94999998 L4.99999997,7.29999996 C4.84999997,7.29999996 4.79999997,7.39999998 4.79999997,7.44999998 C4.79999997,7.48999998 4.79999997,7.56199998 4.85119997,7.64039998 L4.89999997,7.69999998 L8.59999999,10.85 L7.44999998,15.55 C7.39999998,15.65 7.49999998,15.75 7.54999998,15.8 C7.59166665,15.8416667 7.70277776,15.8833333 7.79652776,15.8381944 L7.84999998,15.8 L12,13.25 L16.1,15.8 C16.225,15.8833333 16.3152778,15.8625 16.3708334,15.8243055 L16.4492712,15.7548105 C16.4825073,15.7215744 16.5087464,15.6790088 16.4813411,15.6084548 L16.45,15.55 L15.3,10.85 L19,7.69999998 C19.1071429,7.62857141 19.1122449,7.55714284 19.106414,7.50393584 L19.1,7.44999998 C19.1,7.40833331 19.0652778,7.33194441 18.9668982,7.30763885 L18.9,7.29999996 L14.05,6.94999998 L12.2,2.44999996 C12.1583333,2.32499996 12.0819444,2.30416663 11.9997685,2.3006944 Z M20.4274776,11.7044874 L22.9003376,12.5076274 L22.43699,13.93427 L19.96413,13.13113 L20.4274776,11.7044874 Z M3.54773496,11.685205 L4.01123497,13.111855 L1.53837496,13.915255 L1.07487495,12.488605 L3.54773496,11.685205 Z M5.98952613,0.213125475 L7.51780614,2.31652548 L6.30429998,3.19822996 L4.77601997,1.09482995 L5.98952613,0.213125475 Z M17.99812,0.204809951 L19.2116262,1.08651443 L17.6833462,3.18991444 L16.46984,2.30820996 L17.99812,0.204809951 Z" id="Shape" fill="#000000"></path>
    </g>
</svg>