<?xml version="1.0" encoding="UTF-8"?>
<svg width="24px" height="24px" viewBox="0 0 24 24" version="1.1" xmlns="http://www.w3.org/2000/svg" xmlns:xlink="http://www.w3.org/1999/xlink">
    <title>/svg/icon/content/clipboard/default</title>
    <g id="icon/content/clipboard/default" stroke="none" stroke-width="1" fill="none" fill-rule="evenodd">
        <path d="M6.55,3.45255652 C6.5125,3.56257298 6.503125,3.70009355 6.50078125,3.82386206 L6.5,4.91944263 L4.5,4.91944263 L4.5,20.5662278 C4.5,21.348567 5.07577855,21.9576547 5.85216772,22.026605 L6,22.0331139 L18,22.0331139 C18.8,22.0331139 19.4228374,21.4700462 19.4933442,20.7107965 L19.5,20.5662278 L19.5,4.91944263 L17.5,4.91944263 L17.5,3.94151855 C17.5,3.8315021 17.5,3.69398152 17.4789062,3.57021301 L17.45,3.45255652 L21,3.45255652 L21,20.5662278 C21,22.1221748 19.7447066,23.405326 18.1755899,23.494995 L18,23.5 L6,23.5 C4.40892857,23.5 3.09681122,22.2724184 3.00511798,20.7379414 L3,20.5662278 L3,3.45255652 L6.55,3.45255652 Z M16,16.1655695 C16.4,16.1655695 16.75,16.5078429 16.75,16.8990125 C16.75,17.2575847 16.4559028,17.5750704 16.0987847,17.6254946 L16,17.6324556 L8,17.6324556 C7.6,17.6324556 7.25,17.2901821 7.25,16.8990125 C7.25,16.5404404 7.54409722,16.2229546 7.90121528,16.1725304 L8,16.1655695 L16,16.1655695 Z M16,12.7428352 C16.4,12.7428352 16.75,13.0851086 16.75,13.4762783 C16.75,13.8348504 16.4559028,14.1523362 16.0987847,14.2027604 L16,14.2097213 L8,14.2097213 C7.6,14.2097213 7.25,13.8674479 7.25,13.4762783 C7.25,13.1177061 7.54409722,12.8002203 7.90121528,12.7497961 L8,12.7428352 L16,12.7428352 Z M16,9.32010095 C16.4,9.32010095 16.75,9.66237438 16.75,10.053544 C16.75,10.4121162 16.4559028,10.7296019 16.0987847,10.7800261 L16,10.7869871 L8,10.7869871 C7.6,10.7869871 7.25,10.4447136 7.25,10.053544 C7.25,9.69497185 7.54409722,9.37748608 7.90121528,9.32706187 L8,9.32010095 L16,9.32010095 Z M10.5,1.98567041 C10.5,1.10553874 11.35,0.37209569 12.3,0.518784301 C12.9533333,0.655693671 13.4324444,1.2185433 13.4934222,1.8892978 L13.5,2.03456661 L13.5,2.47463245 L14.5,2.47463245 C15.3,2.47463245 15.9228374,3.03770015 15.9933442,3.79694981 L16,3.94151855 L16,5.8973667 L8,5.8973667 L8,3.94151855 C8,3.1591793 8.57577855,2.55009164 9.35216772,2.48114132 L9.5,2.47463245 L10.5,2.47463245 L10.5,1.98567041 Z" id="Icon" fill="#000000"></path>
    </g>
</svg>