<?xml version="1.0" encoding="UTF-8"?>
<svg width="24px" height="24px" viewBox="0 0 24 24" version="1.1" xmlns="http://www.w3.org/2000/svg" xmlns:xlink="http://www.w3.org/1999/xlink">
    <title>01_24px/icon/action/close/default</title>
    <g id="icon/action/close/default" stroke="none" stroke-width="1" fill="none" fill-rule="evenodd">
        <g id="Group-4" transform="translate(6.119450, 6.652550)" fill="#000000">
            <path d="M6.80975,5.74975 L11.27975,1.27975 C11.57275,0.98675 11.57275,0.51275 11.27975,0.21975 C10.98675,-0.07325 10.51175,-0.07325 10.21875,0.21975 L5.74875,4.68875 L1.27975,0.21975 C0.98675,-0.07325 0.51175,-0.07325 0.21975,0.21975 C-0.07325,0.51275 -0.07325,0.98675 0.21975,1.27975 L4.68875,5.74975 L0.21975,10.21875 C-0.07325,10.51175 -0.07325,10.98675 0.21975,11.27975 C0.36575,11.42675 0.55775,11.49975 0.74875,11.49975 C0.94175,11.49975 1.13375,11.42675 1.27975,11.28075 L5.74875,6.81075 L10.21875,11.27975 C10.36575,11.42675 10.55775,11.49975 10.74875,11.49975 C10.94175,11.49975 11.13375,11.42675 11.27975,11.28075 C11.57275,10.98775 11.57275,10.51275 11.27975,10.21975 L6.80975,5.74975 Z" id="Fill-2"></path>
        </g>
    </g>
</svg>