<?xml version="1.0" encoding="utf-8"?>
<!-- Generator: Adobe Illustrator 26.0.1, SVG Export Plug-In . SVG Version: 6.00 Build 0)  -->
<svg version="1.1" id="Ebene_1" xmlns="http://www.w3.org/2000/svg" xmlns:xlink="http://www.w3.org/1999/xlink" x="0px" y="0px"
	 viewBox="0 0 24 24" style="enable-background:new 0 0 24 24;" xml:space="preserve">
<style type="text/css">
	.st0{fill:none;}
	.st1{fill:#262626;}
</style>
<path class="st0" d="M-20-20h64v64h-64V-20z"/>
<path class="st1" d="M20,1.8h-6.4C13.2,1.3,12.6,1,12,1s-1.2,0.3-1.5,0.8H4c-0.4,0-0.8,0.3-0.8,0.8v19.7C3.3,22.7,3.6,23,4,23H20
	c0.4,0,0.8-0.3,0.8-0.8V2.5C20.7,2.1,20.4,1.8,20,1.8z M12.8,6.7V9h-1.5V6.7H12.8z M19.6,21.9H4.4v-19h5.7v7.2h3.8V2.9h5.7V21.9z
	 M13.5,11.6c0,0.2-0.2,0.4-0.4,0.4h-2.3c-0.2,0-0.4-0.2-0.4-0.4c0-0.2,0.2-0.4,0.4-0.4h2.3C13.4,11.2,13.5,11.4,13.5,11.6z
	 M13.5,13.5c0,0.2-0.2,0.4-0.4,0.4h-2.3c-0.2,0-0.4-0.2-0.4-0.4c0-0.2,0.2-0.4,0.4-0.4h2.3C13.4,13.1,13.5,13.3,13.5,13.5z
	 M13.5,15.4c0,0.2-0.2,0.4-0.4,0.4h-2.3c-0.2,0-0.4-0.2-0.4-0.4s0.2-0.4,0.4-0.4h2.3C13.4,15,13.5,15.2,13.5,15.4z M13.5,17.3
	c0,0.2-0.2,0.4-0.4,0.4h-2.3c-0.2,0-0.4-0.2-0.4-0.4c0-0.2,0.2-0.4,0.4-0.4h2.3C13.4,16.9,13.5,17.1,13.5,17.3z M13.5,19.2
	c0,0.2-0.2,0.4-0.4,0.4h-2.3c-0.2,0-0.4-0.2-0.4-0.4c0-0.2,0.2-0.4,0.4-0.4h2.3C13.4,18.8,13.5,19,13.5,19.2z"/>
</svg>
