<?xml version="1.0" encoding="UTF-8"?>
<svg width="24px" height="24px" viewBox="0 0 24 24" version="1.1" xmlns="http://www.w3.org/2000/svg" xmlns:xlink="http://www.w3.org/1999/xlink">
    <title>01_24px/icon/action/copy-paste/default</title>
    <g id="icon/action/copy-paste/default" stroke="none" stroke-width="1" fill="none" fill-rule="evenodd">
        <path d="M17,6.99999998 L17,19.5 C17,21.0958929 15.7493559,22.4035331 14.176088,22.4949004 L14,22.5 L4.49999996,22.5 C2.9041071,22.5 1.59646679,21.2493559 1.50509949,19.676088 L1.49999996,19.5 L1.49999996,6.99999998 L17,6.99999998 Z M15.5,8.49999999 L2.99999996,8.49999999 L2.99999996,19.5 C2.99999996,20.2764706 3.59792384,20.9200692 4.35607568,20.9930999 L4.49999996,21 L14,21 C14.7764706,21 15.4200692,20.4020762 15.4930999,19.6439243 L15.5,19.5 L15.5,8.49999999 Z M22.5,1.49999996 L22.5,14 C22.5,15.5958929 21.2493559,16.9035331 19.676088,16.9949004 L19.5,17 L18.5,17 L18.5,15.5 L19.5,15.5 C20.2764706,15.5 20.9200692,14.9020761 20.9930999,14.1439242 L21,14 L21,2.99999996 L8.49999998,2.99999996 L8.49999998,5.49999996 L6.99999998,5.49999996 L6.99999998,1.49999996 L22.5,1.49999996 Z" id="Shape" fill="#000000"></path>
    </g>
</svg>