<?xml version="1.0" encoding="UTF-8"?>
<svg width="24px" height="24px" viewBox="0 0 24 24" version="1.1" xmlns="http://www.w3.org/2000/svg" xmlns:xlink="http://www.w3.org/1999/xlink">
    <title>/svg/icon/action/cut-paste/default</title>
    <g id="icon/action/cut-paste/default" stroke="none" stroke-width="1" fill="none" fill-rule="evenodd">
        <path d="M8.49999998,21 L8.49999998,22.5 L5.99999998,22.5 L5.99999998,21 L8.49999998,21 Z M2.99999996,19.5 C2.99999996,20.2764706 3.59792384,20.9200692 4.35607568,20.9931 L4.49999996,21 L4.49999996,22.5 C2.9041071,22.5 1.59646679,21.2493559 1.50509949,19.6760881 L1.49999996,19.5 L2.99999996,19.5 Z M17,19.5 C17,21.0958929 15.7493559,22.4035332 14.1760881,22.4949005 L14,22.5 L14,21 C14.7764706,21 15.4200692,20.4020762 15.4930999,19.6439243 L15.5,19.5 L17,19.5 Z M12.5,21 L12.5,22.5 L9.99999999,22.5 L9.99999999,21 L12.5,21 Z M2.99999996,15.5 L2.99999996,18 L1.49999996,18 L1.49999996,15.5 L2.99999996,15.5 Z M17,15.5 L17,18 L15.5,18 L15.5,15.5 L17,15.5 Z M22.5,1.49999996 L22.5,14 C22.5,15.5958929 21.2493559,16.9035331 19.676088,16.9949004 L19.5,17 L18.5,17 L18.5,15.5 L19.5,15.5 C20.2764706,15.5 20.9200692,14.9020761 20.9930999,14.1439242 L21,14 L21,2.99999996 L8.49999998,2.99999996 L8.49999998,5.49999996 L6.99999998,5.49999996 L6.99999998,1.49999996 L22.5,1.49999996 Z M2.99999996,11.5 L2.99999996,14 L1.49999996,14 L1.49999996,11.5 L2.99999996,11.5 Z M17,11.5 L17,14 L15.5,14 L15.5,11.5 L17,11.5 Z M17,6.99999998 L17,9.99999998 L15.5,9.99999998 L15.5,8.49999998 L14,8.49999998 L14,6.99999998 L17,6.99999998 Z M4.49999996,6.99999998 L4.49999996,8.49999998 L2.99999996,8.49999998 L2.99999996,9.99999998 L1.49999996,9.99999998 L1.49999996,6.99999998 L4.49999996,6.99999998 Z M12.5,6.99999998 L12.5,8.49999998 L9.99999999,8.49999998 L9.99999999,6.99999998 L12.5,6.99999998 Z M8.49999998,6.99999998 L8.49999998,8.49999998 L5.99999998,8.49999998 L5.99999998,6.99999998 L8.49999998,6.99999998 Z" id="Icon" fill="#000000"></path>
    </g>
</svg>