<?xml version="1.0" encoding="UTF-8"?>
<svg width="24px" height="24px" viewBox="0 0 24 24" version="1.1" xmlns="http://www.w3.org/2000/svg" xmlns:xlink="http://www.w3.org/1999/xlink">
    <title>/svg/icon/action/remove/default</title>
    <g id="icon/action/remove/default" stroke="none" stroke-width="1" fill="none" fill-rule="evenodd">
        <path d="M16,0.499999952 L16,3.49999995 L21.5,3.49999995 C21.9,3.49999995 22.25,3.84999997 22.25,4.24999997 C22.25,4.61666664 21.9559028,4.9413194 21.5987848,4.9928819 L21.5,4.99999995 L20.45,4.99999995 L19.65,20.65 C19.5537037,22.1907408 18.3446502,23.4069273 16.8264975,23.4949016 L16.65,23.5 L7.39999998,23.5 C5.85925923,23.5 4.59670779,22.340878 4.41600363,20.8262918 L4.39999997,20.65 L3.54999996,4.99999995 L2.49999996,4.99999995 C2.09999996,4.99999995 1.74999996,4.64999997 1.74999996,4.24999997 C1.74999996,3.8833333 2.04409718,3.55868051 2.40121524,3.50711801 L2.49999996,3.49999995 L7.99999998,3.49999995 L7.99999998,0.499999952 L16,0.499999952 Z M18.95,4.99999997 L5.04999997,4.99999997 L5.89999997,20.6 C5.9470588,21.3529412 6.52560551,21.9287197 7.2604722,21.993853 L7.39999998,22 L16.6,22 C17.3529412,22 17.9730104,21.4685121 18.0850397,20.739019 L18.1,20.6 L18.95,4.99999997 Z M12,7.74999998 C12.3666667,7.74999998 12.6913194,8.04409721 12.7428819,8.40121526 L12.75,8.49999999 L12.75,18.5 C12.75,18.9 12.4,19.25 12,19.25 C11.6333333,19.25 11.3086806,18.9559028 11.2571181,18.5987847 L11.25,18.5 L11.25,8.49999999 C11.25,8.09999998 11.6,7.74999998 12,7.74999998 Z M15.5,7.74999998 C15.8666667,7.74999998 16.1913195,8.04409721 16.242882,8.40121526 L16.25,8.49999999 L16.25,18.5 C16.25,18.9 15.9,19.25 15.5,19.25 C15.1333333,19.25 14.8086806,18.9559028 14.7571181,18.5987847 L14.75,18.5 L14.75,8.49999999 C14.75,8.09999998 15.1,7.74999998 15.5,7.74999998 Z M8.49999999,7.74999998 C8.86666665,7.74999998 9.19131943,8.04409721 9.24288193,8.40121526 L9.24999998,8.49999999 L9.24999998,18.5 C9.24999998,18.9 8.89999999,19.25 8.49999999,19.25 C8.13333332,19.25 7.80868054,18.9559028 7.75711804,18.5987847 L7.74999998,18.5 L7.74999998,8.49999999 C7.74999998,8.09999998 8.09999998,7.74999998 8.49999999,7.74999998 Z M14.5,1.99999996 L9.49999999,1.99999996 L9.49999999,3.49999996 L14.5,3.49999996 L14.5,1.99999996 Z" id="Icon" fill="#000000"></path>
    </g>
</svg>