<?xml version="1.0" encoding="UTF-8"?>
<svg width="24px" height="24px" viewBox="0 0 24 24" version="1.1" xmlns="http://www.w3.org/2000/svg" xmlns:xlink="http://www.w3.org/1999/xlink">
    <title>icon/action/download/default@svg</title>
    <g id="icon/action/download/default" stroke="none" stroke-width="1" fill="none" fill-rule="evenodd">
        <path d="M21.25,20.5 C21.65,20.5 22,20.85 22,21.25 C22,21.65 21.65,22 21.25,22 L21.25,22 L2.74999996,22 C2.34999996,22 1.99999996,21.65 1.99999996,21.25 C1.99999996,20.85 2.34999996,20.5 2.74999996,20.5 L2.74999996,20.5 Z M12,1.99999996 C12.4,1.99999996 12.75,2.34999996 12.75,2.74999996 L12.75,2.74999996 L12.75,9.49999996 L16.6,9.49999996 L12,16.5 L7.39999998,9.49999996 L11.25,9.49999996 L11.25,2.74999996 C11.25,2.34999996 11.6,1.99999996 12,1.99999996 Z" id="Combined-Shape" fill="#262626"></path>
    </g>
</svg>