<?xml version="1.0" encoding="UTF-8"?>
<svg width="24px" height="24px" viewBox="0 0 24 24" version="1.1" xmlns="http://www.w3.org/2000/svg" xmlns:xlink="http://www.w3.org/1999/xlink">
    <title>/svg/icon/action/export/default</title>
    <g id="icon/action/export/default" stroke="none" stroke-width="1" fill="none" fill-rule="evenodd">
        <path d="M8.49999996,10 L8.49999996,11.5 L4.99999996,11.5 L4.99999996,20.5 C4.99999996,21.278353 5.59615222,21.9202907 6.35576304,21.9931195 L6.49999996,22 L17.5,22 C18.278353,22 18.9202906,21.4038478 18.9931194,20.644237 L19,20.5 L19,11.5 L15.5,11.5 L15.5,10 L20.5,10 L20.5,20.5 C20.5,22.0978215 19.2512156,23.403671 17.6762873,23.4949079 L17.5,23.5 L6.49999996,23.5 C4.90217854,23.5 3.59632905,22.2512156 3.50509212,20.6762874 L3.49999996,20.5 L3.49999996,10 L8.49999996,10 Z M12.0005,1 L16.582,8 L12.75,8 L12.75,16.7500001 C12.75,17.1645001 12.414,17.5 12,17.5 C11.6205,17.5 11.3065417,17.2180869 11.2568507,16.8518308 L11.25,16.7500001 L11.25,8 L7.41849998,8 L12.0005,1 Z" id="Icon" fill="#000000"></path>
    </g>
</svg>