<?xml version="1.0" encoding="UTF-8"?>
<svg id="Ebene_1" xmlns="http://www.w3.org/2000/svg" version="1.1" viewBox="0 0 24 24">
  <!-- Generator: Adobe Illustrator 29.0.1, SVG Export Plug-In . SVG Version: 2.1.0 Build 192)  -->
  <defs>
    <style>
      .st0 {
        fill-rule: evenodd;
      }
    </style>
  </defs>
  <g id="icon_x2F_content_x2F_media-folder_x2F_default">
    <path id="Icon" class="st0" d="M7.5,2.5c1,0,1.9.4,2.5,1l.2.2.4.5c.2.2.5.3.7.3h.1s11.5,0,11.5,0v14.5c0,1.6-1.3,2.9-2.8,3h-.2s-16,0-16,0c-1.6,0-2.9-1.3-3-2.8v-.2s0-16.5,0-16.5h6.5ZM7.5,4H2.5v15c0,.8.6,1.4,1.4,1.5h.1s16,0,16,0c.8,0,1.4-.6,1.5-1.4h0V6h-10c-.6,0-1.3-.2-1.8-.7l-.6-.6c-.4-.4-.9-.6-1.5-.7h-.2Z"/>
  </g>
  <path class="st0" d="M8.5,12.2h7c.4,0,.8-.3.8-.8s-.3-.8-.8-.8h-7c-.4,0-.8.3-.8.8s.3.8.8.8Z"/>
  <path class="st0" d="M16.2,14.5c0-.4-.3-.8-.8-.8h-7c-.4,0-.8.3-.8.8s.3.8.8.8h7c.4,0,.8-.3.8-.8Z"/>
</svg>