<?xml version="1.0" encoding="utf-8"?>
<!-- Generator: Adobe Illustrator 27.9.0, SVG Export Plug-In . SVG Version: 6.00 Build 0)  -->
<svg version="1.1" id="Ebene_1" xmlns="http://www.w3.org/2000/svg" xmlns:xlink="http://www.w3.org/1999/xlink" x="0px" y="0px"
	 viewBox="0 0 24 24" style="enable-background:new 0 0 24 24;" xml:space="preserve">
<style type="text/css">
	.st0{fill-rule:evenodd;clip-rule:evenodd;}
</style>
<g>
	<g id="icon_x2F_action_x2F_menu_x2F_default">
		<path id="Shape" class="st0" d="M14.9,16.5c0.4,0,0.8,0.4,0.8,0.8c0,0.4-0.3,0.7-0.7,0.7l-0.1,0H4.4c-0.4,0-0.8-0.4-0.8-0.8
			c0-0.4,0.3-0.7,0.7-0.7l0.1,0H14.9z M11.9,11c0.4,0,0.8,0.4,0.8,0.8c0,0.4-0.3,0.7-0.7,0.7l-0.1,0H4.4c-0.4,0-0.8-0.4-0.8-0.8
			c0-0.4,0.3-0.7,0.7-0.7l0.1,0H11.9z M14.9,5.5c0.4,0,0.8,0.3,0.8,0.8c0,0.4-0.3,0.7-0.7,0.7l-0.1,0H4.4C4,7,3.6,6.7,3.6,6.2
			c0-0.4,0.3-0.7,0.7-0.7l0.1,0H14.9z"/>
	</g>
	<g id="icon_x2F_navigation_x2F_left-condensed_x2F_default">
		<g id="Group-4" transform="translate(8.211000, 5.250529)">
			<path id="Fill-2" class="st0" d="M7.9,6.7L12,2.3c0.3-0.3,0.3-0.8,0-1.1c-0.3-0.3-0.8-0.3-1.1,0l-5,5.5l5,5.5
				c0.1,0.2,0.3,0.2,0.6,0.2c0.2,0,0.4-0.1,0.5-0.2c0.3-0.3,0.3-0.8,0-1.1L7.9,6.7z"/>
		</g>
	</g>
</g>
</svg>
