<?xml version="1.0" encoding="UTF-8"?>
<svg width="24px" height="24px" viewBox="0 0 24 24" version="1.1" xmlns="http://www.w3.org/2000/svg" xmlns:xlink="http://www.w3.org/1999/xlink">
    <title>/svg/icon/content/history/default</title>
    <g id="icon/content/history/default" stroke="none" stroke-width="1" fill="none" fill-rule="evenodd">
        <path d="M12,1.74999996 C17.65,1.74999996 22.25,6.34999998 22.3,12.05 C22.3,16.7068628 19.0320262,20.8831411 14.5220714,21.9874487 L14.25,22.05 L14.1,22.05 C13.75,22.05 13.45,21.8 13.35,21.45 C13.25,21.05 13.5,20.65 13.9,20.55 C17.85,19.7 20.75,16.1 20.75,12 C20.75,7.19999998 16.8,3.24999996 12,3.24999996 C7.19999998,3.24999996 3.24999996,7.19999998 3.24999996,12 C3.24999996,14.5480769 4.40569523,16.9574704 6.2725876,18.605883 L6.49999998,18.8 L8.04999998,16.4 L10.75,22.5 L4.09999997,22.5 L5.69999997,20.05 C3.24999996,18.15 1.74999996,15.2 1.74999996,12 C1.74999996,6.34999998 6.34999998,1.74999996 12,1.74999996 Z M12,5.24999997 C12.3666667,5.24999997 12.6913194,5.5440972 12.7428819,5.90121525 L12.75,5.99999997 L12.75,11.55 L16.6,13.6 C16.95,13.8 17.1,14.25 16.9,14.6 C16.8,14.85 16.5,15 16.25,15 C16.175,15 16.071875,14.971875 15.9828125,14.9367188 L15.9,14.9 L11.25,12.45 L11.25,5.99999997 C11.25,5.59999997 11.6,5.24999997 12,5.24999997 Z" id="Icon" fill="#000000"></path>
    </g>
</svg>