<?xml version="1.0" encoding="UTF-8"?>
<svg width="24px" height="24px" viewBox="0 0 24 24" version="1.1" xmlns="http://www.w3.org/2000/svg" xmlns:xlink="http://www.w3.org/1999/xlink">
    <title>/svg/icon/action/import/default</title>
    <g id="icon/action/import/default" stroke="none" stroke-width="1" fill="none" fill-rule="evenodd">
        <path d="M8.49999996,6.99999998 L8.49999996,8.49999998 L4.49999996,8.49999998 L4.49999996,20 C4.49999996,20.778353 5.09615222,21.4202906 5.85576304,21.4931195 L5.99999996,21.5 L18,21.5 C18.778353,21.5 19.4202906,20.9038478 19.4931194,20.1442369 L19.5,20 L19.5,8.49999998 L15.5,8.49999998 L15.5,6.99999998 L21,6.99999998 L21,20 C21,21.5978215 19.7512156,22.9036709 18.1762873,22.9949078 L18,23 L5.99999996,23 C4.40217854,23 3.09632904,21.7512156 3.00509212,20.1762873 L2.99999996,20 L2.99999996,6.99999998 L8.49999996,6.99999998 Z M12,1.99999996 C12.3795,1.99999996 12.6934583,2.28191315 12.7431493,2.64816923 L12.75,2.74999996 L12.75,11.5 L16.582,11.5 L12,18.5 L7.41799998,11.5 L11.25,11.5 L11.25,2.74999996 C11.25,2.33549996 11.586,1.99999996 12,1.99999996 Z" id="Icon" fill="#000000"></path>
    </g>
</svg>