<?xml version="1.0" encoding="UTF-8"?>
<svg width="24px" height="24px" viewBox="0 0 24 24" version="1.1" xmlns="http://www.w3.org/2000/svg" xmlns:xlink="http://www.w3.org/1999/xlink">
    <title>/svg/icon/action/light-dark-mode/default</title>
    <g id="icon/action/light-dark-mode/default" stroke="none" stroke-width="1" fill="none" fill-rule="evenodd">
        <path d="M4.7099,17.4791 L3.2959,18.8931 C3.0029,19.1861 3.0029,19.6611 3.2959,19.9541 C3.4419,20.1001 3.6339,20.1731 3.8259,20.1731 C4.0179,20.1731 4.2099,20.1001 4.3569,19.9541 L5.7709,18.5391 C6.0639,18.2461 6.0639,17.7721 5.7709,17.4791 C5.4779,17.1861 5.0029,17.1861 4.7099,17.4791 L4.7099,17.4791 Z M11.2499,19.7491 C10.8359,19.7491 10.4999,20.0851 10.4999,20.4991 L10.4999,22.4991 C10.4999,22.9131 10.8359,23.2491 11.2499,23.2491 C11.6639,23.2491 11.9999,22.9131 11.9999,22.4991 L11.9999,20.4991 C11.9999,20.0851 11.6639,19.7491 11.2499,19.7491 L11.2499,19.7491 Z M11.4449,16.7391 C11.3799,16.7421 11.3159,16.7491 11.2499,16.7491 C8.6309,16.7491 6.4999,14.6181 6.4999,11.9991 C6.4999,9.3801 8.6309,7.2491 11.2499,7.2491 C11.4389,7.2491 11.6239,7.2631 11.8059,7.2851 C12.1969,6.8181 12.6449,6.4031 13.1329,6.0391 C12.5389,5.8521 11.9069,5.7491 11.2499,5.7491 C7.7979,5.7491 4.9999,8.5471 4.9999,11.9991 C4.9999,15.4511 7.7979,18.2491 11.2499,18.2491 C11.7369,18.2491 12.2089,18.1881 12.6639,18.0821 C12.2079,17.6831 11.7979,17.2341 11.4449,16.7391 L11.4449,16.7391 Z M3.5009,11.9991 C3.5009,11.5851 3.1649,11.2491 2.7509,11.2491 L0.7509,11.2491 C0.3369,11.2491 0.0009,11.5851 0.0009,11.9991 C0.0009,12.4131 0.3369,12.7491 0.7509,12.7491 L2.7509,12.7491 C3.1649,12.7491 3.5009,12.4131 3.5009,11.9991 L3.5009,11.9991 Z M11.2499,4.2491 C11.6639,4.2491 11.9999,3.9131 11.9999,3.4991 L11.9999,1.4991 C11.9999,1.0851 11.6639,0.7491 11.2499,0.7491 C10.8359,0.7491 10.4999,1.0851 10.4999,1.4991 L10.4999,3.4991 C10.4999,3.9131 10.8359,4.2491 11.2499,4.2491 L11.2499,4.2491 Z M17.7499,5.9991 C14.2979,5.9991 11.4999,8.7971 11.4999,12.2491 C11.4999,15.7011 14.2979,18.4991 17.7499,18.4991 C21.2019,18.4991 23.9999,15.7011 23.9999,12.2491 C23.9999,8.7971 21.2019,5.9991 17.7499,5.9991 L17.7499,5.9991 Z M4.7099,6.5191 C4.8559,6.6661 5.0489,6.7391 5.2399,6.7391 C5.4319,6.7391 5.6239,6.6661 5.7709,6.5191 C6.0639,6.2261 6.0639,5.7521 5.7709,5.4591 L4.3559,4.0441 C4.0629,3.7511 3.5889,3.7511 3.2959,4.0441 C3.0029,4.3371 3.0029,4.8121 3.2959,5.1051 L4.7099,6.5191 Z" id="Icon" fill="#000000"></path>
    </g>
</svg>