<?xml version="1.0" encoding="UTF-8"?>
<svg width="24px" height="24px" viewBox="0 0 24 24" version="1.1" xmlns="http://www.w3.org/2000/svg" xmlns:xlink="http://www.w3.org/1999/xlink">
    <title>icon/action/logout/default@svg</title>
    <g id="icon/action/logout/default" stroke="none" stroke-width="1" fill="none" fill-rule="evenodd">
        <path d="M14,1.99999996 L14,6.99999996 L12.5,6.99999996 L12.5,3.49999996 L5.74999997,3.49999996 C4.49999996,3.49999996 3.49999996,4.49999996 3.49999996,5.74999997 L3.49999996,5.74999997 L3.49999996,17.75 C3.49999996,19 4.49999996,20 5.74999997,20 L5.74999997,20 L12.5,20 L12.5,16.5 L14,16.5 L14,21.5 L5.74999997,21.5 C3.69999997,21.5 1.99999996,19.8 1.99999996,17.75 L1.99999996,17.75 L1.99999996,5.74999997 C1.99999996,3.69999997 3.69999997,1.99999996 5.74999997,1.99999996 L5.74999997,1.99999996 L14,1.99999996 Z M16.5,7.34999998 L23.25,11.75 L16.5,16.15 L16.5,12.5 L7.24999998,12.5 C6.84999998,12.5 6.49999998,12.15 6.49999998,11.75 C6.49999998,11.35 6.84999998,11 7.24999998,11 L7.24999998,11 L16.5,11 L16.5,7.34999998 Z" id="Combined-Shape" fill="#262626"></path>
    </g>
</svg>