<?xml version="1.0" encoding="UTF-8"?>
<svg width="24px" height="24px" viewBox="0 0 24 24" version="1.1" xmlns="http://www.w3.org/2000/svg" xmlns:xlink="http://www.w3.org/1999/xlink">
    <title>01_24px/icon/action/menu/default</title>
    <g id="icon/action/menu/default" stroke="none" stroke-width="1" fill="none" fill-rule="evenodd">
        <path d="M14.75,16.5 C15.15,16.5 15.5,16.85 15.5,17.25 C15.5,17.6166667 15.2059028,17.9413195 14.8487847,17.992882 L14.75,18 L4.24999997,18 C3.84999997,18 3.49999996,17.65 3.49999996,17.25 C3.49999996,16.8833334 3.79409719,16.5586806 4.15121525,16.5071181 L4.24999997,16.5 L14.75,16.5 Z M19.75,11 C20.15,11 20.5,11.35 20.5,11.75 C20.5,12.1166667 20.2059028,12.4413194 19.8487848,12.4928819 L19.75,12.5 L4.24999997,12.5 C3.84999997,12.5 3.49999996,12.15 3.49999996,11.75 C3.49999996,11.3833333 3.79409719,11.0586806 4.15121525,11.0071181 L4.24999997,11 L19.75,11 Z M19.75,5.49999997 C20.15,5.49999997 20.5,5.84999997 20.5,6.24999998 C20.5,6.61666664 20.2059028,6.94131942 19.8487848,6.99288192 L19.75,6.99999997 L4.24999997,6.99999997 C3.84999997,6.99999997 3.49999996,6.64999998 3.49999996,6.24999998 C3.49999996,5.88333331 3.79409719,5.55868053 4.15121525,5.50711803 L4.24999997,5.49999997 L19.75,5.49999997 Z" id="Shape" fill="#000000"></path>
    </g>
</svg>