<?xml version="1.0" encoding="UTF-8" standalone="no"?>
<svg
   width="40"
   height="40"
   viewBox="0 0 40 40"
   version="1.1"
   id="svg6"
   xmlns="http://www.w3.org/2000/svg"
   xmlns:svg="http://www.w3.org/2000/svg">
  <defs
     id="defs10" />
  <title
     id="title2">icon/action/fast-backward/default-40px-white</title>
  <g
     id="icon/action/fast-backward/default-40px-white"
     stroke="none"
     stroke-width="1"
     fill="none"
     fill-rule="evenodd"
     style="fill:#000000;fill-opacity:1">
    <path
       d="M 20,1 C 30.493182,1 39,9.5068182 39,20 39,30.493182 30.493182,39 20,39 9.5068182,39 1,30.493182 1,20 1,9.5068182 9.5068182,1 20,1 Z m 0,2.5909091 C 10.949091,3.5909091 3.5909091,10.949091 3.5909091,20 3.5909091,29.050909 10.949091,36.409091 20,36.409091 29.050909,36.409091 36.409091,29.050909 36.409091,20 36.409091,10.949091 29.050909,3.5909091 20,3.5909091 Z M 20.474591,13 31,20 20.474591,27 V 20.7 L 11,27 V 13 l 9.474591,6.3 z"
       id="Combined-Shape"
       fill="#FFFFFF"
       transform="matrix(-1,0,0,1,40,0)"
       style="fill:#000000;fill-opacity:1" />
  </g>
</svg>
