<?xml version="1.0" encoding="UTF-8"?>
<svg width="24px" height="24px" viewBox="0 0 24 24" version="1.1" xmlns="http://www.w3.org/2000/svg" xmlns:xlink="http://www.w3.org/1999/xlink">
    <title>/svg/icon/communication/available/default</title>
    <g id="icon/communication/available/default" stroke="none" stroke-width="1" fill="none" fill-rule="evenodd">
        <path d="M12,0.999999954 C18.075,0.999999954 23,5.92499997 23,12 C23,18.075 18.075,23 12,23 C5.92499997,23 0.999999954,18.075 0.999999954,12 C0.999999954,5.92499997 5.92499997,0.999999954 12,0.999999954 Z M12,2.49999996 C6.76149998,2.49999996 2.49999996,6.76149998 2.49999996,12 C2.49999996,17.2385 6.76149998,21.5 12,21.5 C17.2385,21.5 21.5,17.2385 21.5,12 C21.5,6.76149998 17.2385,2.49999996 12,2.49999996 Z M16.4695,8.23599998 C16.7625,7.94299998 17.238,7.94349998 17.531,8.23649998 C17.7973637,8.50286362 17.8215785,8.91964048 17.6036447,9.21297632 L17.531,9.29699999 L10.667,16.1605 L6.46999998,11.9635 C6.17699998,11.671 6.17699998,11.1955 6.46999998,10.903 C6.73636361,10.6366364 7.15272725,10.6124215 7.44636362,10.8303554 L7.53049998,10.903 L10.6665,14.039 L16.4695,8.23599998 Z" id="Icon" fill="#000000"></path>
    </g>
</svg>