<?xml version="1.0" encoding="UTF-8"?>
<svg width="24px" height="24px" viewBox="0 0 24 24" version="1.1" xmlns="http://www.w3.org/2000/svg" xmlns:xlink="http://www.w3.org/1999/xlink">
    <title>/svg/icon/action/restart/default</title>
    <g id="icon/action/restart/default" stroke="none" stroke-width="1" fill="none" fill-rule="evenodd">
        <path d="M10.745,1.06999995 C5.65499997,1.63499996 1.56999996,5.76499997 1.05499995,10.86 C0.659999953,14.775 2.32999996,18.32 5.09499997,20.555 L3.50499996,22.99 L10.18,22.975 L7.49999998,16.865 L5.92499997,19.28 C3.83999997,17.545 2.49999996,14.93 2.49999996,12 C2.49999996,6.39999998 7.36499998,1.91999996 13.09,2.55999996 C17.545,3.05999996 21.1,6.73499998 21.465,11.205 C21.875,16.24 18.33,20.545 13.6,21.355 C13.25,21.415 13,21.73 13,22.09 C13,22.555 13.42,22.915 13.88,22.835 C19.06,21.94 23,17.435 23,12 C23,5.50999997 17.385,0.334999951 10.745,1.06999995 Z" id="Icon" fill="#000000"></path>
    </g>
</svg>