<?xml version="1.0" encoding="UTF-8"?>
<svg width="24px" height="24px" viewBox="0 0 24 24" version="1.1" xmlns="http://www.w3.org/2000/svg" xmlns:xlink="http://www.w3.org/1999/xlink">
    <title>/svg/icon/action/share/default</title>
    <g id="icon/action/share/default" stroke="none" stroke-width="1" fill="none" fill-rule="evenodd">
        <path d="M10.966,4.99999997 C10.43475,5.35499997 9.94343055,5.76312497 9.50101156,6.22003469 L9.24149999,6.49999997 L3.99999996,6.49999997 L3.99999996,18 C3.99999996,18.778353 4.59615222,19.4202906 5.35576304,19.4931195 L5.49999996,19.5 L17.5,19.5 C18.278353,19.5 18.9202906,18.9038478 18.9931194,18.1442369 L19,18 L19,10.3245 L20.5,9.34249999 L20.5,18 C20.5,19.5978215 19.2512156,20.9036709 17.6762873,20.9949078 L17.5,21 L5.49999996,21 C3.90217854,21 2.59632904,19.7512156 2.50509212,18.1762873 L2.49999996,18 L2.49999996,4.99999997 L10.966,4.99999997 Z M16.5,1.33199996 L23.25,5.74999997 L16.5,10.168 L16.5,6.49999998 L15.8875,6.49999998 C12.7147841,6.49999998 10.1203582,9.02231869 10.0040685,12.1671099 L9.99999999,12.3875 L9.99999999,14.7085 C9.99999999,15.123 9.66399999,15.4585 9.24999999,15.4585 C8.87049999,15.4585 8.55654165,15.1765868 8.50685068,14.8103307 L8.49999999,14.7085 L8.49999999,12.3875 C8.49999999,8.39546998 11.6827656,5.13286377 15.6440219,5.00395633 L15.8875,4.99999997 L16.5,4.99999997 L16.5,1.33199996 Z" id="Icon" fill="#000000"></path>
    </g>
</svg>