<?xml version="1.0" encoding="UTF-8"?>
<svg width="24px" height="24px" viewBox="0 0 24 24" version="1.1" xmlns="http://www.w3.org/2000/svg" xmlns:xlink="http://www.w3.org/1999/xlink">
    <title>01_24px/icon/action/search/default</title>
    <g id="icon/action/search/default" stroke="none" stroke-width="1" fill="none" fill-rule="evenodd">
        <path d="M21.4,19.6 L16.5,14.7 C17.45,13.4 18.05,11.75 18.05,9.99999996 C18.05,5.59999997 14.45,1.99999996 10.05,1.99999996 C5.64999997,1.99999996 1.99999996,5.59999997 1.99999996,9.99999996 C1.99999996,14.4 5.59999997,18 9.99999996,18 C11.75,18 13.4,17.45 14.7,16.45 L19.6,21.35 C20.1,21.85 20.9,21.85 21.35,21.35 C21.85,20.9 21.85,20.1 21.4,19.6 Z M3.49999996,9.99999996 C3.49999996,6.39999998 6.39999998,3.49999996 9.99999996,3.49999996 C13.6,3.49999996 16.5,6.39999998 16.5,9.99999996 C16.5,13.6 13.6,16.5 9.99999996,16.5 C6.39999998,16.5 3.49999996,13.6 3.49999996,9.99999996 Z" id="Combined-Shape" fill="#000000"></path>
    </g>
</svg>