<?xml version="1.0" encoding="UTF-8"?>
<svg width="24px" height="24px" viewBox="0 0 24 24" version="1.1" xmlns="http://www.w3.org/2000/svg" xmlns:xlink="http://www.w3.org/1999/xlink">
    <title>icon/action/favorite/default@svg</title>
    <g id="icon/action/favorite/default" stroke="none" stroke-width="1" fill="none" fill-rule="evenodd">
        <path d="M23.55,9.39999999 C23.3,8.69999999 22.7,8.19999998 21.95,8.14999998 L15.95,7.69999998 L13.7,2.14999996 C13.4,1.44999996 12.75,0.999999954 12,0.999999954 C11.25,0.999999954 10.6,1.44999996 10.3,2.14999996 L7.99999998,7.74999998 L1.99999996,8.19999998 C1.24999996,8.24999998 0.649999953,8.74999999 0.399999952,9.44999999 C0.149999951,10.15 0.399999952,10.9 0.949999954,11.4 L5.54999997,15.3 L4.14999997,21.1 C3.99999997,21.8 4.24999997,22.55 4.84999997,23 C5.14999997,23.25 5.54999997,23.35 5.89999997,23.35 C6.24999998,23.35 6.54999998,23.25 6.84999998,23.1 L12,19.9 L17.1,23.1 C17.75,23.5 18.5,23.45 19.1,23.05 C19.7,22.6 19.95,21.85 19.8,21.15 L18.35,15.3 L22.95,11.4 C23.55,10.85 23.8,10.1 23.55,9.39999999 Z M22.05,10.2 L16.75,14.7 L18.4,21.45 C18.45,21.65 18.35,21.75 18.3,21.8 C18.25,21.85 18.1,21.9 17.95,21.8 L12,18.1 L6.09999998,21.75 C5.94999997,21.85 5.79999997,21.8 5.74999997,21.75 C5.69999997,21.7 5.59999997,21.6 5.64999997,21.4 L7.29999998,14.65 L1.99999996,10.15 C1.84999996,10.05 1.89999996,9.89999999 1.89999996,9.79999999 C1.89999996,9.74999999 1.99999996,9.59999999 2.14999996,9.59999999 L9.09999999,9.09999999 L11.75,2.64999996 C11.8,2.49999996 11.9,2.49999996 12,2.49999996 C12.1,2.49999996 12.2,2.54999996 12.3,2.69999996 L14.95,9.14999999 L21.9,9.64999999 C22.1,9.64999999 22.15,9.79999999 22.15,9.84999999 C22.15,9.94999999 22.15,10.1 22.05,10.2 Z" id="Combined-Shape" fill="#262626"></path>
    </g>
</svg>