<?xml version="1.0" encoding="UTF-8"?>
<svg width="24px" height="24px" viewBox="0 0 24 24" version="1.1" xmlns="http://www.w3.org/2000/svg" xmlns:xlink="http://www.w3.org/1999/xlink">
    <title>/svg/icon/action/star/selected</title>
    <g id="icon/action/star/selected" stroke="none" stroke-width="1" fill="none" fill-rule="evenodd">
        <path d="M22.6135,9.215 C22.3965,8.5475 21.804,8.0825 21.1035,8.0315 L15.652,7.632 L13.5875,2.571 L13.5875,2.571 C13.3225,1.9215 12.6975,1.501 11.9955,1.501 C11.2935,1.501 10.669,1.921 10.4035,2.571 L8.339,7.6325 L2.8875,8.0315 C2.1875,8.083 1.5945,8.5475 1.3775,9.215 C1.1605,9.8825 1.367,10.6065 1.9035,11.0595 L6.079,14.587 L4.7745,19.8955 C4.607,20.577 4.866,21.284 5.433,21.697 C6.001,22.11 6.754,22.1375 7.3505,21.7675 L11.9955,18.886 L16.641,21.7675 C16.9205,21.941 17.2345,22.0270245 17.547,22.0270245 C17.902,22.0270245 18.256,21.9165 18.5575,21.697 C19.125,21.2845 19.3835,20.5775 19.216,19.896 L17.9115,14.5875 L22.087,11.06 C22.6235,10.6065 22.83,9.8825 22.6135,9.215 Z" id="Icon" fill="#000000"></path>
    </g>
</svg>