<?xml version="1.0" encoding="UTF-8"?>
<svg width="24px" height="24px" viewBox="0 0 24 24" version="1.1" xmlns="http://www.w3.org/2000/svg" xmlns:xlink="http://www.w3.org/1999/xlink">
    <title>/svg/icon/content/price-tag/default</title>
    <g id="icon/content/price-tag/default" stroke="none" stroke-width="1" fill="none" fill-rule="evenodd">
        <path d="M12.445,1.53499996 L21.225,2.83499996 L22.52,11.615 L12.215,21.92 C11.62,22.515 10.835,22.815 10.055,22.815 C9.34590908,22.815 8.63268594,22.5670662 8.06183695,22.074955 L7.89499998,21.92 L2.13499996,16.16 C0.985961493,15.0157692 0.941767705,13.182744 2.0024186,11.9810841 L2.13499996,11.84 L12.445,1.53499996 Z M12.97,3.12499996 L3.19499996,12.9 C2.89999996,13.195 2.73999996,13.585 2.73999996,14 C2.73999996,14.363125 2.86249996,14.7071094 3.09075192,14.9850586 L3.19499996,15.1 L8.95999999,20.86 C9.25499999,21.155 9.64499999,21.315 10.06,21.315 C10.423125,21.315 10.7671094,21.1925 11.0450586,20.9642481 L11.16,20.86 L20.93,11.09 L19.9,4.15499997 L12.97,3.12499996 Z M17.5,5.49999997 C18.0522848,5.49999997 18.5,5.94771522 18.5,6.49999997 C18.5,7.05228473 18.0522848,7.49999997 17.5,7.49999997 C16.9477153,7.49999997 16.5,7.05228473 16.5,6.49999997 C16.5,5.94771522 16.9477153,5.49999997 17.5,5.49999997 Z" id="Icon" fill="#000000"></path>
    </g>
</svg>