<?xml version="1.0" encoding="UTF-8"?>
<svg width="24px" height="24px" viewBox="0 0 24 24" version="1.1" xmlns="http://www.w3.org/2000/svg" xmlns:xlink="http://www.w3.org/1999/xlink">
    <title>icon/content/applications/default@svg</title>
    <defs>
        <path d="M7.99999996,13 C9.39999999,13 10.5,14.1 10.5,15.5 L10.5,15.5 L10.5,19.5 C10.5,20.9 9.39999999,22 7.99999996,22 L7.99999996,22 L3.99999996,22 C2.59999996,22 1.49999996,20.9 1.49999996,19.5 L1.49999996,19.5 L1.49999996,15.5 C1.49999996,14.1 2.59999996,13 3.99999996,13 L3.99999996,13 Z M19,13 C20.4,13 21.5,14.1 21.5,15.5 L21.5,15.5 L21.5,19.5 C21.5,20.9 20.4,22 19,22 L19,22 L15,22 C13.6,22 12.5,20.9 12.5,19.5 L12.5,19.5 L12.5,15.5 C12.5,14.1 13.6,13 15,13 L15,13 Z M7.99999996,14.5 L3.99999996,14.5 C3.44999996,14.5 2.99999996,14.95 2.99999996,15.5 L2.99999996,15.5 L2.99999996,19.5 C2.99999996,20.05 3.44999996,20.5 3.99999996,20.5 L3.99999996,20.5 L7.99999996,20.5 C8.54999999,20.5 8.99999996,20.05 8.99999996,19.5 L8.99999996,19.5 L8.99999996,15.5 C8.99999996,14.95 8.54999999,14.5 7.99999996,14.5 L7.99999996,14.5 Z M19,14.5 L15,14.5 C14.45,14.5 14,14.95 14,15.5 L14,15.5 L14,19.5 C14,20.05 14.45,20.5 15,20.5 L15,20.5 L19,20.5 C19.55,20.5 20,20.05 20,19.5 L20,19.5 L20,15.5 C20,14.95 19.55,14.5 19,14.5 L19,14.5 Z M7.99999996,1.99999996 C9.39999999,1.99999996 10.5,3.09999996 10.5,4.49999996 L10.5,4.49999996 L10.5,8.49999996 C10.5,9.89999999 9.39999999,11 7.99999996,11 L7.99999996,11 L3.99999996,11 C2.59999996,11 1.49999996,9.89999999 1.49999996,8.49999996 L1.49999996,8.49999996 L1.49999996,4.49999996 C1.49999996,3.09999996 2.59999996,1.99999996 3.99999996,1.99999996 L3.99999996,1.99999996 Z M19,1.99999996 C20.4,1.99999996 21.5,3.09999996 21.5,4.49999996 L21.5,4.49999996 L21.5,8.49999996 C21.5,9.89999999 20.4,11 19,11 L19,11 L15,11 C13.6,11 12.5,9.89999999 12.5,8.49999996 L12.5,8.49999996 L12.5,4.49999996 C12.5,3.09999996 13.6,1.99999996 15,1.99999996 L15,1.99999996 Z M7.99999996,3.49999996 L3.99999996,3.49999996 C3.44999996,3.49999996 2.99999996,3.94999997 2.99999996,4.49999996 L2.99999996,4.49999996 L2.99999996,8.49999996 C2.99999996,9.04999999 3.44999996,9.49999996 3.99999996,9.49999996 L3.99999996,9.49999996 L7.99999996,9.49999996 C8.54999999,9.49999996 8.99999996,9.04999999 8.99999996,8.49999996 L8.99999996,8.49999996 L8.99999996,4.49999996 C8.99999996,3.94999997 8.54999999,3.49999996 7.99999996,3.49999996 L7.99999996,3.49999996 Z M19,3.49999996 L15,3.49999996 C14.45,3.49999996 14,3.94999997 14,4.49999996 L14,4.49999996 L14,8.49999996 C14,9.04999999 14.45,9.49999996 15,9.49999996 L15,9.49999996 L19,9.49999996 C19.55,9.49999996 20,9.04999999 20,8.49999996 L20,8.49999996 L20,4.49999996 C20,3.94999997 19.55,3.49999996 19,3.49999996 L19,3.49999996 Z" id="path-1"></path>
    </defs>
    <g id="icon/content/applications/default" stroke="none" stroke-width="1" fill="none" fill-rule="evenodd">
        <mask id="mask-2" fill="white">
            <use xlink:href="#path-1"></use>
        </mask>
        <use id="Combined-Shape" fill="#262626" xlink:href="#path-1"></use>
    </g>
</svg>