<?xml version="1.0" encoding="UTF-8"?>
<svg width="24px" height="24px" viewBox="0 0 24 24" version="1.1" xmlns="http://www.w3.org/2000/svg" xmlns:xlink="http://www.w3.org/1999/xlink">
    <title>icon/action/upload-to-cloud/default</title>
    <g id="icon/action/upload-to-cloud/default" stroke="none" stroke-width="1" fill="none" fill-rule="evenodd">
        <path d="M20.7,8.74999999 C20.25,7.44999998 19.45,6.34999998 18.45,5.49999997 C17.1,4.34999997 15.4,3.69999997 13.5,3.69999997 C11.75,3.69999997 10.05,4.29999997 8.69999999,5.39999997 C8.34999998,5.29999997 7.94999998,5.24999997 7.59999998,5.24999997 C5.19999997,5.24999997 3.19999996,7.04999998 2.94999996,9.39999999 C1.29999996,10.3 0.249999951,12 0.249999951,13.9 C0.249999951,15.6 1.04999995,17.05 2.29999996,18 C3.29999996,18.75 4.49999997,19.1 5.64999997,19 C7.24999995,20.3 9.24999995,21 11.3,21 C13.2,21 14.95,20.45 16.5,19.35 C17,19.5 17.5,19.55 18,19.55 C21.15,19.55 23.75,16.95 23.75,13.8 C23.75,11.7 22.55,9.69999997 20.7,8.74999999 Z M18,18.05 C17.1,18.05 16.45,17.75 16.2,17.65 C15.9,17.85 14.9,18.9 12.75,19.35 L12.75,15 L16.05,15 L12,9.99999999 L7.94999998,15 L11.25,15 L11.25,19.5 C10.4,19.5 9.59999999,19.35 8.79999999,19.05 C7.24999998,18.5 6.24999998,17.5 6.14999998,17.4 C5.54999997,17.45 4.19999996,17.7 2.89999996,16.5 C2.19999996,15.85 1.69999996,14.9 1.69999996,13.85 C1.69999996,11.1 4.29999997,10.35 4.34999997,10.3 C4.39999997,10.1 4.14999997,8.64999999 5.44999997,7.49999998 C6.39999998,6.69999998 7.69999996,6.44999998 8.99999999,6.99999998 C10.55,5.44999997 12.35,5.09999997 13.45,5.09999997 C14.95,5.09999997 16.3,5.59999997 17.4,6.49999998 C18.9,7.74999998 19.3,9.34999999 19.4,9.69999999 C19.4,9.69999999 22.2,10.7 22.2,13.7 C22.25,16.15 20.35,18.05 18,18.05 Z" id="Shape" fill="#262626" fill-rule="nonzero"></path>
    </g>
</svg>