<?xml version="1.0" encoding="UTF-8"?>
<svg width="24px" height="24px" viewBox="0 0 24 24" version="1.1" xmlns="http://www.w3.org/2000/svg" xmlns:xlink="http://www.w3.org/1999/xlink">
    <title>/svg/icon/action/upload/default</title>
    <g id="icon/action/upload/default" stroke="none" stroke-width="1" fill="none" fill-rule="evenodd">
        <path d="M21.25,20.5 C21.65,20.5 22,20.85 22,21.25 C22,21.6166667 21.7059028,21.9413195 21.3487848,21.992882 L21.25,22 L2.74999996,22 C2.34999996,22 1.99999996,21.65 1.99999996,21.25 C1.99999996,20.8833334 2.29409718,20.5586806 2.65121524,20.5071181 L2.74999996,20.5 L21.25,20.5 Z M12,1.99999996 L16.6,8.99999996 L12.75,8.99999996 L12.75,15.75 C12.75,16.15 12.4,16.5 12,16.5 C11.6333333,16.5 11.3086806,16.2059028 11.2571181,15.8487847 L11.25,15.75 L11.25,8.99999996 L7.39999998,8.99999996 L12,1.99999996 Z" id="Icon" fill="#000000"></path>
    </g>
</svg>