<?xml version="1.0" encoding="UTF-8"?>
<svg width="24px" height="24px" viewBox="0 0 24 24" version="1.1" xmlns="http://www.w3.org/2000/svg" xmlns:xlink="http://www.w3.org/1999/xlink">
    <title>icon/user_file/user/default@svg</title>
    <g id="icon/user_file/user/default" stroke="none" stroke-width="1" fill="none" fill-rule="evenodd">
        <path d="M8.89999999,16.5 L12,19.6 L15.1,16.5 L17.35,16.5 C19.7,16.5 21.65,18.15 22.05,20.45 L22.05,20.45 L22.25,21.5 L1.79999996,21.5 L1.94999996,20.45 C2.34999996,18.15 4.29999996,16.5 6.64999998,16.5 L6.64999998,16.5 L8.89999999,16.5 Z M12,1.99999996 C15.5,1.99999996 18,4.49999996 18,7.99999996 C18,11.4 15.6,15 12,15 C8.39999998,15 5.99999997,11.4 5.99999997,7.99999996 C5.99999997,4.49999996 8.49999997,1.99999996 12,1.99999996 Z M12,3.49999996 C9.39999999,3.49999996 7.49999998,5.39999997 7.49999998,7.99999996 C7.49999998,10.65 9.29999999,13.5 12,13.5 C14.7,13.5 16.5,10.65 16.5,7.99999996 C16.5,5.39999997 14.6,3.49999996 12,3.49999996 Z" id="Combined-Shape" fill="#262626"></path>
    </g>
</svg>