<?xml version="1.0" encoding="UTF-8"?>
<svg width="24px" height="24px" viewBox="0 0 24 24" version="1.1" xmlns="http://www.w3.org/2000/svg" xmlns:xlink="http://www.w3.org/1999/xlink">
    <title>icon/service/settings/default@svg</title>
    <g id="icon/service/settings/default" stroke="none" stroke-width="1" fill="none" fill-rule="evenodd">
        <path d="M14,0.999999954 L14.5,3.74999997 C14.65,4.49999995 15.45,4.79999997 16.05,4.39999997 L16.05,4.39999997 L18.35,2.79999996 L21.2,5.64999997 L19.6,7.94999998 C19.2,8.54999999 19.55,9.34999999 20.25,9.49999995 L20.25,9.49999995 L23,9.99999995 L23,14 L20.25,14.5 C19.5,14.65 19.2,15.45 19.6,16.05 L19.6,16.05 L21.2,18.35 L18.35,21.2 L16.05,19.6 C15.45,19.2 14.65,19.55 14.5,20.25 L14.5,20.25 L14,23 L9.99999995,23 L9.49999995,20.25 C9.34999999,19.55 8.54999999,19.2 7.94999998,19.6 L7.94999998,19.6 L5.64999997,21.2 L2.79999996,18.35 L4.39999997,16.05 C4.79999997,15.45 4.44999997,14.65 3.74999997,14.5 L3.74999997,14.5 L0.999999954,14 L0.999999954,9.99999995 L3.74999997,9.49999995 C4.49999995,9.34999999 4.79999997,8.54999999 4.39999997,7.94999998 L4.39999997,7.94999998 L2.79999996,5.64999997 L5.64999997,2.79999996 L7.94999998,4.39999997 C8.54999999,4.79999997 9.34999999,4.44999997 9.49999995,3.74999997 L9.49999995,3.74999997 L9.99999995,0.999999954 L14,0.999999954 Z M12.75,2.49999996 L11.25,2.49999996 L10.95,3.99999996 C10.75,5.19999997 9.69999999,6.04999998 8.49999996,6.04999998 C7.99999996,6.04999998 7.49999996,5.89999997 7.09999998,5.59999997 L7.09999998,5.59999997 L5.79999997,4.69999997 L4.74999997,5.74999997 L5.64999997,7.04999998 C6.14999998,7.74999998 6.24999998,8.64999999 5.89999997,9.44999999 C5.59999997,10.25 4.89999997,10.8 4.04999997,10.95 L4.04999997,10.95 L2.49999996,11.25 L2.49999996,12.75 L4.04999997,13 C4.89999997,13.15 5.54999997,13.7 5.89999997,14.5 C6.24999998,15.3 6.14999998,16.2 5.64999997,16.9 L5.64999997,16.9 L4.74999997,18.2 L5.79999997,19.25 L7.09999998,18.35 C7.49999996,18.05 7.99999996,17.9 8.49999996,17.9 C9.69999999,17.9 10.75,18.75 10.95,19.95 L10.95,19.95 L11.25,21.5 L12.75,21.5 L13.05,19.95 C13.25,18.75 14.3,17.9 15.5,17.9 C16,17.9 16.5,18.05 16.9,18.35 L16.9,18.35 L18.2,19.25 L19.25,18.2 L18.35,16.9 C17.85,16.2 17.8,15.3 18.1,14.6 C18.4,13.8 19.1,13.25 19.95,13.1 L19.95,13.1 L21.5,12.8 L21.5,11.3 L19.95,11 C19.1,10.85 18.45,10.3 18.1,9.49999996 C17.75,8.69999999 17.85,7.79999998 18.35,7.09999998 L18.35,7.09999998 L19.25,5.79999997 L18.2,4.74999997 L16.9,5.64999997 C16.5,5.94999997 16,6.09999998 15.5,6.09999998 C14.3,6.09999998 13.25,5.24999997 13.05,4.04999997 L13.05,4.04999997 L12.75,2.49999996 Z M12,8.99999999 C13.6568543,8.99999999 15,10.3431457 15,12 C15,13.6568543 13.6568543,15 12,15 C10.3431457,15 8.99999999,13.6568543 8.99999999,12 C8.99999999,10.3431457 10.3431457,8.99999999 12,8.99999999 Z" id="Combined-Shape" fill="#262626"></path>
    </g>
</svg>