<?xml version="1.0" encoding="UTF-8"?>
<svg width="24px" height="24px" viewBox="0 0 24 24" version="1.1" xmlns="http://www.w3.org/2000/svg" xmlns:xlink="http://www.w3.org/1999/xlink">
    <title>/svg/icon/content/news/default</title>
    <g id="icon/content/news/default" stroke="none" stroke-width="1" fill="none" fill-rule="evenodd">
        <path d="M22.5,2.99999996 L22.5,18.5 C22.5,20.0910715 21.2447067,21.4031887 19.6755899,21.494882 L19.5,21.5 L4.49999996,21.5 C2.90892853,21.5 1.59681118,20.2447067 1.50511794,18.6755899 L1.49999996,18.5 L1.49999996,2.99999996 L22.5,2.99999996 Z M21,4.49999997 L2.99999996,4.49999997 L2.99999996,18.5 C2.99999996,19.3 3.57577851,19.9228373 4.35216768,19.9933442 L4.49999996,20 L19.5,20 C20.3,20 20.9228373,19.4242215 20.9933442,18.6478323 L21,18.5 L21,4.49999997 Z M17.75,16 C18.15,16 18.5,16.35 18.5,16.75 C18.5,17.1166667 18.2059028,17.4413195 17.8487847,17.492882 L17.75,17.5 L13.75,17.5 C13.35,17.5 13,17.15 13,16.75 C13,16.3833334 13.2940972,16.0586806 13.6512153,16.0071181 L13.75,16 L17.75,16 Z M11,11 L11,17.5 L5.49999997,17.5 L5.49999997,11 L11,11 Z M17.75,13.5 C18.15,13.5 18.5,13.85 18.5,14.25 C18.5,14.6166667 18.2059028,14.9413195 17.8487847,14.992882 L17.75,15 L13.75,15 C13.35,15 13,14.65 13,14.25 C13,13.8833333 13.2940972,13.5586806 13.6512153,13.5071181 L13.75,13.5 L17.75,13.5 Z M17.75,11 C18.15,11 18.5,11.35 18.5,11.75 C18.5,12.1166667 18.2059028,12.4413194 17.8487847,12.4928819 L17.75,12.5 L13.75,12.5 C13.35,12.5 13,12.15 13,11.75 C13,11.3833333 13.2940972,11.0586806 13.6512153,11.0071181 L13.75,11 L17.75,11 Z M18.5,6.99999998 L18.5,8.99999998 L5.49999997,8.99999998 L5.49999997,6.99999998 L18.5,6.99999998 Z" id="Icon" fill="#000000"></path>
    </g>
</svg>