<?xml version="1.0" encoding="UTF-8"?>
<svg width="24px" height="24px" viewBox="0 0 24 24" version="1.1" xmlns="http://www.w3.org/2000/svg" xmlns:xlink="http://www.w3.org/1999/xlink">
    <title>icon/alert/help/default@svg</title>
    <g id="icon/alert/help/default" stroke="none" stroke-width="1" fill="none" fill-rule="evenodd">
        <path d="M12,0.999999954 C18.075,0.999999954 23,5.92499997 23,12 C23,18.075 18.075,23 12,23 C5.92499997,23 0.999999954,18.075 0.999999954,12 C0.999999954,5.92499997 5.92499997,0.999999954 12,0.999999954 Z M12,2.49999996 C6.76149998,2.49999996 2.49999996,6.76149998 2.49999996,12 C2.49999996,17.2385 6.76149998,21.5 12,21.5 C17.2385,21.5 21.5,17.2385 21.5,12 C21.5,6.76149998 17.2385,2.49999996 12,2.49999996 Z M12,15 C12.6903559,15 13.25,15.5596441 13.25,16.25 C13.25,16.940356 12.6903559,17.5 12,17.5 C11.3096441,17.5 10.75,16.940356 10.75,16.25 C10.75,15.5596441 11.3096441,15 12,15 Z M12.101,7.01999998 C13.7965,7.01999998 15.027,8.14299998 15.0265002,9.68949999 C15.0265002,10.8585 14.3495,11.466 13.752,12.0025 C13.2705,12.4345 12.8165,12.842 12.8165,13.4635 L12.8165,13.4635 L12.8165,13.796 L11.0695,13.796 L11.0695,13.193 C11.0695,12.1655 11.6815,11.6685 12.273,11.1875 C12.76,10.7925 13.2195,10.4195 13.2195,9.79499999 C13.2195,9.09549999 12.791,8.66099999 12.101,8.66099999 C11.445,8.66099999 11.023,9.08149999 10.933,9.81899999 L10.933,9.81899999 L9.12049999,9.81899999 C9.20499999,8.40749999 10.1465,7.01999998 12.101,7.01999998 Z" id="Combined-Shape" fill="#000000" fill-rule="nonzero"></path>
    </g>
</svg>