<?xml version="1.0" encoding="UTF-8"?>
<svg width="24px" height="24px" viewBox="0 0 24 24" version="1.1" xmlns="http://www.w3.org/2000/svg" xmlns:xlink="http://www.w3.org/1999/xlink">
    <title>icon/device/replacement-mobilephone/default@svg</title>
    <g id="icon/device/replacement-mobilephone/default" stroke="none" stroke-width="1" fill="none" fill-rule="evenodd">
        <path d="M7.04999998,2.99999996 C6.99999996,3.14999996 6.99999996,3.34999996 6.99999996,3.49999996 L6.99999996,4.49999996 L4.49999996,4.49999996 C3.64999997,4.49999996 2.99999996,5.14999997 2.99999996,5.99999996 L2.99999996,5.99999996 L2.99999996,20.5 C2.99999996,21.35 3.64999997,22 4.49999996,22 L4.49999996,22 L7.24999998,22 C7.44999998,22.55 7.74999998,23.05 8.14999998,23.5 L8.14999998,23.5 L4.49999996,23.5 C2.84999996,23.5 1.49999996,22.15 1.49999996,20.5 L1.49999996,20.5 L1.49999996,5.99999996 C1.49999996,4.34999997 2.84999996,2.99999996 4.49999996,2.99999996 L4.49999996,2.99999996 Z M19.5,0.499999952 C21.15,0.499999952 22.5,1.84999996 22.5,3.49999995 L22.5,3.49999995 L22.5,20.5 C22.5,22.15 21.15,23.5 19.5,23.5 L19.5,23.5 L11.5,23.5 C9.84999999,23.5 8.49999999,22.15 8.49999999,20.5 L8.49999999,20.5 L8.49999999,15 L9.99999999,15 L9.99999999,20.5 C9.99999999,21.35 10.65,22 11.5,22 L11.5,22 L19.5,22 C20.35,22 21,21.35 21,20.5 L21,20.5 L21,3.49999995 C21,2.64999996 20.35,1.99999995 19.5,1.99999995 L19.5,1.99999995 L17.5,1.99999995 L17.5,3.49999995 L13.5,3.49999995 L13.5,1.99999995 L11.5,1.99999995 C10.65,1.99999995 9.99999999,2.64999996 9.99999999,3.49999995 L9.99999999,3.49999995 L9.99999999,10.5 L8.49999999,10.5 L8.49999999,3.49999995 C8.49999999,1.84999996 9.84999999,0.499999952 11.5,0.499999952 L11.5,0.499999952 Z M15.5,18.5 C16.190356,18.5 16.75,19.0596441 16.75,19.75 C16.75,20.440356 16.190356,21 15.5,21 C14.8096441,21 14.25,20.440356 14.25,19.75 C14.25,19.0596441 14.8096441,18.5 15.5,18.5 Z M11.5,9.14999999 L17,12.75 L11.5,16.35 L11.5,13.5 L6.74999998,13.5 C6.34999998,13.5 5.99999997,13.15 5.99999997,12.75 C5.99999997,12.35 6.34999998,12 6.74999998,12 L6.74999998,12 L11.5,12 L11.5,9.14999999 Z" id="Combined-Shape" fill="#262626"></path>
    </g>
</svg>