<?xml version="1.0" encoding="UTF-8"?>
<svg width="24px" height="24px" viewBox="0 0 24 24" version="1.1" xmlns="http://www.w3.org/2000/svg" xmlns:xlink="http://www.w3.org/1999/xlink">
    <title>icon/communication/voice-message/default@svg</title>
    <defs>
        <path d="M22.45,2.99999996 L22.45,15.55 C22.45,17.2 21.1,18.55 19.45,18.55 L19.45,18.55 L12.45,18.55 L8.94999999,22.05 C8.59999999,22.4 8.19999998,22.55 7.74999998,22.55 C6.84999998,22.55 5.99999996,21.85 5.99999996,20.8 L5.99999996,20.8 L5.99999996,18.5 L4.49999996,18.5 C2.84999996,18.5 1.49999996,17.15 1.49999996,15.5 L1.49999996,15.5 L1.49999996,2.99999996 L22.45,2.99999996 Z M21,4.49999997 L2.99999996,4.49999997 L2.99999996,15.5 C2.99999996,16.35 3.64999997,17 4.49999996,17 L4.49999996,17 L7.49999996,17 L7.49999996,20.8 C7.49999996,21 7.74999998,21.15 7.94999998,20.95 L7.94999998,20.95 L11.9,17 L19.5,17 C20.35,17 21,16.35 21,15.5 L21,15.5 L21,4.49999997 Z M10.75,6.99999998 C11.15,6.99999998 11.5,7.34999998 11.5,7.74999998 L11.5,7.74999998 L11.5,13.75 C11.5,14.15 11.15,14.5 10.75,14.5 C10.35,14.5 9.99999999,14.15 9.99999999,13.75 L9.99999999,13.75 L9.99999999,7.74999998 C9.99999999,7.34999998 10.35,6.99999998 10.75,6.99999998 Z M13.75,7.99999998 C14.15,7.99999998 14.5,8.34999998 14.5,8.74999999 L14.5,8.74999999 L14.5,12.75 C14.5,13.15 14.15,13.5 13.75,13.5 C13.35,13.5 13,13.15 13,12.75 L13,12.75 L13,8.74999999 C13,8.34999998 13.35,7.99999998 13.75,7.99999998 Z M7.74999998,8.99999999 C8.14999998,8.99999999 8.49999998,9.34999999 8.49999998,9.74999999 L8.49999998,9.74999999 L8.49999998,11.75 C8.49999998,12.15 8.14999998,12.5 7.74999998,12.5 C7.34999998,12.5 6.99999998,12.15 6.99999998,11.75 L6.99999998,11.75 L6.99999998,9.74999999 C6.99999998,9.34999999 7.34999998,8.99999999 7.74999998,8.99999999 Z M16.75,8.99999999 C17.15,8.99999999 17.5,9.34999999 17.5,9.74999999 L17.5,9.74999999 L17.5,11.75 C17.5,12.15 17.15,12.5 16.75,12.5 C16.35,12.5 16,12.15 16,11.75 L16,11.75 L16,9.74999999 C16,9.34999999 16.35,8.99999999 16.75,8.99999999 Z" id="path-1"></path>
    </defs>
    <g id="icon/communication/voice-message/default" stroke="none" stroke-width="1" fill="none" fill-rule="evenodd">
        <mask id="mask-2" fill="white">
            <use xlink:href="#path-1"></use>
        </mask>
        <use id="Combined-Shape" fill="#262626" xlink:href="#path-1"></use>
    </g>
</svg>