<?xml version="1.0" encoding="UTF-8"?>
<svg width="24px" height="24px" viewBox="0 0 24 24" version="1.1" xmlns="http://www.w3.org/2000/svg" xmlns:xlink="http://www.w3.org/1999/xlink">
    <title>01_24px/icon/alert/warning/default</title>
    <g id="icon/alert/warning/default" stroke="none" stroke-width="1" fill="none" fill-rule="evenodd">
        <path d="M12,0.999999954 C18.1,0.999999954 23,5.89999997 23,12 C23,18.1 18.1,23 12,23 C5.89999997,23 0.999999954,18.1 0.999999954,12 C0.999999954,5.89999997 5.89999997,0.999999954 12,0.999999954 Z M12,2.49999996 C6.74999998,2.49999996 2.49999996,6.74999998 2.49999996,12 C2.49999996,17.25 6.74999998,21.5 12,21.5 C17.25,21.5 21.5,17.25 21.5,12 C21.5,6.74999998 17.25,2.49999996 12,2.49999996 Z M12,15 C12.6903559,15 13.25,15.5596441 13.25,16.25 C13.25,16.940356 12.6903559,17.5 12,17.5 C11.3096441,17.5 10.75,16.940356 10.75,16.25 C10.75,15.5596441 11.3096441,15 12,15 Z M13,6.99999998 L13,13.5 L11,13.5 L11,6.99999998 L13,6.99999998 Z" id="Shape" fill="#000000"></path>
    </g>
</svg>