<?xml version="1.0" encoding="UTF-8"?>
<svg width="24px" height="24px" viewBox="0 0 24 24" version="1.1" xmlns="http://www.w3.org/2000/svg" xmlns:xlink="http://www.w3.org/1999/xlink">
    <title>icon/action/changelog/default@svg</title>
    <g id="icon/action/changelog/default" stroke="none" stroke-width="1" fill="none" fill-rule="evenodd">
        <path d="M1.99999996,15.5 L5.44999997,17.75 L1.99999996,20 L1.99999996,15.5 Z M21.25,17 C21.65,17 22,17.35 22,17.75 C22,18.15 21.65,18.5 21.25,18.5 L21.25,18.5 L7.49999998,18.5 L7.49999998,17 Z M1.99999996,9.49999999 L5.44999997,11.75 L1.99999996,14 L1.99999996,9.49999999 Z M21.25,11 C21.65,11 22,11.35 22,11.75 C22,12.15 21.65,12.5 21.25,12.5 L21.25,12.5 L7.49999998,12.5 L7.49999998,11 Z M1.99999996,3.49999996 L5.44999997,5.74999997 L1.99999996,7.99999996 L1.99999996,3.49999996 Z M21.25,4.99999997 C21.65,4.99999997 22,5.34999997 22,5.74999997 C22,6.14999998 21.65,6.49999997 21.25,6.49999997 L21.25,6.49999997 L7.49999998,6.49999997 L7.49999998,4.99999997 Z" id="Combined-Shape" fill="#262626"></path>
    </g>
</svg>