<?xml version="1.0" encoding="UTF-8"?>
<svg width="24px" height="24px" viewBox="0 0 24 24" version="1.1" xmlns="http://www.w3.org/2000/svg" xmlns:xlink="http://www.w3.org/1999/xlink">
    <title>icon/user_file/communities/default@svg</title>
    <defs>
        <path d="M15.7,14.6 C17.45,14.6 18.9,15.85 19.2,17.55 L19.2,17.55 L19.45,19 L4.59999997,19 L4.84999997,17.6 C5.09999997,15.9 6.54999998,14.65 8.29999998,14.65 L8.29999998,14.65 L9.64999999,14.65 L12,17 L14.35,14.6 Z M20.35,14.55 C21.8,14.55 23.05,15.6 23.3,17 L23.3,17 L23.7,19 L22.15,19 L21.8,17.25 C21.7,16.55 21.05,16.05 20.35,16.05 L20.35,16.05 L20.3,16.05 C20.05,15.5 19.7,15 19.25,14.55 L19.25,14.55 Z M4.79999995,14.55 C4.34999997,15 3.99999997,15.5 3.69999997,16.05 L3.69999997,16.05 L3.64999997,16.05 C2.94999996,16.05 2.34999996,16.55 2.19999996,17.25 L2.19999996,17.25 L1.84999996,19 L0.299999951,19 L0.699999953,17 C0.949999954,15.55 2.19999996,14.55 3.64999997,14.55 L3.64999997,14.55 Z M12,4.24999997 C14.5,4.24999997 16.4,6.14999998 16.4,8.64999999 C16.4,11.1 14.6,13.7 12,13.7 C9.39999999,13.7 7.59999998,11.05 7.59999998,8.64999999 C7.59999998,6.14999998 9.49999999,4.24999997 12,4.24999997 Z M6.39999998,5.34999997 C6.59999996,5.34999997 6.84999998,5.34999997 7.04999998,5.39999997 C6.79999998,5.84999997 6.54999998,6.34999997 6.39999998,6.84999997 C5.04999997,6.84999997 4.09999996,7.79999998 4.09999996,9.14999999 C4.09999996,10.5 5.04999997,12 6.39999998,12 C6.54999998,12 6.74999998,11.95 6.89999998,11.9 C7.14999998,12.35 7.39999998,12.75 7.74999998,13.15 C7.34999998,13.35 6.89999998,13.45 6.39999998,13.45 C4.29999997,13.45 2.59999996,11.5 2.59999996,9.14999999 C2.59999996,6.99999998 4.24999997,5.34999997 6.39999998,5.34999997 Z M17.6,5.24999997 C19.75,5.24999997 21.4,6.89999998 21.4,9.04999999 C21.4,11.45 19.7,13.4 17.6,13.4 C17.15,13.4 16.7,13.3 16.25,13.1 C16.6,12.75 16.85,12.3 17.1,11.85 C17.25,11.9 17.4,11.95 17.6,11.95 C19,11.95 19.9,10.5 19.9,9.09999999 C19.9,7.74999997 18.95,6.79999998 17.6,6.74999997 C17.45,6.19999998 17.25,5.74999997 16.95,5.29999997 C17.15,5.24999997 17.35,5.24999997 17.6,5.24999997 Z M12,5.74999997 C10.3,5.74999997 9.09999999,6.89999998 9.09999999,8.64999999 C9.09999999,10.35 10.25,12.2 12,12.2 C13.75,12.2 14.9,10.4 14.9,8.64999999 C14.9,6.94999998 13.7,5.74999997 12,5.74999997 Z" id="path-1"></path>
    </defs>
    <g id="icon/user_file/communities/default" stroke="none" stroke-width="1" fill="none" fill-rule="evenodd">
        <mask id="mask-2" fill="white">
            <use xlink:href="#path-1"></use>
        </mask>
        <use id="Combined-Shape" fill="#262626" xlink:href="#path-1"></use>
    </g>
</svg>