<?xml version="1.0" encoding="utf-8"?>
<!-- Generator: Adobe Illustrator 25.4.1, SVG Export Plug-In . SVG Version: 6.00 Build 0)  -->
<svg version="1.1" id="Ebene_1" xmlns="http://www.w3.org/2000/svg" xmlns:xlink="http://www.w3.org/1999/xlink" x="0px" y="0px"
	 viewBox="0 0 181.8 13.9" style="enable-background:new 0 0 181.8 13.9;" xml:space="preserve">
<style type="text/css">
	.st0{clip-path:url(#SVGID_00000033338702472368270990000013978030104615729317_);}
	.st1{fill:#FEFEFE;}
</style>
<g>
	<defs>
		<rect id="SVGID_1_" y="0" width="182" height="14"/>
	</defs>
	<clipPath id="SVGID_00000033341425477588094370000015077990106573737406_">
		<use xlink:href="#SVGID_1_"  style="overflow:visible;"/>
	</clipPath>
	<g id="logo_claim_guest_view" style="clip-path:url(#SVGID_00000033341425477588094370000015077990106573737406_);">
		<g id="Gruppe_380" transform="translate(-279.156 -32.834)">
			<path id="Fill_1" class="st1" d="M279.2,33.1v11h6.9v-2h-4.6v-2.7h4.1v-1.9h-4.1v-2.4h4.5v-2H279.2z"/>
			<path id="Fill_2" class="st1" d="M290.2,44.1h-2.3V33.1h4.1c0.9-0.1,1.8,0.2,2.5,0.7c0.7,0.6,1.1,1.5,1,2.4
				c0,0.8-0.2,1.5-0.7,2.1c-0.2,0.3-0.5,0.5-0.8,0.6c0.4,0.1,0.8,0.4,1,0.8c0.2,0.4,0.3,0.7,0.3,1.1c0,0.2,0.1,0.7,0.1,1.7
				c0,0.4,0.1,0.8,0.2,1.2c0.1,0.1,0.1,0.3,0.2,0.4h-2.4c-0.1-0.2-0.1-0.4-0.2-0.6c0-0.1-0.1-0.6-0.1-1.4c0-0.5-0.1-1-0.3-1.5
				c-0.1-0.3-0.4-0.6-0.7-0.7c-0.2-0.1-0.5-0.1-0.7-0.1h-1.3V44.1L290.2,44.1z M290.2,35v3h1.3c0.5,0.1,1-0.1,1.4-0.5
				c0.2-0.3,0.4-0.7,0.3-1.1c0-0.5-0.2-1-0.6-1.2c-0.4-0.2-0.8-0.3-1.2-0.2H290.2z"/>
			<path id="Fill_4" class="st1" d="M297.6,44.1v-11h2.3v9h4.2v2.1L297.6,44.1z"/>
			<path id="Fill_6" class="st1" d="M305.4,44.1v-11h6.8v2h-4.5v2.4h4.1v1.9h-4.1v2.7h4.6v2H305.4z"/>
			<path id="Fill_8" class="st1" d="M318.3,44.1h-4.2v-11h3.8c0.6,0,1.2,0.1,1.8,0.2c0.6,0.2,1,0.6,1.3,1.1c0.3,0.4,0.4,0.9,0.4,1.4
				c0,1-0.6,2-1.5,2.4c1.2,0.3,2,1.5,2,2.7c0.1,1.1-0.4,2.1-1.3,2.7C319.9,44,319.1,44.2,318.3,44.1z M316.5,39.2v3h1.2
				c0.5,0,1-0.1,1.4-0.3c0.3-0.3,0.5-0.7,0.5-1.2c0-0.5-0.2-1-0.7-1.3c-0.4-0.2-0.9-0.3-1.3-0.2L316.5,39.2z M316.5,35v2.6h1
				c0.4,0,0.8-0.1,1.2-0.3c0.3-0.3,0.5-0.6,0.5-1.1c0-0.4-0.2-0.9-0.6-1.1c-0.3-0.1-0.7-0.2-1.1-0.2L316.5,35z"/>
			<path id="Fill_10" class="st1" d="M323.5,44.1v-11h6.8v2h-4.5v2.4h4.1v1.9h-4.1v2.7h4.6v2H323.5z"/>
			<path id="Fill_12" class="st1" d="M332.3,44.1v-11h2.3l3.4,7.1v-7.1h2.2v11h-2.3l-3.4-7.1v7.1H332.3z"/>
			<path id="Fill_14" class="st1" d="M344.7,41.8v1.8c0,0.6-0.1,1.2-0.3,1.7c-0.2,0.4-0.5,0.8-0.9,1c-0.3,0.2-0.7,0.3-1.1,0.4v-1.2
				c0.3-0.1,0.6-0.3,0.8-0.5c0.2-0.3,0.2-0.6,0.2-0.9h-1v-2.4H344.7z"/>
			<path id="Fill_16" class="st1" d="M348,33.1h2.3l1.3,7.6l1.4-7.6h2.2l1.4,7.6l1.3-7.6h2.3l-2.4,11h-2.3l-1.3-7.5l-1.3,7.5h-2.3
				L348,33.1z"/>
			<path id="Fill_18" class="st1" d="M362.2,44.1h-2.4l3.4-11.1h2.3l3.4,11h-2.4l-0.7-2.5h-3L362.2,44.1L362.2,44.1z M364.4,36.1
				l-1,3.8h2.1L364.4,36.1z"/>
			<path id="Fill_20" class="st1" d="M369.5,40.9h2.3c0,0.3,0.1,0.7,0.3,1c0.2,0.4,0.7,0.7,1.2,0.6c0.4,0,0.8-0.1,1.1-0.4
				c0.5-0.6,0.4-1.5-0.2-2c0,0,0,0,0,0c-0.2-0.2-0.4-0.3-0.6-0.4c-0.1,0-0.3-0.1-0.8-0.3c-0.7-0.2-1.3-0.5-1.9-1
				c-0.8-0.6-1.2-1.5-1.2-2.5c0-0.8,0.3-1.6,0.8-2.2c0.7-0.6,1.6-1,2.5-0.9c1.2-0.1,2.3,0.5,3,1.4c0.3,0.5,0.6,1.1,0.6,1.7h-2.2
				c0-0.3-0.2-0.7-0.4-0.9c-0.3-0.2-0.6-0.4-1-0.3c-0.3,0-0.6,0.1-0.8,0.3c-0.2,0.2-0.4,0.5-0.4,0.9c0,0.4,0.2,0.8,0.5,1
				c0.5,0.3,1,0.5,1.6,0.7c0.8,0.2,1.5,0.6,2.1,1.1c0.7,0.6,1.1,1.5,1.1,2.4c0,0.9-0.3,1.8-1,2.4c-0.8,0.7-1.8,1-2.8,1
				c-1.3,0.1-2.4-0.5-3.1-1.6C369.8,42.2,369.6,41.6,369.5,40.9"/>
			<path id="Fill_23" class="st1" d="M386.4,44.1h-2.6l-2.9-11h2.4l1.8,8l1.8-8h2.3L386.4,44.1z"/>
			<path id="Fill_25" class="st1" d="M390.5,44.1v-11h6.8v2h-4.5v2.4h4.1v1.9h-4.1v2.7h4.6v2H390.5z"/>
			<path id="Fill_27" class="st1" d="M401.6,44.1h-2.3V33.1h4.1c0.9-0.1,1.8,0.2,2.5,0.7c0.7,0.6,1.1,1.5,1,2.4
				c0,0.8-0.2,1.5-0.7,2.1c-0.2,0.3-0.5,0.5-0.8,0.6c0.4,0.1,0.8,0.4,1,0.8c0.2,0.4,0.3,0.7,0.3,1.2c0,0.2,0.1,0.8,0.1,1.7
				c0,0.4,0.1,0.8,0.2,1.2c0.1,0.1,0.1,0.3,0.2,0.4h-2.4c-0.1-0.2-0.1-0.4-0.2-0.6c0-0.1-0.1-0.6-0.1-1.4c0-0.5-0.1-1-0.3-1.5
				c-0.1-0.3-0.4-0.6-0.7-0.7c-0.2-0.1-0.5-0.1-0.7-0.1h-1.3V44.1L401.6,44.1z M401.6,35v3h1.3c0.5,0.1,1-0.1,1.4-0.5
				c0.2-0.3,0.4-0.7,0.3-1.1c0-0.5-0.2-1-0.6-1.2c-0.4-0.2-0.8-0.3-1.2-0.2H401.6z"/>
			<path id="Fill_29" class="st1" d="M413.1,44.1h-4.2v-11h3.8c0.6,0,1.2,0.1,1.8,0.2c0.6,0.2,1,0.6,1.3,1.1
				c0.3,0.4,0.4,0.9,0.4,1.4c0,1-0.6,2-1.5,2.4c1.2,0.3,2,1.5,2,2.7c0.1,1.1-0.4,2.1-1.3,2.7C414.6,44,413.9,44.2,413.1,44.1z
				 M411.2,39.2v3h1.2c0.5,0,1-0.1,1.4-0.3c0.3-0.3,0.5-0.7,0.5-1.2c0-0.5-0.2-1-0.7-1.3c-0.4-0.2-0.9-0.2-1.3-0.2H411.2z M411.2,35
				v2.6h1c0.4,0,0.8-0.1,1.2-0.3c0.3-0.3,0.5-0.6,0.5-1.1c0-0.4-0.2-0.9-0.6-1.1c-0.3-0.1-0.7-0.2-1.1-0.2L411.2,35z"/>
			<path id="Fill_31" class="st1" d="M418.3,44.1v-11h2.3v11H418.3z"/>
			<path id="Fill_33" class="st1" d="M422.7,44.1v-11h2.3l3.4,7.1v-7.1h2.2v11h-2.3l-3.4-7.1v7.1H422.7z"/>
			<path id="Fill_35" class="st1" d="M435.9,44.1h-3.3V33.1h3.3c1.3-0.1,2.5,0.4,3.4,1.2c1.1,1.2,1.6,2.7,1.5,4.3
				c0.1,1.6-0.4,3.1-1.4,4.3c-0.5,0.5-1.1,0.9-1.8,1.1C437.1,44.1,436.5,44.2,435.9,44.1z M434.9,35.1v7h1c0.7,0.1,1.3-0.2,1.8-0.6
				c0.6-0.8,0.9-1.9,0.9-2.9c0.1-0.9-0.2-1.8-0.7-2.6c-0.5-0.6-1.2-0.9-2-0.8L434.9,35.1z"/>
			<path id="Fill_37" class="st1" d="M442.5,44.1v-11h6.8v2h-4.5v2.4h4.1v1.9h-4.1v2.7h4.6v2H442.5z"/>
			<path id="Fill_39" class="st1" d="M453.2,44.1v-9h-2.6v-2h7.5v2h-2.6v9L453.2,44.1z"/>
			<path id="Fill_41" class="st1" d="M461,41.8v2.4h-2.3v-2.4H461z"/>
		</g>
	</g>
</g>
</svg>
