<?xml version="1.0" encoding="utf-8"?>
<!-- Generator: Adobe Illustrator 25.4.1, SVG Export Plug-In . SVG Version: 6.00 Build 0)  -->
<svg version="1.1" id="livetype" xmlns="http://www.w3.org/2000/svg" xmlns:xlink="http://www.w3.org/1999/xlink" x="0px" y="0px"
	 viewBox="0 0 242.2 80" style="enable-background:new 0 0 242.2 80;" xml:space="preserve">
<style type="text/css">
	.st0{fill:#A6A6A6;}
	.st1{fill:#FFFFFF;}
</style>
<g>
	<g>
		<g>
			<path class="st0" d="M223.1,0H19.1c-0.7,0-1.5,0-2.2,0c-0.6,0-1.2,0-1.8,0c-1.3,0-2.7,0.1-4,0.4C9.7,0.6,8.4,1,7.2,1.6
				C6,2.2,4.9,3,4,4C3,4.9,2.2,6,1.6,7.2C1,8.4,0.6,9.7,0.4,11C0.2,12.4,0,13.7,0,15c0,0.6,0,1.2,0,1.8v46.2c0,0.6,0,1.2,0,1.8
				c0,1.3,0.1,2.7,0.4,4c0.2,1.3,0.6,2.6,1.2,3.8C2.2,74,3,75.1,4,76c0.9,1,2,1.7,3.2,2.4c1.2,0.6,2.5,1,3.8,1.3
				c1.3,0.2,2.7,0.3,4,0.4c0.6,0,1.2,0,1.8,0c0.7,0,1.5,0,2.2,0h204.1c0.7,0,1.4,0,2.2,0c0.6,0,1.2,0,1.8,0c1.3,0,2.7-0.1,4-0.4
				c1.3-0.2,2.6-0.7,3.8-1.3c1.2-0.6,2.3-1.4,3.2-2.4c1-0.9,1.7-2,2.4-3.2c0.6-1.2,1-2.5,1.2-3.8c0.2-1.3,0.3-2.7,0.4-4
				c0-0.6,0-1.2,0-1.8c0-0.7,0-1.4,0-2.2V19.1c0-0.7,0-1.5,0-2.2c0-0.6,0-1.2,0-1.8c0-1.3-0.1-2.7-0.4-4c-0.2-1.3-0.6-2.6-1.2-3.8
				c-1.2-2.4-3.2-4.4-5.6-5.6c-1.2-0.6-2.5-1-3.8-1.3c-1.3-0.2-2.7-0.3-4-0.4c-0.6,0-1.2,0-1.8,0C224.6,0,223.9,0,223.1,0L223.1,0z"
				/>
			<path d="M16.9,78.2c-0.6,0-1.2,0-1.8,0c-1.3,0-2.5-0.1-3.7-0.3c-1.2-0.2-2.3-0.6-3.3-1.1c-1-0.5-2-1.2-2.8-2
				C4.4,74,3.7,73,3.2,72c-0.5-1-0.9-2.2-1.1-3.3c-0.2-1.2-0.3-2.5-0.3-3.8c0-0.4,0-1.8,0-1.8V16.9c0,0,0-1.4,0-1.8
				c0-1.3,0.1-2.5,0.3-3.7C2.3,10.2,2.7,9.1,3.2,8c0.5-1,1.2-2,2-2.8C6,4.4,7,3.7,8,3.2c1-0.5,2.2-0.9,3.3-1.1
				c1.2-0.2,2.5-0.3,3.8-0.3l1.8,0h208.4l1.8,0c1.2,0,2.5,0.1,3.7,0.3c1.2,0.2,2.3,0.6,3.3,1.1c2.1,1.1,3.8,2.8,4.8,4.8
				c0.5,1,0.9,2.2,1.1,3.3c0.2,1.2,0.3,2.5,0.3,3.8c0,0.6,0,1.2,0,1.8c0,0.8,0,1.5,0,2.2v41.9c0,0.7,0,1.4,0,2.2c0,0.7,0,1.2,0,1.9
				c0,1.2-0.1,2.5-0.3,3.7c-0.2,1.2-0.6,2.3-1.1,3.3c-0.5,1-1.2,2-2,2.8c-0.8,0.8-1.8,1.5-2.8,2c-1.1,0.5-2.2,0.9-3.3,1.1
				c-1.2,0.2-2.5,0.3-3.7,0.3c-0.6,0-1.2,0-1.8,0l-2.2,0L16.9,78.2z"/>
		</g>
	</g>
</g>
<path class="st1" d="M70.7,36.2l3.2,0L78.7,54c0.3,1.2,0.6,2.5,0.8,3.8c1.7-7.3,4-14.4,6-21.5l2.7,0l4.2,15.4c0.5,2,1.2,4.1,1.4,6.2
	c1.5-7.3,3.7-14.4,5.5-21.5l3.1,0l-6.9,24.7h-3.4l-5-17.8c-0.3-1-0.4-1.9-0.5-2.9c-0.1,0.9-0.3,1.7-0.5,2.5l-5,18.1
	c-1.1,0.1-2.2,0.1-3.4,0.1L70.7,36.2 M104.3,36.4c0.1-1,1.1-1.7,2.1-1.6s1.7,1.1,1.6,2.1c-0.1,1-1.1,1.7-2.1,1.6
	c-0.8-0.1-1.5-0.8-1.6-1.6 M104.7,43.2h2.8v17.7h-2.8 M115,46.1c1.6-2.8,5.3-4.2,8.3-2.8c2.4,0.9,3.3,3.7,3.4,6.1
	c0.1,3.9,0,7.8,0.1,11.6c-0.9,0-1.9,0-2.8,0c0-3.7,0.1-7.5-0.1-11.2c-0.1-1.8-0.9-4.1-2.9-4.5c-2.9-0.9-5.9,1.8-6,4.7
	c-0.1,3.7,0,7.4,0,11.1h-2.8V43.2h2.8L115,46.1 M143.4,34.8h2.8v26.1h-2.8l-0.1-2.8c-2,3.6-7.4,4.4-10.5,1.7c-2.2-1.9-2.9-5-2.8-7.8
	c0-2.8,1-5.8,3.2-7.7c2.9-2.4,8.1-2.3,10.2,1.3L143.4,34.8 M137.4,45.1c-2.2,0.4-3.8,2.4-4.2,4.5c-0.5,2.5-0.5,5.5,1.2,7.6
	c1.7,2.3,5.5,2.4,7.4,0.2c1.3-1.3,1.6-3.2,1.6-4.9c0-1.9,0.2-4-1.1-5.5C141.3,45.4,139.3,44.7,137.4,45.1 M156.9,42.8
	c2.5-0.2,5.3,0.2,7.1,2c2.1,2,2.7,5,2.6,7.7c0,2.5-1,5-2.8,6.8c-3.8,3.5-10.9,2.7-13.3-2.1c-1.9-4-1.5-9.5,2-12.5
	C153.8,43.6,155.3,43.1,156.9,42.8 M156.4,45.3c-4.1,1.3-4.8,6.6-3.5,10.2c1,3.1,5,4.5,7.9,3.1c1.9-0.9,2.8-3.1,3-5.1
	c0.2-2.3,0-5-1.6-6.8C160.7,45.1,158.4,44.7,156.4,45.3 M168.1,43.2h2.9l3.4,12.7c0.2,0.8,0.3,1.6,0.4,2.4c1.3-5.1,3-10.1,4.5-15.1
	l2.5,0c1.3,5,2.9,10,3.9,15.1c1.1-5,2.7-10,3.9-15c0.9,0,1.9-0.1,2.8-0.1L187.3,61h-2.9c-1.3-4.8-2.9-9.5-3.9-14.4
	c-1.2,4.8-2.9,9.6-4.3,14.4h-2.8L168.1,43.2 M199.3,42.7c1.7-0.1,3.5,0,5.2,0.7c0.5,0.9,0.1,2,0.2,3c-2-1.2-4.7-2-6.8-0.8
	c-1.5,0.8-1.5,3.1-0.1,4c2,1.3,4.6,1.7,6.4,3.4c2,1.9,1.5,5.6-0.8,7c-2.8,1.8-6.6,1.6-9.6,0.3l0-3.1c2.1,1.6,5.1,2.5,7.6,1.4
	c1.5-0.7,1.6-3,0.3-4c-2-1.5-4.8-1.7-6.6-3.6c-1.8-1.8-1.5-5.1,0.5-6.6C196.7,43.4,198.1,43.1,199.3,42.7"/>
<g>
	<path class="st1" d="M71.5,17.4h4.5c1.8,0,3.2,0.5,4.2,1.6c1,1,1.5,2.5,1.5,4.4c0,1.9-0.5,3.4-1.5,4.5c-1,1.1-2.4,1.6-4.2,1.6h-4.5
		V17.4z M73.6,19.3v8.3h2.1c1.2,0,2.1-0.4,2.8-1.1s1-1.7,1-3.1c0-1.3-0.3-2.3-1-3c-0.7-0.7-1.6-1.1-2.8-1.1H73.6z"/>
	<path class="st1" d="M87.7,29.6c-1.4,0-2.4-0.4-3.2-1.3c-0.8-0.8-1.2-2-1.2-3.5c0-1.5,0.4-2.6,1.2-3.5c0.8-0.8,1.8-1.3,3.2-1.3
		c1.4,0,2.4,0.4,3.2,1.3c0.8,0.8,1.2,2,1.2,3.5c0,1.5-0.4,2.6-1.2,3.5C90.1,29.2,89.1,29.6,87.7,29.6z M86.1,27.1
		c0.4,0.5,0.9,0.8,1.7,0.8s1.3-0.3,1.7-0.8c0.4-0.5,0.6-1.3,0.6-2.2c0-0.9-0.2-1.7-0.6-2.2s-0.9-0.8-1.7-0.8c-0.7,0-1.3,0.3-1.7,0.8
		s-0.6,1.3-0.6,2.2C85.5,25.8,85.7,26.5,86.1,27.1z"/>
	<path class="st1" d="M106,20.3l-2.5,9.1h-2.2l-1.8-6.5h-0.1l-1.8,6.5h-2.1l-2.5-9.1h2.1l1.5,6.8h0.1l1.7-6.8h2l1.8,6.8h0.1l1.5-6.8
		H106z"/>
	<path class="st1" d="M107.8,29.4v-9.1h2v1.5h0.1c0.2-0.5,0.6-0.9,1-1.2c0.5-0.3,1-0.4,1.7-0.4c1,0,1.8,0.3,2.3,0.9
		c0.5,0.6,0.8,1.4,0.8,2.5v5.9h-2.1V24c0-1.4-0.6-2.1-1.8-2.1c-0.6,0-1.1,0.2-1.5,0.6s-0.5,0.9-0.5,1.6v5.3H107.8z"/>
	<path class="st1" d="M118.2,29.4V16.8h2.1v12.6H118.2z"/>
	<path class="st1" d="M126.8,29.6c-1.4,0-2.4-0.4-3.2-1.3c-0.8-0.8-1.2-2-1.2-3.5c0-1.5,0.4-2.6,1.2-3.5c0.8-0.8,1.8-1.3,3.2-1.3
		c1.4,0,2.4,0.4,3.2,1.3c0.8,0.8,1.2,2,1.2,3.5c0,1.5-0.4,2.6-1.2,3.5C129.2,29.2,128.2,29.6,126.8,29.6z M125.1,27.1
		c0.4,0.5,0.9,0.8,1.7,0.8s1.3-0.3,1.7-0.8c0.4-0.5,0.6-1.3,0.6-2.2c0-0.9-0.2-1.7-0.6-2.2s-0.9-0.8-1.7-0.8c-0.7,0-1.3,0.3-1.7,0.8
		s-0.6,1.3-0.6,2.2C124.6,25.8,124.8,26.5,125.1,27.1z"/>
	<path class="st1" d="M135.8,29.5c-0.9,0-1.6-0.2-2.2-0.7s-0.8-1.2-0.8-2s0.3-1.5,0.9-1.9c0.6-0.5,1.4-0.7,2.6-0.8l2.3-0.1v-0.8
		c0-0.4-0.1-0.8-0.4-1s-0.7-0.4-1.3-0.4c-0.5,0-0.9,0.1-1.2,0.2c-0.3,0.2-0.5,0.4-0.6,0.7h-1.9c0.1-0.8,0.5-1.4,1.2-1.9
		c0.7-0.5,1.6-0.7,2.7-0.7c1.2,0,2.1,0.3,2.7,0.8c0.6,0.5,1,1.3,1,2.3v6.2h-2v-1.2h-0.1c-0.3,0.4-0.6,0.8-1.1,1
		C136.9,29.4,136.3,29.5,135.8,29.5z M136.4,27.9c0.6,0,1.1-0.2,1.6-0.5c0.4-0.4,0.6-0.8,0.6-1.3v-0.7l-2.1,0.1
		c-1.1,0.1-1.7,0.5-1.7,1.2c0,0.4,0.1,0.7,0.4,0.9C135.5,27.8,135.9,27.9,136.4,27.9z"/>
	<path class="st1" d="M146.3,29.5c-1.2,0-2.1-0.4-2.7-1.3c-0.7-0.8-1-2-1-3.4c0-1.4,0.3-2.6,1-3.4c0.7-0.8,1.6-1.3,2.7-1.3
		c0.6,0,1.2,0.1,1.7,0.4s0.9,0.7,1.1,1.2h0.1v-5h2.1v12.6h-2V28h-0.1c-0.3,0.5-0.6,0.9-1.1,1.2C147.5,29.4,147,29.5,146.3,29.5z
		 M148.6,22.7c-0.4-0.5-1-0.8-1.7-0.8s-1.3,0.3-1.7,0.8c-0.4,0.5-0.6,1.2-0.6,2.2c0,0.9,0.2,1.6,0.6,2.2c0.4,0.5,1,0.8,1.7,0.8
		s1.3-0.3,1.7-0.8c0.4-0.5,0.6-1.2,0.6-2.2C149.3,23.9,149,23.2,148.6,22.7z"/>
	<path class="st1" d="M159.1,29.4V22h-1.5v-1.6h1.5v-1c0-0.9,0.2-1.6,0.7-2s1.2-0.7,2.2-0.7c0.4,0,0.8,0,1.1,0.1v1.5
		c-0.2,0-0.4,0-0.7,0c-0.5,0-0.8,0.1-1,0.3c-0.2,0.2-0.3,0.5-0.3,1v0.8h2V22h-2v7.4H159.1z"/>
	<path class="st1" d="M168.7,29.6c-1.4,0-2.4-0.4-3.2-1.3c-0.8-0.8-1.2-2-1.2-3.5c0-1.5,0.4-2.6,1.2-3.5c0.8-0.8,1.8-1.3,3.2-1.3
		c1.4,0,2.4,0.4,3.2,1.3s1.2,2,1.2,3.5c0,1.5-0.4,2.6-1.2,3.5C171.1,29.2,170,29.6,168.7,29.6z M167,27.1c0.4,0.5,0.9,0.8,1.7,0.8
		c0.7,0,1.3-0.3,1.7-0.8c0.4-0.5,0.6-1.3,0.6-2.2c0-0.9-0.2-1.7-0.6-2.2s-0.9-0.8-1.7-0.8c-0.7,0-1.3,0.3-1.7,0.8
		c-0.4,0.5-0.6,1.3-0.6,2.2C166.4,25.8,166.6,26.5,167,27.1z"/>
	<path class="st1" d="M175.1,29.4v-9.1h2v1.4h0.1c0.1-0.5,0.4-0.8,0.9-1.1s1-0.4,1.5-0.4c0.4,0,0.7,0,0.9,0.1v1.9
		c-0.2-0.1-0.6-0.1-1.1-0.1c-0.7,0-1.2,0.2-1.6,0.6c-0.4,0.4-0.6,0.9-0.6,1.5v5.2H175.1z"/>
</g>
<polyline class="st1" points="15.7,23.7 33.7,21.2 33.7,38.6 15.7,38.6 "/>
<polyline class="st1" points="35.8,20.9 59.6,17.4 59.6,38.4 35.8,38.4 "/>
<polyline class="st1" points="15.7,40.4 33.7,40.4 33.7,57.8 15.7,55.2 "/>
<polyline class="st1" points="35.8,40.6 59.6,40.6 59.6,61.4 35.8,58 "/>
</svg>
