<svg id="Ebene_1" data-name="Ebene 1" xmlns="http://www.w3.org/2000/svg" xmlns:xlink="http://www.w3.org/1999/xlink" viewBox="0 0 24 24"><defs><style>.cls-1{fill:url(#Unbenannter_Verlauf_24);}.cls-2{fill:#b9ada7;isolation:isolate;opacity:0.7;}.cls-3{fill:#bfcb44;}</style><linearGradient id="Unbenannter_Verlauf_24" x1="-186.95" y1="-198.55" x2="-186.95" y2="-222.55" gradientTransform="translate(198.95 222.55)" gradientUnits="userSpaceOnUse"><stop offset="0" stop-color="#ddd6d3"/><stop offset="0.39" stop-color="#e9e4e2"/><stop offset="1" stop-color="#e9e4e2"/></linearGradient></defs><path class="cls-1" d="M21.86,6.43V23.14A.87.87,0,0,1,21,24H3a.87.87,0,0,1-.86-.86V.86A.87.87,0,0,1,3,0H15.43Z"/><path class="cls-2" d="M21.86,6.43H16.29a.86.86,0,0,1-.86-.86V0Z"/><path class="cls-3" d="M16.5,8.57h-9a.66.66,0,0,0-.64.64v.65H17.14V9.21A.66.66,0,0,0,16.5,8.57ZM10.71,18.86h2.58V10.71H10.71Zm-3.85-.65a.66.66,0,0,0,.64.65H9.86V10.71h-3Zm7.28.65H16.5a.66.66,0,0,0,.64-.65v-7.5h-3Z"/></svg>