<?xml version="1.0" encoding="utf-8"?>
<!-- Generator: Adobe Illustrator 27.7.0, SVG Export Plug-In . SVG Version: 6.00 Build 0)  -->
<svg version="1.1" id="Ebene_1" xmlns="http://www.w3.org/2000/svg" xmlns:xlink="http://www.w3.org/1999/xlink" x="0px" y="0px"
	 viewBox="0 0 2560 1560" style="enable-background:new 0 0 2560 1560;" xml:space="preserve">
<style type="text/css">
	.st0{fill:url(#SVGID_1_);}
	.st1{fill:#34B8B1;}
	.st2{fill:#60BD70;}
	.st3{fill:#A0F1F6;}
	.st4{fill:#80D5D9;}
	.st5{fill:#82D9DA;}
	.st6{fill:#7ED7D7;}
	.st7{fill:#7CD9D9;}
	.st8{fill:#75D7D3;}
	.st9{fill:#67CBC8;}
	.st10{fill:#96EAED;}
	.st11{fill:#69D3CB;}
	.st12{fill:#66D2C9;}
	.st13{fill:#66D3CA;}
	.st14{fill:#83D3D9;}
	.st15{fill:#82D3D8;}
	.st16{fill:#85D7DC;}
	.st17{fill:#84D7DC;}
	.st18{fill:#6FDAD4;}
	.st19{fill:#5DD5CA;}
	.st20{fill:#56CEC5;}
	.st21{fill:#71DDD7;}
	.st22{fill:#58D1C8;}
	.st23{fill:#5CD4CC;}
	.st24{fill:#7FDEA1;}
	.st25{fill:#7CD890;}
	.st26{fill:#88DA75;}
	.st27{fill:#7EDFA3;}
	.st28{fill:#93E470;}
	.st29{fill:#93E376;}
	.st30{fill:#A8E436;}
	.st31{fill:#AAE434;}
	.st32{fill:#93DF65;}
	.st33{fill:#95E066;}
	.st34{fill:#9DE565;}
	.st35{fill:#D4FF8B;}
	.st36{fill:#DBFF7A;}
	.st37{fill:#A8E643;}
	.st38{fill:#A6E239;}
	.st39{fill:#55CFC4;}
	.st40{fill:#5ACFC5;}
	.st41{fill:#94EFEB;}
	.st42{fill:#A0FAE7;}
	.st43{fill:#73DCB6;}
	.st44{fill:#75DBA8;}
	.st45{fill:#73DCAB;}
	.st46{fill:#52C7BC;}
	.st47{fill:#6BD6B9;}
	.st48{fill:#62D6C8;}
	.st49{fill:#45C1B6;}
	.st50{fill:#5ED5C8;}
	.st51{fill:#81CFD6;}
	.st52{fill:#B5FFFE;}
	.st53{fill:#74C9CD;}
	.st54{fill:#7FD9DA;}
	.st55{fill:#7DD9D9;}
	.st56{fill:#58CBC3;}
	.st57{fill:#71D7D3;}
	.st58{fill:#80CED5;}
	.st59{fill:#60D9D0;}
	.st60{fill:#5CD5CB;}
	.st61{fill:#66DBD1;}
	.st62{fill:#57D8CF;}
	.st63{fill:#43C8C1;}
	.st64{fill:#5BD9CD;}
	.st65{fill:#52C9BA;}
	.st66{fill:#5BCDB0;}
	.st67{fill:#70DFBA;}
	.st68{fill:#67CE95;}
	.st69{fill:#5AD8D1;}
	.st70{fill:#4DCAC2;}
	.st71{fill:#63D2A5;}
	.st72{fill:#56D4CA;}
	.st73{fill:#7FDE98;}
	.st74{fill:#7ED990;}
	.st75{fill:#7FDE9C;}
	.st76{fill:#87DD83;}
	.st77{fill:#81D167;}
	.st78{fill:#9AE564;}
	.st79{fill:#8FD64C;}
	.st80{fill:#95D63A;}
	.st81{fill:#98D31F;}
	.st82{fill:#89E080;}
	.st83{fill:#8AD55C;}
	.st84{fill:#9BD72F;}
	.st85{fill:#80D780;}
	.st86{fill:#80CED6;}
	.st87{fill:#74DAD5;}
	.st88{fill:#8FDEE5;}
	.st89{fill:#7ED0D4;}
	.st90{fill:#78D5D4;}
	.st91{fill:#56D6CB;}
	.st92{fill:#A7FBFE;}
	.st93{fill:#7ECFD0;}
	.st94{fill:#94FCF7;}
	.st95{fill:#7DFEFC;}
	.st96{fill:#7FD3D9;}
	.st97{fill:#79D5D4;}
	.st98{fill:#4FCDC5;}
	.st99{fill:#44CCC6;}
	.st100{fill:#56D8D1;}
	.st101{fill:#5AD3C3;}
	.st102{fill:#84FAEC;}
	.st103{fill:#5AD5C7;}
	.st104{fill:#4AC4AF;}
	.st105{fill:#5ED8CA;}
	.st106{fill:#65D7B9;}
	.st107{fill:#9EFFCA;}
	.st108{fill:#B3FF9C;}
	.st109{fill:#6ADBBA;}
	.st110{fill:#98DE55;}
	.st111{fill:#9BE15B;}
	.st112{fill:#83C735;}
	.st113{fill:#9DDE42;}
	.st114{fill:#CDFF58;}
	.st115{fill:#A1E244;}
	.st116{fill:#A5E33E;}
	.st117{fill:#71DDB5;}
	.st118{fill:#64D5B8;}
	.st119{fill:#98E05F;}
	.st120{fill:#6BDBB5;}
	.st121{fill:#94FFE0;}
	.st122{fill:#95DD55;}
	.st123{fill:#C5FF82;}
	.st124{fill:#9EDF42;}
	.st125{fill:#A4E33E;}
	.st126{fill:#C8FE6A;}
	.st127{fill:#72DED8;}
	.st128{fill:#6FE1D8;}
	.st129{fill:#61DBD1;}
	.st130{fill:#58DAD4;}
	.st131{fill:#60E1DD;}
	.st132{fill:#61E0DF;}
	.st133{fill:#80E6B1;}
	.st134{fill:#84E5AC;}
	.st135{fill:#7BDB9B;}
	.st136{fill:#86E082;}
	.st137{fill:#94E684;}
	.st138{fill:#97E87A;}
	.st139{fill:#A1EFF5;}
	.st140{fill:#70BEC6;}
	.st141{fill:#6DD8D1;}
	.st142{fill:#42C2B6;}
	.st143{fill:#3BBDB2;}
	.st144{fill:#5BD6CC;}
	.st145{fill:#5FCDB8;}
	.st146{fill:#5DC9C3;}
	.st147{fill:#59D6CC;}
	.st148{fill:#43C6BE;}
	.st149{fill:#5CD3CB;}
	.st150{fill:#57D0C3;}
	.st151{fill:#71E3D2;}
	.st152{fill:#69DCC9;}
	.st153{fill:#79DDA0;}
	.st154{fill:#65C478;}
	.st155{fill:#6DC567;}
	.st156{fill:#66CE96;}
	.st157{fill:#90DF72;}
	.st158{fill:#80D161;}
	.st159{fill:#6EDDC5;}
	.st160{fill:#5BCFB9;}
	.st161{fill:#82F4E0;}
	.st162{fill:#83F4DB;}
	.st163{fill:#97DB49;}
	.st164{fill:#BAFC6D;}
	.st165{fill:#BBFD6A;}
	.st166{fill:#AFEB3D;}
	.st167{fill:#B1EB34;}
	.st168{fill:#7DEBCE;}
	.st169{fill:#9ADD4B;}
	.st170{fill:#A8E33A;}
	.st171{fill:#B0F56B;}
	.st172{fill:#A7EB5B;}
	.st173{fill:#A7E230;}
	.st174{fill:#97D524;}
	.st175{fill:#ADEE5A;}
	.st176{fill:#B2F35B;}
	.st177{fill:#A4E142;}
	.st178{fill:#A8E641;}
	.st179{fill:#6BD8B5;}
	.st180{fill:#77DDB7;}
	.st181{fill:#9BE667;}
	.st182{fill:#97DE5C;}
	.st183{fill:#94E5EA;}
	.st184{fill:#AEF260;}
	.st185{fill:#B0F15D;}
	.st186{fill:#ACF160;}
	.st187{fill:#ADF160;}
	.st188{fill:#AFEF5B;}
	.st189{fill:#9EE354;}
	.st190{fill:#A1E34C;}
	.st191{fill:#99DD4B;}
	.st192{fill:#68CEBF;}
	.st193{fill:#6AD3C0;}
	.st194{fill:#64CEBF;}
	.st195{fill:#64D0C0;}
	.st196{fill:#6FD7C4;}
	.st197{fill:#57C5B5;}
	.st198{fill:#62CCB5;}
	.st199{fill:#58C2B0;}
	.st200{fill:#65D8CC;}
	.st201{fill:#60CFC5;}
	.st202{fill:#47BEB4;}
	.st203{fill:#62D8C9;}
	.st204{fill:#60D4C5;}
	.st205{fill:#A9FFFF;}
	.st206{fill:#6ED9D2;}
	.st207{fill:#67DACF;}
	.st208{fill:#5ACAC0;}
	.st209{fill:#54C7BE;}
	.st210{fill:#A6FBFD;}
	.st211{fill:#91EDEC;}
	.st212{fill:#82DADB;}
	.st213{fill:#6DDBD2;}
	.st214{fill:#5AC9BC;}
	.st215{fill:#58CABF;}
	.st216{fill:#6BD8B8;}
	.st217{fill:#8AF2C7;}
	.st218{fill:#70DBB7;}
	.st219{fill:#9FE65C;}
	.st220{fill:#9DE55E;}
	.st221{fill:#B3FB7B;}
	.st222{fill:#9FE663;}
	.st223{fill:#A5E74B;}
	.st224{fill:#A5E548;}
	.st225{fill:#BEFA57;}
	.st226{fill:#A9E746;}
	.st227{fill:#9DDE4A;}
	.st228{fill:#9ADE4E;}
	.st229{fill:#73CC77;}
	.st230{fill:#7ACE66;}
	.st231{fill:#85DD87;}
	.st232{fill:#8ADF7D;}
	.st233{fill:#5CCAB4;}
	.st234{fill:#56C5B3;}
	.st235{fill:#A4E346;}
	.st236{fill:#A8E746;}
	.st237{fill:#A7E23A;}
	.st238{fill:#D8FF6B;}
	.st239{fill:#D2FF69;}
	.st240{fill:#93E1E8;}
	.st241{fill:#FFFFFF;}
	.st242{fill:#66CCC5;}
	.st243{fill:#79DECA;}
	.st244{fill:#7FE4C0;}
	.st245{fill:#5BC3C0;}
	.st246{fill:#87DE7F;}
	.st247{fill:#7DD88C;}
	.st248{fill:#81DA83;}
	.st249{fill:#BCFF74;}
	.st250{fill:#AFF670;}
	.st251{fill:#BEFF66;}
	.st252{fill:#BDFB5C;}
	.st253{fill:#A2DF31;}
	.st254{fill:#A4E02E;}
	.st255{fill:#4ABBB2;}
	.st256{fill:#53BFB6;}
	.st257{fill:#5AC9BD;}
	.st258{fill:#6CD8CF;}
	.st259{fill:#3DB5AA;}
	.st260{fill:#69D7CD;}
	.st261{fill:#A9E537;}
	.st262{fill:#A8E82F;}
	.st263{fill:#A8E331;}
	.st264{fill:#A7E330;}
	.st265{fill:#98E160;}
	.st266{fill:#9CE258;}
	.st267{fill:#5ACFC2;}
	.st268{fill:#54C8BB;}
	.st269{fill:#55C6BB;}
	.st270{fill:#55C9BE;}
	.st271{fill:#7FDE9A;}
	.st272{fill:#83DF94;}
	.st273{fill:#86DA7F;}
	.st274{fill:#84D981;}
	.st275{fill:#80DE92;}
	.st276{fill:#7EDD97;}
	.st277{fill:#94E26E;}
	.st278{fill:#97E368;}
	.st279{fill:#92E06B;}
	.st280{fill:#7CDFDC;}
	.st281{fill:#4EBCB3;}
	.st282{fill:#51BDB5;}
	.st283{fill:#4EBAB0;}
	.st284{fill:#77DFDA;}
	.st285{fill:#A2FCD7;}
	.st286{fill:#74D8A4;}
	.st287{fill:#6FD7B4;}
	.st288{fill:#68CFB1;}
	.st289{fill:#99FBD6;}
	.st290{fill:#CAFE8B;}
	.st291{fill:#C8FD88;}
	.st292{fill:#91E06E;}
	.st293{fill:#89DB66;}
	.st294{fill:#99E168;}
	.st295{fill:#88DF7E;}
	.st296{fill:#92DD5C;}
	.st297{fill:#91DD60;}
	.st298{fill:#93DE64;}
	.st299{fill:#34B0A5;}
	.st300{fill:#5CD2C7;}
	.st301{fill:#50CFC2;}
	.st302{fill:#65D7CF;}
	.st303{fill:#2CB3AC;}
	.st304{fill:#72CF8B;}
	.st305{fill:#77D17C;}
	.st306{fill:#96E365;}
	.st307{fill:#60BE71;}
	.st308{fill:#7AD481;}
	.st309{fill:#84DF8D;}
	.st310{fill:#8AE084;}
	.st311{fill:#8FE075;}
	.st312{fill:#76C656;}
	.st313{fill:#63BE57;}
	.st314{fill:#85DC80;}
	.st315{fill:#55C7BA;}
	.st316{fill:#87D665;}
	.st317{fill:#97E5EC;}
	.st318{fill:#94E9EB;}
	.st319{fill:#7DDAD8;}
	.st320{fill:#59BFBB;}
	.st321{fill:#74DCBF;}
	.st322{fill:#76D9A9;}
	.st323{fill:#49B1AE;}
	.st324{fill:#7DD67C;}
	.st325{fill:#83DC8E;}
	.st326{fill:#B2F66C;}
	.st327{fill:#9BE45E;}
	.st328{fill:#B9F95C;}
	.st329{fill:#A8E741;}
	.st330{fill:#72DAD2;}
	.st331{fill:#5BCAC0;}
	.st332{fill:#A2D829;}
	.st333{fill:#4EBDB6;}
	.st334{fill:#46B5AC;}
	.st335{fill:#98E260;}
	.st336{fill:#88D353;}
	.st337{fill:#48BDAF;}
	.st338{fill:#7DCA56;}
	.st339{fill:#94E9EC;}
	.st340{fill:#7DD9D8;}
	.st341{fill:#58BDB9;}
	.st342{fill:#48B1AE;}
	.st343{fill:#B2F56C;}
	.st344{fill:#B8F85C;}
	.st345{fill:#A8E642;}
	.st346{fill:#6DD6CF;}
	.st347{fill:#5BC9C1;}
	.st348{fill:#A7E533;}
	.st349{fill:#9EDB22;}
	.st350{fill:#4EBEB5;}
	.st351{fill:#49B7AD;}
	.st352{fill:#99E15F;}
	.st353{fill:#88D354;}
	.st354{fill:#52BFB4;}
	.st355{fill:#7ECB57;}
</style>
<linearGradient id="SVGID_1_" gradientUnits="userSpaceOnUse" x1="2.7429" y1="780" x2="2562.7429" y2="780">
	<stop  offset="0" style="stop-color:#86D3D9"/>
	<stop  offset="0.1036" style="stop-color:#85E5E1"/>
	<stop  offset="0.2508" style="stop-color:#6EE4D8"/>
	<stop  offset="0.4015" style="stop-color:#60CCBD"/>
	<stop  offset="0.5879" style="stop-color:#98F2A4"/>
	<stop  offset="0.8054" style="stop-color:#A4E85D"/>
	<stop  offset="1" style="stop-color:#BEF644"/>
</linearGradient>
<rect class="st0" width="2560" height="1560"/>
<g>
	<g>
		<polygon class="st1" points="524.2,1166 561.2,1166 542.8,1196.1 		"/>
		<polygon class="st2" points="1601.5,1166 1638.5,1166 1620,1196.1 		"/>
		<polygon class="st3" points="53,1565 96,1565 74.5,1530 		"/>
		<polygon class="st4" points="143,1485 100,1485 121.5,1520 		"/>
		<polygon class="st5" points="190,1485 147,1485 168.5,1520 		"/>
		<polygon class="st6" points="190,1317 147,1317 168.5,1352 		"/>
		<polygon class="st7" points="237,1317 194,1317 215.5,1352 		"/>
		<polygon class="st8" points="284,1485 241,1485 262.5,1520 		"/>
		<polygon class="st9" points="284,1313 241,1313 262.5,1278 		"/>
		<polygon class="st10" points="147,1565 190,1565 168.5,1530 		"/>
		<polygon class="st11" points="335,1565 378,1565 356.5,1530 		"/>
		<polygon class="st12" points="382,1565 425,1565 403.5,1530 		"/>
		<polygon class="st13" points="429,1565 472,1565 450.5,1530 		"/>
		<polygon class="st14" points="6,1481 49,1481 27.5,1446 		"/>
		<polygon class="st15" points="73,1444 30,1444 51.5,1479 		"/>
		<polygon class="st16" points="76,1438 119,1438 97.5,1403 		"/>
		<polygon class="st17" points="143,1401 100,1401 121.5,1436 		"/>
		<polygon class="st18" points="335,1395 378,1395 356.5,1360 		"/>
		<polygon class="st19" points="430,1395 473,1395 451.5,1360 		"/>
		<polygon class="st20" points="613.5,1395 656.5,1395 635,1360 		"/>
		<polygon class="st21" points="402,1358 359,1358 380.5,1393 		"/>
		<polygon class="st22" points="752,1395 709,1395 730.5,1360 		"/>
		<polygon class="st23" points="685,1358 728,1358 706.5,1393 		"/>
		<polygon class="st24" points="1412,1395 1455,1395 1433.5,1360 		"/>
		<polygon class="st25" points="1506,1395 1549,1395 1527.5,1360 		"/>
		<polygon class="st26" points="1690,1395 1733,1395 1711.5,1360 		"/>
		<polygon class="st27" points="1479,1358 1436,1358 1457.5,1393 		"/>
		<polygon class="st28" points="1828,1395 1785,1395 1806.5,1360 		"/>
		<polygon class="st29" points="1761,1358 1804,1358 1782.5,1393 		"/>
		<polygon class="st30" points="2488.5,1395 2531.5,1395 2510,1360 		"/>
		<polygon class="st31" points="2555.5,1358 2512.5,1358 2534,1393 		"/>
		<polygon class="st32" points="1854.5,1358 1897.5,1358 1876,1393 		"/>
		<polygon class="st33" points="1854.5,1354 1897.5,1354 1876,1319 		"/>
		<polygon class="st34" points="1949,1358 1992,1358 1970.5,1393 		"/>
		<polygon class="st35" points="2043.5,1358 2086.5,1358 2065,1393 		"/>
		<polygon class="st36" points="2230,1358 2273,1358 2251.5,1393 		"/>
		<polygon class="st37" points="2324.5,1358 2367.5,1358 2346,1393 		"/>
		<polygon class="st38" points="2418,1358 2461,1358 2439.5,1393 		"/>
		<polygon class="st39" points="778,1358 821,1358 799.5,1393 		"/>
		<polygon class="st40" points="873,1358 916,1358 894.5,1393 		"/>
		<polygon class="st41" points="967,1358 1010,1358 988.5,1393 		"/>
		<polygon class="st42" points="1153,1358 1196,1358 1174.5,1393 		"/>
		<polygon class="st43" points="1247.5,1358 1290.5,1358 1269,1393 		"/>
		<polygon class="st44" points="1341.5,1358 1384.5,1358 1363,1393 		"/>
		<polygon class="st45" points="1341.5,1354 1384.5,1354 1363,1319 		"/>
		<polygon class="st46" points="452,1438 495,1438 473.5,1403 		"/>
		<polygon class="st47" points="1153,1438 1196,1438 1174.5,1403 		"/>
		<polygon class="st48" points="519,1401 476,1401 497.5,1436 		"/>
		<polygon class="st49" points="633,1438 590,1438 611.5,1403 		"/>
		<polygon class="st50" points="566,1401 609,1401 587.5,1436 		"/>
		<polygon class="st51" points="49,1401 6,1401 27.5,1436 		"/>
		<polygon class="st52" points="119,1358 76,1358 97.5,1393 		"/>
		<polygon class="st53" points="119,1275 76,1275 97.5,1310 		"/>
		<polygon class="st54" points="213.5,1358 170.5,1358 192,1393 		"/>
		<polygon class="st55" points="213.5,1275 170.5,1275 192,1310 		"/>
		<polygon class="st56" points="402,1275 359,1275 380.5,1310 		"/>
		<polygon class="st57" points="307.5,1358 264.5,1358 286,1393 		"/>
		<polygon class="st58" points="25,1444 -18,1444 3.5,1479 		"/>
		<polygon class="st59" points="452.5,1275 495.5,1275 474,1310 		"/>
		<polygon class="st60" points="519.5,1312 476.5,1312 498,1277 		"/>
		<polygon class="st61" points="471.5,1312 428.5,1312 450,1277 		"/>
		<polygon class="st62" points="590,1275 633,1275 611.5,1310 		"/>
		<polygon class="st63" points="685,1275 728,1275 706.5,1310 		"/>
		<polygon class="st64" points="873,1275 916,1275 894.5,1310 		"/>
		<polygon class="st65" points="967,1275 1010,1275 988.5,1310 		"/>
		<polygon class="st66" points="1153,1275 1196,1275 1174.5,1310 		"/>
		<polygon class="st67" points="1247.5,1275 1290.5,1275 1269,1310 		"/>
		<polygon class="st68" points="1436,1275 1479,1275 1457.5,1310 		"/>
		<polygon class="st69" points="657,1312 614,1312 635.5,1277 		"/>
		<polygon class="st70" points="844.5,1312 801.5,1312 823,1277 		"/>
		<polygon class="st71" points="1361.5,1312 1318.5,1312 1340,1277 		"/>
		<polygon class="st72" points="609,1312 566,1312 587.5,1277 		"/>
		<polygon class="st73" points="1530,1275 1573,1275 1551.5,1310 		"/>
		<polygon class="st74" points="1597,1312 1554,1312 1575.5,1277 		"/>
		<polygon class="st75" points="1549,1312 1506,1312 1527.5,1277 		"/>
		<polygon class="st76" points="1667,1275 1710,1275 1688.5,1310 		"/>
		<polygon class="st77" points="1761,1275 1804,1275 1782.5,1310 		"/>
		<polygon class="st78" points="1949,1275 1992,1275 1970.5,1310 		"/>
		<polygon class="st79" points="2043.5,1275 2086.5,1275 2065,1310 		"/>
		<polygon class="st80" points="2230,1275 2273,1275 2251.5,1310 		"/>
		<polygon class="st37" points="2324.5,1275 2367.5,1275 2346,1310 		"/>
		<polygon class="st81" points="2512.5,1275 2555.5,1275 2534,1310 		"/>
		<polygon class="st82" points="1734,1312 1691,1312 1712.5,1277 		"/>
		<polygon class="st83" points="1921.5,1312 1878.5,1312 1900,1277 		"/>
		<polygon class="st84" points="2438,1312 2395,1312 2416.5,1277 		"/>
		<polygon class="st85" points="1686,1312 1643,1312 1664.5,1277 		"/>
		<polygon class="st86" points="25,1354 -18,1354 3.5,1319 		"/>
		<polygon class="st87" points="307.5,1354 264.5,1354 286,1319 		"/>
		<polygon class="st88" points="6,1317 49,1317 27.5,1352 		"/>
		<polygon class="st89" points="119,1269 76,1269 97.5,1234 		"/>
		<polygon class="st90" points="213.5,1269 170.5,1269 192,1234 		"/>
		<polygon class="st91" points="916,1269 873,1269 894.5,1234 		"/>
		<polygon class="st92" points="100,1232 143,1232 121.5,1267 		"/>
		<polygon class="st93" points="111,1190 97.5,1168 84,1190 80,1196.5 84,1203 97.5,1225 111,1203 115,1196.5 		"/>
		<polygon class="st94" points="394,1190 380.5,1168 367,1190 363,1196.5 367,1203 380.5,1225 394,1203 398,1196.5 		"/>
		<polygon class="st95" points="720,1190 706.5,1168 693,1190 689,1196.5 693,1203 706.5,1225 720,1203 724,1196.5 		"/>
		<polygon class="st96" points="143,1166 100,1166 118.7,1196.5 100,1227 143,1227 124.3,1196.5 		"/>
		<polygon class="st97" points="237,1166 194,1166 212.7,1196.5 194,1227 237,1227 218.3,1196.5 		"/>
		<polygon class="st98" points="519.5,1166 476.5,1166 495.2,1196.5 476.5,1227 519.5,1227 500.8,1196.5 		"/>
		<polygon class="st99" points="609,1166 566,1166 584.7,1196.5 566,1227 609,1227 590.3,1196.5 		"/>
		<polygon class="st100" points="892.5,1166 849.5,1166 868.2,1196.5 849.5,1227 892.5,1227 873.8,1196.5 		"/>
		<polygon class="st101" points="967,1269 1010,1269 988.5,1234 		"/>
		<polygon class="st102" points="986,1232 943,1232 964.5,1267 		"/>
		<polygon class="st103" points="1002,1190 988.5,1168 975,1190 971,1196.5 975,1203 988.5,1225 1002,1203 1006,1196.5 		"/>
		<polygon class="st104" points="1095,1190 1081.5,1168 1068,1190 1064,1196.5 1068,1203 1081.5,1225 1095,1203 1099,1196.5 		"/>
		<polygon class="st105" points="986,1166 943,1166 961.7,1196.5 943,1227 986,1227 967.3,1196.5 		"/>
		<polygon class="st106" points="1188,1190 1174.5,1168 1161,1190 1157,1196.5 1161,1203 1174.5,1225 1188,1203 1192,1196.5 		"/>
		<polygon class="st107" points="1471,1190 1457.5,1168 1444,1190 1440,1196.5 1444,1203 1457.5,1225 1471,1203 1475,1196.5 		"/>
		<polygon class="st108" points="1796,1190 1782.5,1168 1769,1190 1765,1196.5 1769,1203 1782.5,1225 1796,1203 1800,1196.5 		"/>
		<polygon class="st109" points="1220,1166 1177,1166 1195.7,1196.5 1177,1227 1220,1227 1201.3,1196.5 		"/>
		<polygon class="st110" points="2078.5,1190 2065,1168 2051.5,1190 2047.5,1196.5 2051.5,1203 2065,1225 2078.5,1203 
			2082.5,1196.5 		"/>
		<polygon class="st111" points="2062.5,1166 2019.5,1166 2038.2,1196.5 2019.5,1227 2062.5,1227 2043.8,1196.5 		"/>
		<polygon class="st112" points="2173,1190 2159.5,1168 2146,1190 2142,1196.5 2146,1203 2159.5,1225 2173,1203 2177,1196.5 		"/>
		<polygon class="st113" points="2265,1190 2251.5,1168 2238,1190 2234,1196.5 2238,1203 2251.5,1225 2265,1203 2269,1196.5 		"/>
		<polygon class="st114" points="2547.5,1190 2534,1168 2520.5,1190 2516.5,1196.5 2520.5,1203 2534,1225 2547.5,1203 
			2551.5,1196.5 		"/>
		<polygon class="st115" points="2297,1166 2254,1166 2272.7,1196.5 2254,1227 2297,1227 2278.3,1196.5 		"/>
		<polygon class="st116" points="2391,1166 2348,1166 2366.7,1196.5 2348,1227 2391,1227 2372.3,1196.5 		"/>
		<polygon class="st117" points="1313.5,1166 1270.5,1166 1289.2,1196.5 1270.5,1227 1313.5,1227 1294.8,1196.5 		"/>
		<polygon class="st118" points="1196,1269 1153,1269 1174.5,1234 		"/>
		<polygon class="st119" points="1992,1269 1949,1269 1970.5,1234 		"/>
		<polygon class="st120" points="1290.5,1269 1247.5,1269 1269,1234 		"/>
		<polygon class="st121" points="1177,1232 1220,1232 1198.5,1267 		"/>
		<polygon class="st122" points="2043.5,1269 2086.5,1269 2065,1234 		"/>
		<polygon class="st123" points="2064,1232 2019.5,1232 2041.8,1267 		"/>
		<polygon class="st124" points="2273,1269 2230,1269 2251.5,1234 		"/>
		<polygon class="st125" points="2367.5,1269 2324.5,1269 2346,1234 		"/>
		<polygon class="st126" points="2254,1232 2297,1232 2275.5,1267 		"/>
		<polygon class="st127" points="335,1232 378,1232 356.5,1267 		"/>
		<polygon class="st128" points="381.8,1232 424.8,1232 403.2,1267 		"/>
		<polygon class="st129" points="428.5,1232 471.5,1232 450,1267 		"/>
		<polygon class="st130" points="614.5,1232 657.5,1232 636,1267 		"/>
		<polygon class="st131" points="661.8,1232 704.8,1232 683.2,1267 		"/>
		<polygon class="st132" points="709,1232 752,1232 730.5,1267 		"/>
		<polygon class="st133" points="1411.5,1232 1454.5,1232 1433,1267 		"/>
		<polygon class="st134" points="1458.8,1232 1501.8,1232 1480.2,1267 		"/>
		<polygon class="st135" points="1506,1232 1549,1232 1527.5,1267 		"/>
		<polygon class="st136" points="1691,1232 1734,1232 1712.5,1267 		"/>
		<polygon class="st137" points="1738.2,1232 1781.2,1232 1759.8,1267 		"/>
		<polygon class="st138" points="1785.5,1232 1828.5,1232 1807,1267 		"/>
		<polygon class="st139" points="6,1232 49,1232 27.5,1267 		"/>
		<polygon class="st140" points="17,1190 3.5,1168 -10,1190 -14,1196.5 -10,1203 3.5,1225 17,1203 21,1196.5 		"/>
		<polygon class="st141" points="359,1354 402,1354 380.5,1319 		"/>
		<polygon class="st142" points="452,1354 495,1354 473.5,1319 		"/>
		<polygon class="st143" points="590,1354 633,1354 611.5,1319 		"/>
		<polygon class="st144" points="778,1354 821,1354 799.5,1319 		"/>
		<polygon class="st145" points="1060,1354 1103,1354 1081.5,1319 		"/>
		<polygon class="st146" points="378,1317 335,1317 356.5,1352 		"/>
		<polygon class="st147" points="728,1354 685,1354 706.5,1319 		"/>
		<polygon class="st148" points="709,1317 752,1317 730.5,1352 		"/>
		<polygon class="st149" points="849.5,1317 892.5,1317 871,1352 		"/>
		<polygon class="st150" points="896.5,1317 939.5,1317 918,1352 		"/>
		<polygon class="st151" points="990.5,1317 1033.5,1317 1012,1352 		"/>
		<polygon class="st152" points="1036,1317 1079,1317 1057.5,1352 		"/>
		<polygon class="st153" points="1436,1354 1479,1354 1457.5,1319 		"/>
		<polygon class="st154" points="1530,1354 1573,1354 1551.5,1319 		"/>
		<polygon class="st155" points="1667,1354 1710,1354 1688.5,1319 		"/>
		<polygon class="st156" points="1412,1317 1455,1317 1433.5,1352 		"/>
		<polygon class="st157" points="1804,1354 1761,1354 1782.5,1319 		"/>
		<polygon class="st158" points="1828,1317 1785,1317 1806.5,1352 		"/>
		<polygon class="st159" points="1084,1317 1127,1317 1105.5,1352 		"/>
		<polygon class="st160" points="1060,1269 1103,1269 1081.5,1234 		"/>
		<polygon class="st161" points="1036,1232 1079,1232 1057.5,1267 		"/>
		<polygon class="st162" points="1084,1232 1127,1232 1105.5,1267 		"/>
		<polygon class="st163" points="2138,1269 2181,1269 2159.5,1234 		"/>
		<polygon class="st164" points="2114,1232 2157,1232 2135.5,1267 		"/>
		<polygon class="st165" points="2162,1232 2205,1232 2183.5,1267 		"/>
		<polygon class="st166" points="2488.5,1232 2531.5,1232 2510,1267 		"/>
		<polygon class="st167" points="2536.5,1232 2579.5,1232 2558,1267 		"/>
		<polygon class="st168" points="1129.5,1317 1172.5,1317 1151,1352 		"/>
		<polygon class="st169" points="2138,1354 2181,1354 2159.5,1319 		"/>
		<polygon class="st170" points="2418,1354 2461,1354 2439.5,1319 		"/>
		<polygon class="st171" points="2068.5,1317 2111.5,1317 2090,1352 		"/>
		<polygon class="st172" points="2114,1317 2157,1317 2135.5,1352 		"/>
		<polygon class="st173" points="2512.5,1354 2555.5,1354 2534,1319 		"/>
		<polygon class="st174" points="2488.5,1317 2531.5,1317 2510,1352 		"/>
		<polygon class="st175" points="2162,1317 2205,1317 2183.5,1352 		"/>
		<polygon class="st176" points="2207.5,1317 2250.5,1317 2229,1352 		"/>
		<polygon class="st177" points="2301,1317 2344,1317 2322.5,1352 		"/>
		<polygon class="st178" points="2348,1317 2391,1317 2369.5,1352 		"/>
		<polygon class="st179" points="1224,1317 1267,1317 1245.5,1352 		"/>
		<polygon class="st180" points="1270.5,1317 1313.5,1317 1292,1352 		"/>
		<polygon class="st181" points="1925.5,1317 1968.5,1317 1947,1352 		"/>
		<polygon class="st182" points="1972.5,1317 2015.5,1317 1994,1352 		"/>
		<polygon class="st183" points="53,1317 96,1317 74.5,1352 		"/>
		<polygon class="st184" points="2138,1522 2181,1522 2159.5,1487 		"/>
		<polygon class="st185" points="2205,1485 2162,1485 2183.5,1520 		"/>
		<polygon class="st186" points="2157,1485 2114,1485 2135.5,1520 		"/>
		<polygon class="st187" points="2114,1480 2157,1480 2135.5,1445 		"/>
		<polygon class="st188" points="2162,1480 2205,1480 2183.5,1445 		"/>
		<polygon class="st189" points="2133,1443 2090,1443 2111.5,1478 		"/>
		<polygon class="st190" points="2229,1443 2186,1443 2207.5,1478 		"/>
		<polygon class="st191" points="2181,1443 2138,1443 2159.5,1478 		"/>
		<polygon class="st192" points="1060,1522 1103,1522 1081.5,1487 		"/>
		<polygon class="st193" points="1127,1485 1084,1485 1105.5,1520 		"/>
		<polygon class="st194" points="1079,1485 1036,1485 1057.5,1520 		"/>
		<polygon class="st195" points="1036,1480 1079,1480 1057.5,1445 		"/>
		<polygon class="st196" points="1084,1480 1127,1480 1105.5,1445 		"/>
		<polygon class="st197" points="1055,1443 1012,1443 1033.5,1478 		"/>
		<polygon class="st198" points="1151,1443 1108,1443 1129.5,1478 		"/>
		<polygon class="st199" points="1103,1443 1060,1443 1081.5,1478 		"/>
		<polygon class="st200" points="454,1520 497,1520 475.5,1485 		"/>
		<polygon class="st201" points="473,1485 430,1485 451.5,1520 		"/>
		<polygon class="st202" points="473,1481 430,1481 451.5,1446 		"/>
		<polygon class="st203" points="519,1481 476,1481 497.5,1446 		"/>
		<polygon class="st204" points="610,1481 567,1481 588.5,1446 		"/>
		<polygon class="st205" points="194,1481 237,1481 215.5,1446 		"/>
		<polygon class="st206" points="335,1481 378,1481 356.5,1446 		"/>
		<polygon class="st207" points="382,1481 425,1481 403.5,1446 		"/>
		<polygon class="st208" points="660.5,1479 703.5,1479 682,1444 		"/>
		<polygon class="st209" points="708.5,1481 751.5,1481 730,1446 		"/>
		<polygon class="st210" points="213,1444 170,1444 191.5,1479 		"/>
		<polygon class="st211" points="237,1401 194,1401 215.5,1436 		"/>
		<polygon class="st212" points="190,1401 147,1401 168.5,1436 		"/>
		<polygon class="st213" points="892.5,1401 849.5,1401 871,1436 		"/>
		<polygon class="st214" points="986.5,1401 943.5,1401 965,1436 		"/>
		<polygon class="st215" points="939.5,1401 896.5,1401 918,1436 		"/>
		<polygon class="st216" points="1220,1401 1177,1401 1198.5,1436 		"/>
		<polygon class="st217" points="1314,1401 1271,1401 1292.5,1436 		"/>
		<polygon class="st218" points="1267,1401 1224,1401 1245.5,1436 		"/>
		<polygon class="st219" points="2086.5,1438 2043.5,1438 2065,1403 		"/>
		<polygon class="st220" points="2019.5,1401 2062.5,1401 2041,1436 		"/>
		<polygon class="st221" points="1925.5,1401 1968.5,1401 1947,1436 		"/>
		<polygon class="st222" points="1972.5,1401 2015.5,1401 1994,1436 		"/>
		<polygon class="st223" points="2230,1438 2273,1438 2251.5,1403 		"/>
		<polygon class="st224" points="2297,1401 2254,1401 2275.5,1436 		"/>
		<polygon class="st225" points="2391,1401 2348,1401 2369.5,1436 		"/>
		<polygon class="st226" points="2344,1401 2301,1401 2322.5,1436 		"/>
		<polygon class="st227" points="2162,1401 2205,1401 2183.5,1436 		"/>
		<polygon class="st228" points="2114,1401 2157,1401 2135.5,1436 		"/>
		<polygon class="st229" points="1530,1438 1573,1438 1551.5,1403 		"/>
		<polygon class="st230" points="1667,1438 1710,1438 1688.5,1403 		"/>
		<polygon class="st231" points="1597,1401 1554,1401 1575.5,1436 		"/>
		<polygon class="st232" points="1686,1401 1643,1401 1664.5,1436 		"/>
		<polygon class="st233" points="1127,1401 1084,1401 1105.5,1436 		"/>
		<polygon class="st234" points="1079,1401 1036,1401 1057.5,1436 		"/>
		<polygon class="st235" points="2297,1485 2254,1485 2275.5,1520 		"/>
		<polygon class="st236" points="2344,1485 2301,1485 2322.5,1520 		"/>
		<polygon class="st237" points="2438,1485 2395,1485 2416.5,1520 		"/>
		<polygon class="st238" points="2348,1481 2391,1481 2369.5,1446 		"/>
		<polygon class="st239" points="2367,1444 2324,1444 2345.5,1479 		"/>
		<polygon class="st240" points="6,1485 49,1485 27.5,1520 		"/>
		<polygon class="st241" points="100,1569 143,1569 121.5,1604 		"/>
		<polygon class="st241" points="194,1569 237,1569 215.5,1604 		"/>
		<polygon class="st242" points="1033,1565 990,1565 1011.5,1530 		"/>
		<polygon class="st243" points="1174,1565 1131,1565 1152.5,1530 		"/>
		<polygon class="st244" points="1266,1565 1223,1565 1244.5,1530 		"/>
		<polygon class="st245" points="939,1565 896,1565 917.5,1530 		"/>
		<polygon class="st241" points="986,1569 943,1569 964.5,1604 		"/>
		<polygon class="st241" points="1220,1569 1177,1569 1198.5,1604 		"/>
		<polygon class="st241" points="1314,1569 1271,1569 1292.5,1604 		"/>
		<polygon class="st241" points="892,1569 849,1569 870.5,1604 		"/>
		<polygon class="st246" points="1550,1565 1507,1565 1528.5,1530 		"/>
		<polygon class="st247" points="1456,1565 1413,1565 1434.5,1530 		"/>
		<polygon class="st248" points="1503,1565 1460,1565 1481.5,1530 		"/>
		<polygon class="st241" points="1503,1569 1460,1569 1481.5,1604 		"/>
		<polygon class="st241" points="1456,1569 1413,1569 1434.5,1604 		"/>
		<polygon class="st241" points="1409,1569 1366,1569 1387.5,1604 		"/>
		<polygon class="st249" points="2109,1565 2066,1565 2087.5,1530 		"/>
		<polygon class="st250" points="2015,1565 1972,1565 1993.5,1530 		"/>
		<polygon class="st241" points="2062,1569 2019,1569 2040.5,1604 		"/>
		<polygon class="st241" points="1968,1569 1925,1569 1946.5,1604 		"/>
		<polygon class="st251" points="2207,1565 2250,1565 2228.5,1530 		"/>
		<polygon class="st252" points="2301,1565 2344,1565 2322.5,1530 		"/>
		<polygon class="st241" points="2254,1569 2297,1569 2275.5,1604 		"/>
		<polygon class="st241" points="2348,1569 2391,1569 2369.5,1604 		"/>
		<polygon class="st241" points="335,1569 378,1569 356.5,1604 		"/>
		<polygon class="st241" points="382,1569 425,1569 403.5,1604 		"/>
		<polygon class="st253" points="2489,1565 2532,1565 2510.5,1530 		"/>
		<polygon class="st254" points="2536,1565 2579,1565 2557.5,1530 		"/>
		<polygon class="st241" points="2489,1569 2532,1569 2510.5,1604 		"/>
		<polygon class="st241" points="2536,1569 2579,1569 2557.5,1604 		"/>
		<polygon class="st255" points="751,1565 708,1565 729.5,1530 		"/>
		<polygon class="st256" points="704,1565 661,1565 682.5,1530 		"/>
		<polygon class="st257" points="657,1565 614,1565 635.5,1530 		"/>
		<polygon class="st258" points="401.5,1523 358.5,1523 380,1488 		"/>
		<polygon class="st259" points="656.5,1481 613.5,1481 635,1446 		"/>
		<polygon class="st260" points="401.5,1443 358.5,1443 380,1478 		"/>
		<polygon class="st261" points="2489,1481 2532,1481 2510.5,1446 		"/>
		<polygon class="st262" points="2536,1481 2579,1481 2557.5,1446 		"/>
		<polygon class="st263" points="2555.5,1523 2512.5,1523 2534,1488 		"/>
		<polygon class="st264" points="2555.5,1443 2512.5,1443 2534,1478 		"/>
		<polygon class="st265" points="1921.5,1485 1878.5,1485 1900,1520 		"/>
		<polygon class="st222" points="2015.5,1485 1972.5,1485 1994,1520 		"/>
		<polygon class="st266" points="2062.5,1485 2019.5,1485 2041,1520 		"/>
		<polygon class="st267" points="632.5,1522 589.5,1522 611,1487 		"/>
		<polygon class="st268" points="613.5,1485 656.5,1485 635,1520 		"/>
		<polygon class="st269" points="685,1523 728,1523 706.5,1488 		"/>
		<polygon class="st270" points="685,1443 728,1443 706.5,1478 		"/>
		<polygon class="st271" points="1412.5,1481 1455.5,1481 1434,1446 		"/>
		<polygon class="st272" points="1459.5,1481 1502.5,1481 1481,1446 		"/>
		<polygon class="st273" points="1505.5,1481 1548.5,1481 1527,1446 		"/>
		<polygon class="st274" points="1505.5,1485 1548.5,1485 1527,1520 		"/>
		<polygon class="st275" points="1436,1523 1479,1523 1457.5,1488 		"/>
		<polygon class="st276" points="1436,1443 1479,1443 1457.5,1478 		"/>
		<polygon class="st277" points="1737.5,1481 1780.5,1481 1759,1446 		"/>
		<polygon class="st278" points="1784.5,1481 1827.5,1481 1806,1446 		"/>
		<polygon class="st279" points="1761,1443 1804,1443 1782.5,1478 		"/>
		<polygon class="st280" points="849.5,1481 892.5,1481 871,1446 		"/>
		<polygon class="st281" points="844.5,1485 801.5,1485 823,1520 		"/>
		<polygon class="st282" points="939.5,1485 896.5,1485 918,1520 		"/>
		<polygon class="st283" points="987.5,1485 944.5,1485 966,1520 		"/>
		<polygon class="st284" points="873,1443 916,1443 894.5,1478 		"/>
		<polygon class="st285" points="1313.5,1481 1270.5,1481 1292,1446 		"/>
		<polygon class="st286" points="1318.5,1485 1361.5,1485 1340,1520 		"/>
		<polygon class="st287" points="1223.5,1485 1266.5,1485 1245,1520 		"/>
		<polygon class="st288" points="1175.5,1485 1218.5,1485 1197,1520 		"/>
		<polygon class="st289" points="1290,1443 1247,1443 1268.5,1478 		"/>
		<polygon class="st290" points="1925.5,1481 1968.5,1481 1947,1446 		"/>
		<polygon class="st291" points="1949,1443 1992,1443 1970.5,1478 		"/>
		<polygon class="st292" points="1708.5,1522 1665.5,1522 1687,1487 		"/>
		<polygon class="st293" points="1689.5,1485 1732.5,1485 1711,1520 		"/>
		<polygon class="st294" points="1761,1523 1804,1523 1782.5,1488 		"/>
		<polygon class="st295" points="1530,1523 1573,1523 1551.5,1488 		"/>
		<polygon class="st241" points="751,1569 708,1569 729.5,1604 		"/>
		<polygon class="st241" points="704,1569 661,1569 682.5,1604 		"/>
		<polygon class="st296" points="1827,1565 1784,1565 1805.5,1530 		"/>
		<polygon class="st297" points="1780,1565 1737,1565 1758.5,1530 		"/>
		<polygon class="st298" points="1733,1565 1690,1565 1711.5,1530 		"/>
		<polygon class="st241" points="1827,1569 1784,1569 1805.5,1604 		"/>
		<polygon class="st241" points="1780,1569 1737,1569 1758.5,1604 		"/>
		<polygon class="st299" points="524.5,1481 561.5,1481 543,1450.9 		"/>
		<polygon class="st300" points="524.5,1401 561.5,1401 543,1431.1 		"/>
		<polygon class="st301" points="524.5,1317 561.5,1317 543,1347.1 		"/>
		<polygon class="st302" points="524.5,1312 561.5,1312 543,1281.9 		"/>
		<polygon class="st303" points="524.2,1227 561.2,1227 542.8,1196.9 		"/>
		<polygon class="st304" points="1597,1166 1554,1166 1572.7,1196.5 1554,1227 1597,1227 1578.3,1196.5 		"/>
		<polygon class="st305" points="1686,1166 1643,1166 1661.7,1196.5 1643,1227 1686,1227 1667.3,1196.5 		"/>
		<polygon class="st306" points="1968.5,1166 1925.5,1166 1944.2,1196.5 1925.5,1227 1968.5,1227 1949.8,1196.5 		"/>
		<polygon class="st307" points="1601.5,1227 1638.5,1227 1620,1196.9 		"/>
		<polygon class="st308" points="1600.5,1317 1637.5,1317 1619,1347.1 		"/>
		<polygon class="st309" points="1600.5,1312 1637.5,1312 1619,1281.9 		"/>
		<polygon class="st310" points="1595,1481 1552,1481 1573.5,1446 		"/>
		<polygon class="st311" points="1686,1481 1643,1481 1664.5,1446 		"/>
		<polygon class="st312" points="1732.5,1481 1689.5,1481 1711,1446 		"/>
		<polygon class="st313" points="1600.5,1481 1637.5,1481 1619,1450.9 		"/>
		<polygon class="st314" points="1600.5,1401 1637.5,1401 1619,1431.1 		"/>
		<polygon class="st315" points="524.5,1565 561.5,1565 543,1534.9 		"/>
		<polygon class="st241" points="524.5,1568.7 561.5,1568.7 543,1598.8 		"/>
		<polygon class="st316" points="1601,1565.3 1638,1565.3 1619.5,1535.2 		"/>
		<polygon class="st241" points="1601,1568.7 1638,1568.7 1619.5,1598.8 		"/>
		<polygon class="st317" points="25,1522 -18,1522 3.5,1487 		"/>
	</g>
	<polygon class="st3" points="53,828 96,828 74.5,863 	"/>
	<polygon class="st4" points="143,908 100,908 121.5,873 	"/>
	<polygon class="st5" points="190,908 147,908 168.5,873 	"/>
	<polygon class="st6" points="190,1076 147,1076 168.5,1041 	"/>
	<polygon class="st7" points="237,1076 194,1076 215.5,1041 	"/>
	<polygon class="st8" points="284,908 241,908 262.5,873 	"/>
	<polygon class="st9" points="284,1080 241,1080 262.5,1115 	"/>
	<polygon class="st10" points="147,828 190,828 168.5,863 	"/>
	<polygon class="st11" points="335,828 378,828 356.5,863 	"/>
	<polygon class="st12" points="382,828 425,828 403.5,863 	"/>
	<polygon class="st13" points="429,828 472,828 450.5,863 	"/>
	<polygon class="st14" points="6,912 49,912 27.5,947 	"/>
	<polygon class="st15" points="73,949 30,949 51.5,914 	"/>
	<polygon class="st16" points="76,955 119,955 97.5,990 	"/>
	<polygon class="st17" points="143,992 100,992 121.5,957 	"/>
	<polygon class="st18" points="335,998 378,998 356.5,1033 	"/>
	<polygon class="st19" points="430,998 473,998 451.5,1033 	"/>
	<polygon class="st20" points="613.5,998 656.5,998 635,1033 	"/>
	<polygon class="st21" points="402,1035 359,1035 380.5,1000 	"/>
	<polygon class="st22" points="752,998 709,998 730.5,1033 	"/>
	<polygon class="st23" points="685,1035 728,1035 706.5,1000 	"/>
	<polygon class="st24" points="1412,998 1455,998 1433.5,1033 	"/>
	<polygon class="st25" points="1506,998 1549,998 1527.5,1033 	"/>
	<polygon class="st26" points="1690,998 1733,998 1711.5,1033 	"/>
	<polygon class="st27" points="1479,1035 1436,1035 1457.5,1000 	"/>
	<polygon class="st28" points="1828,998 1785,998 1806.5,1033 	"/>
	<polygon class="st29" points="1761,1035 1804,1035 1782.5,1000 	"/>
	<polygon class="st30" points="2488.5,998 2531.5,998 2510,1033 	"/>
	<polygon class="st31" points="2555.5,1035 2512.5,1035 2534,1000 	"/>
	<polygon class="st32" points="1854.5,1035 1897.5,1035 1876,1000 	"/>
	<polygon class="st33" points="1854.5,1039 1897.5,1039 1876,1074 	"/>
	<polygon class="st34" points="1949,1035 1992,1035 1970.5,1000 	"/>
	<polygon class="st35" points="2043.5,1035 2086.5,1035 2065,1000 	"/>
	<polygon class="st36" points="2230,1035 2273,1035 2251.5,1000 	"/>
	<polygon class="st37" points="2324.5,1035 2367.5,1035 2346,1000 	"/>
	<polygon class="st38" points="2418,1035 2461,1035 2439.5,1000 	"/>
	<polygon class="st39" points="778,1035 821,1035 799.5,1000 	"/>
	<polygon class="st40" points="873,1035 916,1035 894.5,1000 	"/>
	<polygon class="st41" points="967,1035 1010,1035 988.5,1000 	"/>
	<polygon class="st42" points="1153,1035 1196,1035 1174.5,1000 	"/>
	<polygon class="st43" points="1247.5,1035 1290.5,1035 1269,1000 	"/>
	<polygon class="st44" points="1341.5,1035 1384.5,1035 1363,1000 	"/>
	<polygon class="st45" points="1341.5,1039 1384.5,1039 1363,1074 	"/>
	<polygon class="st46" points="452,955 495,955 473.5,990 	"/>
	<polygon class="st47" points="1153,955 1196,955 1174.5,990 	"/>
	<polygon class="st48" points="519,992 476,992 497.5,957 	"/>
	<polygon class="st49" points="633,955 590,955 611.5,990 	"/>
	<polygon class="st50" points="566,992 609,992 587.5,957 	"/>
	<polygon class="st51" points="49,992 6,992 27.5,957 	"/>
	<polygon class="st52" points="119,1035 76,1035 97.5,1000 	"/>
	<polygon class="st53" points="119,1118 76,1118 97.5,1083 	"/>
	<polygon class="st54" points="213.5,1035 170.5,1035 192,1000 	"/>
	<polygon class="st55" points="213.5,1118 170.5,1118 192,1083 	"/>
	<polygon class="st56" points="402,1118 359,1118 380.5,1083 	"/>
	<polygon class="st57" points="307.5,1035 264.5,1035 286,1000 	"/>
	<polygon class="st58" points="25,949 -18,949 3.5,914 	"/>
	<polygon class="st59" points="452.5,1118 495.5,1118 474,1083 	"/>
	<polygon class="st60" points="519.5,1081 476.5,1081 498,1116 	"/>
	<polygon class="st61" points="471.5,1081 428.5,1081 450,1116 	"/>
	<polygon class="st62" points="590,1118 633,1118 611.5,1083 	"/>
	<polygon class="st63" points="685,1118 728,1118 706.5,1083 	"/>
	<polygon class="st64" points="873,1118 916,1118 894.5,1083 	"/>
	<polygon class="st65" points="967,1118 1010,1118 988.5,1083 	"/>
	<polygon class="st66" points="1153,1118 1196,1118 1174.5,1083 	"/>
	<polygon class="st67" points="1247.5,1118 1290.5,1118 1269,1083 	"/>
	<polygon class="st68" points="1436,1118 1479,1118 1457.5,1083 	"/>
	<polygon class="st69" points="657,1081 614,1081 635.5,1116 	"/>
	<polygon class="st70" points="844.5,1081 801.5,1081 823,1116 	"/>
	<polygon class="st71" points="1361.5,1081 1318.5,1081 1340,1116 	"/>
	<polygon class="st72" points="609,1081 566,1081 587.5,1116 	"/>
	<polygon class="st73" points="1530,1118 1573,1118 1551.5,1083 	"/>
	<polygon class="st74" points="1597,1081 1554,1081 1575.5,1116 	"/>
	<polygon class="st75" points="1549,1081 1506,1081 1527.5,1116 	"/>
	<polygon class="st76" points="1667,1118 1710,1118 1688.5,1083 	"/>
	<polygon class="st77" points="1761,1118 1804,1118 1782.5,1083 	"/>
	<polygon class="st78" points="1949,1118 1992,1118 1970.5,1083 	"/>
	<polygon class="st79" points="2043.5,1118 2086.5,1118 2065,1083 	"/>
	<polygon class="st80" points="2230,1118 2273,1118 2251.5,1083 	"/>
	<polygon class="st37" points="2324.5,1118 2367.5,1118 2346,1083 	"/>
	<polygon class="st81" points="2512.5,1118 2555.5,1118 2534,1083 	"/>
	<polygon class="st82" points="1734,1081 1691,1081 1712.5,1116 	"/>
	<polygon class="st83" points="1921.5,1081 1878.5,1081 1900,1116 	"/>
	<polygon class="st84" points="2438,1081 2395,1081 2416.5,1116 	"/>
	<polygon class="st85" points="1686,1081 1643,1081 1664.5,1116 	"/>
	<polygon class="st86" points="25,1039 -18,1039 3.5,1074 	"/>
	<polygon class="st87" points="307.5,1039 264.5,1039 286,1074 	"/>
	<polygon class="st88" points="6,1076 49,1076 27.5,1041 	"/>
	<polygon class="st89" points="119,1124 76,1124 97.5,1159 	"/>
	<polygon class="st90" points="213.5,1124 170.5,1124 192,1159 	"/>
	<polygon class="st91" points="916,1124 873,1124 894.5,1159 	"/>
	<polygon class="st92" points="100,1161 143,1161 121.5,1126 	"/>
	<polygon class="st101" points="967,1124 1010,1124 988.5,1159 	"/>
	<polygon class="st102" points="986,1161 943,1161 964.5,1126 	"/>
	<polygon class="st118" points="1196,1124 1153,1124 1174.5,1159 	"/>
	<polygon class="st119" points="1992,1124 1949,1124 1970.5,1159 	"/>
	<polygon class="st120" points="1290.5,1124 1247.5,1124 1269,1159 	"/>
	<polygon class="st121" points="1177,1161 1220,1161 1198.5,1126 	"/>
	<polygon class="st122" points="2043.5,1124 2086.5,1124 2065,1159 	"/>
	<polygon class="st123" points="2064,1161 2019.5,1161 2041.8,1126 	"/>
	<polygon class="st124" points="2273,1124 2230,1124 2251.5,1159 	"/>
	<polygon class="st125" points="2367.5,1124 2324.5,1124 2346,1159 	"/>
	<polygon class="st126" points="2254,1161 2297,1161 2275.5,1126 	"/>
	<polygon class="st127" points="335,1161 378,1161 356.5,1126 	"/>
	<polygon class="st128" points="381.8,1161 424.8,1161 403.2,1126 	"/>
	<polygon class="st129" points="428.5,1161 471.5,1161 450,1126 	"/>
	<polygon class="st130" points="614.5,1161 657.5,1161 636,1126 	"/>
	<polygon class="st131" points="661.8,1161 704.8,1161 683.2,1126 	"/>
	<polygon class="st132" points="709,1161 752,1161 730.5,1126 	"/>
	<polygon class="st133" points="1411.5,1161 1454.5,1161 1433,1126 	"/>
	<polygon class="st134" points="1458.8,1161 1501.8,1161 1480.2,1126 	"/>
	<polygon class="st135" points="1506,1161 1549,1161 1527.5,1126 	"/>
	<polygon class="st136" points="1691,1161 1734,1161 1712.5,1126 	"/>
	<polygon class="st137" points="1738.2,1161 1781.2,1161 1759.8,1126 	"/>
	<polygon class="st138" points="1785.5,1161 1828.5,1161 1807,1126 	"/>
	<polygon class="st139" points="6,1161 49,1161 27.5,1126 	"/>
	<polygon class="st141" points="359,1039 402,1039 380.5,1074 	"/>
	<polygon class="st142" points="452,1039 495,1039 473.5,1074 	"/>
	<polygon class="st143" points="590,1039 633,1039 611.5,1074 	"/>
	<polygon class="st144" points="778,1039 821,1039 799.5,1074 	"/>
	<polygon class="st145" points="1060,1039 1103,1039 1081.5,1074 	"/>
	<polygon class="st146" points="378,1076 335,1076 356.5,1041 	"/>
	<polygon class="st147" points="728,1039 685,1039 706.5,1074 	"/>
	<polygon class="st148" points="709,1076 752,1076 730.5,1041 	"/>
	<polygon class="st149" points="849.5,1076 892.5,1076 871,1041 	"/>
	<polygon class="st150" points="896.5,1076 939.5,1076 918,1041 	"/>
	<polygon class="st151" points="990.5,1076 1033.5,1076 1012,1041 	"/>
	<polygon class="st152" points="1036,1076 1079,1076 1057.5,1041 	"/>
	<polygon class="st153" points="1436,1039 1479,1039 1457.5,1074 	"/>
	<polygon class="st154" points="1530,1039 1573,1039 1551.5,1074 	"/>
	<polygon class="st155" points="1667,1039 1710,1039 1688.5,1074 	"/>
	<polygon class="st156" points="1412,1076 1455,1076 1433.5,1041 	"/>
	<polygon class="st157" points="1804,1039 1761,1039 1782.5,1074 	"/>
	<polygon class="st158" points="1828,1076 1785,1076 1806.5,1041 	"/>
	<polygon class="st159" points="1084,1076 1127,1076 1105.5,1041 	"/>
	<polygon class="st160" points="1060,1124 1103,1124 1081.5,1159 	"/>
	<polygon class="st161" points="1036,1161 1079,1161 1057.5,1126 	"/>
	<polygon class="st162" points="1084,1161 1127,1161 1105.5,1126 	"/>
	<polygon class="st163" points="2138,1124 2181,1124 2159.5,1159 	"/>
	<polygon class="st164" points="2114,1161 2157,1161 2135.5,1126 	"/>
	<polygon class="st165" points="2162,1161 2205,1161 2183.5,1126 	"/>
	<polygon class="st166" points="2488.5,1161 2531.5,1161 2510,1126 	"/>
	<polygon class="st167" points="2536.5,1161 2579.5,1161 2558,1126 	"/>
	<polygon class="st168" points="1129.5,1076 1172.5,1076 1151,1041 	"/>
	<polygon class="st169" points="2138,1039 2181,1039 2159.5,1074 	"/>
	<polygon class="st170" points="2418,1039 2461,1039 2439.5,1074 	"/>
	<polygon class="st171" points="2068.5,1076 2111.5,1076 2090,1041 	"/>
	<polygon class="st172" points="2114,1076 2157,1076 2135.5,1041 	"/>
	<polygon class="st173" points="2512.5,1039 2555.5,1039 2534,1074 	"/>
	<polygon class="st174" points="2488.5,1076 2531.5,1076 2510,1041 	"/>
	<polygon class="st175" points="2162,1076 2205,1076 2183.5,1041 	"/>
	<polygon class="st176" points="2207.5,1076 2250.5,1076 2229,1041 	"/>
	<polygon class="st177" points="2301,1076 2344,1076 2322.5,1041 	"/>
	<polygon class="st178" points="2348,1076 2391,1076 2369.5,1041 	"/>
	<polygon class="st179" points="1224,1076 1267,1076 1245.5,1041 	"/>
	<polygon class="st180" points="1270.5,1076 1313.5,1076 1292,1041 	"/>
	<polygon class="st181" points="1925.5,1076 1968.5,1076 1947,1041 	"/>
	<polygon class="st182" points="1972.5,1076 2015.5,1076 1994,1041 	"/>
	<polygon class="st183" points="53,1076 96,1076 74.5,1041 	"/>
	<polygon class="st184" points="2138,871 2181,871 2159.5,906 	"/>
	<polygon class="st185" points="2205,908 2162,908 2183.5,873 	"/>
	<polygon class="st186" points="2157,908 2114,908 2135.5,873 	"/>
	<polygon class="st187" points="2114,913 2157,913 2135.5,948 	"/>
	<polygon class="st188" points="2162,913 2205,913 2183.5,948 	"/>
	<polygon class="st189" points="2133,950 2090,950 2111.5,915 	"/>
	<polygon class="st190" points="2229,950 2186,950 2207.5,915 	"/>
	<polygon class="st191" points="2181,950 2138,950 2159.5,915 	"/>
	<polygon class="st192" points="1060,871 1103,871 1081.5,906 	"/>
	<polygon class="st193" points="1127,908 1084,908 1105.5,873 	"/>
	<polygon class="st194" points="1079,908 1036,908 1057.5,873 	"/>
	<polygon class="st195" points="1036,913 1079,913 1057.5,948 	"/>
	<polygon class="st196" points="1084,913 1127,913 1105.5,948 	"/>
	<polygon class="st197" points="1055,950 1012,950 1033.5,915 	"/>
	<polygon class="st198" points="1151,950 1108,950 1129.5,915 	"/>
	<polygon class="st199" points="1103,950 1060,950 1081.5,915 	"/>
	<polygon class="st200" points="454,873 497,873 475.5,908 	"/>
	<polygon class="st201" points="473,908 430,908 451.5,873 	"/>
	<polygon class="st202" points="473,912 430,912 451.5,947 	"/>
	<polygon class="st203" points="519,912 476,912 497.5,947 	"/>
	<polygon class="st204" points="610,912 567,912 588.5,947 	"/>
	<polygon class="st205" points="194,912 237,912 215.5,947 	"/>
	<polygon class="st206" points="335,912 378,912 356.5,947 	"/>
	<polygon class="st207" points="382,912 425,912 403.5,947 	"/>
	<polygon class="st208" points="660.5,914 703.5,914 682,949 	"/>
	<polygon class="st209" points="708.5,912 751.5,912 730,947 	"/>
	<polygon class="st210" points="213,949 170,949 191.5,914 	"/>
	<polygon class="st211" points="237,992 194,992 215.5,957 	"/>
	<polygon class="st212" points="190,992 147,992 168.5,957 	"/>
	<polygon class="st213" points="892.5,992 849.5,992 871,957 	"/>
	<polygon class="st214" points="986.5,992 943.5,992 965,957 	"/>
	<polygon class="st215" points="939.5,992 896.5,992 918,957 	"/>
	<polygon class="st216" points="1220,992 1177,992 1198.5,957 	"/>
	<polygon class="st217" points="1314,992 1271,992 1292.5,957 	"/>
	<polygon class="st218" points="1267,992 1224,992 1245.5,957 	"/>
	<polygon class="st219" points="2086.5,955 2043.5,955 2065,990 	"/>
	<polygon class="st220" points="2019.5,992 2062.5,992 2041,957 	"/>
	<polygon class="st221" points="1925.5,992 1968.5,992 1947,957 	"/>
	<polygon class="st222" points="1972.5,992 2015.5,992 1994,957 	"/>
	<polygon class="st223" points="2230,955 2273,955 2251.5,990 	"/>
	<polygon class="st224" points="2297,992 2254,992 2275.5,957 	"/>
	<polygon class="st225" points="2391,992 2348,992 2369.5,957 	"/>
	<polygon class="st226" points="2344,992 2301,992 2322.5,957 	"/>
	<polygon class="st227" points="2162,992 2205,992 2183.5,957 	"/>
	<polygon class="st228" points="2114,992 2157,992 2135.5,957 	"/>
	<polygon class="st229" points="1530,955 1573,955 1551.5,990 	"/>
	<polygon class="st230" points="1667,955 1710,955 1688.5,990 	"/>
	<polygon class="st231" points="1597,992 1554,992 1575.5,957 	"/>
	<polygon class="st232" points="1686,992 1643,992 1664.5,957 	"/>
	<polygon class="st233" points="1127,992 1084,992 1105.5,957 	"/>
	<polygon class="st234" points="1079,992 1036,992 1057.5,957 	"/>
	<polygon class="st235" points="2297,908 2254,908 2275.5,873 	"/>
	<polygon class="st236" points="2344,908 2301,908 2322.5,873 	"/>
	<polygon class="st237" points="2438,908 2395,908 2416.5,873 	"/>
	<polygon class="st238" points="2348,912 2391,912 2369.5,947 	"/>
	<polygon class="st239" points="2367,949 2324,949 2345.5,914 	"/>
	<polygon class="st240" points="6,908 49,908 27.5,873 	"/>
	<polygon class="st242" points="1033,828 990,828 1011.5,863 	"/>
	<polygon class="st243" points="1174,828 1131,828 1152.5,863 	"/>
	<polygon class="st244" points="1266,828 1223,828 1244.5,863 	"/>
	<polygon class="st245" points="939,828 896,828 917.5,863 	"/>
	<polygon class="st246" points="1550,828 1507,828 1528.5,863 	"/>
	<polygon class="st247" points="1456,828 1413,828 1434.5,863 	"/>
	<polygon class="st248" points="1503,828 1460,828 1481.5,863 	"/>
	<polygon class="st249" points="2109,828 2066,828 2087.5,863 	"/>
	<polygon class="st250" points="2015,828 1972,828 1993.5,863 	"/>
	<polygon class="st251" points="2207,828 2250,828 2228.5,863 	"/>
	<polygon class="st252" points="2301,828 2344,828 2322.5,863 	"/>
	<polygon class="st253" points="2489,828 2532,828 2510.5,863 	"/>
	<polygon class="st254" points="2536,828 2579,828 2557.5,863 	"/>
	<polygon class="st255" points="751,828 708,828 729.5,863 	"/>
	<polygon class="st256" points="704,828 661,828 682.5,863 	"/>
	<polygon class="st257" points="657,828 614,828 635.5,863 	"/>
	<polygon class="st258" points="401.5,870 358.5,870 380,905 	"/>
	<polygon class="st259" points="656.5,912 613.5,912 635,947 	"/>
	<polygon class="st260" points="401.5,950 358.5,950 380,915 	"/>
	<polygon class="st261" points="2489,912 2532,912 2510.5,947 	"/>
	<polygon class="st262" points="2536,912 2579,912 2557.5,947 	"/>
	<polygon class="st263" points="2555.5,870 2512.5,870 2534,905 	"/>
	<polygon class="st264" points="2555.5,950 2512.5,950 2534,915 	"/>
	<polygon class="st265" points="1921.5,908 1878.5,908 1900,873 	"/>
	<polygon class="st222" points="2015.5,908 1972.5,908 1994,873 	"/>
	<polygon class="st266" points="2062.5,908 2019.5,908 2041,873 	"/>
	<polygon class="st267" points="632.5,871 589.5,871 611,906 	"/>
	<polygon class="st268" points="613.5,908 656.5,908 635,873 	"/>
	<polygon class="st269" points="685,870 728,870 706.5,905 	"/>
	<polygon class="st270" points="685,950 728,950 706.5,915 	"/>
	<polygon class="st271" points="1412.5,912 1455.5,912 1434,947 	"/>
	<polygon class="st272" points="1459.5,912 1502.5,912 1481,947 	"/>
	<polygon class="st273" points="1505.5,912 1548.5,912 1527,947 	"/>
	<polygon class="st274" points="1505.5,908 1548.5,908 1527,873 	"/>
	<polygon class="st275" points="1436,870 1479,870 1457.5,905 	"/>
	<polygon class="st276" points="1436,950 1479,950 1457.5,915 	"/>
	<polygon class="st277" points="1737.5,912 1780.5,912 1759,947 	"/>
	<polygon class="st278" points="1784.5,912 1827.5,912 1806,947 	"/>
	<polygon class="st279" points="1761,950 1804,950 1782.5,915 	"/>
	<polygon class="st280" points="849.5,912 892.5,912 871,947 	"/>
	<polygon class="st281" points="844.5,908 801.5,908 823,873 	"/>
	<polygon class="st282" points="939.5,908 896.5,908 918,873 	"/>
	<polygon class="st283" points="987.5,908 944.5,908 966,873 	"/>
	<polygon class="st284" points="873,950 916,950 894.5,915 	"/>
	<polygon class="st285" points="1313.5,912 1270.5,912 1292,947 	"/>
	<polygon class="st286" points="1318.5,908 1361.5,908 1340,873 	"/>
	<polygon class="st287" points="1223.5,908 1266.5,908 1245,873 	"/>
	<polygon class="st288" points="1175.5,908 1218.5,908 1197,873 	"/>
	<polygon class="st289" points="1290,950 1247,950 1268.5,915 	"/>
	<polygon class="st290" points="1925.5,912 1968.5,912 1947,947 	"/>
	<polygon class="st291" points="1949,950 1992,950 1970.5,915 	"/>
	<polygon class="st292" points="1708.5,871 1665.5,871 1687,906 	"/>
	<polygon class="st293" points="1689.5,908 1732.5,908 1711,873 	"/>
	<polygon class="st294" points="1761,870 1804,870 1782.5,905 	"/>
	<polygon class="st295" points="1530,870 1573,870 1551.5,905 	"/>
	<polygon class="st296" points="1827,828 1784,828 1805.5,863 	"/>
	<polygon class="st297" points="1780,828 1737,828 1758.5,863 	"/>
	<polygon class="st298" points="1733,828 1690,828 1711.5,863 	"/>
	<polygon class="st299" points="524.5,912 561.5,912 543,942.1 	"/>
	<polygon class="st300" points="524.5,992 561.5,992 543,961.9 	"/>
	<polygon class="st301" points="524.5,1076 561.5,1076 543,1045.9 	"/>
	<polygon class="st302" points="524.5,1081 561.5,1081 543,1111.1 	"/>
	<polygon class="st303" points="524.2,1166 561.2,1166 542.8,1196.1 	"/>
	<polygon class="st307" points="1601.5,1166 1638.5,1166 1620,1196.1 	"/>
	<polygon class="st308" points="1600.5,1076 1637.5,1076 1619,1045.9 	"/>
	<polygon class="st309" points="1600.5,1081 1637.5,1081 1619,1111.1 	"/>
	<polygon class="st310" points="1595,912 1552,912 1573.5,947 	"/>
	<polygon class="st311" points="1686,912 1643,912 1664.5,947 	"/>
	<polygon class="st312" points="1732.5,912 1689.5,912 1711,947 	"/>
	<polygon class="st313" points="1600.5,912 1637.5,912 1619,942.1 	"/>
	<polygon class="st314" points="1600.5,992 1637.5,992 1619,961.9 	"/>
	<polygon class="st315" points="524.5,828 561.5,828 543,858.1 	"/>
	<polygon class="st316" points="1601,827.7 1638,827.7 1619.5,857.8 	"/>
	<polygon class="st317" points="25,871 -18,871 3.5,906 	"/>
	<polygon class="st1" points="524.2,368 561.2,368 542.8,398.1 	"/>
	<polygon class="st2" points="1601.5,368 1638.5,368 1620,398.1 	"/>
	<polygon class="st3" points="53,767 96,767 74.5,732 	"/>
	<polygon class="st4" points="143,687 100,687 121.5,722 	"/>
	<polygon class="st5" points="190,687 147,687 168.5,722 	"/>
	<polygon class="st6" points="190,519 147,519 168.5,554 	"/>
	<polygon class="st7" points="237,519 194,519 215.5,554 	"/>
	<polygon class="st8" points="284,687 241,687 262.5,722 	"/>
	<polygon class="st9" points="284,515 241,515 262.5,480 	"/>
	<polygon class="st10" points="147,767 190,767 168.5,732 	"/>
	<polygon class="st11" points="335,767 378,767 356.5,732 	"/>
	<polygon class="st12" points="382,767 425,767 403.5,732 	"/>
	<polygon class="st13" points="429,767 472,767 450.5,732 	"/>
	<polygon class="st14" points="6,683 49,683 27.5,648 	"/>
	<polygon class="st15" points="73,646 30,646 51.5,681 	"/>
	<polygon class="st16" points="76,640 119,640 97.5,605 	"/>
	<polygon class="st17" points="143,603 100,603 121.5,638 	"/>
	<polygon class="st18" points="335,597 378,597 356.5,562 	"/>
	<polygon class="st19" points="430,597 473,597 451.5,562 	"/>
	<polygon class="st20" points="613.5,597 656.5,597 635,562 	"/>
	<polygon class="st21" points="402,560 359,560 380.5,595 	"/>
	<polygon class="st22" points="752,597 709,597 730.5,562 	"/>
	<polygon class="st23" points="685,560 728,560 706.5,595 	"/>
	<polygon class="st24" points="1412,597 1455,597 1433.5,562 	"/>
	<polygon class="st25" points="1506,597 1549,597 1527.5,562 	"/>
	<polygon class="st26" points="1690,597 1733,597 1711.5,562 	"/>
	<polygon class="st27" points="1479,560 1436,560 1457.5,595 	"/>
	<polygon class="st28" points="1828,597 1785,597 1806.5,562 	"/>
	<polygon class="st29" points="1761,560 1804,560 1782.5,595 	"/>
	<polygon class="st30" points="2488.5,597 2531.5,597 2510,562 	"/>
	<polygon class="st31" points="2555.5,560 2512.5,560 2534,595 	"/>
	<polygon class="st32" points="1854.5,560 1897.5,560 1876,595 	"/>
	<polygon class="st33" points="1854.5,556 1897.5,556 1876,521 	"/>
	<polygon class="st34" points="1949,560 1992,560 1970.5,595 	"/>
	<polygon class="st35" points="2043.5,560 2086.5,560 2065,595 	"/>
	<polygon class="st36" points="2230,560 2273,560 2251.5,595 	"/>
	<polygon class="st37" points="2324.5,560 2367.5,560 2346,595 	"/>
	<polygon class="st38" points="2418,560 2461,560 2439.5,595 	"/>
	<polygon class="st39" points="778,560 821,560 799.5,595 	"/>
	<polygon class="st40" points="873,560 916,560 894.5,595 	"/>
	<polygon class="st41" points="967,560 1010,560 988.5,595 	"/>
	<polygon class="st42" points="1153,560 1196,560 1174.5,595 	"/>
	<polygon class="st43" points="1247.5,560 1290.5,560 1269,595 	"/>
	<polygon class="st44" points="1341.5,560 1384.5,560 1363,595 	"/>
	<polygon class="st45" points="1341.5,556 1384.5,556 1363,521 	"/>
	<polygon class="st46" points="452,640 495,640 473.5,605 	"/>
	<polygon class="st47" points="1153,640 1196,640 1174.5,605 	"/>
	<polygon class="st48" points="519,603 476,603 497.5,638 	"/>
	<polygon class="st49" points="633,640 590,640 611.5,605 	"/>
	<polygon class="st50" points="566,603 609,603 587.5,638 	"/>
	<polygon class="st51" points="49,603 6,603 27.5,638 	"/>
	<polygon class="st52" points="119,560 76,560 97.5,595 	"/>
	<polygon class="st53" points="119,477 76,477 97.5,512 	"/>
	<polygon class="st54" points="213.5,560 170.5,560 192,595 	"/>
	<polygon class="st55" points="213.5,477 170.5,477 192,512 	"/>
	<polygon class="st56" points="402,477 359,477 380.5,512 	"/>
	<polygon class="st57" points="307.5,560 264.5,560 286,595 	"/>
	<polygon class="st58" points="25,646 -18,646 3.5,681 	"/>
	<polygon class="st59" points="452.5,477 495.5,477 474,512 	"/>
	<polygon class="st60" points="519.5,514 476.5,514 498,479 	"/>
	<polygon class="st61" points="471.5,514 428.5,514 450,479 	"/>
	<polygon class="st62" points="590,477 633,477 611.5,512 	"/>
	<polygon class="st63" points="685,477 728,477 706.5,512 	"/>
	<polygon class="st64" points="873,477 916,477 894.5,512 	"/>
	<polygon class="st65" points="967,477 1010,477 988.5,512 	"/>
	<polygon class="st66" points="1153,477 1196,477 1174.5,512 	"/>
	<polygon class="st67" points="1247.5,477 1290.5,477 1269,512 	"/>
	<polygon class="st68" points="1436,477 1479,477 1457.5,512 	"/>
	<polygon class="st69" points="657,514 614,514 635.5,479 	"/>
	<polygon class="st70" points="844.5,514 801.5,514 823,479 	"/>
	<polygon class="st71" points="1361.5,514 1318.5,514 1340,479 	"/>
	<polygon class="st72" points="609,514 566,514 587.5,479 	"/>
	<polygon class="st73" points="1530,477 1573,477 1551.5,512 	"/>
	<polygon class="st74" points="1597,514 1554,514 1575.5,479 	"/>
	<polygon class="st75" points="1549,514 1506,514 1527.5,479 	"/>
	<polygon class="st76" points="1667,477 1710,477 1688.5,512 	"/>
	<polygon class="st77" points="1761,477 1804,477 1782.5,512 	"/>
	<polygon class="st78" points="1949,477 1992,477 1970.5,512 	"/>
	<polygon class="st79" points="2043.5,477 2086.5,477 2065,512 	"/>
	<polygon class="st80" points="2230,477 2273,477 2251.5,512 	"/>
	<polygon class="st37" points="2324.5,477 2367.5,477 2346,512 	"/>
	<polygon class="st81" points="2512.5,477 2555.5,477 2534,512 	"/>
	<polygon class="st82" points="1734,514 1691,514 1712.5,479 	"/>
	<polygon class="st83" points="1921.5,514 1878.5,514 1900,479 	"/>
	<polygon class="st84" points="2438,514 2395,514 2416.5,479 	"/>
	<polygon class="st85" points="1686,514 1643,514 1664.5,479 	"/>
	<polygon class="st86" points="25,556 -18,556 3.5,521 	"/>
	<polygon class="st87" points="307.5,556 264.5,556 286,521 	"/>
	<polygon class="st88" points="6,519 49,519 27.5,554 	"/>
	<polygon class="st89" points="119,471 76,471 97.5,436 	"/>
	<polygon class="st90" points="213.5,471 170.5,471 192,436 	"/>
	<polygon class="st91" points="916,471 873,471 894.5,436 	"/>
	<polygon class="st92" points="100,434 143,434 121.5,469 	"/>
	<polygon class="st93" points="111,392 97.5,370 84,392 80,398.5 84,405 97.5,427 111,405 115,398.5 	"/>
	<polygon class="st94" points="394,392 380.5,370 367,392 363,398.5 367,405 380.5,427 394,405 398,398.5 	"/>
	<polygon class="st95" points="720,392 706.5,370 693,392 689,398.5 693,405 706.5,427 720,405 724,398.5 	"/>
	<polygon class="st96" points="143,368 100,368 118.7,398.5 100,429 143,429 124.3,398.5 	"/>
	<polygon class="st97" points="237,368 194,368 212.7,398.5 194,429 237,429 218.3,398.5 	"/>
	<polygon class="st98" points="519.5,368 476.5,368 495.2,398.5 476.5,429 519.5,429 500.8,398.5 	"/>
	<polygon class="st99" points="609,368 566,368 584.7,398.5 566,429 609,429 590.3,398.5 	"/>
	<polygon class="st100" points="892.5,368 849.5,368 868.2,398.5 849.5,429 892.5,429 873.8,398.5 	"/>
	<polygon class="st101" points="967,471 1010,471 988.5,436 	"/>
	<polygon class="st102" points="986,434 943,434 964.5,469 	"/>
	<polygon class="st103" points="1002,392 988.5,370 975,392 971,398.5 975,405 988.5,427 1002,405 1006,398.5 	"/>
	<polygon class="st104" points="1095,392 1081.5,370 1068,392 1064,398.5 1068,405 1081.5,427 1095,405 1099,398.5 	"/>
	<polygon class="st105" points="986,368 943,368 961.7,398.5 943,429 986,429 967.3,398.5 	"/>
	<polygon class="st106" points="1188,392 1174.5,370 1161,392 1157,398.5 1161,405 1174.5,427 1188,405 1192,398.5 	"/>
	<polygon class="st107" points="1471,392 1457.5,370 1444,392 1440,398.5 1444,405 1457.5,427 1471,405 1475,398.5 	"/>
	<polygon class="st108" points="1796,392 1782.5,370 1769,392 1765,398.5 1769,405 1782.5,427 1796,405 1800,398.5 	"/>
	<polygon class="st109" points="1220,368 1177,368 1195.7,398.5 1177,429 1220,429 1201.3,398.5 	"/>
	<polygon class="st110" points="2078.5,392 2065,370 2051.5,392 2047.5,398.5 2051.5,405 2065,427 2078.5,405 2082.5,398.5 	"/>
	<polygon class="st111" points="2062.5,368 2019.5,368 2038.2,398.5 2019.5,429 2062.5,429 2043.8,398.5 	"/>
	<polygon class="st112" points="2173,392 2159.5,370 2146,392 2142,398.5 2146,405 2159.5,427 2173,405 2177,398.5 	"/>
	<polygon class="st113" points="2265,392 2251.5,370 2238,392 2234,398.5 2238,405 2251.5,427 2265,405 2269,398.5 	"/>
	<polygon class="st114" points="2547.5,392 2534,370 2520.5,392 2516.5,398.5 2520.5,405 2534,427 2547.5,405 2551.5,398.5 	"/>
	<polygon class="st115" points="2297,368 2254,368 2272.7,398.5 2254,429 2297,429 2278.3,398.5 	"/>
	<polygon class="st116" points="2391,368 2348,368 2366.7,398.5 2348,429 2391,429 2372.3,398.5 	"/>
	<polygon class="st117" points="1313.5,368 1270.5,368 1289.2,398.5 1270.5,429 1313.5,429 1294.8,398.5 	"/>
	<polygon class="st118" points="1196,471 1153,471 1174.5,436 	"/>
	<polygon class="st119" points="1992,471 1949,471 1970.5,436 	"/>
	<polygon class="st120" points="1290.5,471 1247.5,471 1269,436 	"/>
	<polygon class="st121" points="1177,434 1220,434 1198.5,469 	"/>
	<polygon class="st122" points="2043.5,471 2086.5,471 2065,436 	"/>
	<polygon class="st123" points="2064,434 2019.5,434 2041.8,469 	"/>
	<polygon class="st124" points="2273,471 2230,471 2251.5,436 	"/>
	<polygon class="st125" points="2367.5,471 2324.5,471 2346,436 	"/>
	<polygon class="st126" points="2254,434 2297,434 2275.5,469 	"/>
	<polygon class="st127" points="335,434 378,434 356.5,469 	"/>
	<polygon class="st128" points="381.8,434 424.8,434 403.2,469 	"/>
	<polygon class="st129" points="428.5,434 471.5,434 450,469 	"/>
	<polygon class="st130" points="614.5,434 657.5,434 636,469 	"/>
	<polygon class="st131" points="661.8,434 704.8,434 683.2,469 	"/>
	<polygon class="st132" points="709,434 752,434 730.5,469 	"/>
	<polygon class="st133" points="1411.5,434 1454.5,434 1433,469 	"/>
	<polygon class="st134" points="1458.8,434 1501.8,434 1480.2,469 	"/>
	<polygon class="st135" points="1506,434 1549,434 1527.5,469 	"/>
	<polygon class="st136" points="1691,434 1734,434 1712.5,469 	"/>
	<polygon class="st137" points="1738.2,434 1781.2,434 1759.8,469 	"/>
	<polygon class="st138" points="1785.5,434 1828.5,434 1807,469 	"/>
	<polygon class="st139" points="6,434 49,434 27.5,469 	"/>
	<polygon class="st140" points="17,392 3.5,370 -10,392 -14,398.5 -10,405 3.5,427 17,405 21,398.5 	"/>
	<polygon class="st141" points="359,556 402,556 380.5,521 	"/>
	<polygon class="st142" points="452,556 495,556 473.5,521 	"/>
	<polygon class="st143" points="590,556 633,556 611.5,521 	"/>
	<polygon class="st144" points="778,556 821,556 799.5,521 	"/>
	<polygon class="st145" points="1060,556 1103,556 1081.5,521 	"/>
	<polygon class="st146" points="378,519 335,519 356.5,554 	"/>
	<polygon class="st147" points="728,556 685,556 706.5,521 	"/>
	<polygon class="st148" points="709,519 752,519 730.5,554 	"/>
	<polygon class="st149" points="849.5,519 892.5,519 871,554 	"/>
	<polygon class="st150" points="896.5,519 939.5,519 918,554 	"/>
	<polygon class="st151" points="990.5,519 1033.5,519 1012,554 	"/>
	<polygon class="st152" points="1036,519 1079,519 1057.5,554 	"/>
	<polygon class="st153" points="1436,556 1479,556 1457.5,521 	"/>
	<polygon class="st154" points="1530,556 1573,556 1551.5,521 	"/>
	<polygon class="st155" points="1667,556 1710,556 1688.5,521 	"/>
	<polygon class="st156" points="1412,519 1455,519 1433.5,554 	"/>
	<polygon class="st157" points="1804,556 1761,556 1782.5,521 	"/>
	<polygon class="st158" points="1828,519 1785,519 1806.5,554 	"/>
	<polygon class="st159" points="1084,519 1127,519 1105.5,554 	"/>
	<polygon class="st160" points="1060,471 1103,471 1081.5,436 	"/>
	<polygon class="st161" points="1036,434 1079,434 1057.5,469 	"/>
	<polygon class="st162" points="1084,434 1127,434 1105.5,469 	"/>
	<polygon class="st163" points="2138,471 2181,471 2159.5,436 	"/>
	<polygon class="st164" points="2114,434 2157,434 2135.5,469 	"/>
	<polygon class="st165" points="2162,434 2205,434 2183.5,469 	"/>
	<polygon class="st166" points="2488.5,434 2531.5,434 2510,469 	"/>
	<polygon class="st167" points="2536.5,434 2579.5,434 2558,469 	"/>
	<polygon class="st168" points="1129.5,519 1172.5,519 1151,554 	"/>
	<polygon class="st169" points="2138,556 2181,556 2159.5,521 	"/>
	<polygon class="st170" points="2418,556 2461,556 2439.5,521 	"/>
	<polygon class="st171" points="2068.5,519 2111.5,519 2090,554 	"/>
	<polygon class="st172" points="2114,519 2157,519 2135.5,554 	"/>
	<polygon class="st173" points="2512.5,556 2555.5,556 2534,521 	"/>
	<polygon class="st174" points="2488.5,519 2531.5,519 2510,554 	"/>
	<polygon class="st175" points="2162,519 2205,519 2183.5,554 	"/>
	<polygon class="st176" points="2207.5,519 2250.5,519 2229,554 	"/>
	<polygon class="st177" points="2301,519 2344,519 2322.5,554 	"/>
	<polygon class="st178" points="2348,519 2391,519 2369.5,554 	"/>
	<polygon class="st179" points="1224,519 1267,519 1245.5,554 	"/>
	<polygon class="st180" points="1270.5,519 1313.5,519 1292,554 	"/>
	<polygon class="st181" points="1925.5,519 1968.5,519 1947,554 	"/>
	<polygon class="st182" points="1972.5,519 2015.5,519 1994,554 	"/>
	<polygon class="st183" points="53,519 96,519 74.5,554 	"/>
	<polygon class="st184" points="2138,724 2181,724 2159.5,689 	"/>
	<polygon class="st185" points="2205,687 2162,687 2183.5,722 	"/>
	<polygon class="st186" points="2157,687 2114,687 2135.5,722 	"/>
	<polygon class="st187" points="2114,682 2157,682 2135.5,647 	"/>
	<polygon class="st188" points="2162,682 2205,682 2183.5,647 	"/>
	<polygon class="st189" points="2133,645 2090,645 2111.5,680 	"/>
	<polygon class="st190" points="2229,645 2186,645 2207.5,680 	"/>
	<polygon class="st191" points="2181,645 2138,645 2159.5,680 	"/>
	<polygon class="st192" points="1060,724 1103,724 1081.5,689 	"/>
	<polygon class="st193" points="1127,687 1084,687 1105.5,722 	"/>
	<polygon class="st194" points="1079,687 1036,687 1057.5,722 	"/>
	<polygon class="st195" points="1036,682 1079,682 1057.5,647 	"/>
	<polygon class="st196" points="1084,682 1127,682 1105.5,647 	"/>
	<polygon class="st197" points="1055,645 1012,645 1033.5,680 	"/>
	<polygon class="st198" points="1151,645 1108,645 1129.5,680 	"/>
	<polygon class="st199" points="1103,645 1060,645 1081.5,680 	"/>
	<polygon class="st200" points="454,722 497,722 475.5,687 	"/>
	<polygon class="st201" points="473,687 430,687 451.5,722 	"/>
	<polygon class="st202" points="473,683 430,683 451.5,648 	"/>
	<polygon class="st203" points="519,683 476,683 497.5,648 	"/>
	<polygon class="st204" points="610,683 567,683 588.5,648 	"/>
	<polygon class="st205" points="194,683 237,683 215.5,648 	"/>
	<polygon class="st206" points="335,683 378,683 356.5,648 	"/>
	<polygon class="st207" points="382,683 425,683 403.5,648 	"/>
	<polygon class="st208" points="660.5,681 703.5,681 682,646 	"/>
	<polygon class="st209" points="708.5,683 751.5,683 730,648 	"/>
	<polygon class="st210" points="213,646 170,646 191.5,681 	"/>
	<polygon class="st211" points="237,603 194,603 215.5,638 	"/>
	<polygon class="st212" points="190,603 147,603 168.5,638 	"/>
	<polygon class="st213" points="892.5,603 849.5,603 871,638 	"/>
	<polygon class="st214" points="986.5,603 943.5,603 965,638 	"/>
	<polygon class="st215" points="939.5,603 896.5,603 918,638 	"/>
	<polygon class="st216" points="1220,603 1177,603 1198.5,638 	"/>
	<polygon class="st217" points="1314,603 1271,603 1292.5,638 	"/>
	<polygon class="st218" points="1267,603 1224,603 1245.5,638 	"/>
	<polygon class="st219" points="2086.5,640 2043.5,640 2065,605 	"/>
	<polygon class="st220" points="2019.5,603 2062.5,603 2041,638 	"/>
	<polygon class="st221" points="1925.5,603 1968.5,603 1947,638 	"/>
	<polygon class="st222" points="1972.5,603 2015.5,603 1994,638 	"/>
	<polygon class="st223" points="2230,640 2273,640 2251.5,605 	"/>
	<polygon class="st224" points="2297,603 2254,603 2275.5,638 	"/>
	<polygon class="st225" points="2391,603 2348,603 2369.5,638 	"/>
	<polygon class="st226" points="2344,603 2301,603 2322.5,638 	"/>
	<polygon class="st227" points="2162,603 2205,603 2183.5,638 	"/>
	<polygon class="st228" points="2114,603 2157,603 2135.5,638 	"/>
	<polygon class="st229" points="1530,640 1573,640 1551.5,605 	"/>
	<polygon class="st230" points="1667,640 1710,640 1688.5,605 	"/>
	<polygon class="st231" points="1597,603 1554,603 1575.5,638 	"/>
	<polygon class="st232" points="1686,603 1643,603 1664.5,638 	"/>
	<polygon class="st233" points="1127,603 1084,603 1105.5,638 	"/>
	<polygon class="st234" points="1079,603 1036,603 1057.5,638 	"/>
	<polygon class="st235" points="2297,687 2254,687 2275.5,722 	"/>
	<polygon class="st236" points="2344,687 2301,687 2322.5,722 	"/>
	<polygon class="st237" points="2438,687 2395,687 2416.5,722 	"/>
	<polygon class="st238" points="2348,683 2391,683 2369.5,648 	"/>
	<polygon class="st239" points="2367,646 2324,646 2345.5,681 	"/>
	<polygon class="st240" points="6,687 49,687 27.5,722 	"/>
	<polygon class="st318" points="143,771 100,771 116.3,797.5 100,824 143,824 126.7,797.5 	"/>
	<polygon class="st319" points="237,771 194,771 210.3,797.5 194,824 237,824 220.7,797.5 	"/>
	<polygon class="st242" points="1033,767 990,767 1011.5,732 	"/>
	<polygon class="st243" points="1174,767 1131,767 1152.5,732 	"/>
	<polygon class="st244" points="1266,767 1223,767 1244.5,732 	"/>
	<polygon class="st245" points="939,767 896,767 917.5,732 	"/>
	<polygon class="st320" points="986,771 943,771 959.3,797.5 943,824 986,824 969.7,797.5 	"/>
	<polygon class="st321" points="1220,771 1177,771 1193.3,797.5 1177,824 1220,824 1203.7,797.5 	"/>
	<polygon class="st322" points="1314,771 1271,771 1287.3,797.5 1271,824 1314,824 1297.7,797.5 	"/>
	<polygon class="st323" points="892,771 849,771 865.3,797.5 849,824 892,824 875.7,797.5 	"/>
	<polygon class="st246" points="1550,767 1507,767 1528.5,732 	"/>
	<polygon class="st247" points="1456,767 1413,767 1434.5,732 	"/>
	<polygon class="st248" points="1503,767 1460,767 1481.5,732 	"/>
	<polygon class="st324" points="1503,771 1460,771 1476.3,797.5 1460,824 1503,824 1486.7,797.5 	"/>
	<polygon class="st325" points="1456,771 1413,771 1429.3,797.5 1413,824 1456,824 1439.7,797.5 	"/>
	<polygon class="st249" points="2109,767 2066,767 2087.5,732 	"/>
	<polygon class="st250" points="2015,767 1972,767 1993.5,732 	"/>
	<polygon class="st326" points="2062,771 2019,771 2035.3,797.5 2019,824 2062,824 2045.7,797.5 	"/>
	<polygon class="st327" points="1968,771 1925,771 1941.3,797.5 1925,824 1968,824 1951.7,797.5 	"/>
	<polygon class="st251" points="2207,767 2250,767 2228.5,732 	"/>
	<polygon class="st252" points="2301,767 2344,767 2322.5,732 	"/>
	<polygon class="st328" points="2297,771 2254,771 2270.3,797.5 2254,824 2297,824 2280.7,797.5 	"/>
	<polygon class="st329" points="2391,771 2348,771 2364.3,797.5 2348,824 2391,824 2374.7,797.5 	"/>
	<polygon class="st330" points="378,771 335,771 351.3,797.5 335,824 378,824 361.7,797.5 	"/>
	<polygon class="st331" points="425,771 382,771 398.3,797.5 382,824 425,824 408.7,797.5 	"/>
	<polygon class="st253" points="2489,767 2532,767 2510.5,732 	"/>
	<polygon class="st254" points="2536,767 2579,767 2557.5,732 	"/>
	<polygon class="st30" points="2532,771 2489,771 2505.3,797.5 2489,824 2532,824 2515.7,797.5 	"/>
	<polygon class="st332" points="2579,771 2536,771 2552.3,797.5 2536,824 2579,824 2562.7,797.5 	"/>
	<polygon class="st255" points="751,767 708,767 729.5,732 	"/>
	<polygon class="st256" points="704,767 661,767 682.5,732 	"/>
	<polygon class="st257" points="657,767 614,767 635.5,732 	"/>
	<polygon class="st258" points="401.5,725 358.5,725 380,690 	"/>
	<polygon class="st259" points="656.5,683 613.5,683 635,648 	"/>
	<polygon class="st260" points="401.5,645 358.5,645 380,680 	"/>
	<polygon class="st261" points="2489,683 2532,683 2510.5,648 	"/>
	<polygon class="st262" points="2536,683 2579,683 2557.5,648 	"/>
	<polygon class="st263" points="2555.5,725 2512.5,725 2534,690 	"/>
	<polygon class="st264" points="2555.5,645 2512.5,645 2534,680 	"/>
	<polygon class="st265" points="1921.5,687 1878.5,687 1900,722 	"/>
	<polygon class="st222" points="2015.5,687 1972.5,687 1994,722 	"/>
	<polygon class="st266" points="2062.5,687 2019.5,687 2041,722 	"/>
	<polygon class="st267" points="632.5,724 589.5,724 611,689 	"/>
	<polygon class="st268" points="613.5,687 656.5,687 635,722 	"/>
	<polygon class="st269" points="685,725 728,725 706.5,690 	"/>
	<polygon class="st270" points="685,645 728,645 706.5,680 	"/>
	<polygon class="st271" points="1412.5,683 1455.5,683 1434,648 	"/>
	<polygon class="st272" points="1459.5,683 1502.5,683 1481,648 	"/>
	<polygon class="st273" points="1505.5,683 1548.5,683 1527,648 	"/>
	<polygon class="st274" points="1505.5,687 1548.5,687 1527,722 	"/>
	<polygon class="st275" points="1436,725 1479,725 1457.5,690 	"/>
	<polygon class="st276" points="1436,645 1479,645 1457.5,680 	"/>
	<polygon class="st277" points="1737.5,683 1780.5,683 1759,648 	"/>
	<polygon class="st278" points="1784.5,683 1827.5,683 1806,648 	"/>
	<polygon class="st279" points="1761,645 1804,645 1782.5,680 	"/>
	<polygon class="st280" points="849.5,683 892.5,683 871,648 	"/>
	<polygon class="st281" points="844.5,687 801.5,687 823,722 	"/>
	<polygon class="st282" points="939.5,687 896.5,687 918,722 	"/>
	<polygon class="st283" points="987.5,687 944.5,687 966,722 	"/>
	<polygon class="st284" points="873,645 916,645 894.5,680 	"/>
	<polygon class="st285" points="1313.5,683 1270.5,683 1292,648 	"/>
	<polygon class="st286" points="1318.5,687 1361.5,687 1340,722 	"/>
	<polygon class="st287" points="1223.5,687 1266.5,687 1245,722 	"/>
	<polygon class="st288" points="1175.5,687 1218.5,687 1197,722 	"/>
	<polygon class="st289" points="1290,645 1247,645 1268.5,680 	"/>
	<polygon class="st290" points="1925.5,683 1968.5,683 1947,648 	"/>
	<polygon class="st291" points="1949,645 1992,645 1970.5,680 	"/>
	<polygon class="st292" points="1708.5,724 1665.5,724 1687,689 	"/>
	<polygon class="st293" points="1689.5,687 1732.5,687 1711,722 	"/>
	<polygon class="st294" points="1761,725 1804,725 1782.5,690 	"/>
	<polygon class="st295" points="1530,725 1573,725 1551.5,690 	"/>
	<polygon class="st333" points="751,771 708,771 724.3,797.5 708,824 751,824 734.7,797.5 	"/>
	<polygon class="st334" points="704,771 661,771 677.3,797.5 661,824 704,824 687.7,797.5 	"/>
	<polygon class="st296" points="1827,767 1784,767 1805.5,732 	"/>
	<polygon class="st297" points="1780,767 1737,767 1758.5,732 	"/>
	<polygon class="st298" points="1733,767 1690,767 1711.5,732 	"/>
	<polygon class="st335" points="1827,771 1784,771 1800.3,797.5 1784,824 1827,824 1810.7,797.5 	"/>
	<polygon class="st336" points="1780,771 1737,771 1753.3,797.5 1737,824 1780,824 1763.7,797.5 	"/>
	<polygon class="st299" points="524.5,683 561.5,683 543,652.9 	"/>
	<polygon class="st300" points="524.5,603 561.5,603 543,633.1 	"/>
	<polygon class="st301" points="524.5,519 561.5,519 543,549.1 	"/>
	<polygon class="st302" points="524.5,514 561.5,514 543,483.9 	"/>
	<polygon class="st303" points="524.2,429 561.2,429 542.8,398.9 	"/>
	<polygon class="st304" points="1597,368 1554,368 1572.7,398.5 1554,429 1597,429 1578.3,398.5 	"/>
	<polygon class="st305" points="1686,368 1643,368 1661.7,398.5 1643,429 1686,429 1667.3,398.5 	"/>
	<polygon class="st306" points="1968.5,368 1925.5,368 1944.2,398.5 1925.5,429 1968.5,429 1949.8,398.5 	"/>
	<polygon class="st307" points="1601.5,429 1638.5,429 1620,398.9 	"/>
	<polygon class="st308" points="1600.5,519 1637.5,519 1619,549.1 	"/>
	<polygon class="st309" points="1600.5,514 1637.5,514 1619,483.9 	"/>
	<polygon class="st310" points="1595,683 1552,683 1573.5,648 	"/>
	<polygon class="st311" points="1686,683 1643,683 1664.5,648 	"/>
	<polygon class="st312" points="1732.5,683 1689.5,683 1711,648 	"/>
	<polygon class="st313" points="1600.5,683 1637.5,683 1619,652.9 	"/>
	<polygon class="st314" points="1600.5,603 1637.5,603 1619,633.1 	"/>
	<polygon class="st315" points="524.5,767 561.5,767 543,736.9 	"/>
	<polygon class="st337" points="561.5,770.7 524.5,770.7 541,797.5 524.5,824.3 561.5,824.3 545,797.5 	"/>
	<polygon class="st316" points="1601,767.3 1638,767.3 1619.5,737.2 	"/>
	<polygon class="st338" points="1638,770.7 1601,770.7 1617.4,797.5 1601,824.3 1638,824.3 1621.6,797.5 	"/>
	<polygon class="st317" points="25,724 -18,724 3.5,689 	"/>
	<polygon class="st3" points="53,30 96,30 74.5,65 	"/>
	<polygon class="st4" points="143,110 100,110 121.5,75 	"/>
	<polygon class="st5" points="190,110 147,110 168.5,75 	"/>
	<polygon class="st6" points="190,278 147,278 168.5,243 	"/>
	<polygon class="st7" points="237,278 194,278 215.5,243 	"/>
	<polygon class="st8" points="284,110 241,110 262.5,75 	"/>
	<polygon class="st9" points="284,282 241,282 262.5,317 	"/>
	<polygon class="st10" points="147,30 190,30 168.5,65 	"/>
	<polygon class="st11" points="335,30 378,30 356.5,65 	"/>
	<polygon class="st12" points="382,30 425,30 403.5,65 	"/>
	<polygon class="st13" points="429,30 472,30 450.5,65 	"/>
	<polygon class="st14" points="6,114 49,114 27.5,149 	"/>
	<polygon class="st15" points="73,151 30,151 51.5,116 	"/>
	<polygon class="st16" points="76,157 119,157 97.5,192 	"/>
	<polygon class="st17" points="143,194 100,194 121.5,159 	"/>
	<polygon class="st18" points="335,200 378,200 356.5,235 	"/>
	<polygon class="st19" points="430,200 473,200 451.5,235 	"/>
	<polygon class="st20" points="613.5,200 656.5,200 635,235 	"/>
	<polygon class="st21" points="402,237 359,237 380.5,202 	"/>
	<polygon class="st22" points="752,200 709,200 730.5,235 	"/>
	<polygon class="st23" points="685,237 728,237 706.5,202 	"/>
	<polygon class="st24" points="1412,200 1455,200 1433.5,235 	"/>
	<polygon class="st25" points="1506,200 1549,200 1527.5,235 	"/>
	<polygon class="st26" points="1690,200 1733,200 1711.5,235 	"/>
	<polygon class="st27" points="1479,237 1436,237 1457.5,202 	"/>
	<polygon class="st28" points="1828,200 1785,200 1806.5,235 	"/>
	<polygon class="st29" points="1761,237 1804,237 1782.5,202 	"/>
	<polygon class="st30" points="2488.5,200 2531.5,200 2510,235 	"/>
	<polygon class="st31" points="2555.5,237 2512.5,237 2534,202 	"/>
	<polygon class="st32" points="1854.5,237 1897.5,237 1876,202 	"/>
	<polygon class="st33" points="1854.5,241 1897.5,241 1876,276 	"/>
	<polygon class="st34" points="1949,237 1992,237 1970.5,202 	"/>
	<polygon class="st35" points="2043.5,237 2086.5,237 2065,202 	"/>
	<polygon class="st36" points="2230,237 2273,237 2251.5,202 	"/>
	<polygon class="st37" points="2324.5,237 2367.5,237 2346,202 	"/>
	<polygon class="st38" points="2418,237 2461,237 2439.5,202 	"/>
	<polygon class="st39" points="778,237 821,237 799.5,202 	"/>
	<polygon class="st40" points="873,237 916,237 894.5,202 	"/>
	<polygon class="st41" points="967,237 1010,237 988.5,202 	"/>
	<polygon class="st42" points="1153,237 1196,237 1174.5,202 	"/>
	<polygon class="st43" points="1247.5,237 1290.5,237 1269,202 	"/>
	<polygon class="st44" points="1341.5,237 1384.5,237 1363,202 	"/>
	<polygon class="st45" points="1341.5,241 1384.5,241 1363,276 	"/>
	<polygon class="st46" points="452,157 495,157 473.5,192 	"/>
	<polygon class="st47" points="1153,157 1196,157 1174.5,192 	"/>
	<polygon class="st48" points="519,194 476,194 497.5,159 	"/>
	<polygon class="st49" points="633,157 590,157 611.5,192 	"/>
	<polygon class="st50" points="566,194 609,194 587.5,159 	"/>
	<polygon class="st51" points="49,194 6,194 27.5,159 	"/>
	<polygon class="st52" points="119,237 76,237 97.5,202 	"/>
	<polygon class="st53" points="119,320 76,320 97.5,285 	"/>
	<polygon class="st54" points="213.5,237 170.5,237 192,202 	"/>
	<polygon class="st55" points="213.5,320 170.5,320 192,285 	"/>
	<polygon class="st56" points="402,320 359,320 380.5,285 	"/>
	<polygon class="st57" points="307.5,237 264.5,237 286,202 	"/>
	<polygon class="st58" points="25,151 -18,151 3.5,116 	"/>
	<polygon class="st59" points="452.5,320 495.5,320 474,285 	"/>
	<polygon class="st60" points="519.5,283 476.5,283 498,318 	"/>
	<polygon class="st61" points="471.5,283 428.5,283 450,318 	"/>
	<polygon class="st62" points="590,320 633,320 611.5,285 	"/>
	<polygon class="st63" points="685,320 728,320 706.5,285 	"/>
	<polygon class="st64" points="873,320 916,320 894.5,285 	"/>
	<polygon class="st65" points="967,320 1010,320 988.5,285 	"/>
	<polygon class="st66" points="1153,320 1196,320 1174.5,285 	"/>
	<polygon class="st67" points="1247.5,320 1290.5,320 1269,285 	"/>
	<polygon class="st68" points="1436,320 1479,320 1457.5,285 	"/>
	<polygon class="st69" points="657,283 614,283 635.5,318 	"/>
	<polygon class="st70" points="844.5,283 801.5,283 823,318 	"/>
	<polygon class="st71" points="1361.5,283 1318.5,283 1340,318 	"/>
	<polygon class="st72" points="609,283 566,283 587.5,318 	"/>
	<polygon class="st73" points="1530,320 1573,320 1551.5,285 	"/>
	<polygon class="st74" points="1597,283 1554,283 1575.5,318 	"/>
	<polygon class="st75" points="1549,283 1506,283 1527.5,318 	"/>
	<polygon class="st76" points="1667,320 1710,320 1688.5,285 	"/>
	<polygon class="st77" points="1761,320 1804,320 1782.5,285 	"/>
	<polygon class="st78" points="1949,320 1992,320 1970.5,285 	"/>
	<polygon class="st79" points="2043.5,320 2086.5,320 2065,285 	"/>
	<polygon class="st80" points="2230,320 2273,320 2251.5,285 	"/>
	<polygon class="st37" points="2324.5,320 2367.5,320 2346,285 	"/>
	<polygon class="st81" points="2512.5,320 2555.5,320 2534,285 	"/>
	<polygon class="st82" points="1734,283 1691,283 1712.5,318 	"/>
	<polygon class="st83" points="1921.5,283 1878.5,283 1900,318 	"/>
	<polygon class="st84" points="2438,283 2395,283 2416.5,318 	"/>
	<polygon class="st85" points="1686,283 1643,283 1664.5,318 	"/>
	<polygon class="st86" points="25,241 -18,241 3.5,276 	"/>
	<polygon class="st87" points="307.5,241 264.5,241 286,276 	"/>
	<polygon class="st88" points="6,278 49,278 27.5,243 	"/>
	<polygon class="st89" points="119,326 76,326 97.5,361 	"/>
	<polygon class="st90" points="213.5,326 170.5,326 192,361 	"/>
	<polygon class="st91" points="916,326 873,326 894.5,361 	"/>
	<polygon class="st92" points="100,363 143,363 121.5,328 	"/>
	<polygon class="st101" points="967,326 1010,326 988.5,361 	"/>
	<polygon class="st102" points="986,363 943,363 964.5,328 	"/>
	<polygon class="st118" points="1196,326 1153,326 1174.5,361 	"/>
	<polygon class="st119" points="1992,326 1949,326 1970.5,361 	"/>
	<polygon class="st120" points="1290.5,326 1247.5,326 1269,361 	"/>
	<polygon class="st121" points="1177,363 1220,363 1198.5,328 	"/>
	<polygon class="st122" points="2043.5,326 2086.5,326 2065,361 	"/>
	<polygon class="st123" points="2064,363 2019.5,363 2041.8,328 	"/>
	<polygon class="st124" points="2273,326 2230,326 2251.5,361 	"/>
	<polygon class="st125" points="2367.5,326 2324.5,326 2346,361 	"/>
	<polygon class="st126" points="2254,363 2297,363 2275.5,328 	"/>
	<polygon class="st127" points="335,363 378,363 356.5,328 	"/>
	<polygon class="st128" points="381.8,363 424.8,363 403.2,328 	"/>
	<polygon class="st129" points="428.5,363 471.5,363 450,328 	"/>
	<polygon class="st130" points="614.5,363 657.5,363 636,328 	"/>
	<polygon class="st131" points="661.8,363 704.8,363 683.2,328 	"/>
	<polygon class="st132" points="709,363 752,363 730.5,328 	"/>
	<polygon class="st133" points="1411.5,363 1454.5,363 1433,328 	"/>
	<polygon class="st134" points="1458.8,363 1501.8,363 1480.2,328 	"/>
	<polygon class="st135" points="1506,363 1549,363 1527.5,328 	"/>
	<polygon class="st136" points="1691,363 1734,363 1712.5,328 	"/>
	<polygon class="st137" points="1738.2,363 1781.2,363 1759.8,328 	"/>
	<polygon class="st138" points="1785.5,363 1828.5,363 1807,328 	"/>
	<polygon class="st139" points="6,363 49,363 27.5,328 	"/>
	<polygon class="st141" points="359,241 402,241 380.5,276 	"/>
	<polygon class="st142" points="452,241 495,241 473.5,276 	"/>
	<polygon class="st143" points="590,241 633,241 611.5,276 	"/>
	<polygon class="st144" points="778,241 821,241 799.5,276 	"/>
	<polygon class="st145" points="1060,241 1103,241 1081.5,276 	"/>
	<polygon class="st146" points="378,278 335,278 356.5,243 	"/>
	<polygon class="st147" points="728,241 685,241 706.5,276 	"/>
	<polygon class="st148" points="709,278 752,278 730.5,243 	"/>
	<polygon class="st149" points="849.5,278 892.5,278 871,243 	"/>
	<polygon class="st150" points="896.5,278 939.5,278 918,243 	"/>
	<polygon class="st151" points="990.5,278 1033.5,278 1012,243 	"/>
	<polygon class="st152" points="1036,278 1079,278 1057.5,243 	"/>
	<polygon class="st153" points="1436,241 1479,241 1457.5,276 	"/>
	<polygon class="st154" points="1530,241 1573,241 1551.5,276 	"/>
	<polygon class="st155" points="1667,241 1710,241 1688.5,276 	"/>
	<polygon class="st156" points="1412,278 1455,278 1433.5,243 	"/>
	<polygon class="st157" points="1804,241 1761,241 1782.5,276 	"/>
	<polygon class="st158" points="1828,278 1785,278 1806.5,243 	"/>
	<polygon class="st159" points="1084,278 1127,278 1105.5,243 	"/>
	<polygon class="st160" points="1060,326 1103,326 1081.5,361 	"/>
	<polygon class="st161" points="1036,363 1079,363 1057.5,328 	"/>
	<polygon class="st162" points="1084,363 1127,363 1105.5,328 	"/>
	<polygon class="st163" points="2138,326 2181,326 2159.5,361 	"/>
	<polygon class="st164" points="2114,363 2157,363 2135.5,328 	"/>
	<polygon class="st165" points="2162,363 2205,363 2183.5,328 	"/>
	<polygon class="st166" points="2488.5,363 2531.5,363 2510,328 	"/>
	<polygon class="st167" points="2536.5,363 2579.5,363 2558,328 	"/>
	<polygon class="st168" points="1129.5,278 1172.5,278 1151,243 	"/>
	<polygon class="st169" points="2138,241 2181,241 2159.5,276 	"/>
	<polygon class="st170" points="2418,241 2461,241 2439.5,276 	"/>
	<polygon class="st171" points="2068.5,278 2111.5,278 2090,243 	"/>
	<polygon class="st172" points="2114,278 2157,278 2135.5,243 	"/>
	<polygon class="st173" points="2512.5,241 2555.5,241 2534,276 	"/>
	<polygon class="st174" points="2488.5,278 2531.5,278 2510,243 	"/>
	<polygon class="st175" points="2162,278 2205,278 2183.5,243 	"/>
	<polygon class="st176" points="2207.5,278 2250.5,278 2229,243 	"/>
	<polygon class="st177" points="2301,278 2344,278 2322.5,243 	"/>
	<polygon class="st178" points="2348,278 2391,278 2369.5,243 	"/>
	<polygon class="st179" points="1224,278 1267,278 1245.5,243 	"/>
	<polygon class="st180" points="1270.5,278 1313.5,278 1292,243 	"/>
	<polygon class="st181" points="1925.5,278 1968.5,278 1947,243 	"/>
	<polygon class="st182" points="1972.5,278 2015.5,278 1994,243 	"/>
	<polygon class="st183" points="53,278 96,278 74.5,243 	"/>
	<polygon class="st184" points="2138,73 2181,73 2159.5,108 	"/>
	<polygon class="st185" points="2205,110 2162,110 2183.5,75 	"/>
	<polygon class="st186" points="2157,110 2114,110 2135.5,75 	"/>
	<polygon class="st187" points="2114,115 2157,115 2135.5,150 	"/>
	<polygon class="st188" points="2162,115 2205,115 2183.5,150 	"/>
	<polygon class="st189" points="2133,152 2090,152 2111.5,117 	"/>
	<polygon class="st190" points="2229,152 2186,152 2207.5,117 	"/>
	<polygon class="st191" points="2181,152 2138,152 2159.5,117 	"/>
	<polygon class="st192" points="1060,73 1103,73 1081.5,108 	"/>
	<polygon class="st193" points="1127,110 1084,110 1105.5,75 	"/>
	<polygon class="st194" points="1079,110 1036,110 1057.5,75 	"/>
	<polygon class="st195" points="1036,115 1079,115 1057.5,150 	"/>
	<polygon class="st196" points="1084,115 1127,115 1105.5,150 	"/>
	<polygon class="st197" points="1055,152 1012,152 1033.5,117 	"/>
	<polygon class="st198" points="1151,152 1108,152 1129.5,117 	"/>
	<polygon class="st199" points="1103,152 1060,152 1081.5,117 	"/>
	<polygon class="st200" points="454,75 497,75 475.5,110 	"/>
	<polygon class="st201" points="473,110 430,110 451.5,75 	"/>
	<polygon class="st202" points="473,114 430,114 451.5,149 	"/>
	<polygon class="st203" points="519,114 476,114 497.5,149 	"/>
	<polygon class="st204" points="610,114 567,114 588.5,149 	"/>
	<polygon class="st205" points="194,114 237,114 215.5,149 	"/>
	<polygon class="st206" points="335,114 378,114 356.5,149 	"/>
	<polygon class="st207" points="382,114 425,114 403.5,149 	"/>
	<polygon class="st208" points="660.5,116 703.5,116 682,151 	"/>
	<polygon class="st209" points="708.5,114 751.5,114 730,149 	"/>
	<polygon class="st210" points="213,151 170,151 191.5,116 	"/>
	<polygon class="st211" points="237,194 194,194 215.5,159 	"/>
	<polygon class="st212" points="190,194 147,194 168.5,159 	"/>
	<polygon class="st213" points="892.5,194 849.5,194 871,159 	"/>
	<polygon class="st214" points="986.5,194 943.5,194 965,159 	"/>
	<polygon class="st215" points="939.5,194 896.5,194 918,159 	"/>
	<polygon class="st216" points="1220,194 1177,194 1198.5,159 	"/>
	<polygon class="st217" points="1314,194 1271,194 1292.5,159 	"/>
	<polygon class="st218" points="1267,194 1224,194 1245.5,159 	"/>
	<polygon class="st219" points="2086.5,157 2043.5,157 2065,192 	"/>
	<polygon class="st220" points="2019.5,194 2062.5,194 2041,159 	"/>
	<polygon class="st221" points="1925.5,194 1968.5,194 1947,159 	"/>
	<polygon class="st222" points="1972.5,194 2015.5,194 1994,159 	"/>
	<polygon class="st223" points="2230,157 2273,157 2251.5,192 	"/>
	<polygon class="st224" points="2297,194 2254,194 2275.5,159 	"/>
	<polygon class="st225" points="2391,194 2348,194 2369.5,159 	"/>
	<polygon class="st226" points="2344,194 2301,194 2322.5,159 	"/>
	<polygon class="st227" points="2162,194 2205,194 2183.5,159 	"/>
	<polygon class="st228" points="2114,194 2157,194 2135.5,159 	"/>
	<polygon class="st229" points="1530,157 1573,157 1551.5,192 	"/>
	<polygon class="st230" points="1667,157 1710,157 1688.5,192 	"/>
	<polygon class="st231" points="1597,194 1554,194 1575.5,159 	"/>
	<polygon class="st232" points="1686,194 1643,194 1664.5,159 	"/>
	<polygon class="st233" points="1127,194 1084,194 1105.5,159 	"/>
	<polygon class="st234" points="1079,194 1036,194 1057.5,159 	"/>
	<polygon class="st235" points="2297,110 2254,110 2275.5,75 	"/>
	<polygon class="st236" points="2344,110 2301,110 2322.5,75 	"/>
	<polygon class="st237" points="2438,110 2395,110 2416.5,75 	"/>
	<polygon class="st238" points="2348,114 2391,114 2369.5,149 	"/>
	<polygon class="st239" points="2367,151 2324,151 2345.5,116 	"/>
	<polygon class="st240" points="6,110 49,110 27.5,75 	"/>
	<polygon class="st339" points="100,26 143,26 121.5,-9 	"/>
	<polygon class="st340" points="194,26 237,26 215.5,-9 	"/>
	<polygon class="st242" points="1033,30 990,30 1011.5,65 	"/>
	<polygon class="st243" points="1174,30 1131,30 1152.5,65 	"/>
	<polygon class="st244" points="1266,30 1223,30 1244.5,65 	"/>
	<polygon class="st245" points="939,30 896,30 917.5,65 	"/>
	<polygon class="st341" points="986,26 943,26 964.5,-9 	"/>
	<polygon class="st216" points="1220,26 1177,26 1198.5,-9 	"/>
	<polygon class="st217" points="1314,26 1271,26 1292.5,-9 	"/>
	<polygon class="st342" points="892,26 849,26 870.5,-9 	"/>
	<polygon class="st246" points="1550,30 1507,30 1528.5,65 	"/>
	<polygon class="st247" points="1456,30 1413,30 1434.5,65 	"/>
	<polygon class="st248" points="1503,30 1460,30 1481.5,65 	"/>
	<polygon class="st133" points="1503,26 1460,26 1481.5,-9 	"/>
	<polygon class="st107" points="1456,26 1413,26 1434.5,-9 	"/>
	<polygon class="st44" points="1409,26 1366,26 1387.5,-9 	"/>
	<polygon class="st249" points="2109,30 2066,30 2087.5,65 	"/>
	<polygon class="st250" points="2015,30 1972,30 1993.5,65 	"/>
	<polygon class="st343" points="2062,26 2019,26 2040.5,-9 	"/>
	<polygon class="st327" points="1968,26 1925,26 1946.5,-9 	"/>
	<polygon class="st251" points="2207,30 2250,30 2228.5,65 	"/>
	<polygon class="st252" points="2301,30 2344,30 2322.5,65 	"/>
	<polygon class="st344" points="2254,26 2297,26 2275.5,-9 	"/>
	<polygon class="st345" points="2348,26 2391,26 2369.5,-9 	"/>
	<polygon class="st346" points="335,26 378,26 356.5,-9 	"/>
	<polygon class="st347" points="382,26 425,26 403.5,-9 	"/>
	<polygon class="st253" points="2489,30 2532,30 2510.5,65 	"/>
	<polygon class="st254" points="2536,30 2579,30 2557.5,65 	"/>
	<polygon class="st348" points="2489,26 2532,26 2510.5,-9 	"/>
	<polygon class="st349" points="2536,26 2579,26 2557.5,-9 	"/>
	<polygon class="st255" points="751,30 708,30 729.5,65 	"/>
	<polygon class="st256" points="704,30 661,30 682.5,65 	"/>
	<polygon class="st257" points="657,30 614,30 635.5,65 	"/>
	<polygon class="st258" points="401.5,72 358.5,72 380,107 	"/>
	<polygon class="st259" points="656.5,114 613.5,114 635,149 	"/>
	<polygon class="st260" points="401.5,152 358.5,152 380,117 	"/>
	<polygon class="st261" points="2489,114 2532,114 2510.5,149 	"/>
	<polygon class="st262" points="2536,114 2579,114 2557.5,149 	"/>
	<polygon class="st263" points="2555.5,72 2512.5,72 2534,107 	"/>
	<polygon class="st264" points="2555.5,152 2512.5,152 2534,117 	"/>
	<polygon class="st265" points="1921.5,110 1878.5,110 1900,75 	"/>
	<polygon class="st222" points="2015.5,110 1972.5,110 1994,75 	"/>
	<polygon class="st266" points="2062.5,110 2019.5,110 2041,75 	"/>
	<polygon class="st267" points="632.5,73 589.5,73 611,108 	"/>
	<polygon class="st268" points="613.5,110 656.5,110 635,75 	"/>
	<polygon class="st269" points="685,72 728,72 706.5,107 	"/>
	<polygon class="st270" points="685,152 728,152 706.5,117 	"/>
	<polygon class="st271" points="1412.5,114 1455.5,114 1434,149 	"/>
	<polygon class="st272" points="1459.5,114 1502.5,114 1481,149 	"/>
	<polygon class="st273" points="1505.5,114 1548.5,114 1527,149 	"/>
	<polygon class="st274" points="1505.5,110 1548.5,110 1527,75 	"/>
	<polygon class="st275" points="1436,72 1479,72 1457.5,107 	"/>
	<polygon class="st276" points="1436,152 1479,152 1457.5,117 	"/>
	<polygon class="st277" points="1737.5,114 1780.5,114 1759,149 	"/>
	<polygon class="st278" points="1784.5,114 1827.5,114 1806,149 	"/>
	<polygon class="st279" points="1761,152 1804,152 1782.5,117 	"/>
	<polygon class="st280" points="849.5,114 892.5,114 871,149 	"/>
	<polygon class="st281" points="844.5,110 801.5,110 823,75 	"/>
	<polygon class="st282" points="939.5,110 896.5,110 918,75 	"/>
	<polygon class="st283" points="987.5,110 944.5,110 966,75 	"/>
	<polygon class="st284" points="873,152 916,152 894.5,117 	"/>
	<polygon class="st285" points="1313.5,114 1270.5,114 1292,149 	"/>
	<polygon class="st286" points="1318.5,110 1361.5,110 1340,75 	"/>
	<polygon class="st287" points="1223.5,110 1266.5,110 1245,75 	"/>
	<polygon class="st288" points="1175.5,110 1218.5,110 1197,75 	"/>
	<polygon class="st289" points="1290,152 1247,152 1268.5,117 	"/>
	<polygon class="st290" points="1925.5,114 1968.5,114 1947,149 	"/>
	<polygon class="st291" points="1949,152 1992,152 1970.5,117 	"/>
	<polygon class="st292" points="1708.5,73 1665.5,73 1687,108 	"/>
	<polygon class="st293" points="1689.5,110 1732.5,110 1711,75 	"/>
	<polygon class="st294" points="1761,72 1804,72 1782.5,107 	"/>
	<polygon class="st295" points="1530,72 1573,72 1551.5,107 	"/>
	<polygon class="st350" points="751,26 708,26 729.5,-9 	"/>
	<polygon class="st351" points="704,26 661,26 682.5,-9 	"/>
	<polygon class="st296" points="1827,30 1784,30 1805.5,65 	"/>
	<polygon class="st297" points="1780,30 1737,30 1758.5,65 	"/>
	<polygon class="st298" points="1733,30 1690,30 1711.5,65 	"/>
	<polygon class="st352" points="1827,26 1784,26 1805.5,-9 	"/>
	<polygon class="st353" points="1780,26 1737,26 1758.5,-9 	"/>
	<polygon class="st299" points="524.5,114 561.5,114 543,144.1 	"/>
	<polygon class="st300" points="524.5,194 561.5,194 543,163.9 	"/>
	<polygon class="st301" points="524.5,278 561.5,278 543,247.9 	"/>
	<polygon class="st302" points="524.5,283 561.5,283 543,313.1 	"/>
	<polygon class="st308" points="1600.5,278 1637.5,278 1619,247.9 	"/>
	<polygon class="st309" points="1600.5,283 1637.5,283 1619,313.1 	"/>
	<polygon class="st310" points="1595,114 1552,114 1573.5,149 	"/>
	<polygon class="st311" points="1686,114 1643,114 1664.5,149 	"/>
	<polygon class="st312" points="1732.5,114 1689.5,114 1711,149 	"/>
	<polygon class="st313" points="1600.5,114 1637.5,114 1619,144.1 	"/>
	<polygon class="st314" points="1600.5,194 1637.5,194 1619,163.9 	"/>
	<polygon class="st315" points="524.5,30 561.5,30 543,60.1 	"/>
	<polygon class="st354" points="524.5,26.3 561.5,26.3 543,-3.8 	"/>
	<polygon class="st316" points="1601,29.7 1638,29.7 1619.5,59.8 	"/>
	<polygon class="st355" points="1601,26.3 1638,26.3 1619.5,-3.8 	"/>
	<polygon class="st317" points="25,73 -18,73 3.5,108 	"/>
</g>
</svg>
