<?xml version="1.0" encoding="utf-8"?>
<!-- Generator: Adobe Illustrator 27.7.0, SVG Export Plug-In . SVG Version: 6.00 Build 0)  -->
<svg version="1.1" id="Ebene_1" xmlns="http://www.w3.org/2000/svg" xmlns:xlink="http://www.w3.org/1999/xlink" x="0px" y="0px"
	 viewBox="0 0 562 428" style="enable-background:new 0 0 562 428;" xml:space="preserve">
<style type="text/css">
	.st0{fill:#E20074;}
	.st1{enable-background:new    ;}
	.st2{fill:#FFFFFF;}
	.st3{fill-rule:evenodd;clip-rule:evenodd;fill:#E20074;}
	.st4{opacity:0.2;fill:#E20074;enable-background:new    ;}
</style>
<path class="st0" d="M42.2,0C15.8,42.8,0.5,93.2,0.5,147.3c0,154.9,125.6,280.5,280.5,280.5s280.5-125.6,280.5-280.5
	c0-54-15.3-104.5-41.7-147.3L42.2,0L42.2,0z"/>
<g id="g17098">
	<g class="st1">
		<path class="st2" d="M231.4,96.7l7.9-14.8h5v26.7h-5.4V93.5h-0.2l-6.6,11.8h-1.7l-6.5-11.8h-0.2v15.1h-5.4V81.9h5L231.4,96.7
			L231.4,96.7z"/>
		<path class="st2" d="M265.3,104.7v3.6c-0.3,0.2-0.7,0.3-1.1,0.4c-0.5,0.1-0.9,0.1-1.3,0.1c-0.9,0-1.7-0.2-2.4-0.6
			c-0.7-0.4-1.2-1-1.4-1.9h-0.2c-0.6,0.9-1.3,1.5-2.2,2c-0.9,0.4-1.9,0.6-3,0.6c-1.8,0-3.3-0.5-4.3-1.5s-1.5-2.4-1.5-4.2
			c0-2.2,0.9-3.9,2.7-5s4.1-1.7,7.1-1.7h1v-0.8c0-2-0.9-3-2.8-3c-0.7,0-1.3,0.2-1.7,0.6s-0.7,0.9-0.8,1.5h-5.1
			c0.2-1.9,1-3.5,2.3-4.6s3-1.7,5.1-1.7c2.5,0,4.4,0.7,5.8,2c1.3,1.3,2,3.2,2,5.5v7.4c0,0.4,0.1,0.7,0.3,0.9
			c0.2,0.2,0.4,0.3,0.7,0.3C264.9,104.8,265.1,104.8,265.3,104.7z M253.4,104.6c0.4,0.4,1,0.6,1.6,0.6c1.1,0,2-0.4,2.6-1.2
			c0.6-0.8,1-1.8,1-3v-0.9h-1c-3.2,0-4.8,0.9-4.8,2.8C252.7,103.6,252.9,104.1,253.4,104.6z"/>
		<path class="st2" d="M280.1,89.3h4.8V108c0,2.3-0.8,4.2-2.3,5.6s-3.7,2.1-6.4,2.1c-1.6,0-3-0.3-4.2-0.8s-2.2-1.2-2.9-2.1
			c-0.7-0.9-1.1-1.8-1.3-2.9h5.2c0.4,1,1.4,1.6,3.2,1.6c1.2,0,2.1-0.3,2.7-0.9s0.9-1.4,0.9-2.5v-2.4h-0.2c-0.5,0.7-1.1,1.2-1.9,1.6
			s-1.7,0.6-2.8,0.6c-2.4,0-4.2-0.9-5.6-2.6c-1.3-1.7-2-4-2-7s0.7-5.3,2-7s3.2-2.6,5.6-2.6c1.2,0,2.3,0.2,3.1,0.7
			c0.9,0.5,1.5,1.2,2,2.1h0.2L280.1,89.3L280.1,89.3z M279,101.8c0.6-0.8,0.9-2,0.9-3.5s-0.3-2.7-0.9-3.5s-1.6-1.2-2.8-1.2
			s-2.2,0.4-2.8,1.2c-0.6,0.8-0.9,2-0.9,3.5s0.3,2.7,0.9,3.5s1.6,1.2,2.8,1.2C277.4,103.1,278.3,102.6,279,101.8z"/>
		<path class="st2" d="M305.3,100.2h-12c0.1,1.7,0.5,2.9,1.2,3.6c0.6,0.7,1.5,1.1,2.6,1.1c1.6,0,2.6-0.6,3.1-1.8h5.2
			c-0.4,1.9-1.3,3.4-2.8,4.5s-3.3,1.7-5.5,1.7c-2.6,0-4.7-0.9-6.3-2.7c-1.6-1.8-2.4-4.3-2.4-7.6c0-3.2,0.8-5.7,2.3-7.6
			c1.6-1.8,3.7-2.7,6.4-2.7c1.7,0,3.1,0.4,4.4,1.2c1.3,0.8,2.2,1.9,2.9,3.4s1,3.2,1,5.1C305.4,99.3,305.4,99.9,305.3,100.2z
			 M294.7,93.8c-0.6,0.5-1,1.4-1.3,2.7h7.1c-0.3-2.3-1.5-3.4-3.4-3.4C296.1,93.1,295.3,93.3,294.7,93.8z"/>
		<path class="st2" d="M325,95.9v12.8h-5.2V96.6c0-2.1-0.8-3.1-2.5-3.1c-1,0-1.8,0.4-2.4,1.1s-0.9,1.6-0.9,2.8v11.3h-5.2V89.4h4.8
			v2.4h0.2c0.5-1,1.2-1.7,2.1-2.2s1.9-0.8,3.1-0.8C323.1,88.7,325,91.1,325,95.9z"/>
		<path class="st2" d="M332.3,107.4c-1.1-1-1.6-2.5-1.6-4.4v-9.2h-3.3v-4.4h3.3v-3.1l4.2-3.9h1v7h4.9v4.4h-4.9v8.6
			c0,0.7,0.2,1.3,0.6,1.6c0.4,0.4,1,0.6,1.7,0.6s1.4-0.1,2.2-0.3v4c-1,0.5-2.2,0.7-3.7,0.7C334.9,108.9,333.4,108.4,332.3,107.4z"/>
		<path class="st2" d="M360.5,104.7v3.6c-0.3,0.2-0.7,0.3-1.1,0.4c-0.5,0.1-0.9,0.1-1.3,0.1c-0.9,0-1.7-0.2-2.4-0.6
			c-0.7-0.4-1.2-1-1.4-1.9h-0.2c-0.6,0.9-1.3,1.5-2.2,2c-0.9,0.4-1.9,0.6-3,0.6c-1.8,0-3.3-0.5-4.3-1.5s-1.5-2.4-1.5-4.2
			c0-2.2,0.9-3.9,2.7-5s4.1-1.7,7.1-1.7h1v-0.8c0-2-0.9-3-2.8-3c-0.7,0-1.3,0.2-1.7,0.6s-0.7,0.9-0.8,1.5h-4.9
			c0.2-1.9,1-3.5,2.3-4.6s3-1.7,5.1-1.7c2.5,0,4.4,0.7,5.8,2c1.3,1.3,2,3.2,2,5.5v7.4c0,0.4,0.1,0.7,0.3,0.9
			c0.2,0.2,0.4,0.3,0.7,0.3C360,104.8,360.3,104.8,360.5,104.7z M348.5,104.6c0.4,0.4,1,0.6,1.6,0.6c1.1,0,2-0.4,2.6-1.2
			c0.6-0.8,1-1.8,1-3v-0.9h-1c-3.2,0-4.8,0.9-4.8,2.8C347.8,103.6,348,104.1,348.5,104.6z"/>
	</g>
	<g>
		<path class="st2" d="M368.2,107.4c-1.6-1.1-2.8-2.7-3.7-4.8c-0.8-2.1-1.3-4.5-1.3-7.4s0.4-5.3,1.3-7.4s2.1-3.7,3.7-4.8
			s3.5-1.7,5.7-1.7c2.5,0,4.6,0.8,6.4,2.3s2.8,3.6,3.2,6.2h-2.9c-0.4-1.9-1.2-3.3-2.4-4.3s-2.6-1.5-4.3-1.5c-2.5,0-4.4,1-5.7,2.9
			s-2,4.7-2,8.2s0.7,6.3,2,8.2c1.3,1.9,3.3,2.9,5.7,2.9c1.7,0,3.1-0.5,4.3-1.5s2-2.5,2.4-4.3h2.9c-0.4,2.6-1.5,4.7-3.2,6.2
			s-3.9,2.3-6.4,2.3C371.7,109.1,369.8,108.5,368.2,107.4z"/>
		<path class="st2" d="M402.2,108.6h-13.8V81.9h2.7v24.2h11.1L402.2,108.6L402.2,108.6z"/>
		<path class="st2" d="M406.4,105.4c-1.9-2.5-2.8-5.8-2.8-10.2c0-4.3,0.9-7.7,2.8-10.2s4.5-3.7,7.9-3.7s6,1.2,7.9,3.7
			s2.8,5.8,2.8,10.2c0,4.3-0.9,7.7-2.8,10.2s-4.5,3.7-7.9,3.7S408.3,107.9,406.4,105.4z M420.1,103.5c1.4-1.9,2-4.7,2-8.3
			c0-3.6-0.7-6.3-2-8.3c-1.4-1.9-3.3-2.9-5.8-2.9s-4.4,1-5.8,2.9s-2,4.7-2,8.3c0,3.6,0.7,6.3,2,8.3c1.4,1.9,3.3,2.9,5.8,2.9
			S418.8,105.5,420.1,103.5z"/>
		<path class="st2" d="M432.5,106.5c-1.5-1.7-2.3-4.2-2.3-7.5V81.9h2.8v16.8c0,2.6,0.5,4.6,1.5,5.8c1,1.3,2.6,1.9,4.9,1.9
			s3.9-0.6,4.9-1.9s1.5-3.2,1.5-5.8V81.9h2.7V99c0,3.3-0.8,5.8-2.3,7.5s-3.8,2.6-6.8,2.6C436.4,109.1,434.1,108.2,432.5,106.5z"/>
		<path class="st2" d="M455,108.6V81.9h8.4c2.2,0,4.1,0.5,5.8,1.5c1.6,1,2.9,2.5,3.8,4.5s1.3,4.4,1.3,7.3s-0.4,5.3-1.3,7.3
			s-2.2,3.5-3.8,4.5c-1.6,1-3.5,1.5-5.8,1.5L455,108.6L455,108.6z M463.1,106.1c2.6,0,4.6-0.9,6.1-2.7c1.5-1.8,2.2-4.5,2.2-8.1
			c0-3.5-0.7-6.2-2.2-8.1c-1.5-1.8-3.5-2.7-6.1-2.7h-5.4v21.6L463.1,106.1L463.1,106.1z"/>
	</g>
	<g class="st1">
		<path class="st2" d="M238.8,133.8c-0.7-0.6-1.1-1.5-1.2-2.7h1.9c0.1,0.6,0.3,1.1,0.7,1.4c0.4,0.3,0.8,0.4,1.4,0.4
			c0.6,0,1.1-0.2,1.4-0.5c0.3-0.3,0.5-0.7,0.5-1.2s-0.1-0.8-0.4-1.1c-0.3-0.3-0.7-0.5-1.3-0.6l-1.4-0.4c-0.9-0.3-1.5-0.7-2-1.3
			c-0.5-0.6-0.7-1.3-0.7-2s0.2-1.3,0.5-1.9s0.8-1,1.4-1.3c0.6-0.3,1.2-0.4,1.9-0.4c1.1,0,2,0.3,2.7,0.9s1,1.5,1.2,2.6h-1.9
			c-0.2-1.1-0.8-1.7-2-1.7c-0.5,0-0.9,0.1-1.3,0.4c-0.3,0.3-0.5,0.7-0.5,1.2c0,0.4,0.1,0.8,0.4,1s0.6,0.5,1.1,0.6l1.4,0.4
			c0.9,0.3,1.6,0.7,2.1,1.3s0.7,1.3,0.7,2.2c0,0.7-0.2,1.4-0.5,1.9s-0.8,1-1.4,1.2c-0.6,0.3-1.2,0.4-2,0.4
			C240.4,134.8,239.5,134.5,238.8,133.8z"/>
		<path class="st2" d="M249.4,134.5h-1.9v-12h1.9V134.5z"/>
		<path class="st2" d="M253.8,134c-0.7-0.5-1.3-1.2-1.7-2.2s-0.6-2.1-0.6-3.3c0-1.3,0.2-2.4,0.6-3.3c0.4-0.9,1-1.7,1.7-2.2
			s1.6-0.8,2.7-0.8c1.2,0,2.2,0.4,3,1.1s1.3,1.7,1.5,2.9h-2c-0.1-0.7-0.4-1.2-0.9-1.6c-0.4-0.4-1-0.5-1.6-0.5c-1,0-1.7,0.4-2.2,1.1
			c-0.5,0.8-0.8,1.9-0.8,3.3c0,1.4,0.3,2.5,0.8,3.3s1.2,1.1,2.2,1.1c0.6,0,1.1-0.2,1.6-0.5s0.7-0.9,0.9-1.6h2
			c-0.2,1.2-0.7,2.2-1.5,2.9s-1.8,1.1-3,1.1C255.4,134.8,254.5,134.5,253.8,134z"/>
		<path class="st2" d="M269.6,127.5v-5h1.9v12h-1.9v-5.2h-5v5.2h-1.9v-12h1.9v5H269.6z"/>
		<path class="st2" d="M274.1,122.5h6.9v1.8h-5v3.2h4.8v1.8H276v3.5h5v1.8h-6.9V122.5z"/>
		<path class="st2" d="M291.4,134.5h-2.1l-2.6-4.6h-1.6v4.6h-1.9v-12h4.2c1.1,0,2.1,0.3,2.8,1c0.7,0.6,1.1,1.6,1.1,2.7
			c0,0.9-0.2,1.7-0.7,2.3s-1.1,1-1.9,1.2L291.4,134.5z M285.1,124.3v3.8h2.2c0.6,0,1.1-0.2,1.4-0.5c0.4-0.3,0.6-0.8,0.6-1.4
			s-0.2-1.1-0.6-1.4s-0.8-0.5-1.4-0.5H285.1L285.1,124.3z"/>
		<path class="st2" d="M295.3,134.5H293v-2.4h2.3V134.5z"/>
		<path class="st2" d="M301.4,133.1c-0.9-1.1-1.3-2.6-1.3-4.6s0.4-3.5,1.3-4.6s2.1-1.7,3.7-1.7s2.8,0.6,3.7,1.7s1.3,2.6,1.3,4.6
			s-0.4,3.5-1.3,4.6s-2.1,1.7-3.7,1.7S302.3,134.2,301.4,133.1z M307.3,131.8c0.5-0.8,0.8-1.8,0.8-3.3c0-1.4-0.3-2.5-0.8-3.3
			s-1.3-1.1-2.2-1.1c-1,0-1.7,0.4-2.2,1.1c-0.5,0.8-0.8,1.8-0.8,3.3c0,1.4,0.3,2.5,0.8,3.3s1.3,1.1,2.2,1.1
			C306.1,132.9,306.8,132.5,307.3,131.8z"/>
		<path class="st2" d="M319.1,131v-8.5h1.9v12h-2l-5-8.4h-0.1v8.4H312v-12h1.9l5,8.5H319.1z"/>
		<path class="st2" d="M330.2,134.5h-6.5v-12h1.9v10.2h4.6V134.5z"/>
		<path class="st2" d="M333.7,134.5h-1.9v-12h1.9V134.5z"/>
		<path class="st2" d="M343.3,131v-8.5h1.9v12h-2l-5-8.4h-0.1v8.4h-1.8v-12h1.9L343.3,131L343.3,131z"/>
		<path class="st2" d="M347.8,122.5h6.9v1.8h-5v3.2h4.8v1.8h-4.8v3.5h5v1.8h-6.9V122.5z"/>
		<path class="st2" d="M358.8,134.5h-2.3v-2.4h2.3V134.5z"/>
		<path class="st2" d="M364.7,133.8c-0.7-0.6-1.1-1.5-1.2-2.7h1.9c0.1,0.6,0.3,1.1,0.7,1.4c0.4,0.3,0.8,0.4,1.4,0.4s1.1-0.2,1.4-0.5
			s0.5-0.7,0.5-1.2s-0.1-0.8-0.4-1.1s-0.7-0.5-1.3-0.6l-1.4-0.4c-0.9-0.3-1.5-0.7-2-1.3c-0.5-0.6-0.7-1.3-0.7-2s0.2-1.3,0.5-1.9
			s0.8-1,1.4-1.3s1.2-0.4,1.9-0.4c1.1,0,2,0.3,2.7,0.9s1,1.5,1.2,2.6h-1.9c-0.2-1.1-0.8-1.7-2-1.7c-0.5,0-0.9,0.1-1.3,0.4
			c-0.3,0.3-0.5,0.7-0.5,1.2c0,0.4,0.1,0.8,0.4,1s0.6,0.5,1.1,0.6l1.4,0.4c0.9,0.3,1.6,0.7,2.1,1.3s0.7,1.3,0.7,2.2
			c0,0.7-0.2,1.4-0.5,1.9s-0.8,1-1.4,1.2c-0.6,0.3-1.2,0.4-2,0.4C366.4,134.8,365.4,134.5,364.7,133.8z"/>
		<path class="st2" d="M377.7,122.5c1.1,0,2.1,0.3,2.8,1s1.1,1.6,1.1,2.9c0,1.2-0.4,2.2-1.1,2.8c-0.7,0.7-1.6,1-2.8,1h-2.4v4.3h-1.9
			v-12H377.7z M377.5,128.4c0.6,0,1.1-0.2,1.4-0.5c0.4-0.4,0.6-0.9,0.6-1.5c0-0.7-0.2-1.2-0.6-1.6s-0.9-0.5-1.4-0.5h-2.2v4.2
			L377.5,128.4L377.5,128.4z"/>
		<path class="st2" d="M383.3,122.5h6.9v1.8h-5v3.2h4.8v1.8h-4.8v3.5h5v1.8h-6.9V122.5z"/>
		<path class="st2" d="M394.2,134.5h-1.9v-12h1.9V134.5z"/>
		<path class="st2" d="M398.6,134c-0.7-0.5-1.3-1.2-1.7-2.2s-0.6-2.1-0.6-3.3c0-1.3,0.2-2.4,0.6-3.3s1-1.7,1.7-2.2s1.6-0.8,2.7-0.8
			c1.2,0,2.2,0.4,3,1.1s1.3,1.7,1.5,2.9h-2c-0.1-0.7-0.4-1.2-0.9-1.6c-0.4-0.4-1-0.5-1.6-0.5c-1,0-1.7,0.4-2.2,1.1
			c-0.5,0.8-0.8,1.9-0.8,3.3c0,1.4,0.3,2.5,0.8,3.3s1.2,1.1,2.2,1.1c0.6,0,1.1-0.2,1.6-0.5s0.7-0.9,0.9-1.6h2
			c-0.2,1.2-0.7,2.2-1.5,2.9s-1.8,1.1-3,1.1C400.2,134.8,399.3,134.5,398.6,134z"/>
		<path class="st2" d="M414.4,127.5v-5h1.9v12h-1.9v-5.2h-5v5.2h-1.9v-12h1.9v5H414.4z"/>
		<path class="st2" d="M418.9,122.5h6.9v1.8h-5v3.2h4.8v1.8h-4.8v3.5h5v1.8h-6.9V122.5z"/>
		<path class="st2" d="M436.2,134.5h-2.1l-2.6-4.6h-1.6v4.6H428v-12h4.2c1.1,0,2.1,0.3,2.8,1c0.7,0.6,1.1,1.6,1.1,2.7
			c0,0.9-0.2,1.7-0.7,2.3s-1.1,1-1.9,1.2L436.2,134.5z M429.9,124.3v3.8h2.2c0.6,0,1.1-0.2,1.4-0.5c0.4-0.3,0.6-0.8,0.6-1.4
			s-0.2-1.1-0.6-1.4s-0.8-0.5-1.4-0.5H429.9L429.9,124.3z"/>
		<path class="st2" d="M445.1,131v-8.5h1.9v12h-2l-5-8.4h-0.1v8.4H438v-12h1.9l5,8.5H445.1z"/>
	</g>
</g>
<g id="layer3">
	<g id="g20867" transform="matrix(0.38844886,0,0,0.38844886,371.43837,21.210968)">
		<path id="Path" class="st3" d="M-653.6,346.9v-93.6l-51-0.1l77.5-79.2l77.2,79.3h-50.7v76.9c-9.8,5.3-17.8,9-23.9,10.9
			C-630.7,343-640.4,344.9-653.6,346.9L-653.6,346.9z"/>
		<path id="Differenzmenge_9" class="st2" d="M-663.2,347.3c-29,0-56.9-11.1-77.9-31.1c-4.5,1-9,1.5-13.6,1.5
			c-8.2,0-16.3-1.6-23.9-4.8c-7.3-3.1-13.9-7.6-19.5-13.2s-10.1-12.3-13.2-19.6c-3.2-7.6-4.8-15.7-4.8-24c0-7.1,1.2-14.2,3.6-20.9
			c2.3-6.5,5.7-12.5,10.1-17.9c4.3-5.3,9.4-9.9,15.2-13.5c5.9-3.7,12.3-6.3,19.1-7.8c1.9-32.3,28.5-57.6,60.8-57.6
			c5.9,0,11.7,0.8,17.3,2.5c4.7-6.1,10-11.7,15.9-16.6c5.9-4.9,12.4-9.2,19.3-12.7c7-3.5,14.4-6.3,22-8.1c7.9-1.9,15.9-2.9,24-2.8
			c12.3,0,24.5,2.2,36,6.5c11.1,4.2,21.4,10.3,30.4,18s16.5,16.9,22.4,27.2c6,10.5,10,22,12,33.9c7.3,1.5,14.3,4.3,20.6,8.3
			c6.3,3.9,11.8,8.7,16.5,14.4s8.4,12.2,10.9,19.2c2.6,7.2,4,14.9,3.9,22.5c0,8.8-1.7,17.5-5.2,25.6c-3.3,7.8-8.1,14.9-14.1,20.9
			c-6,6-13.1,10.8-20.8,14.1c-8.1,3.4-16.8,5.2-25.5,5.2c-2.3,0-4.6-0.1-7-0.4c-5.6,6.3-12.4,11.3-20.1,14.8
			c-7.9,3.6-16.5,5.5-25.2,5.5c-9.3,0-18.4-2.1-26.8-6.2v-77h50.6l-77-79.1l-77.5,79.1h51v93.7C-656.7,347.2-660,347.3-663.2,347.3z
			"/>
		<path id="Differenzmenge_10" class="st4" d="M-600.7,270.9v-17.7h33.7l17.2,18.3L-600.7,270.9z M-653.2,271.5h-51.5l17.4-18.3
			h33.8v18.3H-653.2z"/>
	</g>
</g>
</svg>
