<?xml version="1.0" encoding="utf-8"?>
<!-- Generator: Adobe Illustrator 28.0.0, SVG Export Plug-In . SVG Version: 6.00 Build 0)  -->
<svg version="1.1" id="Ebene_1" xmlns="http://www.w3.org/2000/svg" xmlns:xlink="http://www.w3.org/1999/xlink" x="0px" y="0px"
	 viewBox="0 0 558 279" style="enable-background:new 0 0 558 279;" xml:space="preserve">
<style type="text/css">
	.st0{fill:#E20074;}
	.st1{enable-background:new    ;}
	.st2{fill:#FFFFFF;}
	.st3{fill:#F2F2F2;}
</style>
<g id="Gruppe_1136" transform="translate(-680.998 7)">
	<path id="Differenzmenge_15" class="st0" d="M960,272c-18.9,0-37.7-1.9-56.2-5.7c-18-3.7-35.5-9.1-52.4-16.3
		c-16.6-7-32.5-15.6-47.4-25.7c-14.8-10-28.6-21.4-41.3-34.1c-12.6-12.6-24.1-26.5-34.1-41.3c-10.1-14.9-18.7-30.8-25.7-47.4
		c-7.1-16.9-12.6-34.4-16.3-52.4C682.9,30.7,681,11.9,681-7h558c0,18.9-1.9,37.7-5.7,56.2c-3.7,18-9.1,35.5-16.3,52.4
		c-7,16.6-15.6,32.5-25.7,47.4c-10,14.8-21.4,28.6-34.1,41.3c-12.6,12.6-26.5,24.1-41.3,34.1c-14.9,10.1-30.8,18.7-47.4,25.7
		c-16.9,7.1-34.4,12.6-52.4,16.3C997.7,270.1,978.9,272,960,272z"/>
	<g class="st1">
		<path class="st2" d="M874.4,120.2h4v21.4h-4.3v-12.1h-0.2l-5.2,9.4h-1.4l-5.2-9.4h-0.2v12.1h-4.3v-21.4h4l6.4,11.8h0.2
			L874.4,120.2z"/>
		<path class="st2" d="M895.2,138.4v2.9c-0.5,0.3-1.3,0.4-2,0.4c-1.2,0-2.7-0.5-3.1-2H890c-0.9,1.4-2.5,2.1-4.2,2.1
			c-2.9,0-4.7-1.7-4.7-4.5c0-3.6,3.3-5.4,7.8-5.4h0.8v-0.6c0-1.5-0.7-2.4-2.2-2.4c-1.2,0-1.8,0.7-2,1.7h-3.9c0.4-3.2,2.7-5,6-5
			c4.1,0,6.2,2.4,6.2,6v6c0,0.6,0.3,0.9,0.8,0.9C894.8,138.5,895,138.5,895.2,138.4z M886.9,138.8c1.8,0,2.8-1.5,2.8-3.3v-0.7h-0.8
			c-2.5,0-3.8,0.7-3.8,2.3C885.1,138.1,885.9,138.8,886.9,138.8z"/>
		<path class="st2" d="M907,126.1h3.9V141c0,3.6-2.5,6.1-7,6.1c-3.9,0-6.3-2.2-6.7-4.6h4.1c0.3,0.8,1.2,1.2,2.6,1.2
			c1.9,0,2.8-1.1,2.8-2.7v-2h-0.2c-0.7,1.1-2,1.8-3.8,1.8c-3.8,0-6.1-3-6.1-7.6c0-4.7,2.2-7.7,6.1-7.7c2,0,3.4,0.9,4.1,2.2h0.2
			V126.1z M906.8,133.3c0-2.4-1-3.8-3-3.8c-2,0-3,1.4-3,3.8c0,2.4,1,3.8,3,3.8C905.8,137.1,906.8,135.6,906.8,133.3z"/>
		<path class="st2" d="M927.2,134.8h-9.7c0.2,2.9,1.4,3.7,3,3.7c1.2,0,2.1-0.5,2.5-1.4h4.2c-0.6,3-3.2,4.9-6.6,4.9
			c-4.1,0-6.9-3-6.9-8.2c0-5.2,2.7-8.2,7-8.2c4,0,6.7,3.1,6.7,7.8C927.2,133.9,927.2,134.5,927.2,134.8z M917.6,131.8h5.7
			c-0.3-2.1-1.4-2.8-2.8-2.8C919.1,129.1,918,129.8,917.6,131.8z"/>
		<path class="st2" d="M942.9,131.3v10.2h-4.1v-9.7c0-1.5-0.5-2.5-2-2.5c-1.6,0-2.6,1.2-2.6,3.1v9.1H930v-15.4h3.9v1.9h0.2
			c0.8-1.5,2.3-2.4,4.1-2.4C941.4,125.6,942.9,127.5,942.9,131.3z"/>
		<path class="st2" d="M947.5,137v-7.4h-2.6v-3.5h2.6v-2.5l3.4-3.1h0.8v5.6h3.9v3.5h-3.9v6.8c0,1.2,0.7,1.8,1.9,1.8
			c0.6,0,1.2-0.1,1.8-0.2v3.2c-0.9,0.4-1.8,0.5-2.9,0.5C949.4,141.8,947.5,140.1,947.5,137z"/>
		<path class="st2" d="M971.3,138.4v2.9c-0.5,0.3-1.3,0.4-2,0.4c-1.2,0-2.7-0.5-3.1-2h-0.2c-0.9,1.4-2.5,2.1-4.2,2.1
			c-2.9,0-4.7-1.7-4.7-4.5c0-3.6,3.3-5.4,7.8-5.4h0.8v-0.6c0-1.5-0.7-2.4-2.2-2.4c-1.2,0-1.8,0.7-2,1.7h-3.9c0.4-3.2,2.7-5,6-5
			c4.1,0,6.2,2.4,6.2,6v6c0,0.6,0.3,0.9,0.8,0.9C970.9,138.5,971.1,138.5,971.3,138.4z M963,138.8c1.8,0,2.8-1.5,2.8-3.3v-0.7H965
			c-2.5,0-3.8,0.7-3.8,2.3C961.2,138.1,962,138.8,963,138.8z"/>
		<path class="st2" d="M972.7,130.8c0-6.9,3.3-11.2,9.1-11.2c4.3,0,7.5,2.8,8.1,7.3h-4.5c-0.5-2.2-2-3.1-3.6-3.1
			c-2.9,0-4.6,2.4-4.6,7c0,4.6,1.6,7,4.6,7c1.7,0,3.1-0.9,3.6-3.1h4.5c-0.6,4.5-3.9,7.3-8.1,7.3C975.9,142,972.7,137.7,972.7,130.8z
			"/>
		<path class="st2" d="M992.7,141.5v-21.4h4.3v17.4h7.6v4H992.7z"/>
		<path class="st2" d="M1005.6,130.8c0-6.9,3.2-11.2,9.1-11.2s9.1,4.3,9.1,11.2c0,6.9-3.2,11.2-9.1,11.2S1005.6,137.8,1005.6,130.8z
			 M1019.2,130.8c0-4.7-1.6-7-4.6-7s-4.6,2.4-4.6,7c0,4.7,1.6,7,4.6,7S1019.2,135.5,1019.2,130.8z"/>
		<path class="st2" d="M1026.7,133.7v-13.6h4.3v13c0,3.3,1,4.7,3.6,4.7c2.6,0,3.6-1.4,3.6-4.7v-13h4.3v13.6c0,5.3-2.8,8.3-7.9,8.3
			C1029.5,142,1026.7,139.1,1026.7,133.7z"/>
		<path class="st2" d="M1046.4,141.5v-21.4h7.4c5.6,0,9.1,3.7,9.1,10.7c0,6.9-3.5,10.7-9.1,10.7H1046.4z M1050.8,137.5h2.8
			c3,0,4.9-2,4.9-6.7c0-4.7-1.9-6.7-4.9-6.7h-2.8V137.5z"/>
	</g>
	<g class="st1">
		<path class="st2" d="M829.3,158.8v1h-4.7v3.7h4.6v1h-4.6v3.9h4.7v1h-5.8v-10.7H829.3z"/>
		<path class="st2" d="M836.2,162h1v7.4c0,1.8-1.1,3-3.1,3c-1.7,0-2.7-0.8-3-2h1.1c0.2,0.7,0.8,1.1,1.9,1.1c1.4,0,2.1-0.9,2.1-2.1
			v-1.2h-0.1c-0.4,0.8-1.3,1.2-2.3,1.2c-1.9,0-3-1.5-3-3.8c0-2.3,1.1-3.8,3-3.8c1,0,1.9,0.5,2.3,1.3h0.1V162z M836.2,165.6
			c0-1.7-0.7-2.8-2.2-2.8c-1.5,0-2.2,1.1-2.2,2.8c0,1.7,0.7,2.8,2.2,2.8C835.4,168.4,836.2,167.3,836.2,165.6z"/>
		<path class="st2" d="M845.5,168.6v0.9c-0.2,0.1-0.4,0.1-0.7,0.1c-0.6,0-1.1-0.4-1.1-1.2h-0.1c-0.4,0.7-1.3,1.2-2.3,1.2
			c-1.4,0-2.2-0.8-2.2-2.2c0-1.7,1.4-2.6,3.9-2.6h0.6v-0.4c0-1-0.4-1.8-1.6-1.8c-0.9,0-1.5,0.4-1.6,1.2h-1c0.2-1.4,1.2-2.1,2.7-2.1
			c1.8,0,2.7,1.1,2.7,2.8v3.6c0,0.3,0.2,0.5,0.4,0.5C845.2,168.7,845.3,168.7,845.5,168.6z M843.6,166.3v-0.5H843
			c-1.9,0-2.9,0.5-2.9,1.6c0,0.8,0.6,1.4,1.4,1.4C842.8,168.8,843.6,167.7,843.6,166.3z"/>
		<path class="st2" d="M848,168.1c0,0.4,0.2,0.6,0.5,0.6c0.2,0,0.4,0,0.6-0.1v0.9c-0.2,0.1-0.5,0.1-0.8,0.1c-0.8,0-1.4-0.4-1.4-1.4
			v-9.3h1.1V168.1z"/>
		<path class="st2" d="M850.5,167.9h1.6v1.6c0,1.8-0.5,2.4-1.6,2.5v-0.8c0.6,0,0.8-0.4,0.8-1.6v-0.1h-0.8V167.9z"/>
		<path class="st2" d="M856.6,165.8c0-2.4,1.2-3.9,3.2-3.9c2,0,3.2,1.5,3.2,3.9s-1.2,4-3.2,4C857.9,169.7,856.6,168.2,856.6,165.8z
			 M862,165.8c0-1.9-0.7-3-2.2-3c-1.4,0-2.1,1.1-2.1,3c0,1.9,0.7,3,2.1,3C861.3,168.7,862,167.6,862,165.8z"/>
		<path class="st2" d="M871.5,165.8c0,2.5-1.1,4-3,4c-1,0-1.9-0.5-2.4-1.4H866v1.2h-1v-10.7h1v4.3h0.1c0.5-0.8,1.3-1.3,2.3-1.3
			C870.3,161.8,871.5,163.3,871.5,165.8z M870.4,165.8c0-1.9-0.7-3-2.2-3c-1.4,0-2.2,1.1-2.2,3c0,1.9,0.7,3,2.2,3
			C869.7,168.7,870.4,167.6,870.4,165.8z"/>
		<path class="st2" d="M880.2,162v1c-0.2,0-0.4,0-0.5,0c-1.4,0-2,0.9-2,2.5v4.1h-1V162h1v1.1h0.1c0.4-0.8,1.2-1.2,2-1.2
			C879.9,161.9,880.1,161.9,880.2,162z"/>
		<path class="st2" d="M881.7,160.4v-1.6h1v1.6H881.7z M881.7,169.5V162h1v7.5H881.7z"/>
		<path class="st2" d="M890.9,166h-5.1c0,1.9,0.8,2.8,2.1,2.8c0.9,0,1.5-0.4,1.9-1.2h1.1c-0.4,1.3-1.5,2.1-3,2.1
			c-1.9,0-3.1-1.5-3.1-4c0-2.5,1.2-3.9,3.1-3.9c1.9,0,3.1,1.4,3.1,3.8C890.9,165.7,890.9,165.9,890.9,166z M885.8,165.1h4.1
			c-0.1-1.5-0.8-2.3-2-2.3C886.6,162.8,885.9,163.6,885.8,165.1z"/>
		<path class="st2" d="M892.2,167.6h1c0.2,0.7,0.7,1.2,1.6,1.2c0.9,0,1.5-0.5,1.5-1.2c0-0.9-0.7-1.1-1.3-1.3l-0.9-0.2
			c-1-0.3-1.8-0.8-1.8-2.1c0-1.2,1-2.2,2.5-2.2c1.4,0,2.3,0.8,2.5,2.1h-1c-0.1-0.8-0.7-1.2-1.5-1.2c-0.9,0-1.5,0.5-1.5,1.2
			c0,0.7,0.4,1,1.2,1.2l0.9,0.2c1.2,0.3,1.9,0.9,1.9,2.1c0,1.3-1.1,2.2-2.6,2.2C893.3,169.7,892.4,168.9,892.2,167.6z"/>
		<path class="st2" d="M899.3,160.4v-1.6h1v1.6H899.3z M899.3,169.5V162h1v7.5H899.3z"/>
		<path class="st2" d="M907.7,162h1v7.4c0,1.8-1.1,3-3.1,3c-1.7,0-2.7-0.8-3-2h1.1c0.2,0.7,0.8,1.1,1.9,1.1c1.4,0,2.1-0.9,2.1-2.1
			v-1.2h-0.1c-0.4,0.8-1.3,1.2-2.3,1.2c-1.9,0-3-1.5-3-3.8c0-2.3,1.1-3.8,3-3.8c1,0,1.9,0.5,2.3,1.3h0.1V162z M907.7,165.6
			c0-1.7-0.7-2.8-2.2-2.8c-1.5,0-2.2,1.1-2.2,2.8c0,1.7,0.7,2.8,2.2,2.8C906.9,168.4,907.7,167.3,907.7,165.6z"/>
		<path class="st2" d="M916.8,166h-5.1c0,1.9,0.8,2.8,2.1,2.8c0.9,0,1.5-0.4,1.9-1.2h1.1c-0.4,1.3-1.5,2.1-3,2.1
			c-1.9,0-3.1-1.5-3.1-4c0-2.5,1.2-3.9,3.1-3.9c1.9,0,3.1,1.4,3.1,3.8C916.8,165.7,916.8,165.9,916.8,166z M911.7,165.1h4.1
			c-0.1-1.5-0.8-2.3-2-2.3C912.5,162.8,911.8,163.6,911.7,165.1z"/>
		<path class="st2" d="M918.2,167.6h1c0.2,0.7,0.7,1.2,1.6,1.2c0.9,0,1.5-0.5,1.5-1.2c0-0.9-0.7-1.1-1.3-1.3l-0.9-0.2
			c-1-0.3-1.8-0.8-1.8-2.1c0-1.2,1-2.2,2.5-2.2c1.4,0,2.3,0.8,2.5,2.1h-1c-0.1-0.8-0.7-1.2-1.5-1.2c-0.9,0-1.5,0.5-1.5,1.2
			c0,0.7,0.4,1,1.2,1.2l0.9,0.2c1.2,0.3,1.9,0.9,1.9,2.1c0,1.3-1.1,2.2-2.6,2.2C919.2,169.7,918.3,168.9,918.2,167.6z"/>
		<path class="st2" d="M934.2,158.8v1h-4.6v3.8h4.4v1h-4.4v4.8h-1.1v-10.7H934.2z"/>
		<path class="st2" d="M935.4,165.8c0-2.4,1.2-3.9,3.2-3.9c2,0,3.2,1.5,3.2,3.9s-1.2,4-3.2,4C936.7,169.7,935.4,168.2,935.4,165.8z
			 M940.8,165.8c0-1.9-0.7-3-2.2-3c-1.4,0-2.1,1.1-2.1,3c0,1.9,0.7,3,2.1,3C940.1,168.7,940.8,167.6,940.8,165.8z"/>
		<path class="st2" d="M944.2,167.6v-4.7h-1.5V162h1.5v-1.6l0.8-0.9h0.2v2.5h2.2v0.9h-2.2v4.6c0,0.8,0.4,1.2,1,1.2
			c0.3,0,0.7-0.1,1-0.2v0.9c-0.4,0.2-0.8,0.2-1.2,0.2C945,169.6,944.2,168.9,944.2,167.6z"/>
		<path class="st2" d="M948.4,165.8c0-2.4,1.2-3.9,3.2-3.9c2,0,3.2,1.5,3.2,3.9s-1.2,4-3.2,4C949.7,169.7,948.4,168.2,948.4,165.8z
			 M953.8,165.8c0-1.9-0.7-3-2.2-3c-1.4,0-2.1,1.1-2.1,3c0,1.9,0.7,3,2.1,3C953.1,168.7,953.8,167.6,953.8,165.8z"/>
		<path class="st2" d="M956.4,165h3.8v0.9h-3.8V165z"/>
		<path class="st2" d="M968.5,169.5l-0.9-2.6H963l-0.9,2.6H961l3.8-10.7h1.1l3.8,10.7H968.5z M963.4,165.9h3.9l-1.9-5.4h-0.1
			L963.4,165.9z"/>
		<path class="st2" d="M974.7,162v1c-0.2,0-0.4,0-0.5,0c-1.4,0-2,0.9-2,2.5v4.1h-1V162h1v1.1h0.1c0.4-0.8,1.2-1.2,2-1.2
			C974.4,161.9,974.6,161.9,974.7,162z"/>
		<path class="st2" d="M975.5,165.8c0-2.4,1.2-3.9,3.2-3.9c1.6,0,2.7,1,2.9,2.5h-1.1c-0.2-1-0.9-1.5-1.9-1.5c-1.4,0-2.1,1.1-2.1,3
			s0.7,3,2.1,3c1,0,1.6-0.5,1.9-1.5h1.1c-0.3,1.5-1.3,2.5-2.9,2.5C976.7,169.7,975.5,168.2,975.5,165.8z"/>
		<path class="st2" d="M989,164.5v5h-1v-4.9c0-1.1-0.4-1.8-1.6-1.8c-1.3,0-1.9,1-1.9,2.6v4.2h-1v-10.7h1v4.2h0.1
			c0.4-0.8,1.2-1.2,2.1-1.2C988.3,161.8,989,162.9,989,164.5z"/>
		<path class="st2" d="M991.3,160.4v-1.6h1v1.6H991.3z M991.3,169.5V162h1v7.5H991.3z"/>
		<path class="st2" d="M999.2,162h1.1l-2.7,7.5h-1.1l-2.7-7.5h1.1l2.1,6h0.1L999.2,162z"/>
		<path class="st2" d="M1004.5,165.8c0-2.4,1.2-3.9,3.2-3.9c2,0,3.2,1.5,3.2,3.9s-1.2,4-3.2,4
			C1005.7,169.7,1004.5,168.2,1004.5,165.8z M1009.9,165.8c0-1.9-0.7-3-2.2-3c-1.4,0-2.1,1.1-2.1,3c0,1.9,0.7,3,2.1,3
			C1009.1,168.7,1009.9,167.6,1009.9,165.8z"/>
		<path class="st2" d="M1017.8,163.1v-4.3h1v10.7h-1v-1.2h-0.1c-0.4,0.9-1.3,1.4-2.4,1.4c-1.9,0-3-1.5-3-4c0-2.4,1.1-3.9,3-3.9
			C1016.4,161.8,1017.3,162.3,1017.8,163.1L1017.8,163.1z M1017.8,165.8c0-1.8-0.7-3-2.2-3c-1.5,0-2.2,1.1-2.2,3c0,1.9,0.7,3,2.2,3
			C1017.1,168.7,1017.8,167.6,1017.8,165.8z"/>
		<path class="st2" d="M1027,166h-5.1c0,1.9,0.8,2.8,2.1,2.8c0.9,0,1.5-0.4,1.9-1.2h1.1c-0.4,1.3-1.5,2.1-3,2.1
			c-1.9,0-3.1-1.5-3.1-4c0-2.5,1.2-3.9,3.1-3.9c1.9,0,3.1,1.4,3.1,3.8C1027,165.7,1027,165.9,1027,166z M1021.8,165.1h4.1
			c-0.1-1.5-0.8-2.3-2-2.3C1022.7,162.8,1022,163.6,1021.8,165.1z"/>
		<path class="st2" d="M1032.5,162v1c-0.2,0-0.4,0-0.5,0c-1.4,0-2,0.9-2,2.5v4.1h-1V162h1v1.1h0.1c0.4-0.8,1.2-1.2,2-1.2
			C1032.1,161.9,1032.3,161.9,1032.5,162z"/>
		<path class="st2" d="M1042.6,166h-5.1c0,1.9,0.8,2.8,2.1,2.8c0.9,0,1.5-0.4,1.9-1.2h1.1c-0.4,1.3-1.5,2.1-3,2.1
			c-1.9,0-3.1-1.5-3.1-4c0-2.5,1.2-3.9,3.1-3.9c1.9,0,3.1,1.4,3.1,3.8C1042.6,165.7,1042.6,165.9,1042.6,166z M1037.5,165.1h4.1
			c-0.1-1.5-0.8-2.3-2-2.3C1038.3,162.8,1037.6,163.6,1037.5,165.1z"/>
		<path class="st2" d="M1044.5,160.4v-1.6h1v1.6H1044.5z M1044.5,169.5V162h1v7.5H1044.5z"/>
		<path class="st2" d="M1053.5,164.5v5h-1v-4.9c0-1.1-0.4-1.8-1.6-1.8c-1.3,0-1.9,1-1.9,2.6v4.2h-1V162h1v1.1h0.1
			c0.4-0.8,1.2-1.3,2.2-1.3C1052.8,161.8,1053.5,162.9,1053.5,164.5z"/>
		<path class="st2" d="M1059.4,158.9v0.9c-0.3-0.1-0.6-0.1-0.9-0.1c-1,0-1.2,0.5-1.2,1.3v1h1.9v0.9h-1.9v6.6h-1v-6.6h-1.4V162h1.4
			v-1.1c0-1.5,0.8-2.2,2.1-2.2C1058.7,158.7,1059.1,158.8,1059.4,158.9z"/>
		<path class="st2" d="M1066.4,168.6v0.9c-0.2,0.1-0.4,0.1-0.7,0.1c-0.6,0-1.1-0.4-1.1-1.2h-0.1c-0.4,0.7-1.3,1.2-2.3,1.2
			c-1.4,0-2.2-0.8-2.2-2.2c0-1.7,1.4-2.6,3.9-2.6h0.6v-0.4c0-1-0.4-1.8-1.6-1.8c-0.9,0-1.5,0.4-1.6,1.2h-1c0.2-1.4,1.2-2.1,2.7-2.1
			c1.8,0,2.7,1.1,2.7,2.8v3.6c0,0.3,0.2,0.5,0.4,0.5C1066.1,168.7,1066.2,168.7,1066.4,168.6z M1064.5,166.3v-0.5h-0.6
			c-1.9,0-2.9,0.5-2.9,1.6c0,0.8,0.6,1.4,1.4,1.4C1063.7,168.8,1064.5,167.7,1064.5,166.3z"/>
		<path class="st2" d="M1067.4,165.8c0-2.4,1.2-3.9,3.2-3.9c1.6,0,2.7,1,2.9,2.5h-1.1c-0.2-1-0.9-1.5-1.9-1.5c-1.4,0-2.1,1.1-2.1,3
			s0.7,3,2.1,3c1,0,1.6-0.5,1.9-1.5h1.1c-0.3,1.5-1.3,2.5-2.9,2.5C1068.6,169.7,1067.4,168.2,1067.4,165.8z"/>
		<path class="st2" d="M1080.8,164.5v5h-1v-4.9c0-1.1-0.4-1.8-1.6-1.8c-1.3,0-1.9,1-1.9,2.6v4.2h-1v-10.7h1v4.2h0.1
			c0.4-0.8,1.2-1.2,2.1-1.2C1080.2,161.8,1080.8,162.9,1080.8,164.5z"/>
		<path class="st2" d="M1088.9,166h-5.1c0,1.9,0.8,2.8,2.1,2.8c0.9,0,1.5-0.4,1.9-1.2h1.1c-0.4,1.3-1.5,2.1-3,2.1
			c-1.9,0-3.1-1.5-3.1-4c0-2.5,1.2-3.9,3.1-3.9c1.9,0,3.1,1.4,3.1,3.8C1088.9,165.7,1088.9,165.9,1088.9,166z M1083.8,165.1h4.1
			c-0.1-1.5-0.8-2.3-2-2.3C1084.6,162.8,1083.9,163.6,1083.8,165.1z"/>
		<path class="st2" d="M1094.4,162v1c-0.2,0-0.4,0-0.5,0c-1.4,0-2,0.9-2,2.5v4.1h-1V162h1v1.1h0.1c0.4-0.8,1.2-1.2,2-1.2
			C1094,161.9,1094.2,161.9,1094.4,162z"/>
	</g>
	<g class="st1">
		<path class="st2" d="M812.6,185.2c0-3.4,1.6-5.5,4.3-5.5c2.7,0,4.3,2.1,4.3,5.5c0,3.4-1.6,5.5-4.3,5.5
			C814.2,190.7,812.6,188.6,812.6,185.2z M820,185.2c0-2.9-1.1-4.5-3.1-4.5c-2,0-3.1,1.6-3.1,4.5c0,2.9,1.1,4.5,3.1,4.5
			C818.9,189.6,820,188,820,185.2z"/>
		<path class="st2" d="M826.8,183v1c-0.2,0-0.4,0-0.5,0c-1.4,0-2,0.9-2,2.5v4.1h-1V183h1v1.1h0.1c0.4-0.8,1.2-1.2,2-1.2
			C826.5,182.9,826.7,182.9,826.8,183z"/>
		<path class="st2" d="M833,184.1v-4.3h1v10.7h-1v-1.2H833c-0.4,0.9-1.3,1.4-2.4,1.4c-1.9,0-3-1.5-3-4c0-2.4,1.1-3.9,3-3.9
			C831.6,182.8,832.4,183.3,833,184.1L833,184.1z M833,186.8c0-1.8-0.7-3-2.2-3c-1.5,0-2.2,1.1-2.2,3c0,1.9,0.7,3,2.2,3
			C832.3,189.7,833,188.6,833,186.8z"/>
		<path class="st2" d="M842,185.5v5h-1v-4.9c0-1.1-0.4-1.8-1.6-1.8c-1.3,0-1.9,1-1.9,2.6v4.2h-1V183h1v1.1h0.1
			c0.4-0.8,1.2-1.3,2.2-1.3C841.4,182.8,842,183.9,842,185.5z"/>
		<path class="st2" d="M850,187h-5.1c0,1.9,0.8,2.8,2.1,2.8c0.9,0,1.5-0.4,1.9-1.2h1.1c-0.4,1.3-1.5,2.1-3,2.1c-1.9,0-3.1-1.5-3.1-4
			c0-2.5,1.2-3.9,3.1-3.9c1.9,0,3.1,1.4,3.1,3.8C850.1,186.7,850.1,186.9,850,187z M844.9,186.1h4.1c-0.1-1.5-0.8-2.3-2-2.3
			C845.8,183.8,845.1,184.6,844.9,186.1z"/>
		<path class="st2" d="M855.5,183v1c-0.2,0-0.4,0-0.5,0c-1.4,0-2,0.9-2,2.5v4.1h-1V183h1v1.1h0.1c0.4-0.8,1.2-1.2,2-1.2
			C855.2,182.9,855.4,182.9,855.5,183z"/>
		<path class="st2" d="M863.4,179.9v0.9c-0.3-0.1-0.6-0.1-0.9-0.1c-1,0-1.2,0.5-1.2,1.3v1h1.9v0.9h-1.9v6.6h-1v-6.6h-1.4V183h1.4
			v-1.1c0-1.5,0.8-2.2,2.1-2.2C862.7,179.7,863.1,179.8,863.4,179.9z"/>
		<path class="st2" d="M864.6,188v-5h1v4.9c0,1.1,0.4,1.8,1.6,1.8c1.3,0,1.9-1,1.9-2.6V183h1v7.5h-1v-1.1h-0.1
			c-0.4,0.8-1.2,1.3-2.2,1.3C865.2,190.7,864.6,189.6,864.6,188z M865.5,179.9h1.1v1.6h-1.1V179.9z M868.1,179.9h1.1v1.6h-1.1V179.9
			z"/>
		<path class="st2" d="M876.2,183v1c-0.2,0-0.4,0-0.5,0c-1.4,0-2,0.9-2,2.5v4.1h-1V183h1v1.1h0.1c0.4-0.8,1.2-1.2,2-1.2
			C875.9,182.9,876,182.9,876.2,183z"/>
		<path class="st2" d="M888.7,183h1.1l-2.2,7.5h-1.1l-1.7-5.7h-0.1l-1.7,5.7H882l-2.2-7.5h1.1l1.6,5.8h0.1l1.7-5.8h1.1l1.7,5.8h0.1
			L888.7,183z"/>
		<path class="st2" d="M891.4,181.4v-1.6h1v1.6H891.4z M891.4,190.5V183h1v7.5H891.4z"/>
		<path class="st2" d="M894.3,186.8c0-2.4,1.2-3.9,3.2-3.9c1.6,0,2.7,1,2.9,2.5h-1.1c-0.2-1-0.9-1.5-1.9-1.5c-1.4,0-2.1,1.1-2.1,3
			s0.7,3,2.1,3c1,0,1.6-0.5,1.9-1.5h1.1c-0.3,1.5-1.3,2.5-2.9,2.5C895.5,190.7,894.3,189.2,894.3,186.8z"/>
		<path class="st2" d="M907.8,185.5v5h-1v-4.9c0-1.1-0.4-1.8-1.6-1.8c-1.3,0-1.9,1-1.9,2.6v4.2h-1v-10.7h1v4.2h0.1
			c0.4-0.8,1.2-1.2,2.1-1.2C907.1,182.8,907.8,183.9,907.8,185.5z"/>
		<path class="st2" d="M910.6,188.6v-4.7h-1.5V183h1.5v-1.6l0.8-0.9h0.2v2.5h2.2v0.9h-2.2v4.6c0,0.8,0.4,1.2,1,1.2
			c0.3,0,0.7-0.1,1-0.2v0.9c-0.4,0.2-0.8,0.2-1.2,0.2C911.3,190.6,910.6,189.9,910.6,188.6z"/>
		<path class="st2" d="M915.3,181.4v-1.6h1v1.6H915.3z M915.3,190.5V183h1v7.5H915.3z"/>
		<path class="st2" d="M923.7,183h1v7.4c0,1.8-1.1,3-3.1,3c-1.7,0-2.7-0.8-3-2h1.1c0.2,0.7,0.8,1.1,1.9,1.1c1.4,0,2.1-0.9,2.1-2.1
			v-1.2h-0.1c-0.4,0.8-1.3,1.2-2.3,1.2c-1.9,0-3-1.5-3-3.8c0-2.3,1.1-3.8,3-3.8c1,0,1.9,0.5,2.3,1.3h0.1V183z M923.7,186.6
			c0-1.7-0.7-2.8-2.2-2.8c-1.5,0-2.2,1.1-2.2,2.8c0,1.7,0.7,2.8,2.2,2.8C923,189.4,923.7,188.3,923.7,186.6z"/>
		<path class="st2" d="M932.8,187h-5.1c0,1.9,0.8,2.8,2.1,2.8c0.9,0,1.5-0.4,1.9-1.2h1.1c-0.4,1.3-1.5,2.1-3,2.1
			c-1.9,0-3.1-1.5-3.1-4c0-2.5,1.2-3.9,3.1-3.9c1.9,0,3.1,1.4,3.1,3.8C932.8,186.7,932.8,186.9,932.8,187z M927.7,186.1h4.1
			c-0.1-1.5-0.8-2.3-2-2.3C928.5,183.8,927.8,184.6,927.7,186.1z"/>
		<path class="st2" d="M938.1,190.5v-10.7h3.3c2.6,0,4.4,1.9,4.4,5.3c0,3.5-1.7,5.3-4.4,5.3H938.1z M939.1,189.5h2.2
			c2,0,3.3-1.4,3.3-4.3c0-2.9-1.3-4.3-3.3-4.3h-2.2V189.5z"/>
		<path class="st2" d="M947.3,186.8c0-2.4,1.2-3.9,3.2-3.9c2,0,3.2,1.5,3.2,3.9s-1.2,4-3.2,4C948.5,190.7,947.3,189.2,947.3,186.8z
			 M952.7,186.8c0-1.9-0.7-3-2.2-3c-1.4,0-2.1,1.1-2.1,3c0,1.9,0.7,3,2.1,3C952,189.7,952.7,188.6,952.7,186.8z"/>
		<path class="st2" d="M961.3,183l-3.2,3.2l3.1,4.3h-1.3l-2.5-3.5h-0.1l-0.6,0.6v2.9h-1v-10.7h1v6.4h0.1l3.1-3.2H961.3z"/>
		<path class="st2" d="M962.5,188v-5h1v4.9c0,1.1,0.4,1.8,1.6,1.8c1.3,0,1.9-1,1.9-2.6V183h1v7.5h-1v-1.1h-0.1
			c-0.4,0.8-1.2,1.3-2.2,1.3C963.2,190.7,962.5,189.6,962.5,188z"/>
		<path class="st2" d="M980.7,185.5v5h-1v-4.9c0-1.1-0.4-1.8-1.6-1.8c-1.3,0-1.9,0.8-1.9,2.6v4.2h-1v-4.9c0-1.1-0.4-1.8-1.6-1.8
			c-1.3,0-1.9,1-1.9,2.6v4.2h-1V183h1v1.1h0.1c0.4-0.8,1.2-1.3,2.2-1.3c1.2,0,1.9,0.5,2.1,1.4h0.1c0.4-1,1.3-1.4,2.3-1.4
			C980,182.8,980.7,183.9,980.7,185.5z"/>
		<path class="st2" d="M988.7,187h-5.1c0,1.9,0.8,2.8,2.1,2.8c0.9,0,1.5-0.4,1.9-1.2h1.1c-0.4,1.3-1.5,2.1-3,2.1
			c-1.9,0-3.1-1.5-3.1-4c0-2.5,1.2-3.9,3.1-3.9c1.9,0,3.1,1.4,3.1,3.8C988.7,186.7,988.7,186.9,988.7,187z M983.6,186.1h4.1
			c-0.1-1.5-0.8-2.3-2-2.3C984.4,183.8,983.7,184.6,983.6,186.1z"/>
		<path class="st2" d="M996.2,185.5v5h-1v-4.9c0-1.1-0.4-1.8-1.6-1.8c-1.3,0-1.9,1-1.9,2.6v4.2h-1V183h1v1.1h0.1
			c0.4-0.8,1.2-1.3,2.2-1.3C995.5,182.8,996.2,183.9,996.2,185.5z"/>
		<path class="st2" d="M999,188.6v-4.7h-1.5V183h1.5v-1.6l0.8-0.9h0.2v2.5h2.2v0.9h-2.2v4.6c0,0.8,0.4,1.2,1,1.2
			c0.3,0,0.7-0.1,1-0.2v0.9c-0.4,0.2-0.8,0.2-1.2,0.2C999.7,190.6,999,189.9,999,188.6z"/>
		<path class="st2" d="M1009.3,187h-5.1c0,1.9,0.8,2.8,2.1,2.8c0.9,0,1.5-0.4,1.9-1.2h1.1c-0.4,1.3-1.5,2.1-3,2.1
			c-1.9,0-3.1-1.5-3.1-4c0-2.5,1.2-3.9,3.1-3.9c1.9,0,3.1,1.4,3.1,3.8C1009.3,186.7,1009.3,186.9,1009.3,187z M1004.2,186.1h4.1
			c-0.1-1.5-0.8-2.3-2-2.3C1005.1,183.8,1004.4,184.6,1004.2,186.1z"/>
		<path class="st2" d="M1011,188.9h1.6v1.6c0,1.8-0.5,2.4-1.6,2.5v-0.8c0.6,0,0.8-0.4,0.8-1.6v-0.1h-0.8V188.9z"/>
		<path class="st2" d="M1025.8,183h1.1l-2.2,7.5h-1.1l-1.7-5.7h-0.1l-1.7,5.7h-1.1l-2.2-7.5h1.1l1.6,5.8h0.1l1.7-5.8h1.1l1.7,5.8
			h0.1L1025.8,183z"/>
		<path class="st2" d="M1028.4,181.4v-1.6h1v1.6H1028.4z M1028.4,190.5V183h1v7.5H1028.4z"/>
		<path class="st2" d="M1035.4,183v1c-0.2,0-0.4,0-0.5,0c-1.4,0-2,0.9-2,2.5v4.1h-1V183h1v1.1h0.1c0.4-0.8,1.2-1.2,2-1.2
			C1035.1,182.9,1035.3,182.9,1035.4,183z"/>
		<path class="st2" d="M1045.4,185.5v5h-1v-4.9c0-1.1-0.4-1.8-1.6-1.8c-1.3,0-1.9,1-1.9,2.6v4.2h-1v-10.7h1v4.2h0.1
			c0.4-0.8,1.2-1.2,2.1-1.2C1044.8,182.8,1045.4,183.9,1045.4,185.5z"/>
		<path class="st2" d="M1053.6,189.6v0.9c-0.2,0.1-0.4,0.1-0.7,0.1c-0.6,0-1.1-0.4-1.1-1.2h-0.1c-0.4,0.7-1.3,1.2-2.3,1.2
			c-1.4,0-2.2-0.8-2.2-2.2c0-1.7,1.4-2.6,3.9-2.6h0.6v-0.4c0-1-0.4-1.8-1.6-1.8c-0.9,0-1.5,0.4-1.6,1.2h-1c0.2-1.4,1.2-2.1,2.7-2.1
			c1.8,0,2.7,1.1,2.7,2.8v3.6c0,0.3,0.2,0.5,0.4,0.5C1053.4,189.7,1053.5,189.7,1053.6,189.6z M1051.8,187.3v-0.5h-0.6
			c-1.9,0-2.9,0.5-2.9,1.6c0,0.8,0.6,1.4,1.4,1.4C1050.9,189.8,1051.8,188.7,1051.8,187.3z"/>
		<path class="st2" d="M1061.6,186.8c0,2.5-1.1,4-3,4c-1,0-1.9-0.5-2.4-1.4h-0.1v1.2h-1v-10.7h1v4.3h0.1c0.5-0.8,1.3-1.3,2.3-1.3
			C1060.5,182.8,1061.6,184.3,1061.6,186.8z M1060.6,186.8c0-1.9-0.7-3-2.2-3c-1.4,0-2.2,1.1-2.2,3c0,1.9,0.7,3,2.2,3
			C1059.9,189.7,1060.6,188.6,1060.6,186.8z"/>
		<path class="st2" d="M1069.3,187h-5.1c0,1.9,0.8,2.8,2.1,2.8c0.9,0,1.5-0.4,1.9-1.2h1.1c-0.4,1.3-1.5,2.1-3,2.1
			c-1.9,0-3.1-1.5-3.1-4c0-2.5,1.2-3.9,3.1-3.9c1.9,0,3.1,1.4,3.1,3.8C1069.3,186.7,1069.3,186.9,1069.3,187z M1064.2,186.1h4.1
			c-0.1-1.5-0.8-2.3-2-2.3C1065,183.8,1064.3,184.6,1064.2,186.1z"/>
		<path class="st2" d="M1076.8,185.5v5h-1v-4.9c0-1.1-0.4-1.8-1.6-1.8c-1.3,0-1.9,1-1.9,2.6v4.2h-1V183h1v1.1h0.1
			c0.4-0.8,1.2-1.3,2.2-1.3C1076.1,182.8,1076.8,183.9,1076.8,185.5z"/>
		<path class="st2" d="M1087.2,184.1v-4.3h1v10.7h-1v-1.2h-0.1c-0.4,0.9-1.3,1.4-2.4,1.4c-1.9,0-3-1.5-3-4c0-2.4,1.1-3.9,3-3.9
			C1085.8,182.8,1086.7,183.3,1087.2,184.1L1087.2,184.1z M1087.2,186.8c0-1.8-0.7-3-2.2-3c-1.5,0-2.2,1.1-2.2,3c0,1.9,0.7,3,2.2,3
			C1086.5,189.7,1087.2,188.6,1087.2,186.8z"/>
		<path class="st2" d="M1096.4,187h-5.1c0,1.9,0.8,2.8,2.1,2.8c0.9,0,1.5-0.4,1.9-1.2h1.1c-0.4,1.3-1.5,2.1-3,2.1
			c-1.9,0-3.1-1.5-3.1-4c0-2.5,1.2-3.9,3.1-3.9c1.9,0,3.1,1.4,3.1,3.8C1096.4,186.7,1096.4,186.9,1096.4,187z M1091.3,186.1h4.1
			c-0.1-1.5-0.8-2.3-2-2.3C1092.1,183.8,1091.4,184.6,1091.3,186.1z"/>
		<path class="st2" d="M1103.9,185.5v5h-1v-4.9c0-1.1-0.4-1.8-1.6-1.8c-1.3,0-1.9,1-1.9,2.6v4.2h-1V183h1v1.1h0.1
			c0.4-0.8,1.2-1.3,2.2-1.3C1103.2,182.8,1103.9,183.9,1103.9,185.5z"/>
	</g>
	<g class="st1">
		<path class="st2" d="M879.9,209.6h1c0.2,0.7,0.7,1.2,1.6,1.2c0.9,0,1.5-0.5,1.5-1.2c0-0.9-0.7-1.1-1.3-1.3l-0.9-0.2
			c-1-0.3-1.8-0.8-1.8-2.1c0-1.2,1-2.2,2.5-2.2c1.4,0,2.3,0.8,2.5,2.1h-1c-0.1-0.8-0.7-1.2-1.5-1.2c-0.9,0-1.5,0.5-1.5,1.2
			c0,0.7,0.4,1,1.2,1.2l0.9,0.2c1.2,0.3,1.9,0.9,1.9,2.1c0,1.3-1.1,2.2-2.6,2.2C881,211.7,880.1,210.9,879.9,209.6z"/>
		<path class="st2" d="M887,202.4v-1.6h1v1.6H887z M887,211.5V204h1v7.5H887z"/>
		<path class="st2" d="M889.9,207.8c0-2.4,1.2-3.9,3.2-3.9c1.6,0,2.7,1,2.9,2.5H895c-0.2-1-0.9-1.5-1.9-1.5c-1.4,0-2.1,1.1-2.1,3
			s0.7,3,2.1,3c1,0,1.6-0.5,1.9-1.5h1.1c-0.3,1.5-1.3,2.5-2.9,2.5C891.1,211.7,889.9,210.2,889.9,207.8z"/>
		<path class="st2" d="M903.4,206.5v5h-1v-4.9c0-1.1-0.4-1.8-1.6-1.8c-1.3,0-1.9,1-1.9,2.6v4.2h-1v-10.7h1v4.2h0.1
			c0.4-0.8,1.2-1.2,2.1-1.2C902.7,203.8,903.4,204.9,903.4,206.5z"/>
		<path class="st2" d="M911.4,208h-5.1c0,1.9,0.8,2.8,2.1,2.8c0.9,0,1.5-0.4,1.9-1.2h1.1c-0.4,1.3-1.5,2.1-3,2.1
			c-1.9,0-3.1-1.5-3.1-4c0-2.5,1.2-3.9,3.1-3.9c1.9,0,3.1,1.4,3.1,3.8C911.5,207.7,911.5,207.9,911.4,208z M906.3,207.1h4.1
			c-0.1-1.5-0.8-2.3-2-2.3C907.2,204.8,906.5,205.6,906.3,207.1z"/>
		<path class="st2" d="M916.9,204v1c-0.2,0-0.4,0-0.5,0c-1.4,0-2,0.9-2,2.5v4.1h-1V204h1v1.1h0.1c0.4-0.8,1.2-1.2,2-1.2
			C916.6,203.9,916.8,203.9,916.9,204z"/>
		<path class="st2" d="M923.9,208h-5.1c0,1.9,0.8,2.8,2.1,2.8c0.9,0,1.5-0.4,1.9-1.2h1.1c-0.4,1.3-1.5,2.1-3,2.1
			c-1.9,0-3.1-1.5-3.1-4c0-2.5,1.2-3.9,3.1-3.9c1.9,0,3.1,1.4,3.1,3.8C923.9,207.7,923.9,207.9,923.9,208z M918.8,207.1h4.1
			c-0.1-1.5-0.8-2.3-2-2.3C919.6,204.8,918.9,205.6,918.8,207.1z"/>
		<path class="st2" d="M931.4,206.5v5h-1v-4.9c0-1.1-0.4-1.8-1.6-1.8c-1.3,0-1.9,1-1.9,2.6v4.2h-1V204h1v1.1h0.1
			c0.4-0.8,1.2-1.3,2.2-1.3C930.7,203.8,931.4,204.9,931.4,206.5z"/>
		<path class="st2" d="M936.4,208.6h1.1c0.2,1.5,1.1,2,2.3,2c1.3,0,2.1-0.7,2.1-1.9c0-1.1-0.6-1.6-1.7-2l-1.3-0.4
			c-1.5-0.5-2.3-1.5-2.3-2.8c0-1.9,1.5-2.9,3.2-2.9c1.9,0,3.1,1.2,3.3,2.9H942c-0.2-1.2-0.9-1.9-2.2-1.9c-1,0-2,0.6-2,1.8
			c0,0.9,0.5,1.5,1.6,1.8l1.3,0.4c1.4,0.4,2.4,1.4,2.4,2.9c0,1.8-1.3,3-3.2,3C937.9,211.7,936.6,210.6,936.4,208.6z"/>
		<path class="st2" d="M951.5,207.8c0,2.5-1.1,4-3,4c-1,0-1.8-0.5-2.3-1.3h-0.1v3.9h-1V204h1v1.2h0.1c0.4-0.9,1.3-1.4,2.4-1.4
			C950.3,203.8,951.5,205.3,951.5,207.8z M950.4,207.8c0-1.9-0.7-3-2.2-3c-1.4,0-2.1,1.1-2.1,3c0,1.9,0.7,3,2.1,3
			C949.7,210.7,950.4,209.6,950.4,207.8z"/>
		<path class="st2" d="M959.1,208H954c0,1.9,0.8,2.8,2.1,2.8c0.9,0,1.5-0.4,1.9-1.2h1.1c-0.4,1.3-1.5,2.1-3,2.1
			c-1.9,0-3.1-1.5-3.1-4c0-2.5,1.2-3.9,3.1-3.9c1.9,0,3.1,1.4,3.1,3.8C959.1,207.7,959.1,207.9,959.1,208z M954,207.1h4.1
			c-0.1-1.5-0.8-2.3-2-2.3C954.8,204.8,954.1,205.6,954,207.1z"/>
		<path class="st2" d="M961,202.4v-1.6h1v1.6H961z M961,211.5V204h1v7.5H961z"/>
		<path class="st2" d="M964,207.8c0-2.4,1.2-3.9,3.2-3.9c1.6,0,2.7,1,2.9,2.5H969c-0.2-1-0.9-1.5-1.9-1.5c-1.4,0-2.1,1.1-2.1,3
			s0.7,3,2.1,3c1,0,1.6-0.5,1.9-1.5h1.1c-0.3,1.5-1.3,2.5-2.9,2.5C965.2,211.7,964,210.2,964,207.8z"/>
		<path class="st2" d="M977.4,206.5v5h-1v-4.9c0-1.1-0.4-1.8-1.6-1.8c-1.3,0-1.9,1-1.9,2.6v4.2h-1v-10.7h1v4.2h0.1
			c0.4-0.8,1.2-1.2,2.1-1.2C976.8,203.8,977.4,204.9,977.4,206.5z"/>
		<path class="st2" d="M985.5,208h-5.1c0,1.9,0.8,2.8,2.1,2.8c0.9,0,1.5-0.4,1.9-1.2h1.1c-0.4,1.3-1.5,2.1-3,2.1
			c-1.9,0-3.1-1.5-3.1-4c0-2.5,1.2-3.9,3.1-3.9c1.9,0,3.1,1.4,3.1,3.8C985.5,207.7,985.5,207.9,985.5,208z M980.3,207.1h4.1
			c-0.1-1.5-0.8-2.3-2-2.3C981.2,204.8,980.5,205.6,980.3,207.1z"/>
		<path class="st2" d="M991,204v1c-0.2,0-0.4,0-0.5,0c-1.4,0-2,0.9-2,2.5v4.1h-1V204h1v1.1h0.1c0.4-0.8,1.2-1.2,2-1.2
			C990.6,203.9,990.8,203.9,991,204z"/>
		<path class="st2" d="M998.8,200.9v0.9c-0.3-0.1-0.6-0.1-0.9-0.1c-1,0-1.2,0.5-1.2,1.3v1h1.9v0.9h-1.9v6.6h-1v-6.6h-1.4V204h1.4
			v-1.1c0-1.5,0.8-2.2,2.1-2.2C998.1,200.7,998.5,200.8,998.8,200.9z"/>
		<path class="st2" d="M1000,209v-5h1v4.9c0,1.1,0.4,1.8,1.6,1.8c1.3,0,1.9-1,1.9-2.6V204h1v7.5h-1v-1.1h-0.1
			c-0.4,0.8-1.2,1.3-2.2,1.3C1000.6,211.7,1000,210.6,1000,209z M1000.9,200.9h1.1v1.6h-1.1V200.9z M1003.5,200.9h1.1v1.6h-1.1
			V200.9z"/>
		<path class="st2" d="M1011.6,204v1c-0.2,0-0.4,0-0.5,0c-1.4,0-2,0.9-2,2.5v4.1h-1V204h1v1.1h0.1c0.4-0.8,1.2-1.2,2-1.2
			C1011.3,203.9,1011.5,203.9,1011.6,204z"/>
		<path class="st2" d="M1015.5,208.6h1.1c0.2,1.5,1.1,2,2.3,2c1.3,0,2.1-0.7,2.1-1.9c0-1.1-0.6-1.6-1.7-2l-1.3-0.4
			c-1.5-0.5-2.3-1.5-2.3-2.8c0-1.9,1.5-2.9,3.2-2.9c1.9,0,3.1,1.2,3.3,2.9h-1.1c-0.2-1.2-0.9-1.9-2.2-1.9c-1,0-2,0.6-2,1.8
			c0,0.9,0.5,1.5,1.6,1.8l1.3,0.4c1.4,0.4,2.4,1.4,2.4,2.9c0,1.8-1.3,3-3.2,3C1017,211.7,1015.7,210.6,1015.5,208.6z"/>
		<path class="st2" d="M1024.2,202.4v-1.6h1v1.6H1024.2z M1024.2,211.5V204h1v7.5H1024.2z"/>
		<path class="st2" d="M1033.3,208h-5.1c0,1.9,0.8,2.8,2.1,2.8c0.9,0,1.5-0.4,1.9-1.2h1.1c-0.4,1.3-1.5,2.1-3,2.1
			c-1.9,0-3.1-1.5-3.1-4c0-2.5,1.2-3.9,3.1-3.9c1.9,0,3.1,1.4,3.1,3.8C1033.3,207.7,1033.3,207.9,1033.3,208z M1028.2,207.1h4.1
			c-0.1-1.5-0.8-2.3-2-2.3C1029,204.8,1028.3,205.6,1028.2,207.1z"/>
		<path class="st2" d="M1035,211.5v-1.6h1.6v1.6H1035z"/>
	</g>
	<g id="Gruppe_1084" transform="translate(-716.346 2836.882)">
		<path id="Differenzmenge_13" class="st2" d="M1669.1-2731.4c-7.7,0-15.2-2.9-20.8-8.3c-1.2,0.3-2.4,0.4-3.6,0.4
			c-9,0-16.4-7.3-16.4-16.3c0-3.8,1.3-7.4,3.7-10.3c2.3-2.9,5.5-4.9,9.1-5.7c0.5-9,8.2-15.8,17.2-15.3c1.2,0.1,2.5,0.3,3.7,0.6
			c2.5-3.3,5.7-5.9,9.4-7.8c9.8-5,21.6-3.5,30,3.6c4.9,4.2,8.1,9.9,9.2,16.2c9.5,2,15.5,11.3,13.5,20.7c-1.7,8.1-8.8,13.9-17.1,13.9
			c-0.6,0-1.2,0-1.9-0.1c-4.9,5.4-12.7,6.9-19.2,3.7v-20.5h13.5l-20.5-21l-20.7,21h13.6v24.9
			C1670.8-2731.4,1670-2731.4,1669.1-2731.4z"/>
		<path id="Differenzmenge_14" class="st3" d="M1701.5-2751.5h-15.1v-5.3h9.9L1701.5-2751.5L1701.5-2751.5z M1670.7-2751.5h-15.4
			l5.2-5.3h10.2V-2751.5L1670.7-2751.5z"/>
	</g>
</g>
</svg>
