<?xml version="1.0" encoding="UTF-8"?>
<svg width="24px" height="24px" viewBox="0 0 24 24" version="1.1" xmlns="http://www.w3.org/2000/svg" xmlns:xlink="http://www.w3.org/1999/xlink">
    <title>icon/content/news/default@svg</title>
    <g id="icon/content/news/default" stroke="none" stroke-width="1" fill="none" fill-rule="evenodd">
        <path d="M22.5,2.99999996 L22.5,18.5 C22.5,20.15 21.15,21.5 19.5,21.5 L19.5,21.5 L4.49999996,21.5 C2.84999996,21.5 1.49999996,20.15 1.49999996,18.5 L1.49999996,18.5 L1.49999996,2.99999996 L22.5,2.99999996 Z M21,4.49999997 L2.99999996,4.49999997 L2.99999996,18.5 C2.99999996,19.35 3.64999997,20 4.49999996,20 L4.49999996,20 L19.5,20 C20.35,20 21,19.35 21,18.5 L21,18.5 L21,4.49999997 Z M17.75,16 C18.15,16 18.5,16.35 18.5,16.75 C18.5,17.15 18.15,17.5 17.75,17.5 L17.75,17.5 L13.75,17.5 C13.35,17.5 13,17.15 13,16.75 C13,16.35 13.35,16 13.75,16 L13.75,16 Z M11,11 L11,17.5 L5.49999997,17.5 L5.49999997,11 L11,11 Z M17.75,13.5 C18.15,13.5 18.5,13.85 18.5,14.25 C18.5,14.65 18.15,15 17.75,15 L17.75,15 L13.75,15 C13.35,15 13,14.65 13,14.25 C13,13.85 13.35,13.5 13.75,13.5 L13.75,13.5 Z M17.75,11 C18.15,11 18.5,11.35 18.5,11.75 C18.5,12.15 18.15,12.5 17.75,12.5 L17.75,12.5 L13.75,12.5 C13.35,12.5 13,12.15 13,11.75 C13,11.35 13.35,11 13.75,11 L13.75,11 Z M18.5,6.99999998 L18.5,8.99999998 L5.49999997,8.99999998 L5.49999997,6.99999998 L18.5,6.99999998 Z" id="Combined-Shape" fill="#262626"></path>
    </g>
</svg>