<svg id="Ebene_1" data-name="Ebene 1" xmlns="http://www.w3.org/2000/svg" xmlns:xlink="http://www.w3.org/1999/xlink" viewBox="0 0 24 24"><defs><style>.cls-1{fill:url(#Unbenannter_Verlauf_25);}.cls-2{fill:#b9ada7;isolation:isolate;opacity:0.7;}.cls-3{fill:#529ad6;}</style><linearGradient id="Unbenannter_Verlauf_25" x1="-186.95" y1="-198.63" x2="-186.95" y2="-222.55" gradientTransform="translate(198.95 222.55)" gradientUnits="userSpaceOnUse"><stop offset="0" stop-color="#ddd6d3"/><stop offset="0.39" stop-color="#e9e4e2"/><stop offset="1" stop-color="#e9e4e2"/></linearGradient></defs><path class="cls-1" d="M21.82,6.41V23.06a.85.85,0,0,1-.85.85H3a.85.85,0,0,1-.85-.85V.85A.85.85,0,0,1,3,0H15.42Z"/><path class="cls-2" d="M21.82,6.41H16.27a.86.86,0,0,1-.85-.86V0Z"/><path class="cls-3" d="M16.48,8.54h-9a.65.65,0,0,0-.64.64v.64H17.12V9.18A.65.65,0,0,0,16.48,8.54Zm-9.6,9.61a.65.65,0,0,0,.64.64h9a.65.65,0,0,0,.64-.64V10.68H6.88v7.47ZM8.58,12h6.84v.85H8.58Zm0,2.13h6.84V15H8.58Zm0,2.14h4.27v.85H8.58Z"/></svg>