<?xml version="1.0" encoding="UTF-8"?>
<svg xmlns="http://www.w3.org/2000/svg" xmlns:xlink="http://www.w3.org/1999/xlink" width="24px" height="24px" viewBox="0 0 24 24" version="1.1">
<defs>
<linearGradient id="linear0" gradientUnits="userSpaceOnUse" x1="22" y1="377.21" x2="22" y2="333.21" gradientTransform="matrix(0.545455,0,0,0.545455,0,-181.750909)">
<stop offset="0" style="stop-color:rgb(86.666667%,83.921569%,82.745098%);stop-opacity:1;"/>
<stop offset="0.39" style="stop-color:rgb(91.372549%,89.411765%,88.627451%);stop-opacity:1;"/>
<stop offset="1" style="stop-color:rgb(91.372549%,89.411765%,88.627451%);stop-opacity:1;"/>
</linearGradient>
<filter id="alpha" filterUnits="objectBoundingBox" x="0%" y="0%" width="100%" height="100%">
  <feColorMatrix type="matrix" in="SourceGraphic" values="0 0 0 0 1 0 0 0 0 1 0 0 0 0 1 0 0 0 1 0"/>
</filter>
<mask id="mask0">
  <g filter="url(#alpha)">
<rect x="0" y="0" width="24" height="24" style="fill:rgb(0%,0%,0%);fill-opacity:0.701961;stroke:none;"/>
  </g>
</mask>
<clipPath id="clip1">
  <rect x="0" y="0" width="24" height="24"/>
</clipPath>
<g id="surface5" clip-path="url(#clip1)">
<path style=" stroke:none;fill-rule:nonzero;fill:rgb(72.54902%,67.843137%,65.490196%);fill-opacity:1;" d="M 21.855469 6.429688 L 16.289062 6.429688 C 16.058594 6.429688 15.839844 6.339844 15.679688 6.179688 C 15.519531 6.015625 15.429688 5.796875 15.429688 5.570312 L 15.429688 0 Z M 21.855469 6.429688 "/>
</g>
</defs>
<g id="surface1">
<path style=" stroke:none;fill-rule:nonzero;fill:url(#linear0);" d="M 21.855469 6.429688 L 21.855469 23.144531 C 21.851562 23.617188 21.472656 23.996094 21 24 L 3 24 C 2.527344 23.996094 2.148438 23.617188 2.144531 23.144531 L 2.144531 0.855469 C 2.148438 0.382812 2.527344 0.00390625 3 0 L 15.429688 0 Z M 21.855469 6.429688 "/>
<use xlink:href="#surface5" mask="url(#mask0)"/>
<path style=" stroke:none;fill-rule:nonzero;fill:rgb(32.156863%,60.392157%,83.921569%);fill-opacity:1;" d="M 12.855469 15 L 14.570312 15 L 14.570312 19.710938 L 12.855469 19.710938 Z M 9.429688 13.289062 L 11.144531 13.289062 L 11.144531 19.710938 L 9.429688 19.710938 Z M 16.289062 13.289062 L 18 13.289062 L 18 19.710938 L 16.289062 19.710938 Z M 6 16.289062 L 7.710938 16.289062 L 7.710938 19.710938 L 6 19.710938 Z M 6 16.289062 "/>
<path style=" stroke:none;fill-rule:nonzero;fill:rgb(64.313725%,64.313725%,64.313725%);fill-opacity:1;" d="M 6.855469 14.101562 C 6.742188 14.09375 6.636719 14.046875 6.554688 13.96875 C 6.394531 13.808594 6.378906 13.550781 6.511719 13.367188 L 10.199219 9.210938 L 13.710938 11.832031 L 16.910156 9.429688 C 17.101562 9.304688 17.359375 9.339844 17.507812 9.511719 C 17.628906 9.707031 17.59375 9.960938 17.421875 10.113281 L 13.734375 12.839844 L 10.351562 10.316406 L 7.179688 13.871094 C 7.128906 14.007812 7 14.097656 6.855469 14.101562 Z M 6.855469 14.101562 "/>
<path style=" stroke:none;fill-rule:nonzero;fill:rgb(42.352941%,42.352941%,42.352941%);fill-opacity:1;" d="M 11.1875 9.816406 C 11.1875 10.316406 10.785156 10.71875 10.289062 10.71875 C 9.789062 10.71875 9.386719 10.316406 9.386719 9.816406 C 9.386719 9.320312 9.789062 8.917969 10.289062 8.917969 C 10.78125 8.921875 11.183594 9.324219 11.1875 9.816406 Z M 18.042969 9.816406 C 18.042969 10.316406 17.640625 10.71875 17.144531 10.71875 C 16.648438 10.71875 16.242188 10.316406 16.242188 9.816406 C 16.242188 9.320312 16.648438 8.917969 17.144531 8.917969 C 17.640625 8.921875 18.039062 9.324219 18.042969 9.816406 Z M 18.042969 9.816406 "/>
<path style=" stroke:none;fill-rule:nonzero;fill:rgb(42.352941%,42.352941%,42.352941%);fill-opacity:1;" d="M 14.613281 12.386719 C 14.613281 12.882812 14.210938 13.289062 13.710938 13.289062 C 13.214844 13.289062 12.8125 12.882812 12.8125 12.386719 C 12.8125 11.890625 13.214844 11.488281 13.710938 11.488281 C 14.210938 11.488281 14.613281 11.890625 14.613281 12.386719 Z M 14.613281 12.386719 "/>
<path style=" stroke:none;fill-rule:nonzero;fill:rgb(42.352941%,42.352941%,42.352941%);fill-opacity:1;" d="M 7.757812 13.667969 C 7.757812 14.167969 7.351562 14.570312 6.855469 14.570312 C 6.359375 14.570312 5.957031 14.167969 5.957031 13.667969 C 5.957031 13.171875 6.359375 12.769531 6.855469 12.769531 C 7.351562 12.773438 7.753906 13.171875 7.757812 13.667969 Z M 7.757812 13.667969 "/>
</g>
</svg>
