<svg id="Ebene_1" data-name="Ebene 1" xmlns="http://www.w3.org/2000/svg" xmlns:xlink="http://www.w3.org/1999/xlink" viewBox="0 0 128 108"><defs><style>.cls-1{fill:url(#Unbenannter_Verlauf);}.cls-2{fill:#b9ada7;isolation:isolate;opacity:0.7;}.cls-3{fill:#529ad6;}.cls-4{fill:#a4a4a4;}.cls-5{fill:#6c6c6c;}</style><linearGradient id="Unbenannter_Verlauf" x1="64" y1="423.21" x2="64" y2="351.21" gradientTransform="translate(0 -333.21)" gradientUnits="userSpaceOnUse"><stop offset="0" stop-color="#ddd6d3"/><stop offset="0.39" stop-color="#e9e4e2"/><stop offset="1" stop-color="#e9e4e2"/></linearGradient></defs><path class="cls-1" d="M93.57,37.29V87.43A2.58,2.58,0,0,1,91,90H37a2.58,2.58,0,0,1-2.57-2.57V20.57A2.58,2.58,0,0,1,37,18H74.29Z"/><path class="cls-2" d="M93.57,37.29H76.86a2.58,2.58,0,0,1-2.57-2.58V18Z"/><path class="cls-3" d="M66.57,63h5.14V77.14H66.57ZM56.29,57.86h5.14V77.14H56.29Zm20.57,0H82V77.14H76.86ZM46,66.86h5.14V77.14H46Z"/><path class="cls-4" d="M48.57,60.3a1.36,1.36,0,0,1-1-2.19L58.6,45.64l10.54,7.85,9.52-7.2a1.28,1.28,0,1,1,1.54,2.05L69.14,56.57,59,49,49.47,59.66A1,1,0,0,1,48.57,60.3Z"/><path class="cls-5" d="M61.56,47.44a2.7,2.7,0,1,1-2.7-2.7A2.72,2.72,0,0,1,61.56,47.44Zm20.57,0a2.7,2.7,0,1,1-2.7-2.7A2.72,2.72,0,0,1,82.13,47.44Z"/><circle class="cls-5" cx="69.14" cy="55.16" r="2.7"/><path class="cls-5" d="M51.27,59a2.7,2.7,0,1,1-2.7-2.7A2.71,2.71,0,0,1,51.27,59Z"/></svg>