<?xml version="1.0" encoding="UTF-8"?>
<svg width="24px" height="24px" viewBox="0 0 24 24" version="1.1" xmlns="http://www.w3.org/2000/svg" xmlns:xlink="http://www.w3.org/1999/xlink">
    <title>icon/device/photo-camera/default@svg</title>
    <defs>
        <path d="M16.7,2.99999996 L18.2,5.49999996 L20,5.49999996 C21.65,5.49999996 23,6.84999998 23,8.49999996 L23,8.49999996 L23,17 C23,18.65 21.65,20 20,20 L20,20 L3.99999995,20 C2.34999996,20 0.999999954,18.65 0.999999954,17 L0.999999954,17 L0.999999954,8.49999996 C0.999999954,6.84999998 2.34999996,5.49999996 3.99999995,5.49999996 L3.99999995,5.49999996 L5.84999997,5.49999996 L7.34999998,2.99999996 L16.7,2.99999996 Z M15.8,4.49999997 L8.14999998,4.49999997 L6.64999998,6.99999997 L3.99999996,6.99999997 C3.14999996,6.99999997 2.49999996,7.64999998 2.49999996,8.49999997 L2.49999996,8.49999997 L2.49999996,17 C2.49999996,17.85 3.14999996,18.5 3.99999996,18.5 L3.99999996,18.5 L20,18.5 C20.85,18.5 21.5,17.85 21.5,17 L21.5,17 L21.5,8.49999997 C21.5,7.64999998 20.85,6.99999997 20,6.99999997 L20,6.99999997 L17.3,6.99999997 L15.8,4.49999997 Z M12,6.99999998 C14.75,6.99999998 17,9.24999999 17,12 C17,14.75 14.75,17 12,17 C9.24999999,17 6.99999998,14.75 6.99999998,12 C6.99999998,9.24999999 9.24999999,6.99999998 12,6.99999998 Z M12,8.49999999 C10.05,8.49999999 8.49999999,10.05 8.49999999,12 C8.49999999,13.95 10.05,15.5 12,15.5 C13.95,15.5 15.5,13.95 15.5,12 C15.5,10.05 13.95,8.49999999 12,8.49999999 Z M19,8.49999999 C19.5522848,8.49999999 20,8.94771524 20,9.49999999 C20,10.0522847 19.5522848,10.5 19,10.5 C18.4477153,10.5 18,10.0522847 18,9.49999999 C18,8.94771524 18.4477153,8.49999999 19,8.49999999 Z" id="path-1"></path>
    </defs>
    <g id="icon/device/photo-camera/default" stroke="none" stroke-width="1" fill="none" fill-rule="evenodd">
        <mask id="mask-2" fill="white">
            <use xlink:href="#path-1"></use>
        </mask>
        <use id="Combined-Shape" fill="#262626" xlink:href="#path-1"></use>
    </g>
</svg>