<svg id="Ebene_1" data-name="Ebene 1" xmlns="http://www.w3.org/2000/svg" xmlns:xlink="http://www.w3.org/1999/xlink" viewBox="0 0 128 108"><defs><style>.cls-1{fill:#53baf2;}.cls-2{fill:#317cb3;isolation:isolate;opacity:0.25;}.cls-3{fill:url(#Unbenannter_Verlauf_12);}.cls-4{opacity:0.9;}.cls-5{fill:#fff;}</style><linearGradient id="Unbenannter_Verlauf_12" x1="-134.95" y1="-139.18" x2="-134.95" y2="-189.21" gradientTransform="translate(198.95 222.55)" gradientUnits="userSpaceOnUse"><stop offset="0" stop-color="#53baf2"/><stop offset="1" stop-color="#7ecbf5"/></linearGradient></defs><g id="Icons"><path class="cls-1" d="M51.14,24.43H30.57A2.58,2.58,0,0,0,28,27v6.43H60.14Z"/><path class="cls-2" d="M51.14,24.43H30.57A2.58,2.58,0,0,0,28,27v6.43H60.14Z"/><path class="cls-3" d="M97.43,33.43H28V81a2.58,2.58,0,0,0,2.57,2.57H97.43A2.58,2.58,0,0,0,100,81V36A2.58,2.58,0,0,0,97.43,33.43Z"/></g><g id="icon_user_file_families_selected" data-name="icon user file families selected" class="cls-4"><path id="Shape" class="cls-5" d="M84.33,72.13H53.9l.16-1a7.19,7.19,0,0,1,7.12-6.06h3.13l4.8,4.81,4.81-4.81H77a7.2,7.2,0,0,1,7.13,6.06l.16,1Zm-38,0h-2.7L44.06,70a6.1,6.1,0,0,1,6-5.13h4.44a10,10,0,0,0-2.07,2.71H50a3.4,3.4,0,0,0-3.38,2.9Zm10.11-9.47c-4.68,0-7.82-4.68-7.82-9a7.68,7.68,0,0,1,2.26-5.56,7.54,7.54,0,0,1,5.39-2.22h.19a8.15,8.15,0,0,1,2.68.45A12.21,12.21,0,0,0,58,48.75a5.5,5.5,0,0,0-1.51-.21h-.24a4.88,4.88,0,0,0-4.87,4.9v.2c0,3,2.06,6.31,5.12,6.31a4.07,4.07,0,0,0,2.31-.72,13.62,13.62,0,0,0,1.45,2.29,6.84,6.84,0,0,1-3.77,1.14ZM69.11,62a7.11,7.11,0,0,1-5.56-2.85,10.32,10.32,0,0,1-2.17-6.36,7.49,7.49,0,0,1,7.22-7.74h.76a7.49,7.49,0,0,1,7.51,7.47,2.44,2.44,0,0,1,0,.27,10.28,10.28,0,0,1-2.18,6.37A7.1,7.1,0,0,1,69.11,62Z"/></g></svg>