<svg id="Ebene_1" data-name="Ebene 1" xmlns="http://www.w3.org/2000/svg" xmlns:xlink="http://www.w3.org/1999/xlink" viewBox="0 0 128 108"><defs><style>.cls-1{fill:url(#Unbenannter_Verlauf_16);}.cls-2{fill:#b9ada7;isolation:isolate;opacity:0.7;}.cls-3{fill:#f05c51;}</style><linearGradient id="Unbenannter_Verlauf_16" x1="-134.95" y1="-132.55" x2="-134.95" y2="-204.42" gradientTransform="translate(198.95 222.55)" gradientUnits="userSpaceOnUse"><stop offset="0" stop-color="#ddd6d3"/><stop offset="0.39" stop-color="#e9e4e2"/><stop offset="1" stop-color="#e9e4e2"/></linearGradient></defs><path class="cls-1" d="M93.52,37.38V87.43A2.58,2.58,0,0,1,91,90H37.05a2.58,2.58,0,0,1-2.57-2.57V20.7a2.58,2.58,0,0,1,2.57-2.57H74.27Z"/><path class="cls-2" d="M93.52,37.38H76.83a2.57,2.57,0,0,1-2.56-2.57V18.13Z"/><path class="cls-3" d="M54.37,50.47a7.74,7.74,0,0,0-2.82-.38H46.67v15.4H50V60h1.67a6.41,6.41,0,0,0,3.72-1,4.74,4.74,0,0,0,1.93-4.11,5.9,5.9,0,0,0-.65-2.69A6.35,6.35,0,0,0,54.37,50.47Zm-.89,6.29a2.36,2.36,0,0,1-1.8.64H50.14V53h1.41a2.55,2.55,0,0,1,1.8.51A1.85,1.85,0,0,1,54,55.22,2.07,2.07,0,0,1,53.48,56.76Zm10.26-6.55H59V65.62h4.75a12.76,12.76,0,0,0,2.44-.26,5.35,5.35,0,0,0,2.57-1.54,7.9,7.9,0,0,0,2-5.91,8.06,8.06,0,0,0-2.18-6A6.64,6.64,0,0,0,63.74,50.21Zm2.57,11.68a3.59,3.59,0,0,1-2.57.9H62.2V53h1.41a3.41,3.41,0,0,1,2.83,1.15,6,6,0,0,1,1,3.6A5.47,5.47,0,0,1,66.31,61.89ZM82,53V50.21H72.6V65.62h3.21V59.33h5.26v-2.7H75.81V53Z"/></svg>