<svg id="Ebene_1" data-name="Ebene 1" xmlns="http://www.w3.org/2000/svg" xmlns:xlink="http://www.w3.org/1999/xlink" viewBox="0 0 128 108"><defs><style>.cls-1{fill:#4aaae2;}.cls-2{fill:url(#Unbenannter_Verlauf_5);}.cls-3{fill:#fff;isolation:isolate;opacity:0.9;}</style><linearGradient id="Unbenannter_Verlauf_5" x1="-134.95" y1="638.78" x2="-134.95" y2="588.74" gradientTransform="translate(198.95 -555.43)" gradientUnits="userSpaceOnUse"><stop offset="0" stop-color="#53baf2"/><stop offset="1" stop-color="#7ecbf5"/></linearGradient></defs><path class="cls-1" d="M51.14,24.43H30.57A2.58,2.58,0,0,0,28,27v6.43H60.14Z"/><path class="cls-2" d="M97.43,33.43H28V81a2.58,2.58,0,0,0,2.57,2.57H97.43A2.58,2.58,0,0,0,100,81V36A2.58,2.58,0,0,0,97.43,33.43Z"/><path class="cls-3" d="M79.43,52.71,71.71,45,64,52.71h5.14V68.14a2.58,2.58,0,0,0,5.15,0V52.71ZM58.86,48.86a2.58,2.58,0,0,0-5.15,0V64.29H48.57L56.29,72,64,64.29H58.86Z"/></svg>