<?xml version="1.0" encoding="UTF-8"?>
<svg id="Ebene_1" data-name="Ebene 1" xmlns="http://www.w3.org/2000/svg" xmlns:xlink="http://www.w3.org/1999/xlink" viewBox="0 0 72 72">
  <defs>
    <style>
      .cls-1 {
        fill: #fff;
        isolation: isolate;
        opacity: .9;
      }

      .cls-1, .cls-2, .cls-3 {
        stroke-width: 0px;
      }

      .cls-2 {
        fill: url(#Unbenannter_Verlauf_5);
      }

      .cls-3 {
        fill: #4aaae2;
      }
    </style>
    <linearGradient id="Unbenannter_Verlauf_5" data-name="Unbenannter Verlauf 5" x1="-162.95" y1="620.78" x2="-162.95" y2="570.74" gradientTransform="translate(198.95 -555.43)" gradientUnits="userSpaceOnUse">
      <stop offset="0" stop-color="#53baf2"/>
      <stop offset="1" stop-color="#7ecbf5"/>
    </linearGradient>
  </defs>
  <path class="cls-3" d="m23.14,6.43H2.57c-1.41,0-2.57,1.16-2.57,2.57v6.43h32.14l-9-9Z"/>
  <path class="cls-2" d="m69.43,15.43H0v47.57c0,1.41,1.16,2.57,2.57,2.57h66.86c1.41,0,2.57-1.16,2.57-2.57V18c0-1.41-1.16-2.57-2.57-2.57Z"/>
  <path class="cls-1" d="m51.43,34.71l-7.71-7.71-7.71,7.71h5.14v15.43c0,1.41,1.16,2.57,2.57,2.57s2.57-1.16,2.57-2.57v-15.43h5.14Zm-20.57-3.86c0-1.41-1.16-2.57-2.57-2.57s-2.57,1.16-2.57,2.57v15.43h-5.14l7.71,7.71,7.71-7.71h-5.14v-15.43Z"/>
</svg>