<svg id="Ebene_1" data-name="Ebene 1" xmlns="http://www.w3.org/2000/svg" xmlns:xlink="http://www.w3.org/1999/xlink" viewBox="0 0 128 108"><defs><style>.cls-1{fill:#d94034;}.cls-2{fill:url(#Unbenannter_Verlauf_10);}.cls-3{fill:#fff;isolation:isolate;opacity:0.9;}</style><linearGradient id="Unbenannter_Verlauf_10" x1="-134.95" y1="-139.21" x2="-134.95" y2="-189.24" gradientTransform="translate(198.95 222.55)" gradientUnits="userSpaceOnUse"><stop offset="0" stop-color="#f05c51"/><stop offset="1" stop-color="#f37d74"/></linearGradient></defs><path class="cls-1" d="M51.14,24.43H30.57A2.58,2.58,0,0,0,28,27v6.43H60.14Z"/><path class="cls-2" d="M97.43,33.43H28V81a2.58,2.58,0,0,0,2.57,2.57H97.43A2.58,2.58,0,0,0,100,81V36A2.58,2.58,0,0,0,97.43,33.43Z"/><path class="cls-3" d="M55.13,72.39a.88.88,0,0,0,.9.9H71.84a.88.88,0,0,0,.9-.9l.9-21H54.36ZM68.24,56.57a1,1,0,0,1,1-1,1,1,0,0,1,1,1V68.14a1,1,0,0,1-1,1,1,1,0,0,1-1-1Zm-5.14,0a1,1,0,0,1,1-1,1,1,0,0,1,1,1V68.14a1,1,0,0,1-1,1,1,1,0,0,1-1-1Zm-5.14,0a1,1,0,0,1,1-1,.94.94,0,0,1,1,1V68.14a1,1,0,0,1-1,1,.94.94,0,0,1-1-1ZM74.67,46.8H68.24v-.51a1.42,1.42,0,0,0-1.41-1.42H61.17a1.42,1.42,0,0,0-1.41,1.42v.51H53.33a1.16,1.16,0,1,0,0,2.31H74.54A1.15,1.15,0,0,0,75.7,48,1,1,0,0,0,74.67,46.8Z"/></svg>