<?xml version="1.0" encoding="UTF-8"?>
<svg id="Ebene_1" data-name="Ebene 1" xmlns="http://www.w3.org/2000/svg" xmlns:xlink="http://www.w3.org/1999/xlink" viewBox="0 0 72 72">
  <defs>
    <style>
      .cls-1 {
        fill: url(#Unbenannter_Verlauf_9);
      }

      .cls-1, .cls-2, .cls-3 {
        stroke-width: 0px;
      }

      .cls-2 {
        fill: #948983;
      }

      .cls-3 {
        fill: #b9ada7;
        isolation: isolate;
        opacity: .7;
      }
    </style>
    <linearGradient id="Unbenannter_Verlauf_9" data-name="Unbenannter Verlauf 9" x1="-162.95" y1="-150.55" x2="-162.95" y2="-222.55" gradientTransform="translate(198.95 222.55)" gradientUnits="userSpaceOnUse">
      <stop offset="0" stop-color="#ddd6d3"/>
      <stop offset=".39" stop-color="#e9e4e2"/>
      <stop offset="1" stop-color="#e9e4e2"/>
    </linearGradient>
  </defs>
  <path class="cls-1" d="m65.57,19.29v50.14c0,1.41-1.16,2.57-2.57,2.57H9c-1.41,0-2.57-1.16-2.57-2.57V2.57C6.43,1.16,7.59,0,9,0h37.29l19.29,19.29Z"/>
  <path class="cls-3" d="m65.57,19.29h-16.71c-1.41,0-2.57-1.16-2.57-2.57V0l19.29,19.29Z"/>
  <path class="cls-2" d="m41.91,28.29h-3.34c-.13-2.06-1.03-3.09-2.57-3.09-.64,0-1.16.13-1.67.51-.51.51-.77,1.16-.77,1.93,0,.64.13,1.29.51,1.67s1.16,1.03,2.44,1.93c2.31,1.54,3.99,2.57,4.76,3.21,1.54,1.29,2.19,2.7,2.19,4.5,0,1.67-.51,2.96-1.54,4.11-.39.51-.9.9-1.54,1.16.39.39.64.77.9,1.03.51.77.77,1.8.77,2.96,0,1.8-.64,3.21-1.8,4.37-1.03,1.03-2.44,1.54-4.24,1.54s-3.34-.51-4.37-1.54c-1.29-1.16-1.8-2.83-1.93-4.89h3.34c.26,2.19,1.16,3.21,2.96,3.21.9,0,1.54-.26,2.06-.9.39-.51.51-1.03.51-1.67,0-.51-.13-1.16-.51-1.67-.39-.64-2.19-1.93-5.27-3.99-1.54-1.03-2.7-1.93-3.34-2.7-.9-1.03-1.29-2.31-1.29-3.86,0-1.67.51-3.09,1.67-4.11.39-.39.9-.77,1.54-.9-.9-1.03-1.29-2.31-1.29-3.6,0-1.54.39-2.7,1.29-3.73,1.16-1.29,2.7-1.93,4.63-1.93,1.41,0,2.7.39,3.73,1.16.77.51,1.29,1.29,1.67,2.31.39,1.29.51,2.19.51,2.96h0Zm-8.74,5.01c-.39.13-.64.39-1.03.77-.51.51-.77,1.16-.77,1.93,0,.9.39,1.67,1.29,2.44.64.51,1.67,1.29,3.47,2.44.51.39.9.64,1.16.9.51.39.9.64,1.03.77.39-.13.77-.51,1.16-1.03.39-.64.64-1.29.64-1.93,0-.9-.39-1.67-1.29-2.44-.77-.64-2.31-1.67-4.5-3.09l-.9-.64-.26-.13Z"/>
</svg>