<?xml version="1.0" encoding="UTF-8"?>
<svg id="Ebene_1" data-name="Ebene 1" xmlns="http://www.w3.org/2000/svg" xmlns:xlink="http://www.w3.org/1999/xlink" viewBox="0 0 72 72">
  <defs>
    <style>
      .cls-1 {
        fill: url(#Unbenannter_Verlauf_19);
      }

      .cls-1, .cls-2, .cls-3 {
        stroke-width: 0px;
      }

      .cls-2 {
        fill: url(#Unbenannter_Verlauf_20);
      }

      .cls-3 {
        fill: #b9ada7;
        isolation: isolate;
        opacity: .7;
      }
    </style>
    <linearGradient id="Unbenannter_Verlauf_19" data-name="Unbenannter Verlauf 19" x1="-162.95" y1="-150.55" x2="-162.95" y2="-222.55" gradientTransform="translate(198.95 222.55)" gradientUnits="userSpaceOnUse">
      <stop offset="0" stop-color="#ddd6d3"/>
      <stop offset=".39" stop-color="#e9e4e2"/>
      <stop offset="1" stop-color="#e9e4e2"/>
    </linearGradient>
    <linearGradient id="Unbenannter_Verlauf_20" data-name="Unbenannter Verlauf 20" x1="-163.01" y1="-165.33" x2="-163.01" y2="-199.95" gradientTransform="translate(198.95 222.55)" gradientUnits="userSpaceOnUse">
      <stop offset="0" stop-color="#595959"/>
      <stop offset="1" stop-color="#7a7a7a"/>
    </linearGradient>
  </defs>
  <path class="cls-1" d="m65.57,19.29v50.14c0,1.41-1.16,2.57-2.57,2.57H9c-1.41,0-2.57-1.16-2.57-2.57V2.57C6.43,1.16,7.59,0,9,0h37.29"/>
  <path class="cls-3" d="m65.57,19.29h-16.71c-1.41,0-2.57-1.16-2.57-2.57V0"/>
  <path class="cls-2" d="m47.7,40.76c0-.77-.13-1.41-.26-2.06l3.99-3.34c-.64-1.93-1.67-3.73-3.09-5.27l-4.76,1.8c-1.03-.9-2.31-1.54-3.6-2.06l-.9-5.01c-1.03-.13-2.06-.26-3.09-.26s-2.06.13-3.09.26l-.9,5.01c-1.29.51-2.57,1.16-3.6,2.06l-4.89-1.8c-1.29,1.54-2.44,3.34-3.09,5.27l3.99,3.34c-.13.64-.26,1.41-.26,2.06,0,.77.13,1.41.26,2.06l-3.99,3.34c.64,1.93,1.8,3.73,3.09,5.27l4.89-1.8c1.03.9,2.31,1.54,3.6,2.06l.9,5.01c1.03.13,2.06.26,3.09.26s2.06-.13,3.09-.26l.9-5.01c1.29-.51,2.57-1.16,3.6-2.06l4.76,1.8c1.29-1.54,2.44-3.34,3.09-5.27l-3.99-3.34c.13-.64.26-1.41.26-2.06Zm-11.7,6.94c-3.86,0-6.94-3.09-6.94-6.94s3.09-6.94,6.94-6.94,6.94,3.09,6.94,6.94-3.09,6.94-6.94,6.94Z"/>
</svg>