<svg id="Ebene_1" data-name="Ebene 1" xmlns="http://www.w3.org/2000/svg" xmlns:xlink="http://www.w3.org/1999/xlink" viewBox="0 0 128 108"><defs><style>.cls-1{fill:url(#Unbenannter_Verlauf_6);}.cls-2{fill:#b9ada7;isolation:isolate;opacity:0.7;}.cls-3{fill:#5b8f22;}</style><linearGradient id="Unbenannter_Verlauf_6" x1="-134.95" y1="-132.55" x2="-134.95" y2="-204.55" gradientTransform="translate(198.95 222.55)" gradientUnits="userSpaceOnUse"><stop offset="0" stop-color="#ddd6d3"/><stop offset="0.39" stop-color="#e9e4e2"/><stop offset="1" stop-color="#e9e4e2"/></linearGradient></defs><path class="cls-1" d="M93.57,87.43A2.58,2.58,0,0,1,91,90H37a2.58,2.58,0,0,1-2.57-2.57V20.57A2.58,2.58,0,0,1,37,18H74.41L93.57,37.41Z"/><path class="cls-2" d="M74.29,18.13V34.84a2.57,2.57,0,0,0,2.57,2.57H93.57Z"/><path class="cls-3" d="M60.27,71.23,51.14,62.1a1.91,1.91,0,0,1,2.7-2.7l6.3,6.3L76.73,49.11a1.91,1.91,0,1,1,2.7,2.7Z"/></svg>