<svg id="Ebene_1" data-name="Ebene 1" xmlns="http://www.w3.org/2000/svg" xmlns:xlink="http://www.w3.org/1999/xlink" viewBox="0 0 128 108"><defs><style>.cls-1{fill:url(#Unbenannter_Verlauf_9);}.cls-2{fill:#b9ada7;isolation:isolate;opacity:0.7;}.cls-3{fill:#948983;}</style><linearGradient id="Unbenannter_Verlauf_9" x1="-134.95" y1="-132.55" x2="-134.95" y2="-204.55" gradientTransform="translate(198.95 222.55)" gradientUnits="userSpaceOnUse"><stop offset="0" stop-color="#ddd6d3"/><stop offset="0.39" stop-color="#e9e4e2"/><stop offset="1" stop-color="#e9e4e2"/></linearGradient></defs><path class="cls-1" d="M93.57,37.29V87.43A2.58,2.58,0,0,1,91,90H37a2.58,2.58,0,0,1-2.57-2.57V20.57A2.58,2.58,0,0,1,37,18H74.29Z"/><path class="cls-2" d="M93.57,37.29H76.86a2.58,2.58,0,0,1-2.57-2.58V18Z"/><path class="cls-3" d="M69.91,46.29H66.57c-.13-2.06-1-3.09-2.57-3.09a2.21,2.21,0,0,0-2.44,2.44,2.37,2.37,0,0,0,.51,1.67,20,20,0,0,0,2.44,1.93c2.32,1.55,4,2.57,4.76,3.22A5.48,5.48,0,0,1,71.46,57a5.84,5.84,0,0,1-1.55,4.11,3.47,3.47,0,0,1-1.54,1.16c.39.38.64.77.9,1A5.27,5.27,0,0,1,70,66.21a5.92,5.92,0,0,1-1.8,4.38A5.76,5.76,0,0,1,64,72.13a6.08,6.08,0,0,1-4.37-1.54A6.78,6.78,0,0,1,57.7,65.7H61c.26,2.19,1.16,3.21,3,3.21a2.39,2.39,0,0,0,2.06-.9,2.59,2.59,0,0,0,.51-1.67,2.88,2.88,0,0,0-.51-1.67c-.39-.64-2.19-1.93-5.27-4A16.72,16.72,0,0,1,57.44,58a5.62,5.62,0,0,1-1.28-3.86A5.25,5.25,0,0,1,57.83,50a3.12,3.12,0,0,1,1.54-.9,5.36,5.36,0,0,1-1.28-3.6,5.24,5.24,0,0,1,1.28-3.72A5.91,5.91,0,0,1,64,39.86,6.15,6.15,0,0,1,67.73,41a4.59,4.59,0,0,1,1.67,2.32,9.91,9.91,0,0,1,.51,3Zm-8.74,5a2.85,2.85,0,0,0-1,.77A2.65,2.65,0,0,0,59.37,54a3.11,3.11,0,0,0,1.29,2.44,38.93,38.93,0,0,0,3.47,2.45,12.07,12.07,0,0,1,1.16.9c.51.38.9.64,1,.77a2.78,2.78,0,0,0,1.16-1,3.79,3.79,0,0,0,.64-1.93,3.09,3.09,0,0,0-1.28-2.44c-.77-.65-2.32-1.67-4.5-3.09l-.9-.64Z"/></svg>