<?xml version="1.0" encoding="UTF-8"?>
<svg id="Ebene_1" data-name="Ebene 1" xmlns="http://www.w3.org/2000/svg" xmlns:xlink="http://www.w3.org/1999/xlink" viewBox="0 0 72 72">
  <defs>
    <style>
      .cls-1 {
        fill: url(#Unbenannter_Verlauf_3);
      }

      .cls-1, .cls-2, .cls-3 {
        stroke-width: 0px;
      }

      .cls-2 {
        fill: url(#Unbenannter_Verlauf_4);
      }

      .cls-3 {
        fill: #b9ada7;
        isolation: isolate;
        opacity: .7;
      }
    </style>
    <linearGradient id="Unbenannter_Verlauf_3" data-name="Unbenannter Verlauf 3" x1="574.28" y1="-410.63" x2="575.57" y2="-410.63" gradientTransform="translate(-22957.03 32228.85) rotate(-90) scale(56 -56)" gradientUnits="userSpaceOnUse">
      <stop offset="0" stop-color="#ddd6d3"/>
      <stop offset=".39" stop-color="#e9e4e2"/>
      <stop offset="1" stop-color="#e9e4e2"/>
    </linearGradient>
    <linearGradient id="Unbenannter_Verlauf_4" data-name="Unbenannter Verlauf 4" x1="-162.37" y1="-162.88" x2="-162.37" y2="-214.62" gradientTransform="translate(198.95 222.55)" gradientUnits="userSpaceOnUse">
      <stop offset="0" stop-color="#f9b600"/>
      <stop offset="1" stop-color="#ffd329"/>
    </linearGradient>
  </defs>
  <path class="cls-1" d="m9,0C7.59,0,6.43,1.16,6.43,2.57v66.86c0,1.41,1.16,2.57,2.57,2.57h54c1.41,0,2.57-1.16,2.57-2.57V19.29L46.29,0H9Z"/>
  <path class="cls-3" d="m46.29,0v16.71c0,1.41,1.16,2.57,2.57,2.57h16.71L46.29,0Z"/>
  <path class="cls-2" d="m36,25.59v18.9c-1.16-.9-2.57-1.41-4.11-1.41-3.73,0-6.81,3.09-6.81,6.81s3.09,6.81,6.81,6.81,6.81-3.09,6.81-6.81v-18.64l9.39,4.76v-6.3s-10.03-5.4-10.16-5.4c-.13-.13-.39-.13-.51-.13-.9,0-1.41.64-1.41,1.41"/>
</svg>