<svg id="Ebene_1" data-name="Ebene 1" xmlns="http://www.w3.org/2000/svg" xmlns:xlink="http://www.w3.org/1999/xlink" viewBox="0 0 128 108"><defs><style>.cls-1{fill:url(#Unbenannter_Verlauf_3);}.cls-2{fill:#b9ada7;isolation:isolate;opacity:0.7;}.cls-3{fill:url(#Unbenannter_Verlauf_4);}</style><linearGradient id="Unbenannter_Verlauf_3" x1="609.19" y1="-5.54" x2="610.48" y2="-5.54" gradientTransform="matrix(0, -56, -56, 0, -246.4, 34201.8)" gradientUnits="userSpaceOnUse"><stop offset="0" stop-color="#ddd6d3"/><stop offset="0.39" stop-color="#e9e4e2"/><stop offset="1" stop-color="#e9e4e2"/></linearGradient><linearGradient id="Unbenannter_Verlauf_4" x1="-134.37" y1="-144.88" x2="-134.37" y2="-196.62" gradientTransform="translate(198.95 222.55)" gradientUnits="userSpaceOnUse"><stop offset="0" stop-color="#f9b600"/><stop offset="1" stop-color="#ffd329"/></linearGradient></defs><path class="cls-1" d="M37,18a2.58,2.58,0,0,0-2.57,2.57V87.43A2.58,2.58,0,0,0,37,90H91a2.58,2.58,0,0,0,2.57-2.57V37.29L74.29,18Z"/><path class="cls-2" d="M74.29,18V34.71a2.58,2.58,0,0,0,2.57,2.58H93.57Z"/><path class="cls-3" d="M64,43.59v18.9a6.65,6.65,0,0,0-4.11-1.42,6.82,6.82,0,1,0,6.81,6.82V49.24L76.09,54V47.7s-10-5.4-10.16-5.4a.78.78,0,0,0-.52-.13A1.35,1.35,0,0,0,64,43.59"/></svg>