<svg id="Ebene_1" data-name="Ebene 1" xmlns="http://www.w3.org/2000/svg" xmlns:xlink="http://www.w3.org/1999/xlink" viewBox="0 0 128 108"><defs><style>.cls-1{fill:url(#Unbenannter_Verlauf_19);}.cls-2{fill:#b9ada7;isolation:isolate;opacity:0.7;}.cls-3{fill:url(#Unbenannter_Verlauf_20);}</style><linearGradient id="Unbenannter_Verlauf_19" x1="-134.95" y1="-132.55" x2="-134.95" y2="-204.55" gradientTransform="translate(198.95 222.55)" gradientUnits="userSpaceOnUse"><stop offset="0" stop-color="#ddd6d3"/><stop offset="0.39" stop-color="#e9e4e2"/><stop offset="1" stop-color="#e9e4e2"/></linearGradient><linearGradient id="Unbenannter_Verlauf_20" x1="-135.01" y1="-147.33" x2="-135.01" y2="-181.95" gradientTransform="translate(198.95 222.55)" gradientUnits="userSpaceOnUse"><stop offset="0" stop-color="#595959"/><stop offset="1" stop-color="#7a7a7a"/></linearGradient></defs><path class="cls-1" d="M93.57,37.29V87.43A2.58,2.58,0,0,1,91,90H37a2.58,2.58,0,0,1-2.57-2.57V20.57A2.58,2.58,0,0,1,37,18H74.29"/><path class="cls-2" d="M93.57,37.29H76.86a2.58,2.58,0,0,1-2.57-2.58V18"/><path class="cls-3" d="M75.7,58.76a9.9,9.9,0,0,0-.26-2.06l4-3.34a14.46,14.46,0,0,0-3.09-5.27l-4.75,1.8A12.48,12.48,0,0,0,68,47.83l-.9-5A26.81,26.81,0,0,0,64,42.56a26.81,26.81,0,0,0-3.09.25l-.9,5a12.48,12.48,0,0,0-3.6,2.06l-4.88-1.8a16.74,16.74,0,0,0-3.09,5.27l4,3.34a11.06,11.06,0,0,0-.26,2.06,9.81,9.81,0,0,0,.26,2.05l-4,3.35a16.74,16.74,0,0,0,3.09,5.27l4.88-1.8A12.72,12.72,0,0,0,60,69.69l.9,5A24.77,24.77,0,0,0,64,75a24.77,24.77,0,0,0,3.09-.26l.9-5a12.72,12.72,0,0,0,3.6-2.06l4.75,1.8a16.55,16.55,0,0,0,3.09-5.27l-4-3.35A11.06,11.06,0,0,0,75.7,58.76ZM64,65.7a6.95,6.95,0,1,1,6.94-6.94A6.91,6.91,0,0,1,64,65.7Z"/></svg>