<?xml version="1.0" encoding="UTF-8"?>
<svg id="Ebene_1" data-name="Ebene 1" xmlns="http://www.w3.org/2000/svg" xmlns:xlink="http://www.w3.org/1999/xlink" viewBox="0 0 72 72">
  <defs>
    <style>
      .cls-1 {
        fill: url(#Unbenannter_Verlauf_6);
      }

      .cls-1, .cls-2, .cls-3 {
        stroke-width: 0px;
      }

      .cls-2 {
        fill: #5b8f22;
      }

      .cls-3 {
        fill: #b9ada7;
        isolation: isolate;
        opacity: .7;
      }
    </style>
    <linearGradient id="Unbenannter_Verlauf_6" data-name="Unbenannter Verlauf 6" x1="-162.95" y1="-150.55" x2="-162.95" y2="-222.55" gradientTransform="translate(198.95 222.55)" gradientUnits="userSpaceOnUse">
      <stop offset="0" stop-color="#ddd6d3"/>
      <stop offset=".39" stop-color="#e9e4e2"/>
      <stop offset="1" stop-color="#e9e4e2"/>
    </linearGradient>
  </defs>
  <path class="cls-1" d="m65.57,69.43c0,1.41-1.16,2.57-2.57,2.57H9c-1.41,0-2.57-1.16-2.57-2.57V2.57C6.43,1.16,7.59,0,9,0h37.41l19.16,19.41v50.01Z"/>
  <path class="cls-3" d="m46.29.13v16.71c0,1.41,1.16,2.57,2.57,2.57h16.71L46.29.13Z"/>
  <path class="cls-2" d="m32.27,53.23l-9.13-9.13c-.77-.77-.77-1.93,0-2.7s1.93-.77,2.7,0l6.3,6.3,16.59-16.59c.77-.77,1.93-.77,2.7,0s.77,1.93,0,2.7l-19.16,19.41Z"/>
</svg>