<?xml version="1.0" encoding="UTF-8"?>
<svg id="Ebene_1" data-name="Ebene 1" xmlns="http://www.w3.org/2000/svg" xmlns:xlink="http://www.w3.org/1999/xlink" viewBox="0 0 72 72">
  <defs>
    <style>
      .cls-1 {
        fill: url(#Unbenannter_Verlauf_24);
      }

      .cls-1, .cls-2, .cls-3 {
        stroke-width: 0px;
      }

      .cls-2 {
        fill: #bfcb44;
      }

      .cls-3 {
        fill: #b9ada7;
        isolation: isolate;
        opacity: .7;
      }
    </style>
    <linearGradient id="Unbenannter_Verlauf_24" data-name="Unbenannter Verlauf 24" x1="-162.95" y1="-150.55" x2="-162.95" y2="-222.55" gradientTransform="translate(198.95 222.55)" gradientUnits="userSpaceOnUse">
      <stop offset="0" stop-color="#ddd6d3"/>
      <stop offset=".39" stop-color="#e9e4e2"/>
      <stop offset="1" stop-color="#e9e4e2"/>
    </linearGradient>
  </defs>
  <path class="cls-1" d="m65.57,19.29v50.14c0,1.41-1.16,2.57-2.57,2.57H9c-1.41,0-2.57-1.16-2.57-2.57V2.57C6.43,1.16,7.59,0,9,0h37.29l19.29,19.29Z"/>
  <path class="cls-3" d="m65.57,19.29h-16.71c-1.41,0-2.57-1.16-2.57-2.57V0l19.29,19.29Z"/>
  <path class="cls-2" d="m49.5,25.71h-27c-1.03,0-1.93.9-1.93,1.93v1.93h30.86v-1.93c0-1.03-.9-1.93-1.93-1.93Zm-17.36,30.86h7.71v-24.43h-7.71v24.43Zm-11.57-1.93c0,1.03.9,1.93,1.93,1.93h7.07v-24.43h-9v22.5Zm21.86,1.93h7.07c1.03,0,1.93-.9,1.93-1.93v-22.5h-9v24.43Z"/>
</svg>