<?xml version="1.0" encoding="UTF-8"?>
<svg id="Ebene_1" data-name="Ebene 1" xmlns="http://www.w3.org/2000/svg" xmlns:xlink="http://www.w3.org/1999/xlink" viewBox="0 0 72 72">
  <defs>
    <style>
      .cls-1 {
        opacity: .9;
      }

      .cls-2 {
        fill: #53baf2;
      }

      .cls-2, .cls-3, .cls-4, .cls-5 {
        stroke-width: 0px;
      }

      .cls-3 {
        fill: #fff;
      }

      .cls-4 {
        fill: url(#Unbenannter_Verlauf_12);
      }

      .cls-5 {
        fill: #317cb3;
        isolation: isolate;
        opacity: .25;
      }
    </style>
    <linearGradient id="Unbenannter_Verlauf_12" data-name="Unbenannter Verlauf 12" x1="-162.95" y1="-157.18" x2="-162.95" y2="-207.21" gradientTransform="translate(198.95 222.55)" gradientUnits="userSpaceOnUse">
      <stop offset="0" stop-color="#53baf2"/>
      <stop offset="1" stop-color="#7ecbf5"/>
    </linearGradient>
  </defs>
  <path id="Combined_Shape-2" data-name="Combined Shape-2" class="cls-3" d="m25.71,51.56c-2.13,0-3.86-1.73-3.86-3.86v-10.93c0-2.13,1.73-3.86,3.86-3.86h2.38l1.93-3.21h12.02l1.93,3.21h2.31c2.13,0,3.86,1.73,3.86,3.86v10.93c0,2.13-1.73,3.86-3.86,3.86h-20.57Zm-1.93-14.79v10.93c-.02,1.04.8,1.9,1.84,1.93.03,0,.06,0,.09,0h20.57c1.04.02,1.9-.8,1.93-1.84,0-.03,0-.06,0-.09v-10.93c.02-1.04-.8-1.91-1.85-1.93-.03,0-.06,0-.08,0h-3.47l-1.93-3.21h-9.84l-1.93,3.21h-3.41c-1.04-.02-1.9.8-1.93,1.84,0,.03,0,.06,0,.09Zm5.79,4.5c0-3.55,2.88-6.43,6.43-6.43s6.43,2.88,6.43,6.43-2.88,6.43-6.43,6.43c-3.55,0-6.42-2.88-6.43-6.43Zm1.93,0c0,2.49,2.01,4.5,4.5,4.5s4.5-2.01,4.5-4.5-2.01-4.5-4.5-4.5c-2.46-.03-4.47,1.94-4.5,4.4,0,.03,0,.07,0,.1Zm12.21-3.21c0-.71.58-1.29,1.29-1.29s1.29.58,1.29,1.29-.58,1.29-1.29,1.29-1.29-.58-1.29-1.29Z"/>
  <g id="Icons">
    <g>
      <path class="cls-2" d="m23.14,6.43H2.57C1.16,6.43,0,7.59,0,9v6.43h32.14l-9-9Z"/>
      <path class="cls-5" d="m23.14,6.43H2.57C1.16,6.43,0,7.59,0,9v6.43h32.14l-9-9Z"/>
      <path class="cls-4" d="m69.43,15.43H0v47.57C0,64.41,1.16,65.57,2.57,65.57h66.86c1.41,0,2.57-1.16,2.57-2.57V18c0-1.41-1.16-2.57-2.57-2.57Z"/>
    </g>
  </g>
  <g id="icon_device_photo-camera_selected" data-name="icon device photo-camera selected" class="cls-1">
    <path id="Shape-2" class="cls-3" d="m49.98,52.5h-27.96c-1.04,0-2.03-.42-2.77-1.15-.74-.74-1.15-1.74-1.15-2.78v-14.84c0-1.04.41-2.05,1.15-2.78.74-.73,1.73-1.14,2.77-1.15h3.94l2.62-4.36h14.84l2.62,4.36h3.94c2.16,0,3.92,1.76,3.92,3.92,0,0,0,0,0,0v14.84c0,2.16-1.75,3.92-3.91,3.93,0,0,0,0,0,0Zm-13.98-19.06c-3.54,0-6.4,2.87-6.4,6.41,0,3.54,2.87,6.4,6.41,6.4,3.54,0,6.4-2.87,6.4-6.4,0-3.54-2.87-6.4-6.41-6.41Zm12.22.3c-.96,0-1.75.78-1.75,1.75s.78,1.75,1.75,1.75,1.75-.78,1.75-1.75-.78-1.75-1.75-1.75Z"/>
  </g>
</svg>