<svg id="Ebene_1" data-name="Ebene 1" xmlns="http://www.w3.org/2000/svg" xmlns:xlink="http://www.w3.org/1999/xlink" viewBox="0 0 128 108"><defs><style>.cls-1{fill:#53baf2;}.cls-2{fill:#4aaae2;}.cls-3{fill:url(#Unbenannter_Verlauf_5);}.cls-4{fill:#fff;isolation:isolate;opacity:0.9;}</style><linearGradient id="Unbenannter_Verlauf_5" x1="-134.95" y1="-139.2" x2="-134.95" y2="-189.23" gradientTransform="translate(198.95 222.55)" gradientUnits="userSpaceOnUse"><stop offset="0" stop-color="#53baf2"/><stop offset="1" stop-color="#7ecbf5"/></linearGradient></defs><path class="cls-1" d="M51.14,24.43H30.57A2.58,2.58,0,0,0,28,27v6.43H60.14Z"/><path class="cls-2" d="M51.14,24.43H30.57A2.58,2.58,0,0,0,28,27v6.43H60.14Z"/><path class="cls-3" d="M97.43,33.43H28V81a2.58,2.58,0,0,0,2.57,2.57H97.43A2.58,2.58,0,0,0,100,81V36A2.58,2.58,0,0,0,97.43,33.43Z"/><path class="cls-4" d="M49.86,69.43A2.58,2.58,0,0,0,52.43,72H75.57a2.58,2.58,0,0,0,2.57-2.57V57.86H49.86Zm0-12.86H78.14V52.71H49.86Zm27-14.14L48.57,48.86l1.29,3.85,28.28-6.42Z"/></svg>