<?xml version="1.0" encoding="UTF-8"?>
<svg id="Ebene_1" data-name="Ebene 1" xmlns="http://www.w3.org/2000/svg" xmlns:xlink="http://www.w3.org/1999/xlink" viewBox="0 0 72 72">
  <defs>
    <style>
      .cls-1 {
        fill: #fff;
        isolation: isolate;
        opacity: .9;
      }

      .cls-1, .cls-2, .cls-3 {
        stroke-width: 0px;
      }

      .cls-2 {
        fill: url(#Unbenannter_Verlauf_12);
      }

      .cls-3 {
        fill: #4aaae2;
      }
    </style>
    <linearGradient id="Unbenannter_Verlauf_12" data-name="Unbenannter Verlauf 12" x1="-154.59" y1="-1265.14" x2="-154.59" y2="-1215.11" gradientTransform="translate(190.59 -1199.8) scale(1 -1)" gradientUnits="userSpaceOnUse">
      <stop offset="0" stop-color="#53baf2"/>
      <stop offset="1" stop-color="#7ecbf5"/>
    </linearGradient>
  </defs>
  <path class="cls-3" d="m23.14,6.43H2.57c-1.41,0-2.57,1.16-2.57,2.57v6.43h32.14l-9-9Z"/>
  <path class="cls-2" d="m69.43,15.43H0v47.57c0,1.41,1.16,2.57,2.57,2.57h66.86c1.41,0,2.57-1.16,2.57-2.57V18c0-1.41-1.16-2.57-2.57-2.57Z"/>
  <path class="cls-1" d="m37.8,25.2c-.13-.13-.39-.13-.51-.13-.77,0-1.29.51-1.29,1.29v18.26c-1.16-.9-2.57-1.41-4.11-1.41-3.73,0-6.69,2.96-6.69,6.69s2.96,6.69,6.69,6.69,6.69-2.96,6.69-6.69v-17.87l9.26,4.76v-6.17c0-.13-9.9-5.4-10.03-5.4Z"/>
</svg>