<?xml version="1.0" encoding="UTF-8"?>
<svg id="Ebene_1" data-name="Ebene 1" xmlns="http://www.w3.org/2000/svg" xmlns:xlink="http://www.w3.org/1999/xlink" viewBox="0 0 72 72">
  <defs>
    <style>
      .cls-1 {
        opacity: .9;
      }

      .cls-2 {
        fill: #53baf2;
      }

      .cls-2, .cls-3, .cls-4, .cls-5 {
        stroke-width: 0px;
      }

      .cls-3 {
        fill: #fff;
      }

      .cls-4 {
        fill: url(#Unbenannter_Verlauf_12);
      }

      .cls-5 {
        fill: #317cb3;
        isolation: isolate;
        opacity: .25;
      }
    </style>
    <linearGradient id="Unbenannter_Verlauf_12" data-name="Unbenannter Verlauf 12" x1="-162.95" y1="-157.18" x2="-162.95" y2="-207.21" gradientTransform="translate(198.95 222.55)" gradientUnits="userSpaceOnUse">
      <stop offset="0" stop-color="#53baf2"/>
      <stop offset="1" stop-color="#7ecbf5"/>
    </linearGradient>
  </defs>
  <g id="Icons">
    <g>
      <path class="cls-2" d="m23.14,6.43H2.57c-1.41,0-2.57,1.16-2.57,2.57v6.43h32.14l-9-9Z"/>
      <path class="cls-5" d="m23.14,6.43H2.57c-1.41,0-2.57,1.16-2.57,2.57v6.43h32.14l-9-9Z"/>
      <path class="cls-4" d="m69.43,15.43H0v47.57c0,1.41,1.16,2.57,2.57,2.57h66.86c1.41,0,2.57-1.16,2.57-2.57V18c0-1.41-1.16-2.57-2.57-2.57Z"/>
    </g>
  </g>
  <g id="icon_user_file_families_selected" data-name="icon user file families selected" class="cls-1">
    <path id="Shape" class="cls-3" d="m56.33,54.13h-30.43l.16-.98c.56-3.5,3.58-6.07,7.12-6.05h3.12l4.8,4.81,4.82-4.81h3.12c3.54-.01,6.56,2.56,7.12,6.05l.16.98h0Zm-37.96,0h-2.71l.39-2.08c.48-2.96,3.04-5.14,6.04-5.13h4.44c-.84.77-1.54,1.69-2.07,2.71h-2.44c-1.69,0-3.14,1.23-3.39,2.9l-.27,1.61Zm10.1-9.47c-4.68,0-7.82-4.68-7.82-9.05-.03-2.08.78-4.09,2.26-5.56,1.43-1.43,3.37-2.23,5.39-2.23h.19c.91,0,1.82.15,2.68.45-.49.78-.89,1.6-1.19,2.47-.49-.14-1-.21-1.52-.22h-.23c-2.7,0-4.88,2.2-4.88,4.9,0,.07,0,.13,0,.2,0,3.05,2.05,6.31,5.11,6.31.83,0,1.63-.26,2.32-.72.4.81.89,1.57,1.44,2.28-1.12.75-2.43,1.14-3.77,1.15h0Zm12.63-.64c-2.19-.04-4.24-1.09-5.55-2.85-1.41-1.82-2.18-4.05-2.18-6.36-.14-4.13,3.09-7.6,7.22-7.74.09,0,.17,0,.26,0h.51c4.13,0,7.49,3.33,7.5,7.47,0,.09,0,.18,0,.27,0,2.31-.76,4.55-2.18,6.37-1.32,1.76-3.38,2.81-5.58,2.85h0Z"/>
  </g>
</svg>