<svg id="Ebene_1" data-name="Ebene 1" xmlns="http://www.w3.org/2000/svg" xmlns:xlink="http://www.w3.org/1999/xlink" viewBox="0 0 128 108"><defs><style>.cls-1{fill:#4aaae2;}.cls-2{fill:url(#Unbenannter_Verlauf_5);}.cls-3{fill:#fff;isolation:isolate;opacity:0.9;}</style><linearGradient id="Unbenannter_Verlauf_5" x1="-134.95" y1="-139.2" x2="-134.95" y2="-189.23" gradientTransform="translate(198.95 222.55)" gradientUnits="userSpaceOnUse"><stop offset="0" stop-color="#53baf2"/><stop offset="1" stop-color="#7ecbf5"/></linearGradient></defs><path class="cls-1" d="M51.14,24.43H30.57A2.58,2.58,0,0,0,28,27v6.43H60.14Z"/><path class="cls-2" d="M97.43,33.43H28V81a2.58,2.58,0,0,0,2.57,2.57H97.43A2.58,2.58,0,0,0,100,81V36A2.58,2.58,0,0,0,97.43,33.43Z"/><path class="cls-3" d="M55.26,58.37a8,8,0,0,1,8-8,8.1,8.1,0,0,1,5.53,2.19,1.91,1.91,0,1,0,2.57-2.83,11.84,11.84,0,0,0-19.8,6.68H44.07a1.93,1.93,0,0,0,0,3.86H55.26V58.37ZM82.39,57H71.2v1.93a8,8,0,0,1-13.5,5.78,1.91,1.91,0,1,0-2.57,2.83,11.9,11.9,0,0,0,8.1,3.21,11.78,11.78,0,0,0,11.7-9.9h7.46a2,2,0,0,0,1.92-1.92A1.89,1.89,0,0,0,82.39,57ZM59.11,58.37a4.25,4.25,0,1,0,4.25-4.24A4.28,4.28,0,0,0,59.11,58.37Z"/></svg>