<?xml version="1.0" encoding="UTF-8"?>
<svg id="Ebene_1" data-name="Ebene 1" xmlns="http://www.w3.org/2000/svg" xmlns:xlink="http://www.w3.org/1999/xlink" viewBox="0 0 72 72">
  <defs>
    <style>
      .cls-1 {
        fill: #fff;
        opacity: .9;
      }

      .cls-1, .cls-2, .cls-3, .cls-4 {
        stroke-width: 0px;
      }

      .cls-2 {
        fill: #53baf2;
      }

      .cls-3 {
        fill: url(#Unbenannter_Verlauf_12);
      }

      .cls-4 {
        fill: #317cb3;
        isolation: isolate;
        opacity: .25;
      }
    </style>
    <linearGradient id="Unbenannter_Verlauf_12" data-name="Unbenannter Verlauf 12" x1="-162.95" y1="-157.18" x2="-162.95" y2="-207.21" gradientTransform="translate(198.95 222.55)" gradientUnits="userSpaceOnUse">
      <stop offset="0" stop-color="#53baf2"/>
      <stop offset="1" stop-color="#7ecbf5"/>
    </linearGradient>
  </defs>
  <g id="Icons">
    <g>
      <path class="cls-2" d="m23.14,6.43H2.57c-1.41,0-2.57,1.16-2.57,2.57v6.43h32.14l-9-9Z"/>
      <path class="cls-4" d="m23.14,6.43H2.57c-1.41,0-2.57,1.16-2.57,2.57v6.43h32.14l-9-9Z"/>
      <path class="cls-3" d="m69.43,15.43H0v47.57c0,1.41,1.16,2.57,2.57,2.57h66.86c1.41,0,2.57-1.16,2.57-2.57V18c0-1.41-1.16-2.57-2.57-2.57Z"/>
    </g>
  </g>
  <path class="cls-1" d="m47.76,36.48h-3.92v-4.48c0-4.43-3.42-7.84-7.84-7.84s-7.84,3.42-7.84,7.84v4.48h-3.92c-.62,0-1.12.5-1.12,1.12v16.8c0,.62.5,1.12,1.12,1.12h23.53c.62,0,1.12-.5,1.12-1.12v-16.8c0-.62-.5-1.12-1.12-1.12Zm-10.64,9.24v4.77c0,.31-.25.56-.56.56h-1.13c-.31,0-.56-.25-.56-.56v-4.77c-.83-.41-1.4-1.26-1.4-2.25,0-1.39,1.13-2.52,2.52-2.52s2.52,1.13,2.52,2.52c0,.99-.57,1.83-1.4,2.25Zm4.48-9.24h-11.2v-4.48c0-3.19,2.41-5.6,5.6-5.6s5.6,2.41,5.6,5.6v4.48Z"/>
</svg>