<svg id="Ebene_1" data-name="Ebene 1" xmlns="http://www.w3.org/2000/svg" xmlns:xlink="http://www.w3.org/1999/xlink" viewBox="0 0 128 108"><defs><style>.cls-1{fill:#fff;}.cls-2{fill:#53baf2;}.cls-3{fill:#317cb3;isolation:isolate;opacity:0.25;}.cls-4{fill:url(#Unbenannter_Verlauf_12);}.cls-5{opacity:0.9;}</style><linearGradient id="Unbenannter_Verlauf_12" x1="-134.95" y1="-139.18" x2="-134.95" y2="-189.21" gradientTransform="translate(198.95 222.55)" gradientUnits="userSpaceOnUse"><stop offset="0" stop-color="#53baf2"/><stop offset="1" stop-color="#7ecbf5"/></linearGradient></defs><path id="Combined_Shape-2" data-name="Combined Shape-2" class="cls-1" d="M53.71,69.56a3.85,3.85,0,0,1-3.85-3.86V54.77a3.85,3.85,0,0,1,3.85-3.86h2.38L58,47.7H70L72,50.91h2.32a3.85,3.85,0,0,1,3.85,3.86V65.7a3.85,3.85,0,0,1-3.85,3.86ZM51.79,54.77V65.7a1.89,1.89,0,0,0,1.84,1.93H74.29a1.88,1.88,0,0,0,1.92-1.84v-11a1.89,1.89,0,0,0-1.84-1.93H70.81l-1.92-3.21H59.05l-1.93,3.21H53.71a1.88,1.88,0,0,0-1.92,1.85Zm5.78,4.5A6.43,6.43,0,1,1,64,65.7,6.43,6.43,0,0,1,57.57,59.27Zm1.93,0a4.45,4.45,0,1,0,0-.1Zm12.21-3.21A1.29,1.29,0,1,1,73,57.34,1.29,1.29,0,0,1,71.71,56.06Z"/><g id="Icons"><path class="cls-2" d="M51.14,24.43H30.57A2.58,2.58,0,0,0,28,27v6.43H60.14Z"/><path class="cls-3" d="M51.14,24.43H30.57A2.58,2.58,0,0,0,28,27v6.43H60.14Z"/><path class="cls-4" d="M97.43,33.43H28V81a2.58,2.58,0,0,0,2.57,2.57H97.43A2.58,2.58,0,0,0,100,81V36A2.58,2.58,0,0,0,97.43,33.43Z"/></g><g id="icon_device_photo-camera_selected" data-name="icon device photo-camera selected" class="cls-5"><path id="Shape-2" class="cls-1" d="M78,70.5H50a3.9,3.9,0,0,1-2.77-1.15,3.84,3.84,0,0,1-1.14-2.78V51.73A3.88,3.88,0,0,1,47.25,49,3.94,3.94,0,0,1,50,47.81H54l2.62-4.37H71.42L74,47.81H78a3.91,3.91,0,0,1,3.91,3.92h0V66.57A3.91,3.91,0,0,1,78,70.5ZM64,51.44a6.41,6.41,0,1,0,6.41,6.4A6.4,6.4,0,0,0,64,51.44Zm12.22.29A1.75,1.75,0,1,0,78,53.48,1.74,1.74,0,0,0,76.22,51.73Z"/></g></svg>