<svg id="Ebene_1" data-name="Ebene 1" xmlns="http://www.w3.org/2000/svg" xmlns:xlink="http://www.w3.org/1999/xlink" viewBox="0 0 128 108"><defs><style>.cls-1{fill:#4aaae2;}.cls-2{fill:url(#Unbenannter_Verlauf_12);}.cls-3{fill:#fff;isolation:isolate;opacity:0.9;}</style><linearGradient id="Unbenannter_Verlauf_12" x1="-126.59" y1="-472.98" x2="-126.59" y2="-422.95" gradientTransform="matrix(1, 0, 0, -1, 190.59, -389.64)" gradientUnits="userSpaceOnUse"><stop offset="0" stop-color="#53baf2"/><stop offset="1" stop-color="#7ecbf5"/></linearGradient></defs><path class="cls-1" d="M51.14,24.43H30.57A2.58,2.58,0,0,0,28,27v6.43H60.14Z"/><path class="cls-2" d="M97.43,33.43H28V81a2.58,2.58,0,0,0,2.57,2.57H97.43A2.58,2.58,0,0,0,100,81V36A2.58,2.58,0,0,0,97.43,33.43Z"/><path class="cls-3" d="M65.8,43.2a.77.77,0,0,0-.51-.13A1.22,1.22,0,0,0,64,44.36V62.61a6.69,6.69,0,1,0,2.57,5.28V50l9.26,4.76V48.6C75.83,48.47,65.93,43.2,65.8,43.2Z"/></svg>
