<?xml version="1.0" encoding="UTF-8" standalone="no"?>
<svg
   id="Ebene_1"
   data-name="Ebene 1"
   viewBox="0 0 16384 11664"
   version="1.1"
   width="16384"
   height="11664"
   xmlns="http://www.w3.org/2000/svg"
   xmlns:svg="http://www.w3.org/2000/svg">
  <defs
     id="defs2782">
    <style
       id="style2773">.cls-1{fill:url(#Unbenannter_Verlauf_21);}.cls-2{fill:#b9ada7;isolation:isolate;opacity:0.7;}.cls-3{fill:#529ad6;}</style>
    <linearGradient
       id="Unbenannter_Verlauf_21"
       x1="-134.95"
       y1="-132.55"
       x2="-134.95"
       y2="-204.42"
       gradientTransform="translate(198.95,222.55)"
       gradientUnits="userSpaceOnUse">
      <stop
         offset="0"
         stop-color="#ddd6d3"
         id="stop2775" />
      <stop
         offset="0.39"
         stop-color="#e9e4e2"
         id="stop2777" />
      <stop
         offset="1"
         stop-color="#e9e4e2"
         id="stop2779" />
    </linearGradient>
  </defs>
  <path
     class="cls-1"
     d="M 93.52,37.38 V 87.43 A 2.58,2.58 0 0 1 91,90 H 37.05 A 2.58,2.58 0 0 1 34.48,87.43 V 20.7 a 2.58,2.58 0 0 1 2.57,-2.57 h 37.22 z"
     id="path2784"
     style="fill:url(#Unbenannter_Verlauf_21)" />
  <path
     class="cls-2"
     d="M 93.52,37.38 H 76.83 A 2.57,2.57 0 0 1 74.27,34.81 V 18.13 Z"
     id="path2786" />
  <path
     d="m 73.584757,47.347458 h 6 v 23.999999 h 1.99999 v 2 h -7.99999 v -2 h 1.99999 v -5.999999 h -7.99999 l -3,5.999999 h 3 v 2 h -8.00002 v -2 h 2.00002 l 12,-23.999999 m 1.99999,1.999999 -7.00001,13.999999 h 7.00001 V 49.347457 m -25.99999,-12 h 9.99998 c 2.22,0 4.00001,1.780001 4.00001,4.000001 v 21.999998 h -6 v -9.999998 h -6 v 9.999998 h -6 V 41.347458 c 0,-2.22 1.78001,-4.000001 4.00001,-4.000001 m 1.99999,4.000001 v 7.999999 h 6 v -7.999999 z"
     fill="#969696"
     id="path2"
     style="fill:#529ad6;fill-opacity:1;stroke-width:2.4" />
</svg>
