<?xml version="1.0" encoding="UTF-8"?>
<svg id="Ebene_1" data-name="Ebene 1" xmlns="http://www.w3.org/2000/svg" xmlns:xlink="http://www.w3.org/1999/xlink" viewBox="0 0 72 72">
  <defs>
    <style>
      .cls-1 {
        fill: #529ad6;
      }

      .cls-1, .cls-2, .cls-3 {
        stroke-width: 0px;
      }

      .cls-2 {
        fill: url(#Unbenannter_Verlauf_17);
      }

      .cls-3 {
        fill: #b9ada7;
        isolation: isolate;
        opacity: .7;
      }
    </style>
    <linearGradient id="Unbenannter_Verlauf_17" data-name="Unbenannter Verlauf 17" x1="-162.95" y1="604.05" x2="-162.95" y2="675.92" gradientTransform="translate(198.95 675.98) scale(1 -1)" gradientUnits="userSpaceOnUse">
      <stop offset="0" stop-color="#ddd6d3"/>
      <stop offset=".39" stop-color="#e9e4e2"/>
      <stop offset="1" stop-color="#e9e4e2"/>
    </linearGradient>
  </defs>
  <path id="path2784" class="cls-2" d="M65.52,19.32v50.05c0,1.4-1.12,2.54-2.52,2.57H9.05c-1.42,0-2.56-1.15-2.57-2.57V2.64c0-1.42,1.15-2.56,2.57-2.57h37.22l19.25,19.25Z"/>
  <path id="path2786" class="cls-3" d="M65.52,19.32h-16.69c-1.42,0-2.56-1.15-2.56-2.57V.06l19.25,19.25Z"/>
  <path id="path2" class="cls-1" d="M45.58,29.28h6v24h2v2h-8v-2h2v-6h-8l-3,6h3v2h-8v-2h2l12-24M47.58,31.28l-7,14h7v-14M21.58,19.28h10c2.22,0,4,1.78,4,4v22h-6v-10h-6v10h-6v-22c0-2.22,1.78-4,4-4M23.58,23.28v8h6v-8h-6Z"/>
</svg>