<?xml version="1.0" encoding="UTF-8"?>
<svg id="Ebene_1" data-name="Ebene 1" xmlns="http://www.w3.org/2000/svg" xmlns:xlink="http://www.w3.org/1999/xlink" viewBox="0 0 72 72">
  <defs>
    <style>
      .cls-1 {
        opacity: .7;
      }

      .cls-2 {
        fill: url(#Unbenannter_Verlauf_13);
      }

      .cls-2, .cls-3, .cls-4 {
        stroke-width: 0px;
      }

      .cls-3 {
        fill: url(#Unbenannter_Verlauf_14);
      }

      .cls-4 {
        fill: #b9ada7;
      }
    </style>
    <linearGradient id="Unbenannter_Verlauf_13" data-name="Unbenannter Verlauf 13" x1="-162.95" y1="-150.55" x2="-162.95" y2="-222.55" gradientTransform="translate(198.95 222.55)" gradientUnits="userSpaceOnUse">
      <stop offset="0" stop-color="#ddd6d3"/>
      <stop offset=".39" stop-color="#e9e4e2"/>
      <stop offset="1" stop-color="#e9e4e2"/>
    </linearGradient>
    <linearGradient id="Unbenannter_Verlauf_14" data-name="Unbenannter Verlauf 14" x1="-163.59" y1="-163.96" x2="-163.59" y2="-202.65" gradientTransform="translate(198.95 222.55)" gradientUnits="userSpaceOnUse">
      <stop offset="0" stop-color="#992c99"/>
      <stop offset="1" stop-color="#b35cb3"/>
    </linearGradient>
  </defs>
  <g id="Icons">
    <g>
      <g>
        <path class="cls-2" d="m65.57,19.29v50.14c0,1.41-1.16,2.57-2.57,2.57H9c-1.41,0-2.57-1.16-2.57-2.57V2.57C6.43,1.16,7.59,0,9,0h37.29l19.29,19.29Z"/>
        <g class="cls-1">
          <path class="cls-4" d="m65.57,19.29h-16.71c-1.41,0-2.57-1.16-2.57-2.57V0l19.29,19.29Z"/>
        </g>
      </g>
      <path class="cls-3" d="m54.39,39.73c.39-.26.39-.64,0-.9,0,0-4.11-3.09-9.9-3.09h-.77c.13-.13.39-.26.51-.51,4.11-4.11,4.89-9.13,4.89-9.13.13-.39-.26-.77-.64-.64,0,0-5.01.77-9.13,4.76-.13.13-.39.39-.51.51v-.64c0-5.79-2.96-9.9-2.96-9.9-.26-.39-.64-.39-.9,0,0,0-3.09,4.11-3.09,9.9v.77c-.13-.13-.26-.39-.51-.51-4.11-4.11-9.13-4.89-9.13-4.89-.39-.13-.77.26-.64.64,0,0,.64,5.01,4.76,9.26.13.13.39.39.51.51h-.64c-5.79,0-9.9,2.96-9.9,2.96-.39.26-.39.64,0,.9,0,0,4.11,3.09,9.9,3.09h.77c-.13.13-.39.26-.51.51-4.11,4.11-4.89,9.13-4.89,9.13-.13.39.26.77.64.64,0,0,5.01-.64,9.13-4.76.13-.13.39-.39.51-.51v.64c0,5.79,2.96,9.9,2.96,9.9.26.39.64.39.9,0,0,0,3.09-4.11,3.09-9.9v-.77c.13.13.26.39.51.51,4.11,4.11,9.13,4.89,9.13,4.89.39,0,.77-.26.64-.64,0,0-.64-5.01-4.76-9.26-.13-.13-.39-.39-.51-.51h.64c5.79.13,9.9-2.96,9.9-2.96Zm-16.84.77c-.77,1.29-2.31,1.67-3.47.9-1.29-.77-1.67-2.31-.9-3.6.77-1.29,2.31-1.67,3.47-.9,1.29.9,1.67,2.44.9,3.6Z"/>
    </g>
  </g>
</svg>