<svg id="Ebene_1" data-name="Ebene 1" xmlns="http://www.w3.org/2000/svg" xmlns:xlink="http://www.w3.org/1999/xlink" viewBox="0 0 128 108"><defs><style>.cls-1{fill:url(#Unbenannter_Verlauf_13);}.cls-2{opacity:0.7;}.cls-3{fill:#b9ada7;}.cls-4{fill:url(#Unbenannter_Verlauf_14);}</style><linearGradient id="Unbenannter_Verlauf_13" x1="-134.95" y1="-132.55" x2="-134.95" y2="-204.55" gradientTransform="translate(198.95 222.55)" gradientUnits="userSpaceOnUse"><stop offset="0" stop-color="#ddd6d3"/><stop offset="0.39" stop-color="#e9e4e2"/><stop offset="1" stop-color="#e9e4e2"/></linearGradient><linearGradient id="Unbenannter_Verlauf_14" x1="-135.59" y1="-145.96" x2="-135.59" y2="-184.65" gradientTransform="translate(198.95 222.55)" gradientUnits="userSpaceOnUse"><stop offset="0" stop-color="#992c99"/><stop offset="1" stop-color="#b35cb3"/></linearGradient></defs><g id="Icons"><path class="cls-1" d="M93.57,37.29V87.43A2.58,2.58,0,0,1,91,90H37a2.58,2.58,0,0,1-2.57-2.57V20.57A2.58,2.58,0,0,1,37,18H74.29Z"/><g class="cls-2"><path class="cls-3" d="M93.57,37.29H76.86a2.58,2.58,0,0,1-2.57-2.58V18Z"/></g><path class="cls-4" d="M82.39,57.73a.5.5,0,0,0,0-.9,18,18,0,0,0-9.9-3.09h-.78c.13-.13.39-.25.52-.51a18.21,18.21,0,0,0,4.88-9.13.51.51,0,0,0-.64-.64,18.62,18.62,0,0,0-9.13,4.75l-.51.52v-.64a18.41,18.41,0,0,0-3-9.9.49.49,0,0,0-.9,0,17.94,17.94,0,0,0-3.08,9.9v.77c-.13-.13-.26-.39-.52-.52a18.17,18.17,0,0,0-9.13-4.88.51.51,0,0,0-.64.64,18,18,0,0,0,4.76,9.26l.51.51h-.64a18.41,18.41,0,0,0-9.9,3,.49.49,0,0,0,0,.9,17.94,17.94,0,0,0,9.9,3.08H55c-.13.13-.39.26-.51.52a18.14,18.14,0,0,0-4.89,9.13.51.51,0,0,0,.64.64,17.32,17.32,0,0,0,9.13-4.76l.52-.51v.64a18.45,18.45,0,0,0,3,9.9.49.49,0,0,0,.9,0,17.91,17.91,0,0,0,3.09-9.9V65.7c.13.13.26.39.51.51a18.18,18.18,0,0,0,9.13,4.89c.39,0,.77-.26.64-.64a17.94,17.94,0,0,0-4.75-9.26l-.52-.51h.65A17.35,17.35,0,0,0,82.39,57.73Zm-16.85.77a2.44,2.44,0,0,1-3.47.9,2.57,2.57,0,0,1-.9-3.6,2.44,2.44,0,0,1,3.47-.9A2.61,2.61,0,0,1,65.54,58.5Z"/></g></svg>