<?xml version="1.0" encoding="UTF-8"?>
<svg id="Ebene_1" data-name="Ebene 1" xmlns="http://www.w3.org/2000/svg" xmlns:xlink="http://www.w3.org/1999/xlink" viewBox="0 0 72 72">
  <defs>
    <style>
      .cls-1 {
        fill: url(#Unbenannter_Verlauf_28);
      }

      .cls-1, .cls-2, .cls-3 {
        stroke-width: 0px;
      }

      .cls-2 {
        fill: #529ad6;
        opacity: .8;
      }

      .cls-2, .cls-3 {
        isolation: isolate;
      }

      .cls-3 {
        fill: #b9ada7;
        opacity: .7;
      }
    </style>
    <linearGradient id="Unbenannter_Verlauf_28" data-name="Unbenannter Verlauf 28" x1="-162.95" y1="-150.55" x2="-162.95" y2="-222.55" gradientTransform="translate(198.95 222.55)" gradientUnits="userSpaceOnUse">
      <stop offset="0" stop-color="#ddd6d3"/>
      <stop offset=".39" stop-color="#e9e4e2"/>
      <stop offset="1" stop-color="#e9e4e2"/>
    </linearGradient>
  </defs>
  <path class="cls-1" d="m65.57,19.29v50.14c0,1.41-1.16,2.57-2.57,2.57H9c-1.41,0-2.57-1.16-2.57-2.57V2.57C6.43,1.16,7.59,0,9,0h37.29l19.29,19.29Z"/>
  <path class="cls-3" d="m65.57,19.29h-16.71c-1.41,0-2.57-1.16-2.57-2.57V0l19.29,19.29Z"/>
  <path class="cls-2" d="m36,24.43c-9.26,0-16.71,7.46-16.71,16.71s7.46,16.71,16.71,16.71,16.71-7.46,16.71-16.71-7.46-16.71-16.71-16.71Zm.64,8.23v-5.66c1.16,0,2.19.26,3.21.51,1.29,1.54,2.31,3.34,3.21,5.14h-6.43Zm6.94,1.29c.77,2.06,1.16,4.24,1.16,6.43h-8.1v-6.43h6.94Zm-8.23-1.29h-6.43c.77-1.8,1.8-3.6,3.21-5.14,1.03-.26,2.06-.51,3.21-.51v5.66h0Zm0,1.29v6.43h-8.1c.13-2.19.51-4.37,1.16-6.43h6.94Zm-9.39,6.56h-4.11c.13-2.31.77-4.5,1.93-6.43h3.34c-.64,1.93-1.03,4.11-1.16,6.43Zm-4.11,1.29h4.11c0,2.19.39,4.37,1.16,6.43h-3.34c-1.16-1.93-1.8-4.11-1.93-6.43Zm5.4,0h8.1v6.43h-6.94c-.64-2.06-1.03-4.24-1.16-6.43Zm8.1,7.71v5.66c-1.16,0-2.19-.26-3.21-.51-1.29-1.54-2.31-3.34-3.09-5.14h6.3Zm1.29,0h6.43c-.77,1.8-1.8,3.6-3.09,5.14-1.03.26-2.19.51-3.21.51v-5.66h-.13Zm0-1.29v-6.43h8.1c0,2.19-.51,4.37-1.16,6.43h-6.94Zm9.39-6.43h4.11c-.13,2.31-.77,4.5-1.93,6.43h-3.34c.77-2.06,1.16-4.24,1.16-6.43Zm0-1.29c-.13-2.19-.51-4.37-1.16-6.43h3.34c1.16,1.93,1.8,4.11,1.93,6.43h-4.11Zm1.29-7.84h-2.96c-.64-1.54-1.41-2.96-2.31-4.24,2.19,1.03,3.99,2.44,5.27,4.24Zm-17.36-4.24c-.9,1.41-1.67,2.83-2.31,4.24h-2.96c1.41-1.8,3.21-3.21,5.27-4.24Zm-5.27,21.09h2.96c.64,1.54,1.41,2.96,2.31,4.37-2.19-1.03-3.99-2.57-5.27-4.37Zm17.49,4.37c.9-1.41,1.67-2.83,2.31-4.37h2.96c-1.41,1.8-3.21,3.34-5.27,4.37Z"/>
</svg>