<svg id="Ebene_1" data-name="Ebene 1" xmlns="http://www.w3.org/2000/svg" xmlns:xlink="http://www.w3.org/1999/xlink" viewBox="0 0 128 108"><defs><style>.cls-1{fill:url(#Unbenannter_Verlauf_28);}.cls-2{fill:#b9ada7;opacity:0.7;}.cls-2,.cls-3{isolation:isolate;}.cls-3{fill:#529ad6;opacity:0.8;}</style><linearGradient id="Unbenannter_Verlauf_28" x1="-134.95" y1="-132.55" x2="-134.95" y2="-204.55" gradientTransform="translate(198.95 222.55)" gradientUnits="userSpaceOnUse"><stop offset="0" stop-color="#ddd6d3"/><stop offset="0.39" stop-color="#e9e4e2"/><stop offset="1" stop-color="#e9e4e2"/></linearGradient></defs><path class="cls-1" d="M93.57,37.29V87.43A2.58,2.58,0,0,1,91,90H37a2.58,2.58,0,0,1-2.57-2.57V20.57A2.58,2.58,0,0,1,37,18H74.29Z"/><path class="cls-2" d="M93.57,37.29H76.86a2.58,2.58,0,0,1-2.57-2.58V18Z"/><path class="cls-3" d="M64,42.43A16.72,16.72,0,1,0,80.71,59.14,16.68,16.68,0,0,0,64,42.43Zm.64,8.23V45a13.3,13.3,0,0,1,3.22.51,27.08,27.08,0,0,1,3.21,5.15Zm7,1.28a18.4,18.4,0,0,1,1.15,6.43h-8.1V51.94Zm-8.23-1.28H56.93a18.3,18.3,0,0,1,3.21-5.15A13.3,13.3,0,0,1,63.36,45v5.66Zm0,1.28v6.43h-8.1a27.28,27.28,0,0,1,1.15-6.43ZM54,58.5H49.86a13.92,13.92,0,0,1,1.93-6.43h3.34A25.07,25.07,0,0,0,54,58.5Zm-4.11,1.29H54a18.32,18.32,0,0,0,1.16,6.42H51.79A13.84,13.84,0,0,1,49.86,59.79Zm5.4,0h8.1v6.42h-7A27.11,27.11,0,0,1,55.26,59.79Zm8.1,7.71v5.66a12.83,12.83,0,0,1-3.22-.52,21.06,21.06,0,0,1-3.08-5.14Zm1.28,0h6.43A21.06,21.06,0,0,1,68,72.64a13.86,13.86,0,0,1-3.22.52V67.5Zm0-1.29V59.79h8.1a21.84,21.84,0,0,1-1.15,6.42ZM74,59.79h4.11a13.84,13.84,0,0,1-1.93,6.42H72.87A18.32,18.32,0,0,0,74,59.79Zm0-1.29a27.2,27.2,0,0,0-1.16-6.43h3.34a13.92,13.92,0,0,1,1.93,6.43Zm1.28-7.84h-3A22.78,22.78,0,0,0,70,46.41,13.26,13.26,0,0,1,75.31,50.66ZM58,46.41a35.64,35.64,0,0,0-2.32,4.25h-3A15.35,15.35,0,0,1,58,46.41ZM52.69,67.5h3A29,29,0,0,0,58,71.87,13.53,13.53,0,0,1,52.69,67.5Zm17.48,4.37a29,29,0,0,0,2.32-4.37h3A15.69,15.69,0,0,1,70.17,71.87Z"/></svg>