<?xml version="1.0" encoding="UTF-8"?>
<svg id="Ebene_1" data-name="Ebene 1" xmlns="http://www.w3.org/2000/svg" xmlns:xlink="http://www.w3.org/1999/xlink" viewBox="0 0 72 72">
  <defs>
    <style>
      .cls-1 {
        fill: #f05c51;
      }

      .cls-1, .cls-2, .cls-3 {
        stroke-width: 0px;
      }

      .cls-2 {
        fill: url(#Unbenannter_Verlauf_16);
      }

      .cls-3 {
        fill: #b9ada7;
        isolation: isolate;
        opacity: .7;
      }
    </style>
    <linearGradient id="Unbenannter_Verlauf_16" data-name="Unbenannter Verlauf 16" x1="-162.95" y1="-150.55" x2="-162.95" y2="-222.42" gradientTransform="translate(198.95 222.55)" gradientUnits="userSpaceOnUse">
      <stop offset="0" stop-color="#ddd6d3"/>
      <stop offset=".39" stop-color="#e9e4e2"/>
      <stop offset="1" stop-color="#e9e4e2"/>
    </linearGradient>
  </defs>
  <path class="cls-2" d="m65.52,19.38v50.05c0,1.41-1.16,2.57-2.57,2.57H9.05c-1.41,0-2.57-1.16-2.57-2.57V2.7C6.48,1.28,7.64.13,9.05.13h37.22l19.25,19.25Z"/>
  <path class="cls-3" d="m65.52,19.38h-16.68c-1.41,0-2.57-1.16-2.57-2.57V.13l19.25,19.25Z"/>
  <path class="cls-1" d="m26.37,32.47c-.64-.26-1.54-.39-2.82-.39h-4.88v15.4h3.34v-5.52h1.67c1.54,0,2.82-.39,3.72-1.03,1.28-.9,1.93-2.31,1.93-4.11,0-1.03-.26-1.93-.64-2.7-.64-.64-1.28-1.28-2.31-1.67Zm-.9,6.29c-.39.39-.9.64-1.8.64h-1.54v-4.36h1.41c.77,0,1.41.13,1.8.51.51.39.64.9.64,1.67,0,.64-.13,1.16-.51,1.54Zm10.27-6.55h-4.75v15.4h4.75c.9,0,1.8-.13,2.44-.26,1.03-.26,1.8-.77,2.57-1.54,1.41-1.41,2.05-3.34,2.05-5.9,0-2.7-.77-4.62-2.18-6.03-1.16-1.16-2.82-1.67-4.88-1.67Zm2.57,11.68c-.51.51-1.41.9-2.57.9h-1.54v-9.75h1.41c1.28,0,2.18.39,2.82,1.16.64.9,1.03,2.05,1.03,3.59.13,1.93-.39,3.21-1.16,4.11Zm15.66-8.86v-2.82h-9.37v15.4h3.21v-6.29h5.26v-2.7h-5.26v-3.59h6.16Z"/>
</svg>