<svg id="Ebene_1" data-name="Ebene 1" xmlns="http://www.w3.org/2000/svg" xmlns:xlink="http://www.w3.org/1999/xlink" viewBox="0 0 128 108"><defs><style>.cls-1{fill:url(#Unbenannter_Verlauf_7);}.cls-2{fill:#b9ada7;isolation:isolate;opacity:0.7;}.cls-3{fill:url(#Unbenannter_Verlauf_8);}</style><linearGradient id="Unbenannter_Verlauf_7" x1="-134.95" y1="-132.55" x2="-134.95" y2="-204.55" gradientTransform="translate(198.95 222.55)" gradientUnits="userSpaceOnUse"><stop offset="0" stop-color="#ddd6d3"/><stop offset="0.39" stop-color="#e9e4e2"/><stop offset="1" stop-color="#e9e4e2"/></linearGradient><linearGradient id="Unbenannter_Verlauf_8" x1="-135.14" y1="-143.17" x2="-135.14" y2="-186.89" gradientTransform="translate(198.95 222.55)" gradientUnits="userSpaceOnUse"><stop offset="0" stop-color="#2c7abe"/><stop offset="1" stop-color="#5099d5"/></linearGradient></defs><path class="cls-1" d="M93.57,37.29V87.43A2.58,2.58,0,0,1,91,90H37a2.58,2.58,0,0,1-2.57-2.57V20.57A2.58,2.58,0,0,1,37,18H74.29"/><path class="cls-2" d="M93.57,37.29H76.86a2.58,2.58,0,0,1-2.57-2.58V18"/><path class="cls-3" d="M45.23,56.44l12.21,6.05v-3l-9-4.37,9-4.37v-3l-12.21,6Zm13.5,11.19H61l7.59-23.79H66.31Zm11.44-19.8v3l9,4.37-9,4.37v3l12.22-6.05V53.87Z"/></svg>