<svg id="Ebene_1" data-name="Ebene 1" xmlns="http://www.w3.org/2000/svg" xmlns:xlink="http://www.w3.org/1999/xlink" viewBox="0 0 128 108"><defs><style>.cls-1{fill:url(#Unbenannter_Verlauf_26);}.cls-2{fill:#b9ada7;isolation:isolate;opacity:0.7;}.cls-3{fill:#77787b;}</style><linearGradient id="Unbenannter_Verlauf_26" x1="-126.59" y1="-169.84" x2="-126.59" y2="-97.84" gradientTransform="matrix(1, 0, 0, -1, 190.59, -79.84)" gradientUnits="userSpaceOnUse"><stop offset="0" stop-color="#ddd6d3"/><stop offset="0.39" stop-color="#e9e4e2"/><stop offset="1" stop-color="#e9e4e2"/></linearGradient></defs><path class="cls-1" d="M93.57,37.29V87.43A2.58,2.58,0,0,1,91,90H37a2.58,2.58,0,0,1-2.57-2.57V20.57A2.58,2.58,0,0,1,37,18H74.29Z"/><path class="cls-2" d="M93.57,37.29H76.86a2.58,2.58,0,0,1-2.57-2.58V18Z"/><path class="cls-3" d="M78,43.71H50a1.43,1.43,0,0,0-1.42,1.42v28A1.42,1.42,0,0,0,50,74.57H78a1.42,1.42,0,0,0,1.42-1.41v-28A1.43,1.43,0,0,0,78,43.71ZM53.71,72H51.14V69.43h2.57Zm0-5.79H51.14V63.64h2.57Zm0-5.78H51.14V57.86h2.57Zm0-5.79H51.14V52.07h2.57Zm0-5.78H51.14V46.29h2.57ZM71.71,72H56.29V60.43H71.71Zm0-14.14H56.29V46.29H71.71ZM76.86,72H74.29V69.43h2.57Zm0-5.79H74.29V63.64h2.57Zm0-5.78H74.29V57.86h2.57Zm0-5.79H74.29V52.07h2.57Zm0-5.78H74.29V46.29h2.57Z"/></svg>