<?xml version="1.0" encoding="UTF-8"?>
<svg id="Ebene_1" data-name="Ebene 1" xmlns="http://www.w3.org/2000/svg" xmlns:xlink="http://www.w3.org/1999/xlink" viewBox="0 0 72 72">
  <defs>
    <style>
      .cls-1 {
        fill: #7ecbf5;
      }

      .cls-1, .cls-2, .cls-3, .cls-4, .cls-5 {
        stroke-width: 0px;
      }

      .cls-2 {
        fill: url(#Unbenannter_Verlauf_32);
      }

      .cls-3 {
        fill: url(#Unbenannter_Verlauf_31);
      }

      .cls-4 {
        fill: #808083;
        opacity: .6;
      }

      .cls-4, .cls-5 {
        isolation: isolate;
      }

      .cls-5 {
        fill: #55565a;
        opacity: .8;
      }
    </style>
    <linearGradient id="Unbenannter_Verlauf_32" data-name="Unbenannter Verlauf 32" x1="-1665.23" y1="3473.33" x2="-1665.23" y2="3643.27" gradientTransform="translate(-1285.27 3712.26) rotate(45) scale(1 -1)" gradientUnits="userSpaceOnUse">
      <stop offset="0" stop-color="#a6a6ae"/>
      <stop offset="1" stop-color="#dadae2"/>
    </linearGradient>
    <linearGradient id="Unbenannter_Verlauf_31" data-name="Unbenannter Verlauf 31" x1="-1642.89" y1="3530.21" x2="-1732.66" y2="3619.99" gradientTransform="translate(-1285.27 3712.26) rotate(45) scale(1 -1)" gradientUnits="userSpaceOnUse">
      <stop offset="0" stop-color="#53baf2"/>
      <stop offset="1" stop-color="#7ecbf5"/>
    </linearGradient>
  </defs>
  <path class="cls-2" d="m11.99,69.26c-3.16,3.16-7.82,3.66-10.36,1.12-2.54-2.54-2.04-7.21,1.12-10.36l31.54-31.54c3.16-3.16,7.82-3.66,10.36-1.12,2.54,2.54,2.04,7.21-1.12,10.36l-31.54,31.54Z"/>
  <path class="cls-4" d="m27.2,35.56l11.96-11.96,9.24,9.24-11.96,11.96-9.24-9.24Z"/>
  <path class="cls-5" d="m3.77,58.98l8.82-8.82,9.24,9.24-8.82,8.82-9.24-9.24Z"/>
  <path class="cls-3" d="m56.63,41.8c-4.88,4.88-12.86,4.88-17.74,0l-8.68-8.68c-4.88-4.88-4.88-12.86,0-17.74l11.71-11.71c4.88-4.88,12.86-4.88,17.74,0l8.68,8.68c4.88,4.88,4.88,12.86,0,17.74l-11.71,11.71Z"/>
  <path class="cls-1" d="m29.42,16.15l2.33-2.33,26.43,26.43-2.33,2.33-26.43-26.43Z"/>
</svg>