<svg id="Ebene_1" data-name="Ebene 1" xmlns="http://www.w3.org/2000/svg" xmlns:xlink="http://www.w3.org/1999/xlink" viewBox="0 0 128 108"><defs><style>.cls-1{fill:url(#Unbenannter_Verlauf_32);}.cls-2{fill:#808083;opacity:0.6;}.cls-2,.cls-3{isolation:isolate;}.cls-3{fill:#55565a;opacity:0.8;}.cls-4{fill:url(#Unbenannter_Verlauf_31);}.cls-5{fill:#7ecbf5;}</style><linearGradient id="Unbenannter_Verlauf_32" x1="-2129.47" y1="4679.7" x2="-2129.47" y2="4849.64" gradientTransform="matrix(0.71, 0.71, 0.71, -0.71, -1782.03, 4911.56)" gradientUnits="userSpaceOnUse"><stop offset="0" stop-color="#a6a6ae"/><stop offset="1" stop-color="#dadae2"/></linearGradient><linearGradient id="Unbenannter_Verlauf_31" x1="-2107.12" y1="4736.58" x2="-2196.9" y2="4826.35" gradientTransform="matrix(0.71, 0.71, 0.71, -0.71, -1782.03, 4911.56)" gradientUnits="userSpaceOnUse"><stop offset="0" stop-color="#53baf2"/><stop offset="1" stop-color="#7ecbf5"/></linearGradient></defs><path class="cls-1" d="M40,87.26c-3.16,3.15-7.82,3.66-10.37,1.12s-2-7.21,1.12-10.37L62.28,46.47c3.16-3.15,7.82-3.66,10.37-1.11s2,7.2-1.12,10.36Z"/><path class="cls-2" d="M55.2,53.56l12-12,9.24,9.24-12,12Z"/><path class="cls-3" d="M31.77,77l8.82-8.81,9.24,9.24L41,86.23Z"/><path class="cls-4" d="M84.63,59.8a12.58,12.58,0,0,1-17.74,0L58.2,51.11a12.58,12.58,0,0,1,0-17.74L69.91,21.66a12.58,12.58,0,0,1,17.74,0l8.69,8.69a12.58,12.58,0,0,1,0,17.74Z"/><path class="cls-5" d="M57.42,34.15l2.33-2.32L86.17,58.25l-2.32,2.33Z"/></svg>