<svg id="Ebene_1" data-name="Ebene 1" xmlns="http://www.w3.org/2000/svg" xmlns:xlink="http://www.w3.org/1999/xlink" viewBox="0 0 128 108"><defs><style>.cls-1{fill:url(#Unbenannter_Verlauf_25);}.cls-2{fill:#b9ada7;isolation:isolate;opacity:0.7;}.cls-3{fill:#529ad6;}</style><linearGradient id="Unbenannter_Verlauf_25" x1="-134.95" y1="-132.55" x2="-134.95" y2="-204.55" gradientTransform="translate(198.95 222.55)" gradientUnits="userSpaceOnUse"><stop offset="0" stop-color="#ddd6d3"/><stop offset="0.39" stop-color="#e9e4e2"/><stop offset="1" stop-color="#e9e4e2"/></linearGradient></defs><path class="cls-1" d="M93.57,37.29V87.43A2.58,2.58,0,0,1,91,90H37a2.58,2.58,0,0,1-2.57-2.57V20.57A2.58,2.58,0,0,1,37,18H74.29Z"/><path class="cls-2" d="M93.57,37.29H76.86a2.58,2.58,0,0,1-2.57-2.58V18Z"/><path class="cls-3" d="M77.5,43.71h-27a2,2,0,0,0-1.93,1.93v1.93H79.43V45.64A2,2,0,0,0,77.5,43.71ZM48.57,72.64a2,2,0,0,0,1.93,1.93h27a2,2,0,0,0,1.93-1.93V50.14H48.57v22.5ZM53.71,54H74.29v2.57H53.71Zm0,6.43H74.29V63H53.71Zm0,6.43H66.57v2.57H53.71Z"/></svg>