<?xml version="1.0" encoding="UTF-8"?>
<svg id="Ebene_1" data-name="Ebene 1" xmlns="http://www.w3.org/2000/svg" xmlns:xlink="http://www.w3.org/1999/xlink" viewBox="0 0 72 72">
  <defs>
    <style>
      .cls-1 {
        fill: #6c6c6c;
      }

      .cls-1, .cls-2, .cls-3, .cls-4, .cls-5 {
        stroke-width: 0px;
      }

      .cls-2 {
        fill: url(#Unbenannter_Verlauf);
      }

      .cls-3 {
        fill: #529ad6;
      }

      .cls-4 {
        fill: #a4a4a4;
      }

      .cls-5 {
        fill: #b9ada7;
        isolation: isolate;
        opacity: .7;
      }
    </style>
    <linearGradient id="Unbenannter_Verlauf" data-name="Unbenannter Verlauf" x1="36" y1="405.21" x2="36" y2="333.21" gradientTransform="translate(0 -333.21)" gradientUnits="userSpaceOnUse">
      <stop offset="0" stop-color="#ddd6d3"/>
      <stop offset=".39" stop-color="#e9e4e2"/>
      <stop offset="1" stop-color="#e9e4e2"/>
    </linearGradient>
  </defs>
  <path class="cls-2" d="m65.57,19.29v50.14c0,1.41-1.16,2.57-2.57,2.57H9c-1.41,0-2.57-1.16-2.57-2.57V2.57C6.43,1.16,7.59,0,9,0h37.29l19.29,19.29Z"/>
  <path class="cls-5" d="m65.57,19.29h-16.71c-1.41,0-2.57-1.16-2.57-2.57V0l19.29,19.29Z"/>
  <path class="cls-3" d="m38.57,45h5.14v14.14h-5.14v-14.14Zm-10.29-5.14h5.14v19.29h-5.14v-19.29Zm20.57,0h5.14v19.29h-5.14v-19.29Zm-30.86,9h5.14v10.29h-5.14v-10.29Z"/>
  <path class="cls-4" d="m20.57,42.3c-.26,0-.64-.13-.9-.39-.51-.51-.51-1.29-.13-1.8l11.06-12.47,10.54,7.84,9.51-7.2c.51-.39,1.41-.26,1.8.26s.26,1.41-.26,1.8l-11.06,8.23-10.16-7.59-9.51,10.67c-.26.51-.64.64-.9.64Z"/>
  <path class="cls-1" d="m33.56,29.44c0,1.54-1.16,2.7-2.7,2.7s-2.7-1.16-2.7-2.7,1.16-2.7,2.7-2.7c1.41,0,2.7,1.16,2.7,2.7Zm20.57,0c0,1.54-1.16,2.7-2.7,2.7s-2.7-1.16-2.7-2.7,1.16-2.7,2.7-2.7c1.41,0,2.7,1.16,2.7,2.7Z"/>
  <circle class="cls-1" cx="41.14" cy="37.16" r="2.7"/>
  <path class="cls-1" d="m23.27,41.01c0,1.54-1.16,2.7-2.7,2.7s-2.7-1.16-2.7-2.7,1.16-2.7,2.7-2.7c1.41,0,2.7,1.16,2.7,2.7Z"/>
</svg>