<?xml version="1.0" encoding="UTF-8"?>
<svg width="24px" height="24px" viewBox="0 0 24 24" version="1.1" xmlns="http://www.w3.org/2000/svg" xmlns:xlink="http://www.w3.org/1999/xlink">
    <title>icon/action/circle-add/default@svg</title>
    <g id="icon/action/circle-add/default" stroke="none" stroke-width="1" fill="none" fill-rule="evenodd">
        <path d="M12,0.999999954 C18.1,0.999999954 23,5.89999997 23,12 C23,18.1 18.1,23 12,23 C5.89999997,23 0.999999954,18.1 0.999999954,12 C0.999999954,5.89999997 5.89999997,0.999999954 12,0.999999954 Z M12,2.49999996 C6.74999998,2.49999996 2.49999996,6.74999998 2.49999996,12 C2.49999996,17.25 6.74999998,21.5 12,21.5 C17.25,21.5 21.5,17.25 21.5,12 C21.5,6.74999998 17.25,2.49999996 12,2.49999996 Z M12,6.24999998 C12.4,6.24999998 12.75,6.59999998 12.75,6.99999998 L12.75,6.99999998 L12.75,11.25 L17,11.25 C17.4,11.25 17.75,11.6 17.75,12 C17.75,12.4 17.4,12.75 17,12.75 L17,12.75 L12.75,12.75 L12.75,17 C12.75,17.4 12.4,17.75 12,17.75 C11.6,17.75 11.25,17.4 11.25,17 L11.25,17 L11.25,12.75 L6.99999998,12.75 C6.59999998,12.75 6.24999998,12.4 6.24999998,12 C6.24999998,11.6 6.59999998,11.25 6.99999998,11.25 L6.99999998,11.25 L11.25,11.25 L11.25,6.99999998 C11.25,6.59999998 11.6,6.24999998 12,6.24999998 Z" id="Combined-Shape" fill="#262626"></path>
    </g>
</svg>