<?xml version="1.0" encoding="UTF-8"?>
<svg width="24px" height="24px" viewBox="0 0 24 24" version="1.1" xmlns="http://www.w3.org/2000/svg" xmlns:xlink="http://www.w3.org/1999/xlink">
    <title>icon/device/computer/default@svg</title>
    <defs>
        <path d="M24,17 C24,18.1 23.1,19 22,19 L22,19 L1.99999995,19 C0.899999954,19 -4.99999366e-08,18.1 -4.99999366e-08,17 L-4.99999366e-08,17 Z M18.5,3.49999996 C20.15,3.49999996 21.5,4.84999997 21.5,6.49999996 L21.5,6.49999996 L21.5,15.5 L20,15.5 L20,6.49999996 C20,5.64999997 19.35,4.99999996 18.5,4.99999996 L18.5,4.99999996 L5.49999996,4.99999996 C4.64999997,4.99999996 3.99999996,5.64999997 3.99999996,6.49999996 L3.99999996,6.49999996 L3.99999996,15.5 L2.49999996,15.5 L2.49999996,6.49999996 C2.49999996,4.84999997 3.84999997,3.49999996 5.49999996,3.49999996 L5.49999996,3.49999996 Z M7.49999998,7.74999998 L11.15,11.3 L9.49999998,11.15 L10.5,13.55 L9.54999999,13.95 L8.54999999,11.55 L7.49999998,12.85 L7.49999998,7.74999998 Z" id="path-1"></path>
    </defs>
    <g id="icon/device/computer/default" stroke="none" stroke-width="1" fill="none" fill-rule="evenodd">
        <mask id="mask-2" fill="white">
            <use xlink:href="#path-1"></use>
        </mask>
        <use id="Combined-Shape" fill="#262626" xlink:href="#path-1"></use>
    </g>
</svg>