<?xml version="1.0" encoding="UTF-8"?>
<svg width="24px" height="24px" viewBox="0 0 24 24" version="1.1" xmlns="http://www.w3.org/2000/svg" xmlns:xlink="http://www.w3.org/1999/xlink">
    <title>icon/action/remove/default@svg</title>
    <g id="icon/action/remove/default" stroke="none" stroke-width="1" fill="none" fill-rule="evenodd">
        <path d="M16,0.499999952 L16,3.49999995 L21.5,3.49999995 C21.9,3.49999995 22.25,3.84999997 22.25,4.24999997 C22.25,4.64999997 21.9,4.99999995 21.5,4.99999995 L21.5,4.99999995 L20.45,4.99999995 L19.65,20.65 C19.55,22.25 18.25,23.5 16.65,23.5 L16.65,23.5 L7.39999998,23.5 C5.79999997,23.5 4.49999997,22.25 4.39999997,20.65 L4.39999997,20.65 L3.54999996,4.99999995 L2.49999996,4.99999995 C2.09999996,4.99999995 1.74999996,4.64999997 1.74999996,4.24999997 C1.74999996,3.84999997 2.09999996,3.49999995 2.49999996,3.49999995 L2.49999996,3.49999995 L7.99999998,3.49999995 L7.99999998,0.499999952 L16,0.499999952 Z M18.95,4.99999997 L5.04999997,4.99999997 L5.89999997,20.6 C5.94999997,21.4 6.59999998,22 7.39999998,22 L7.39999998,22 L16.6,22 C17.4,22 18.05,21.4 18.1,20.6 L18.1,20.6 L18.95,4.99999997 Z M12,7.74999998 C12.4,7.74999998 12.75,8.09999998 12.75,8.49999999 L12.75,8.49999999 L12.75,18.5 C12.75,18.9 12.4,19.25 12,19.25 C11.6,19.25 11.25,18.9 11.25,18.5 L11.25,18.5 L11.25,8.49999999 C11.25,8.09999998 11.6,7.74999998 12,7.74999998 Z M15.5,7.74999998 C15.9,7.74999998 16.25,8.09999998 16.25,8.49999999 L16.25,8.49999999 L16.25,18.5 C16.25,18.9 15.9,19.25 15.5,19.25 C15.1,19.25 14.75,18.9 14.75,18.5 L14.75,18.5 L14.75,8.49999999 C14.75,8.09999998 15.1,7.74999998 15.5,7.74999998 Z M8.49999999,7.74999998 C8.89999999,7.74999998 9.24999998,8.09999998 9.24999998,8.49999999 L9.24999998,8.49999999 L9.24999998,18.5 C9.24999998,18.9 8.89999999,19.25 8.49999999,19.25 C8.09999998,19.25 7.74999998,18.9 7.74999998,18.5 L7.74999998,18.5 L7.74999998,8.49999999 C7.74999998,8.09999998 8.09999998,7.74999998 8.49999999,7.74999998 Z M14.5,1.99999996 L9.49999999,1.99999996 L9.49999999,3.49999996 L14.5,3.49999996 L14.5,1.99999996 Z" id="Combined-Shape" fill="#262626"></path>
    </g>
</svg>