<?xml version="1.0" encoding="UTF-8"?>
<svg width="24px" height="24px" viewBox="0 0 24 24" version="1.1" xmlns="http://www.w3.org/2000/svg" xmlns:xlink="http://www.w3.org/1999/xlink">
    <title>icon/device/device-phone/default@svg</title>
    <g id="icon/device/device-phone/default" stroke="none" stroke-width="1" fill="none" fill-rule="evenodd">
        <path d="M16,0.499999952 C17.65,0.499999952 19,1.84999996 19,3.49999995 L19,3.49999995 L19,20.5 C19,22.15 17.65,23.5 16,23.5 L16,23.5 L7.99999997,23.5 C6.34999998,23.5 4.99999997,22.15 4.99999997,20.5 L4.99999997,20.5 L4.99999997,3.49999995 C4.99999997,1.84999996 6.34999998,0.499999952 7.99999997,0.499999952 L7.99999997,0.499999952 Z M9.99999998,1.99999996 L7.99999998,1.99999996 C7.14999998,1.99999996 6.49999998,2.64999996 6.49999998,3.49999996 L6.49999998,3.49999996 L6.49999998,20.5 C6.49999998,21.35 7.14999998,22 7.99999998,22 L7.99999998,22 L16,22 C16.85,22 17.5,21.35 17.5,20.5 L17.5,20.5 L17.5,3.49999996 C17.5,2.64999996 16.85,1.99999996 16,1.99999996 L16,1.99999996 L14,1.99999996 L14,3.49999996 L9.99999998,3.49999996 L9.99999998,1.99999996 Z M12,18.5 C12.6903559,18.5 13.25,19.0596441 13.25,19.75 C13.25,20.440356 12.6903559,21 12,21 C11.3096441,21 10.75,20.440356 10.75,19.75 C10.75,19.0596441 11.3096441,18.5 12,18.5 Z" id="Combined-Shape" fill="#262626"></path>
    </g>
</svg>