<?xml version="1.0" encoding="UTF-8"?>
<svg width="24px" height="24px" viewBox="0 0 24 24" version="1.1" xmlns="http://www.w3.org/2000/svg" xmlns:xlink="http://www.w3.org/1999/xlink">
    <title>01_24px/icon/communication/mail-opened/default</title>
    <g id="icon/communication/mail-opened/default" stroke="none" stroke-width="1" fill="none" fill-rule="evenodd">
        <path d="M20,6.1445 L20,3.5 L16.9045,3.5 L14.524,1.4665 C13.061,0.2175 10.939,0.2175 9.476,1.4665 L7.0955,3.5 L4,3.5 L4,6.1445 L0.5,9.134 L0.5,20.5 C0.5,22.1545 1.8455,23.5 3.5,23.5 L20.5,23.5 C22.1545,23.5 23.5,22.1545 23.5,20.5 L23.5,9.134 L20,6.1445 Z M5.5,5 L18.5,5 L18.5,11.7985 L12,15.393 L5.5,11.7985 L5.5,5 Z M22,20.5 C22,21.327 21.327,22 20.5,22 L3.5,22 C2.673,22 2,21.327 2,20.5 L2,11.577 L12,17.107 L22,11.577 L22,20.5 Z M9,9 L15,9 C15.414,9 15.75,8.6645 15.75,8.25 C15.75,7.8355 15.414,7.5 15,7.5 L9,7.5 C8.586,7.5 8.25,7.8355 8.25,8.25 C8.25,8.6645 8.586,9 9,9 Z M15.75,11.25 C15.75,10.8355 15.414,10.5 15,10.5 L9,10.5 C8.586,10.5 8.25,10.8355 8.25,11.25 C8.25,11.6645 8.586,12 9,12 L15,12 C15.414,12 15.75,11.6645 15.75,11.25 Z" id="Shape" fill="#000000"></path>
    </g>
</svg>