<?xml version="1.0" encoding="UTF-8"?>
<svg xmlns="http://www.w3.org/2000/svg" version="1.1" viewBox="0 0 195.5 155.4">
  <defs>
    <style>
      .cls-1 {
        fill-rule: evenodd;
        opacity: .3;
      }

      .cls-2 {
        fill: #fff;
      }

      .cls-3 {
        fill: none;
      }

      .cls-4 {
        fill: #e20074;
      }

      .cls-5 {
        fill: #dedede;
      }
    </style>
  </defs>
  <!-- Generator: Adobe Illustrator 28.7.1, SVG Export Plug-In . SVG Version: 1.2.0 Build 142)  -->
  <g>
    <g id="Ebene_1">
      <path class="cls-4" d="M5.4,0h184.6c.4,0,.7,0,1.1.1.4,0,.7.2,1,.3.3.1.6.3.9.5.3.2.6.4.8.7.3.3.5.5.7.8.2.3.4.6.5.9.1.3.2.7.3,1s.1.7.1,1.1v144.5c0,.4,0,.7-.1,1.1s-.2.7-.3,1c-.1.3-.3.6-.5.9-.2.3-.4.6-.7.8-.3.3-.5.5-.8.7s-.6.4-.9.5c-.3.1-.7.2-1,.3-.4,0-.7.1-1.1.1H5.4c-.4,0-.7,0-1.1-.1s-.7-.2-1-.3c-.3-.1-.6-.3-.9-.5-.3-.2-.6-.4-.8-.7-.3-.3-.5-.5-.7-.8-.2-.3-.4-.6-.5-.9-.1-.3-.2-.7-.3-1s-.1-.7-.1-1.1V5.4c0-.4,0-.7.1-1.1s.2-.7.3-1c.1-.3.3-.6.5-.9.2-.3.4-.6.7-.8.3-.3.5-.5.8-.7.3-.2.6-.4.9-.5.3-.1.7-.2,1-.3s.7-.1,1.1-.1Z"/>
      <path class="cls-2" d="M10.4,25.2h173.2c.3,0,.5,0,.8,0s.5.1.7.2c.2,0,.5.2.7.4s.4.3.6.5c.2.2.3.4.5.6.1.2.3.4.4.7,0,.2.2.5.2.7,0,.3,0,.5,0,.8v114.8c0,.3,0,.5,0,.8s-.1.5-.2.7c0,.2-.2.5-.4.7-.1.2-.3.4-.5.6-.2.2-.4.3-.6.5-.2.1-.4.3-.7.4-.2,0-.5.2-.7.2-.3,0-.5,0-.8,0H10.4c-.3,0-.5,0-.8,0-.3,0-.5-.1-.7-.2-.2,0-.5-.2-.7-.4-.2-.1-.4-.3-.6-.5-.2-.2-.3-.4-.5-.6-.1-.2-.3-.4-.4-.7,0-.2-.2-.5-.2-.7,0-.3,0-.5,0-.8V29.2c0-.3,0-.5,0-.8,0-.3.1-.5.2-.7,0-.2.2-.5.4-.7.1-.2.3-.4.5-.6.2-.2.4-.3.6-.5.2-.1.4-.3.7-.4.2,0,.5-.2.7-.2.3,0,.5,0,.8,0Z"/>
      <path class="cls-5" d="M13.9,54.9h39.6c.4,0,.8,0,1.1.2s.7.4,1,.6c.3.3.5.6.6,1,.2.4.2.7.2,1.1,0,.4,0,.8-.2,1.1s-.4.7-.6,1c-.3.3-.6.5-1,.6-.4.2-.7.2-1.1.2H13.9c-.4,0-.8,0-1.1-.2-.4-.2-.7-.4-1-.6s-.5-.6-.6-1c-.2-.4-.2-.7-.2-1.1,0-.4,0-.8.2-1.1.2-.4.4-.7.6-1,.3-.3.6-.5,1-.6.4-.2.7-.2,1.1-.2Z"/>
      <path class="cls-5" d="M13.9,62.9h39.6c.4,0,.8,0,1.1.2.4.2.7.4,1,.6.3.3.5.6.6,1s.2.7.2,1.1c0,.4,0,.8-.2,1.1s-.4.7-.6,1c-.3.3-.6.5-1,.6s-.7.2-1.1.2H13.9c-.4,0-.8,0-1.1-.2-.4-.2-.7-.4-1-.6-.3-.3-.5-.6-.6-1-.2-.4-.2-.7-.2-1.1,0-.4,0-.8.2-1.1.2-.4.4-.7.6-1,.3-.3.6-.5,1-.6.4-.2.7-.2,1.1-.2Z"/>
      <path class="cls-5" d="M13.9,31.2h39.6c.4,0,.8,0,1.1.2.4.2.7.4,1,.6.3.3.5.6.6,1,.2.4.2.7.2,1.1,0,.4,0,.8-.2,1.1-.2.4-.4.7-.6,1-.3.3-.6.5-1,.6-.4.2-.7.2-1.1.2H13.9c-.4,0-.8,0-1.1-.2-.4-.2-.7-.4-1-.6s-.5-.6-.6-1c-.2-.4-.2-.7-.2-1.1,0-.4,0-.8.2-1.1.2-.4.4-.7.6-1s.6-.5,1-.6c.4-.2.7-.2,1.1-.2Z"/>
      <path class="cls-5" d="M13.9,94.5h39.6c.4,0,.8,0,1.1.2.4.2.7.4,1,.6.3.3.5.6.6,1s.2.7.2,1.1c0,.4,0,.8-.2,1.1s-.4.7-.6,1c-.3.3-.6.5-1,.6s-.7.2-1.1.2H13.9c-.4,0-.8,0-1.1-.2-.4-.2-.7-.4-1-.6s-.5-.6-.6-1c-.2-.4-.2-.7-.2-1.1,0-.4,0-.8.2-1.1.2-.4.4-.7.6-1s.6-.5,1-.6c.4-.2.7-.2,1.1-.2Z"/>
      <path class="cls-5" d="M13.9,70.8h39.6c.4,0,.8,0,1.1.2s.7.4,1,.6c.3.3.5.6.6,1,.2.4.2.7.2,1.1,0,.4,0,.8-.2,1.1-.2.4-.4.7-.6,1-.3.3-.6.5-1,.6s-.7.2-1.1.2H13.9c-.4,0-.8,0-1.1-.2-.4-.2-.7-.4-1-.6-.3-.3-.5-.6-.6-1-.2-.4-.2-.7-.2-1.1,0-.4,0-.8.2-1.1.2-.4.4-.7.6-1,.3-.3.6-.5,1-.6.4-.2.7-.2,1.1-.2Z"/>
      <path class="cls-5" d="M13.9,39.1h39.6c.4,0,.8,0,1.1.2s.7.4,1,.6c.3.3.5.6.6,1,.2.4.2.7.2,1.1,0,.4,0,.8-.2,1.1-.2.4-.4.7-.6,1-.3.3-.6.5-1,.6-.4.2-.7.2-1.1.2H13.9c-.4,0-.8,0-1.1-.2-.4-.2-.7-.4-1-.6-.3-.3-.5-.6-.6-1-.2-.4-.2-.7-.2-1.1,0-.4,0-.8.2-1.1.2-.4.4-.7.6-1s.6-.5,1-.6c.4-.2.7-.2,1.1-.2Z"/>
      <path class="cls-5" d="M13.9,78.7h39.6c.4,0,.8,0,1.1.2.4.2.7.4,1,.6.3.3.5.6.6,1,.2.4.2.7.2,1.1,0,.4,0,.8-.2,1.1s-.4.7-.6,1c-.3.3-.6.5-1,.6s-.7.2-1.1.2H13.9c-.4,0-.8,0-1.1-.2-.4-.2-.7-.4-1-.6-.3-.3-.5-.6-.6-1-.2-.4-.2-.7-.2-1.1,0-.4,0-.8.2-1.1.2-.4.4-.7.6-1,.3-.3.6-.5,1-.6.4-.2.7-.2,1.1-.2Z"/>
      <path class="cls-5" d="M13.9,47h39.6c.4,0,.8,0,1.1.2.4.2.7.4,1,.6.3.3.5.6.6,1s.2.7.2,1.1c0,.4,0,.8-.2,1.1-.2.4-.4.7-.6,1-.3.3-.6.5-1,.6s-.7.2-1.1.2H13.9c-.4,0-.8,0-1.1-.2-.4-.2-.7-.4-1-.6-.3-.3-.5-.6-.6-1-.2-.4-.2-.7-.2-1.1,0-.4,0-.8.2-1.1.2-.4.4-.7.6-1,.3-.3.6-.5,1-.6.4-.2.7-.2,1.1-.2Z"/>
      <path class="cls-5" d="M13.9,86.6h39.6c.4,0,.8,0,1.1.2s.7.4,1,.6c.3.3.5.6.6,1,.2.4.2.7.2,1.1,0,.4,0,.8-.2,1.1s-.4.7-.6,1c-.3.3-.6.5-1,.6-.4.2-.7.2-1.1.2H13.9c-.4,0-.8,0-1.1-.2-.4-.2-.7-.4-1-.6s-.5-.6-.6-1c-.2-.4-.2-.7-.2-1.1,0-.4,0-.8.2-1.1.2-.4.4-.7.6-1,.3-.3.6-.5,1-.6.4-.2.7-.2,1.1-.2Z"/>
      <path class="cls-5" d="M125.7,71.8c2.2,0,4-1.8,4-4s-1.8-4-4-4-4,1.8-4,4,1.8,4,4,4ZM142.6,71.8c-5.2,1.4-11.2,2-16.8,2s-11.7-.6-16.8-2l-1,4c3.7,1,7.9,1.6,11.9,2v25.7h4v-11.9h4v11.9h4v-25.7c4-.3,8.2-1,11.9-2l-1-4Z"/>
      <path class="cls-2" d="M41.1,9.9c.3,0,.5,0,.8.2.2.1.5.2.6.4s.3.4.4.6c.1.2.2.5.2.8,0,.3,0,.5-.2.8-.1.2-.2.5-.4.6s-.4.3-.6.4c-.2.1-.5.2-.8.2s-.5,0-.8-.2c-.2-.1-.5-.2-.6-.4s-.3-.4-.4-.6c-.1-.2-.2-.5-.2-.8s0-.5.2-.8c.1-.2.2-.5.4-.6s.4-.3.6-.4c.2-.1.5-.2.8-.2Z"/>
      <path class="cls-2" d="M51,9.9c.3,0,.5,0,.8.2.2.1.5.2.6.4.2.2.3.4.4.6s.2.5.2.8c0,.3,0,.5-.2.8-.1.2-.2.5-.4.6-.2.2-.4.3-.6.4-.2.1-.5.2-.8.2s-.5,0-.8-.2c-.2-.1-.5-.2-.6-.4-.2-.2-.3-.4-.4-.6-.1-.2-.2-.5-.2-.8,0-.3,0-.5.2-.8s.2-.5.4-.6c.2-.2.4-.3.6-.4.2-.1.5-.2.8-.2Z"/>
      <path class="cls-2" d="M60.9,9.9c.3,0,.5,0,.8.2.2.1.5.2.6.4.2.2.3.4.4.6.1.2.2.5.2.8,0,.3,0,.5-.2.8-.1.2-.2.5-.4.6-.2.2-.4.3-.6.4-.2.1-.5.2-.8.2s-.5,0-.8-.2c-.2-.1-.5-.2-.6-.4s-.3-.4-.4-.6c-.1-.2-.2-.5-.2-.8,0-.3,0-.5.2-.8.1-.2.2-.5.4-.6s.4-.3.6-.4c.2-.1.5-.2.8-.2Z"/>
      <path class="cls-2" d="M70.8,9.9c.3,0,.5,0,.8.2.2.1.5.2.6.4s.3.4.4.6.2.5.2.8,0,.5-.2.8c-.1.2-.2.5-.4.6s-.4.3-.6.4c-.2.1-.5.2-.8.2s-.5,0-.8-.2c-.2-.1-.5-.2-.6-.4s-.3-.4-.4-.6c-.1-.2-.2-.5-.2-.8,0-.3,0-.5.2-.8.1-.2.2-.5.4-.6s.4-.3.6-.4c.2-.1.5-.2.8-.2Z"/>
      <path class="cls-2" d="M80.7,9.9c.3,0,.5,0,.8.2.2.1.5.2.6.4.2.2.3.4.4.6s.2.5.2.8c0,.3,0,.5-.2.8-.1.2-.2.5-.4.6-.2.2-.4.3-.6.4-.2.1-.5.2-.8.2s-.5,0-.8-.2c-.2-.1-.5-.2-.6-.4s-.3-.4-.4-.6c-.1-.2-.2-.5-.2-.8,0-.3,0-.5.2-.8.1-.2.2-.5.4-.6s.4-.3.6-.4c.2-.1.5-.2.8-.2Z"/>
      <path class="cls-2" d="M90.6,9.9c.3,0,.5,0,.8.2.2.1.5.2.6.4s.3.4.4.6c.1.2.2.5.2.8,0,.3,0,.5-.2.8-.1.2-.2.5-.4.6s-.4.3-.6.4c-.2.1-.5.2-.8.2s-.5,0-.8-.2c-.2-.1-.5-.2-.6-.4-.2-.2-.3-.4-.4-.6-.1-.2-.2-.5-.2-.8,0-.3,0-.5.2-.8.1-.2.2-.5.4-.6.2-.2.4-.3.6-.4.2-.1.5-.2.8-.2Z"/>
      <rect class="cls-3" width="195.5" height="155.4"/>
      <path class="cls-2" d="M18.4,13.9h-2.9v-2.9h2.9v2.9ZM15.5,4.5v4.9h.9c0-2.4,1.3-3.9,3.7-3.9h.1v10.3c0,1.4-.6,2-2,2h-.4v1h7.4v-1h-.4c-1.4,0-2-.6-2-2V5.5h.1c2.4,0,3.7,1.4,3.7,3.7h0c0,.1.9.1.9.1v-4.9h-12ZM24.7,13.9h2.9v-2.9h-2.9v2.9Z"/>
      <path class="cls-1" d="M55.4,21.8c3.8,0,6.9,3.1,6.9,6.9v115.8c0,3.8-3.1,6.9-6.9,6.9H9.9c-3.8,0-6.9-3.1-6.9-6.9V28.7c0-3.8,3.1-6.9,6.9-6.9h45.5ZM5.9,0C2.7,0,0,2.7,0,5.9v143.5c0,3.3,2.7,5.9,5.9,5.9h183.6c3.3,0,5.9-2.7,5.9-5.9V5.9c0-3.3-2.7-5.9-5.9-5.9H5.9Z"/>
    </g>
  </g>
</svg>