<?xml version="1.0" encoding="UTF-8"?>
<svg width="24px" height="24px" viewBox="0 0 24 24" version="1.1" xmlns="http://www.w3.org/2000/svg" xmlns:xlink="http://www.w3.org/1999/xlink">
    <title>icon/content/folder/default@svg</title>
    <defs>
        <path d="M7.49999995,2.49999996 C8.54999999,2.49999996 9.49999995,2.94999996 10.2,3.69999997 L10.2,3.69999997 L10.65,4.14999997 C10.9,4.34999997 11.2,4.49999996 11.5,4.49999996 L11.5,4.49999996 L23,4.49999996 L23,19 C23,20.65 21.65,22 20,22 L20,22 L3.99999995,22 C2.34999996,22 0.999999954,20.65 0.999999954,19 L0.999999954,19 L0.999999954,2.49999996 Z M7.49999996,3.99999997 L2.49999996,3.99999997 L2.49999996,19 C2.49999996,19.85 3.14999996,20.5 3.99999996,20.5 L3.99999996,20.5 L20,20.5 C20.85,20.5 21.5,19.85 21.5,19 L21.5,19 L21.5,5.99999997 L11.5,5.99999997 C10.8,5.99999997 10.1,5.69999997 9.59999999,5.14999997 L9.59999999,5.14999997 L9.14999999,4.69999997 C8.69999999,4.24999997 8.09999998,3.99999997 7.49999996,3.99999997 L7.49999996,3.99999997 Z" id="path-1"></path>
    </defs>
    <g id="icon/content/folder/default" stroke="none" stroke-width="1" fill="none" fill-rule="evenodd">
        <mask id="mask-2" fill="white">
            <use xlink:href="#path-1"></use>
        </mask>
        <use id="Combined-Shape" fill="#262626" xlink:href="#path-1"></use>
    </g>
</svg>