<?xml version="1.0" encoding="utf-8"?>
<!-- Generator: Adobe Illustrator 26.0.2, SVG Export Plug-In . SVG Version: 6.00 Build 0)  -->
<svg version="1.1" id="Ebene_1" xmlns="http://www.w3.org/2000/svg" xmlns:xlink="http://www.w3.org/1999/xlink" x="0px" y="0px" width="72" height="72"
	 viewBox="0 0 280 280" style="enable-background:new 0 0 280 280;" xml:space="preserve">
<style type="text/css">
	.st0{fill-rule:evenodd;clip-rule:evenodd;fill:url(#path-2_00000141447370780316395130000012186522157067641478_);}
	.st1{fill:#FFFFFF;}
	.st2{fill:#F9CCE3;}
</style>
<g id="Rectangle">
	
		<linearGradient id="path-2_00000145752608554448257750000006033864488546075059_" gradientUnits="userSpaceOnUse" x1="-539.5643" y1="524.1321" x2="-539.5643" y2="523.1321" gradientTransform="matrix(280 0 0 -280 151218 146757)">
		<stop  offset="0" style="stop-color:#FE319A"/>
		<stop  offset="1" style="stop-color:#E20074"/>
	</linearGradient>
	
		<rect id="path-2_00000068661021764122749440000018221773009255664281_" style="fill-rule:evenodd;clip-rule:evenodd;fill:url(#path-2_00000145752608554448257750000006033864488546075059_);" width="280" height="280"/>
</g>
<path id="Differenzmenge_9" class="st1" d="M122.2,220.1c-19,0-37.3-7.2-51.1-20.3c-2.9,0.7-5.9,1-8.9,1c-5.4,0-10.7-1.1-15.7-3.2
	c-4.8-2-9.1-4.9-12.8-8.6c-3.7-3.7-6.6-8-8.6-12.8c-2.1-5-3.2-10.3-3.2-15.7c0-4.7,0.8-9.3,2.4-13.7c1.5-4.2,3.8-8.2,6.6-11.7
	c2.8-3.5,6.2-6.4,10-8.8c3.9-2.4,8.1-4.1,12.5-5.1c1.2-21.1,18.7-37.6,39.9-37.6c3.8,0,7.7,0.6,11.4,1.6c3.1-4,6.6-7.6,10.4-10.9
	c3.9-3.2,8.1-6,12.6-8.3c4.6-2.3,9.4-4.1,14.4-5.3c5.2-1.2,10.4-1.9,15.7-1.9c8.1,0,16.1,1.4,23.6,4.3c7.3,2.7,14,6.7,19.9,11.8
	c5.9,5,10.8,11,14.7,17.7c3.9,6.8,6.6,14.3,7.9,22.1c4.8,1,9.4,2.8,13.5,5.4c4.1,2.5,7.8,5.7,10.8,9.4c3.1,3.7,5.5,8,7.1,12.5
	c1.7,4.7,2.6,9.7,2.6,14.7c0,5.7-1.1,11.4-3.4,16.7c-2.2,5.1-5.3,9.8-9.2,13.7c-3.9,3.9-8.6,7.1-13.7,9.2c-5.3,2.2-11,3.4-16.7,3.4
	c-1.5,0-3-0.1-4.6-0.2c-3.7,4.1-8.2,7.4-13.2,9.7c-5.2,2.4-10.8,3.6-16.5,3.6c-6.1,0-12.1-1.4-17.5-4v-50.3h33.2L145.9,107
	l-50.8,51.7h33.5v61.2C126.5,220,124.3,220.1,122.2,220.1z"/>
<path id="Differenzmenge_10" class="st2" d="M163.2,170.2v-11.6h22.1l11.3,11.9L163.2,170.2z M128.8,170.6H95l11.4-11.9h22.2v11.9
	L128.8,170.6z"/>
</svg>
