<svg xmlns="http://www.w3.org/2000/svg" width="64.001" height="64">
  <path fill="none" d="M0 0h64.001v64H0z"/>
  <linearGradient id="a" gradientUnits="userSpaceOnUse" x1="32.0025" y1="61.9996" x2="32.0025" y2="2.0004">
    <stop offset="0" stop-color="#e20074"/>
    <stop offset=".2582" stop-color="#e50679"/>
    <stop offset=".596" stop-color="#ef1685"/>
    <stop offset=".9766" stop-color="#fe319a"/>
    <stop offset="1" stop-color="#ff339c"/>
  </linearGradient>
  <path fill="url(#a)" d="M62.002 57.5c0 2.475-2.025 4.5-4.5 4.5h-51c-2.475 0-4.5-2.025-4.5-4.5l.001-51c0-2.475 2.025-4.5 4.5-4.5h50.999c2.475 0 4.5 2.025 4.5 4.5v51z"/>
  <g>
    <path fill="#FEF4F9" d="M48.331 25.356c-1.171-5.915-6.363-10.251-12.504-10.251-4.191 0-8.078 2.057-10.45 5.446a7.2297 7.2297 0 0 0-2.371-.401c-3.643 0-6.668 2.689-7.197 6.186-3.479.721-6.119 3.829-6.119 7.493 0 4.219 3.432 7.651 7.651 7.651.527 0 1.053-.054 1.572-.166 2.704 2.49 6.182 3.853 9.886 3.853.836 0 1.661-.078 2.473-.217V34h-5.251l6.002-6.114L38.024 34H32.772v10.616c1.215-.342 2.384-.84 3.481-1.491a7.989 7.989 0 0 0 3.397.757c2.184 0 4.232-.87 5.739-2.414.3.032.602.05.899.05 4.528 0 8.212-3.683 8.212-8.21.001-3.802-2.583-7.041-6.169-7.952z"/>
  </g>
</svg>
