<svg xmlns="http://www.w3.org/2000/svg" xmlns:xlink="http://www.w3.org/1999/xlink" width="16" height="16" viewBox="0 0 16 16">
  <defs>
    <linearGradient id="linear-gradient" x1="0.5" x2="0.5" y2="1" gradientUnits="objectBoundingBox">
      <stop offset="0" stop-color="#fe319a"/>
      <stop offset="1" stop-color="#e20074"/>
    </linearGradient>
    <clipPath id="clip-Application_logo_180px_1">
      <rect width="16" height="16"/>
    </clipPath>
  </defs>
  <g id="Application_logo_180px_1" data-name="Application logo 180px – 1" clip-path="url(#clip-Application_logo_180px_1)">
    <g id="Gruppe_624" data-name="Gruppe 624">
      <path id="Pfad_499" data-name="Pfad 499" d="M.853,0H15.147A.853.853,0,0,1,16,.853V15.147a.853.853,0,0,1-.853.853H.853A.853.853,0,0,1,0,15.147V.853A.853.853,0,0,1,.853,0Z" fill="url(#linear-gradient)"/>
      <path id="Differenzmenge_9" data-name="Differenzmenge 9" d="M5.345,8.591A3.955,3.955,0,0,1,2.621,7.509a2.163,2.163,0,0,1-.475.053,2.146,2.146,0,0,1-.467-4.24A2.131,2.131,0,0,1,4.411,1.4,3.588,3.588,0,0,1,5.64.382,3.55,3.55,0,0,1,6.408.1,3.574,3.574,0,0,1,10.35,1.8a3.536,3.536,0,0,1,.419,1.18,2.293,2.293,0,0,1-.476,4.537,2.3,2.3,0,0,1-.243-.013A2.132,2.132,0,0,1,7.532,8V5.313H9.3L6.608,2.558,3.9,5.313H5.684V8.577C5.572,8.587,5.458,8.591,5.345,8.591Z" transform="translate(1.707 3.627)" fill="#fff"/>
      <path id="Differenzmenge_10" data-name="Differenzmenge 10" d="M5.417.616H3.648V0H4.815l.6.616ZM1.8.616H0L.609,0H1.8V.616Z" transform="translate(5.59 8.94)" fill="#f2f2f2"/>
    </g>
  </g>
</svg>
