<svg
   width="16"
   height="16"
   viewBox="0 0 16 16"
   version="1.1"
   id="svg17"
   xmlns="http://www.w3.org/2000/svg">
  <path d="M 0.853,0 H 15.147 C 15.618099,0 16,0.38190111 16,0.853 V 15.147 C 16,15.618099 15.618099,16 15.147,16 H 0.853 C 0.38190111,16 0,15.618099 0,15.147 V 0.853 C 0,0.38190111 0.38190111,0 0.853,0 Z M 7.391,12.204 V 8.94 H 5.607 L 8.315,6.185 11.007,8.94 H 9.239 v 2.687 c 0.855997,0.414923 1.883309,0.212561 2.518,-0.496 0.08071,0.0086 0.161827,0.01296 0.243,0.013 2.75881,0.0054 3.175866,-3.969741 0.476,-4.537 C 12.407644,6.1918722 12.265753,5.7922746 12.057,5.427 11.267587,4.0463902 9.6608812,3.3534932 8.115,3.727 7.8489876,3.7910883 7.5912766,3.8857165 7.347,4.009 6.8661071,4.2517704 6.4460516,4.599709 6.118,5.027 4.800707,4.6373411 3.4643059,5.5775179 3.386,6.949 c -2.49838598,0.560223 -2.0934244,4.236962 0.467,4.24 0.159805,-6.6e-5 0.3191107,-0.01784 0.475,-0.053 0.7359126,0.696229 1.7109351,1.083518 2.724,1.082 0.113,0 0.227,-0.004 0.339,-0.014 z" />
</svg>
