<?xml version="1.0" encoding="utf-8"?>
<!-- Generator: Adobe Illustrator 25.4.1, SVG Export Plug-In . SVG Version: 6.00 Build 0)  -->
<svg version="1.1" id="artwork" xmlns="http://www.w3.org/2000/svg" xmlns:xlink="http://www.w3.org/1999/xlink" x="0px" y="0px"
	 viewBox="0 0 270.2 80" style="enable-background:new 0 0 270.2 80;" xml:space="preserve">
<style type="text/css">
	.st0{fill:#A6A6A6;}
	.st1{fill:#FFFFFF;stroke:#FFFFFF;stroke-width:0.4;stroke-miterlimit:10;}
	.st2{fill:#FFFFFF;}
	.st3{fill:url(#SVGID_1_);}
	.st4{fill:url(#SVGID_00000106833933999501881420000005087527428348939938_);}
	.st5{fill:url(#SVGID_00000170238354120440667210000008593655154731909769_);}
	.st6{fill:url(#SVGID_00000062155397002131523090000013232745184130729376_);}
	.st7{opacity:0.2;enable-background:new    ;}
	.st8{opacity:0.12;enable-background:new    ;}
	.st9{opacity:0.25;fill:#FFFFFF;enable-background:new    ;}
</style>
<g>
	<g>
		<path d="M260.2,80h-250c-5.5,0-10-4.5-10-10V10c0-5.5,4.5-10,10-10h250c5.5,0,10,4.5,10,10v60C270.2,75.5,265.7,80,260.2,80z"/>
	</g>
	<g>
		<g>
			<path class="st0" d="M260.2,1.6c4.6,0,8.4,3.8,8.4,8.4v60c0,4.6-3.8,8.4-8.4,8.4h-250c-4.6,0-8.4-3.8-8.4-8.4V10
				c0-4.6,3.8-8.4,8.4-8.4H260.2 M260.2,0h-250c-5.5,0-10,4.5-10,10v60c0,5.5,4.5,10,10,10h250c5.5,0,10-4.5,10-10V10
				C270.2,4.5,265.7,0,260.2,0L260.2,0z"/>
		</g>
	</g>
	<g>
		<path class="st1" d="M95,20.5c0,1.7-0.5,3-1.5,4c-1.1,1.2-2.6,1.8-4.4,1.8c-1.7,0-3.2-0.6-4.4-1.8c-1.2-1.2-1.8-2.7-1.8-4.5
			c0-1.8,0.6-3.3,1.8-4.5c1.2-1.2,2.7-1.8,4.4-1.8c0.9,0,1.7,0.2,2.5,0.5c0.8,0.3,1.4,0.8,1.9,1.3l-1.1,1.1
			c-0.8-0.9-1.9-1.4-3.3-1.4c-1.3,0-2.4,0.4-3.3,1.3c-0.9,0.9-1.4,2-1.4,3.5s0.5,2.6,1.4,3.5c0.9,0.9,2,1.3,3.3,1.3
			c1.3,0,2.5-0.4,3.4-1.3c0.6-0.6,0.9-1.4,1-2.4h-4.4v-1.4H95C95,19.9,95,20.2,95,20.5z"/>
		<path class="st1" d="M104.3,15.5h-5.5v3.8h4.9v1.4h-4.9v3.8h5.5V26h-7V14h7V15.5z"/>
		<path class="st1" d="M110.8,26h-1.5V15.5h-3.4V14h8.2v1.5h-3.4V26z"/>
		<path class="st1" d="M120.1,26V14h1.5v12H120.1z"/>
		<path class="st1" d="M128.5,26h-1.5V15.5h-3.4V14h8.2v1.5h-3.4V26z"/>
		<path class="st1" d="M147.4,24.4c-1.2,1.2-2.6,1.8-4.4,1.8c-1.8,0-3.2-0.6-4.4-1.8c-1.2-1.2-1.8-2.7-1.8-4.4
			c0-1.8,0.6-3.2,1.8-4.4c1.2-1.2,2.6-1.8,4.4-1.8c1.7,0,3.2,0.6,4.4,1.8c1.2,1.2,1.8,2.7,1.8,4.4C149.2,21.8,148.6,23.2,147.4,24.4
			z M139.8,23.4c0.9,0.9,2,1.3,3.3,1.3s2.4-0.4,3.3-1.3c0.9-0.9,1.3-2,1.3-3.4c0-1.4-0.4-2.5-1.3-3.4c-0.9-0.9-2-1.3-3.3-1.3
			s-2.4,0.4-3.3,1.3c-0.9,0.9-1.3,2-1.3,3.4C138.4,21.4,138.9,22.5,139.8,23.4z"/>
		<path class="st1" d="M151.4,26V14h1.9l5.8,9.3h0.1l-0.1-2.3v-7h1.5v12H159l-6.1-9.8h-0.1l0.1,2.3V26H151.4z"/>
	</g>
	<path class="st2" d="M136.5,43.5c-4.7,0-8.5,3.6-8.5,8.5c0,4.9,3.8,8.5,8.5,8.5c4.7,0,8.5-3.6,8.5-8.5
		C145,47.1,141.2,43.5,136.5,43.5z M136.5,57.2c-2.6,0-4.8-2.1-4.8-5.2c0-3.1,2.2-5.2,4.8-5.2s4.8,2.1,4.8,5.2
		C141.3,55,139.1,57.2,136.5,57.2z M117.9,43.5c-4.7,0-8.5,3.6-8.5,8.5c0,4.9,3.8,8.5,8.5,8.5c4.7,0,8.5-3.6,8.5-8.5
		C126.4,47.1,122.6,43.5,117.9,43.5z M117.9,57.2c-2.6,0-4.8-2.1-4.8-5.2c0-3.1,2.2-5.2,4.8-5.2c2.6,0,4.8,2.1,4.8,5.2
		C122.7,55,120.4,57.2,117.9,57.2z M95.7,46.1v3.6h8.6c-0.3,2-0.9,3.5-2,4.5c-1.3,1.3-3.2,2.6-6.7,2.6c-5.3,0-9.5-4.3-9.5-9.6
		s4.2-9.6,9.5-9.6c2.9,0,5,1.1,6.5,2.6l2.5-2.5c-2.2-2.1-5-3.6-9.1-3.6c-7.3,0-13.4,5.9-13.4,13.2c0,7.3,6.1,13.2,13.4,13.2
		c3.9,0,6.9-1.3,9.2-3.7c2.4-2.4,3.1-5.7,3.1-8.4c0-0.8-0.1-1.6-0.2-2.3H95.7z M186.3,48.9c-0.7-1.9-2.9-5.4-7.3-5.4
		c-4.4,0-8,3.4-8,8.5c0,4.8,3.6,8.5,8.4,8.5c3.9,0,6.2-2.4,7.1-3.8l-2.9-1.9c-1,1.4-2.3,2.4-4.2,2.4c-1.9,0-3.3-0.9-4.1-2.6
		l11.4-4.7L186.3,48.9z M174.7,51.8c-0.1-3.3,2.5-5,4.4-5c1.5,0,2.7,0.7,3.2,1.8L174.7,51.8z M165.5,60h3.7V35h-3.7V60z M159.3,45.4
		h-0.1c-0.8-1-2.4-1.9-4.5-1.9c-4.3,0-8.2,3.7-8.2,8.5c0,4.8,3.9,8.5,8.2,8.5c2,0,3.6-0.9,4.5-1.9h0.1v1.2c0,3.3-1.7,5-4.5,5
		c-2.3,0-3.7-1.6-4.3-3l-3.3,1.4c0.9,2.3,3.4,5,7.5,5c4.4,0,8.1-2.6,8.1-8.9V44h-3.5V45.4z M155.1,57.2c-2.6,0-4.7-2.2-4.7-5.1
		c0-3,2.2-5.2,4.7-5.2c2.5,0,4.5,2.2,4.5,5.2C159.6,55,157.6,57.2,155.1,57.2z M203.8,35h-8.9v25h3.7v-9.5h5.2c4.1,0,8.2-3,8.2-7.8
		S208,35,203.8,35z M203.9,47h-5.3v-8.6h5.3c2.8,0,4.4,2.3,4.4,4.3C208.3,44.7,206.7,47,203.9,47z M227,43.5c-2.7,0-5.5,1.2-6.7,3.8
		l3.3,1.4c0.7-1.4,2-1.8,3.4-1.8c1.9,0,3.9,1.2,3.9,3.2v0.3c-0.7-0.4-2.1-1-3.9-1c-3.6,0-7.2,2-7.2,5.6c0,3.3,2.9,5.5,6.2,5.5
		c2.5,0,3.9-1.1,4.8-2.4h0.1V60h3.6v-9.6C234.6,45.9,231.3,43.5,227,43.5z M226.5,57.2c-1.2,0-2.9-0.6-2.9-2.1c0-1.9,2.1-2.7,4-2.7
		c1.6,0,2.4,0.4,3.4,0.8C230.7,55.5,228.7,57.2,226.5,57.2z M247.7,44l-4.3,10.8h-0.1L238.8,44h-4l6.7,15.2l-3.8,8.4h3.9L251.8,44
		H247.7z M214.1,60h3.7V35h-3.7V60z"/>
	<g>
		
			<linearGradient id="SVGID_1_" gradientUnits="userSpaceOnUse" x1="43.808" y1="204.5805" x2="10.2434" y2="171.0158" gradientTransform="matrix(1 0 0 -1 0 222)">
			<stop  offset="0" style="stop-color:#00A0FF"/>
			<stop  offset="6.574450e-03" style="stop-color:#00A1FF"/>
			<stop  offset="0.2601" style="stop-color:#00BEFF"/>
			<stop  offset="0.5122" style="stop-color:#00D2FF"/>
			<stop  offset="0.7604" style="stop-color:#00DFFF"/>
			<stop  offset="1" style="stop-color:#00E3FF"/>
		</linearGradient>
		<path class="st3" d="M21.1,15.1c-0.6,0.6-0.9,1.6-0.9,2.8v44.2c0,1.2,0.3,2.2,0.9,2.8l0.1,0.1L46,40.3V40v-0.3L21.2,14.9
			L21.1,15.1z"/>
		
			<linearGradient id="SVGID_00000128446329163538957370000017358464356666108090_" gradientUnits="userSpaceOnUse" x1="67.8772" y1="181.9971" x2="19.4836" y2="181.9971" gradientTransform="matrix(1 0 0 -1 0 222)">
			<stop  offset="0" style="stop-color:#FFE000"/>
			<stop  offset="0.4087" style="stop-color:#FFBD00"/>
			<stop  offset="0.7754" style="stop-color:#FFA500"/>
			<stop  offset="1" style="stop-color:#FF9C00"/>
		</linearGradient>
		<path style="fill:url(#SVGID_00000128446329163538957370000017358464356666108090_);" d="M54.3,48.6L46,40.3V40v-0.3l8.3-8.3
			l0.2,0.1l9.8,5.6c2.8,1.6,2.8,4.2,0,5.8l-9.8,5.6L54.3,48.6z"/>
		
			<linearGradient id="SVGID_00000162331598917951671850000018323683589731518081_" gradientUnits="userSpaceOnUse" x1="49.8624" y1="177.4078" x2="4.3461" y2="131.8915" gradientTransform="matrix(1 0 0 -1 0 222)">
			<stop  offset="0" style="stop-color:#FF3A44"/>
			<stop  offset="1" style="stop-color:#C31162"/>
		</linearGradient>
		<path style="fill:url(#SVGID_00000162331598917951671850000018323683589731518081_);" d="M54.5,48.4L46,40L21.1,64.9
			c0.9,1,2.4,1.1,4.2,0.1L54.5,48.4"/>
		
			<linearGradient id="SVGID_00000158745243637504045410000009268499358225158045_" gradientUnits="userSpaceOnUse" x1="14.8034" y1="221.6474" x2="35.1283" y2="201.3225" gradientTransform="matrix(1 0 0 -1 0 222)">
			<stop  offset="0" style="stop-color:#32A071"/>
			<stop  offset="6.850000e-02" style="stop-color:#2DA771"/>
			<stop  offset="0.4762" style="stop-color:#15CF74"/>
			<stop  offset="0.8009" style="stop-color:#06E775"/>
			<stop  offset="1" style="stop-color:#00F076"/>
		</linearGradient>
		<path style="fill:url(#SVGID_00000158745243637504045410000009268499358225158045_);" d="M54.5,31.6L25.2,15
			c-1.7-1-3.2-0.9-4.2,0.1L46,40L54.5,31.6z"/>
		<g>
			<path class="st7" d="M54.3,48.3l-29,16.5c-1.6,0.9-3.1,0.9-4,0l0,0l-0.1,0.1l0,0l0.1,0.1l0,0c0.9,0.8,2.4,0.9,4,0l29.2-16.6
				L54.3,48.3z"/>
			<path class="st8" d="M21.1,64.6c-0.6-0.6-0.9-1.6-0.9-2.8v0.3c0,1.2,0.3,2.2,0.9,2.8l0.1-0.1L21.1,64.6z"/>
		</g>
		<path class="st8" d="M64.2,42.6l-10,5.7l0.2,0.2l9.8-5.6c1.4-0.8,2.1-1.8,2.1-2.9l0,0C66.2,40.9,65.5,41.9,64.2,42.6z"/>
		<path class="st9" d="M25.2,15.2l39,22.2c1.3,0.7,2,1.6,2.1,2.6l0,0c0-1-0.7-2.1-2.1-2.9L25.2,15c-2.8-1.6-5.1-0.3-5.1,2.9v0.3
			C20.2,15,22.4,13.7,25.2,15.2z"/>
	</g>
</g>
</svg>
