<?xml version="1.0" encoding="utf-8"?>
<!-- Generator: Adobe Illustrator 25.4.1, SVG Export Plug-In . SVG Version: 6.00 Build 0)  -->
<svg version="1.1" id="livetype" xmlns="http://www.w3.org/2000/svg" xmlns:xlink="http://www.w3.org/1999/xlink" x="0px" y="0px"
	 viewBox="0 0 239.3 80" style="enable-background:new 0 0 239.3 80;" xml:space="preserve">
<style type="text/css">
	.st0{fill:#A6A6A6;}
	.st1{fill:#FFFFFF;}
</style>
<g>
	<g>
		<g>
			<path class="st0" d="M220.3,0H19.1c-0.7,0-1.5,0-2.2,0c-0.6,0-1.2,0-1.8,0c-1.3,0-2.7,0.1-4,0.4C9.7,0.6,8.4,1,7.2,1.6
				C6,2.2,4.9,3,4,4C3,4.9,2.2,6,1.6,7.2C1,8.4,0.6,9.7,0.4,11C0.2,12.4,0,13.7,0,15c0,0.6,0,1.2,0,1.8v46.2c0,0.6,0,1.2,0,1.8
				c0,1.3,0.1,2.7,0.4,4c0.2,1.3,0.6,2.6,1.3,3.8C2.2,74,3,75.1,4,76c0.9,1,2,1.7,3.2,2.4c1.2,0.6,2.5,1,3.8,1.3
				c1.3,0.2,2.7,0.3,4,0.4c0.6,0,1.2,0,1.8,0c0.7,0,1.5,0,2.2,0h201.2c0.7,0,1.4,0,2.2,0c0.6,0,1.2,0,1.8,0c1.3,0,2.7-0.1,4-0.4
				c1.3-0.2,2.6-0.7,3.8-1.3c1.2-0.6,2.3-1.4,3.2-2.4c1-0.9,1.7-2,2.4-3.2c0.6-1.2,1-2.5,1.2-3.8c0.2-1.3,0.3-2.7,0.4-4
				c0-0.6,0-1.2,0-1.8c0-0.7,0-1.4,0-2.2V19.1c0-0.7,0-1.5,0-2.2c0-0.6,0-1.2,0-1.8c0-1.3-0.1-2.7-0.4-4c-0.2-1.3-0.6-2.6-1.2-3.8
				c-1.2-2.4-3.2-4.4-5.6-5.6c-1.2-0.6-2.5-1-3.8-1.3c-1.3-0.2-2.7-0.3-4-0.4c-0.6,0-1.2,0-1.8,0C221.7,0,221,0,220.3,0L220.3,0z"/>
			<path d="M16.9,78.2c-0.6,0-1.2,0-1.8,0c-1.3,0-2.5-0.1-3.7-0.3c-1.2-0.2-2.3-0.6-3.3-1.1c-1-0.5-2-1.2-2.8-2
				C4.4,74,3.7,73,3.2,72c-0.5-1-0.9-2.2-1.1-3.3c-0.2-1.2-0.3-2.5-0.3-3.8c0-0.4,0-1.8,0-1.8V16.9c0,0,0-1.4,0-1.8
				c0-1.3,0.1-2.5,0.3-3.7C2.3,10.2,2.7,9.1,3.2,8c0.5-1,1.2-2,2-2.8C6,4.4,7,3.7,8,3.2c1-0.5,2.2-0.9,3.3-1.1
				c1.2-0.2,2.5-0.3,3.8-0.3l1.8,0h205.5l1.8,0c1.2,0,2.5,0.1,3.7,0.3c1.2,0.2,2.3,0.6,3.3,1.1c2.1,1.1,3.8,2.8,4.8,4.8
				c0.5,1,0.9,2.2,1.1,3.3c0.2,1.2,0.3,2.5,0.3,3.8c0,0.6,0,1.2,0,1.8c0,0.8,0,1.5,0,2.2v41.9c0,0.7,0,1.4,0,2.2c0,0.7,0,1.2,0,1.9
				c0,1.2-0.1,2.5-0.3,3.7c-0.2,1.2-0.6,2.3-1.1,3.3c-0.5,1-1.2,2-2,2.8c-0.8,0.8-1.8,1.5-2.8,2c-1.1,0.5-2.2,0.9-3.3,1.1
				c-1.2,0.2-2.5,0.3-3.7,0.3c-0.6,0-1.2,0-1.8,0l-2.2,0L16.9,78.2z"/>
		</g>
		<g id="_Group_">
			<g id="_Group_2">
				<g id="_Group_3">
					<path id="_Path_" class="st1" d="M49.5,40.6c0-3.4,1.8-6.5,4.7-8.3c-1.8-2.6-4.8-4.2-8-4.3c-3.4-0.4-6.6,2-8.3,2
						c-1.7,0-4.4-2-7.2-1.9c-3.7,0.1-7.1,2.2-8.9,5.5c-3.9,6.7-1,16.5,2.7,22c1.9,2.7,4,5.6,6.9,5.5c2.8-0.1,3.8-1.8,7.2-1.8
						c3.3,0,4.3,1.8,7.2,1.7c3,0,4.9-2.7,6.6-5.3c1.3-1.9,2.4-4,3-6.2C51.8,47.9,49.5,44.4,49.5,40.6z"/>
					<path id="_Path_2" class="st1" d="M44.1,24.4c1.6-1.9,2.4-4.5,2.2-7c-2.5,0.3-4.8,1.4-6.4,3.3c-1.6,1.8-2.4,4.3-2.3,6.7
						C40.1,27.5,42.5,26.4,44.1,24.4z"/>
				</g>
			</g>
			<g>
				<path class="st1" d="M84.6,54.3h-9.5L72.9,61h-4l9-24.8H82L91,61h-4.1L84.6,54.3z M76.1,51.2h7.5l-3.7-10.9h-0.1L76.1,51.2z"/>
				<path class="st1" d="M110.3,51.9c0,5.6-3,9.2-7.6,9.2c-2.3,0.1-4.6-1.1-5.7-3.2H97v9h-3.7V42.9h3.6v3h0.1c1.2-2,3.4-3.3,5.8-3.2
					C107.3,42.7,110.3,46.3,110.3,51.9z M106.5,51.9c0-3.7-1.9-6.1-4.8-6.1c-2.8,0-4.8,2.5-4.8,6.1c0,3.6,1.9,6.1,4.8,6.1
					C104.6,58,106.5,55.6,106.5,51.9z"/>
				<path class="st1" d="M130.2,51.9c0,5.6-3,9.2-7.6,9.2c-2.3,0.1-4.6-1.1-5.7-3.2h-0.1v9h-3.7V42.9h3.6v3h0.1
					c1.2-2,3.4-3.3,5.8-3.2C127.2,42.7,130.2,46.3,130.2,51.9z M126.4,51.9c0-3.7-1.9-6.1-4.8-6.1c-2.8,0-4.8,2.5-4.8,6.1
					c0,3.6,1.9,6.1,4.8,6.1C124.5,58,126.4,55.6,126.4,51.9L126.4,51.9z"/>
				<path class="st1" d="M143.4,54.1c0.3,2.5,2.7,4.1,5.9,4.1c3.1,0,5.4-1.6,5.4-3.8c0-1.9-1.4-3.1-4.6-3.9l-3.2-0.8
					c-4.6-1.1-6.7-3.2-6.7-6.7c0-4.3,3.7-7.2,9-7.2c5.2,0,8.8,2.9,9,7.2h-3.8c-0.2-2.5-2.3-4-5.3-4s-5,1.5-5,3.7
					c0,1.8,1.3,2.8,4.5,3.6l2.7,0.7c5.1,1.2,7.2,3.3,7.2,6.9c0,4.6-3.7,7.6-9.6,7.6c-5.5,0-9.2-2.8-9.5-7.3L143.4,54.1z"/>
				<path class="st1" d="M166.7,38.6v4.3h3.4v2.9h-3.4v10c0,1.6,0.7,2.3,2.2,2.3c0.4,0,0.8,0,1.2-0.1v2.9c-0.7,0.1-1.4,0.2-2.1,0.2
					c-3.7,0-5.1-1.4-5.1-4.9V45.8h-2.6v-2.9h2.6v-4.3H166.7z"/>
				<path class="st1" d="M172.1,51.9c0-5.7,3.4-9.3,8.6-9.3c5.2,0,8.6,3.6,8.6,9.3c0,5.7-3.3,9.3-8.6,9.3
					C175.4,61.2,172.1,57.7,172.1,51.9z M185.5,51.9c0-3.9-1.8-6.2-4.8-6.2s-4.8,2.3-4.8,6.2c0,3.9,1.8,6.2,4.8,6.2
					S185.5,55.9,185.5,51.9L185.5,51.9z"/>
				<path class="st1" d="M192.4,42.9h3.5V46h0.1c0.5-2,2.3-3.3,4.4-3.3c0.4,0,0.9,0,1.3,0.1v3.5c-0.5-0.2-1.1-0.2-1.7-0.2
					c-2.1-0.1-3.8,1.5-3.9,3.6c0,0.2,0,0.4,0,0.6V61h-3.7L192.4,42.9z"/>
				<path class="st1" d="M218.8,55.7c-0.5,3.3-3.7,5.5-7.8,5.5c-5.3,0-8.5-3.5-8.5-9.2c0-5.7,3.3-9.4,8.4-9.4c5,0,8.2,3.4,8.2,8.9
					v1.3h-12.8v0.2c-0.2,2.6,1.7,4.9,4.3,5.1c0.2,0,0.4,0,0.6,0c1.8,0.2,3.5-0.9,4.2-2.5L218.8,55.7z M206.2,50.3h9.1
					c0.1-2.4-1.7-4.5-4.1-4.6c-0.1,0-0.2,0-0.3,0C208.3,45.7,206.2,47.7,206.2,50.3C206.2,50.2,206.2,50.3,206.2,50.3z"/>
			</g>
		</g>
	</g>
	<g id="_Group_4">
		<g>
			<path class="st1" d="M75.6,17.5c2.9-0.2,5.4,2,5.6,4.9c0,0.3,0,0.7,0,1c0,3.8-2.1,6-5.6,6h-4.3V17.5H75.6z M73.2,27.7h2.2
				c2.1,0.1,3.8-1.5,4-3.5c0-0.3,0-0.5,0-0.8c0.3-2.1-1.2-4-3.2-4.2c-0.2,0-0.5,0-0.7,0h-2.2V27.7z"/>
			<path class="st1" d="M83.4,24.9c-0.2-2.3,1.5-4.4,3.8-4.7c2.3-0.2,4.4,1.5,4.7,3.8c0,0.3,0,0.5,0,0.8c0.2,2.3-1.5,4.4-3.8,4.7
				c-2.3,0.2-4.4-1.5-4.7-3.8C83.3,25.4,83.3,25.2,83.4,24.9z M90,24.9c0-2-0.9-3.1-2.4-3.1c-1.5,0-2.4,1.1-2.4,3.1
				c0,2,0.9,3.1,2.4,3.1C89.1,28,90,26.8,90,24.9L90,24.9z"/>
			<path class="st1" d="M103.1,29.4h-1.8l-1.9-6.6h-0.1l-1.9,6.6h-1.8l-2.5-9h1.8l1.6,6.9h0.1l1.9-6.9h1.7l1.9,6.9h0.1l1.6-6.9h1.8
				L103.1,29.4z"/>
			<path class="st1" d="M107.7,20.4h1.7v1.4h0.1c0.5-1.1,1.5-1.7,2.7-1.6c1.6-0.1,3,1.1,3.1,2.7c0,0.2,0,0.4,0,0.6v5.8h-1.8V24
				c0-1.4-0.6-2.2-1.9-2.2c-1.1-0.1-2.1,0.8-2.2,2c0,0.1,0,0.2,0,0.3v5.3h-1.8L107.7,20.4z"/>
			<path class="st1" d="M118.2,16.9h1.8v12.5h-1.8V16.9z"/>
			<path class="st1" d="M122.4,24.9c-0.2-2.3,1.5-4.4,3.8-4.7c2.3-0.2,4.4,1.5,4.7,3.8c0,0.3,0,0.5,0,0.8c0.2,2.3-1.5,4.4-3.8,4.7
				s-4.4-1.5-4.7-3.8C122.4,25.4,122.4,25.2,122.4,24.9z M129.1,24.9c0-2-0.9-3.1-2.4-3.1c-1.5,0-2.4,1.1-2.4,3.1
				c0,2,0.9,3.1,2.4,3.1C128.2,28,129.1,26.8,129.1,24.9z"/>
			<path class="st1" d="M132.8,26.8c0-1.6,1.2-2.6,3.3-2.7l2.4-0.1v-0.8c0-1-0.6-1.5-1.8-1.5c-1,0-1.7,0.4-1.9,1h-1.7
				c0.2-1.5,1.6-2.5,3.7-2.5c2.3,0,3.5,1.1,3.5,3v6.2h-1.7v-1.3h-0.1c-0.6,0.9-1.6,1.5-2.7,1.4c-1.5,0.2-2.8-0.9-3-2.4
				C132.8,27,132.8,26.9,132.8,26.8z M138.6,26.1v-0.8l-2.2,0.1c-1.2,0.1-1.8,0.5-1.8,1.3c0,0.8,0.7,1.3,1.7,1.3
				C137.4,28.2,138.5,27.3,138.6,26.1C138.6,26.1,138.6,26.1,138.6,26.1z"/>
			<path class="st1" d="M142.7,24.9c0-2.8,1.5-4.6,3.7-4.6c1.1-0.1,2.2,0.6,2.8,1.6h0.1v-4.9h1.8v12.5h-1.7V28h-0.1
				c-0.6,1-1.7,1.6-2.8,1.6C144.1,29.5,142.7,27.7,142.7,24.9z M144.5,24.9c0,1.9,0.9,3.1,2.4,3.1c1.5,0,2.4-1.2,2.4-3.1
				c0-1.9-0.9-3.1-2.4-3.1C145.4,21.8,144.5,23,144.5,24.9L144.5,24.9z"/>
			<path class="st1" d="M158.5,24.9c-0.2-2.3,1.5-4.4,3.8-4.7s4.4,1.5,4.7,3.8c0,0.3,0,0.5,0,0.8c0.2,2.3-1.5,4.4-3.8,4.7
				c-2.3,0.2-4.4-1.5-4.7-3.8C158.4,25.4,158.4,25.2,158.5,24.9z M165.1,24.9c0-2-0.9-3.1-2.4-3.1c-1.5,0-2.4,1.1-2.4,3.1
				c0,2,0.9,3.1,2.4,3.1C164.2,28,165.1,26.8,165.1,24.9z"/>
			<path class="st1" d="M169.3,20.4h1.7v1.4h0.1c0.5-1.1,1.5-1.7,2.7-1.6c1.6-0.1,3,1.1,3.1,2.7c0,0.2,0,0.4,0,0.6v5.8h-1.8V24
				c0-1.4-0.6-2.2-1.9-2.2c-1.1-0.1-2.1,0.8-2.2,2c0,0.1,0,0.2,0,0.3v5.3h-1.8V20.4z"/>
			<path class="st1" d="M187,18.1v2.3h2v1.5h-2v4.6c0,0.9,0.4,1.4,1.3,1.4c0.2,0,0.5,0,0.7,0v1.5c-0.3,0.1-0.6,0.1-1,0.1
				c-2,0-2.8-0.7-2.8-2.4v-5.1h-1.4v-1.5h1.4v-2.3H187z"/>
			<path class="st1" d="M191.4,16.9h1.8v5h0.1c0.5-1.1,1.6-1.7,2.7-1.6c1.6-0.1,3,1.2,3.1,2.8c0,0.2,0,0.4,0,0.6v5.8h-1.8V24
				c0-1.4-0.7-2.2-1.9-2.2c-1.2-0.1-2.2,0.8-2.3,1.9c0,0.1,0,0.2,0,0.4v5.3h-1.8L191.4,16.9z"/>
			<path class="st1" d="M209.5,27c-0.5,1.7-2.1,2.8-3.9,2.6c-2.3,0.1-4.1-1.7-4.2-4c0-0.2,0-0.4,0-0.7c-0.3-2.3,1.3-4.4,3.6-4.7
				c0.2,0,0.4,0,0.6,0c2.5,0,4,1.7,4,4.5v0.6h-6.4v0.1c-0.1,1.3,0.9,2.5,2.2,2.6c0.1,0,0.2,0,0.2,0c0.9,0.1,1.7-0.3,2.1-1.1
				L209.5,27z M203.3,24.1h4.5c0.1-1.2-0.8-2.2-2-2.3c-0.1,0-0.1,0-0.2,0C204.3,21.7,203.3,22.7,203.3,24.1
				C203.3,24,203.3,24,203.3,24.1L203.3,24.1z"/>
		</g>
	</g>
</g>
</svg>
